<svg width="486" height="219" viewBox="0 0 486 219" fill="none" xmlns="http://www.w3.org/2000/svg">
<path d="M156.364 21.4298C158.504 21.4298 160.464 21.3698 162.224 21.2698L161.824 22.9898C159.824 23.0898 157.964 23.1498 156.244 23.1498C155.004 23.1498 153.744 23.1298 152.464 23.0898C150.904 23.0498 149.704 22.8298 148.844 22.4098C148.004 21.9898 147.324 21.2698 146.784 20.2498C146.524 21.2298 146.144 22.3498 145.604 23.5698L144.064 23.0098C144.524 22.0098 144.864 21.1498 145.104 20.4098C145.584 18.9498 145.804 17.3298 145.804 14.7698L147.364 14.8498C147.364 15.8698 147.324 16.7898 147.244 17.6098C147.544 18.8298 148.024 19.7098 148.664 20.2498V13.6698H144.764V12.0698H148.244V9.54984H145.404V7.94984H148.244V5.58984L149.924 5.68984V7.94984H152.324V9.54984H149.924V12.0698H152.344V12.7098C153.784 11.4898 154.644 9.94984 154.904 8.06984H152.664V6.46984H160.864C160.864 6.68984 160.804 7.40984 160.704 8.92984C160.644 9.66984 160.604 10.2298 160.604 10.5298C160.484 12.3098 160.064 12.6698 158.124 12.8698L157.124 12.9498L156.564 11.2298L157.464 11.1698C158.564 11.1098 158.864 10.8298 158.924 9.92984C158.964 8.94984 159.004 8.32984 159.024 8.06984H156.464C156.304 9.12984 156.024 10.1298 155.604 11.0498C155.204 11.9498 154.504 12.9298 153.504 13.9698L152.344 12.7898V13.6698H150.344V16.3498H152.504V17.9898H150.344V21.1098C150.924 21.2698 151.704 21.3698 152.644 21.3898C153.484 21.4098 154.724 21.4298 156.364 21.4298ZM160.604 14.0098V19.9898H153.204V14.0098H160.604ZM158.924 18.3898V15.5698H154.864V18.3898H158.924ZM169.431 9.06984L170.871 9.82984C170.391 10.8098 169.751 11.9898 168.931 13.3698C168.111 14.7498 167.511 15.7098 167.091 16.2698C167.771 16.1498 168.751 15.9898 170.051 15.8098L170.071 17.5098L167.851 17.8098C166.851 17.9498 166.171 18.0698 165.791 18.1298C165.451 18.1898 165.111 18.3098 164.971 18.3298L164.571 16.5698C165.031 16.4098 165.231 16.2298 165.551 15.7498C166.131 14.9698 166.751 14.0098 167.411 12.8898L166.511 12.9498C165.691 13.0098 165.271 13.0298 165.211 13.0498C164.971 13.0498 164.731 13.1098 164.511 13.1298L164.091 11.4898C164.391 11.3498 164.631 11.1498 164.831 10.8898C165.131 10.5098 165.571 9.78984 166.111 8.68984C166.671 7.58984 167.131 6.56984 167.491 5.60984L168.971 6.24984C168.591 7.14984 168.111 8.12984 167.571 9.18984C167.031 10.2498 166.611 10.9698 166.311 11.3498C166.651 11.3098 167.331 11.2698 168.331 11.2498C168.751 10.4698 169.131 9.72984 169.431 9.06984ZM172.571 23.2898H170.971V6.84984H180.791V23.2898H179.211V22.1298H172.571V23.2898ZM172.571 13.6098H175.091V8.74984H172.571V13.6098ZM176.651 8.74984V13.6098H179.211V8.74984H176.651ZM175.091 20.2898V15.4498H172.571V20.2898H175.091ZM179.211 15.4498H176.651V20.2898H179.211V15.4498ZM170.351 19.5698L170.371 20.4698L170.411 21.4098L167.231 21.9498L164.051 22.4898L163.851 20.7298C164.351 20.6698 165.451 20.4898 167.131 20.1898C168.831 19.8898 169.891 19.6698 170.351 19.5698ZM188.579 5.78984L190.359 6.36984C189.859 7.92984 189.239 9.40984 188.499 10.7898V23.7298H186.619V13.8898C185.919 14.9098 185.179 15.8498 184.439 16.7098L183.339 15.1098C184.399 13.8298 185.399 12.3498 186.339 10.6898C187.299 9.02984 188.039 7.38984 188.579 5.78984ZM199.539 17.7498L201.339 18.3298C201.319 19.1498 201.239 20.0298 201.099 20.9298C200.819 22.6498 200.279 23.1698 198.239 23.2498C197.619 23.2698 197.139 23.2898 196.779 23.2898C196.439 23.2898 195.939 23.2698 195.299 23.2498C193.219 23.1698 192.519 22.6298 192.519 20.5698V17.3098C191.439 18.0498 190.479 18.6898 189.619 19.1898L188.679 17.4898C189.899 16.7698 191.179 15.9098 192.519 14.8898V5.94984L194.419 6.02984V13.3898C196.359 11.7298 198.039 10.0498 199.479 8.30984L200.879 9.70984C198.819 12.0498 196.659 14.1098 194.419 15.8898V20.1298C194.419 21.1498 194.699 21.3698 195.759 21.4298C195.999 21.4498 196.359 21.4498 196.839 21.4498C197.339 21.4498 197.679 21.4498 197.899 21.4298C199.039 21.3498 199.219 21.2298 199.379 20.2498C199.479 19.5698 199.539 18.7298 199.539 17.7498ZM213.266 18.5498H220.886V20.2698H213.266V23.6298H211.426V20.2698H203.746V18.5498H211.426V16.7298H205.566V8.00984H208.906C208.406 7.26984 207.906 6.62984 207.426 6.06984L208.786 5.10984L209.806 6.30984C210.186 6.76984 210.486 7.16984 210.686 7.48984L210.106 8.00984H213.626C214.006 7.54984 214.386 7.06984 214.766 6.52984C215.166 5.98984 215.486 5.50984 215.706 5.12984L217.266 5.90984C216.906 6.48984 216.426 7.18984 215.826 8.00984H219.066V16.7298H213.266V18.5498ZM207.386 11.5498H211.426V9.62984H207.386V11.5498ZM213.266 9.62984V11.5498H217.206V9.62984H213.266ZM211.426 13.1498H207.386V15.0498H211.426V13.1498ZM217.206 13.1498H213.266V15.0498H217.206V13.1498ZM227.554 23.4098H225.674V6.76984H238.474V23.3898H236.594V22.2298H227.554V23.4098ZM227.554 13.4098H236.594V8.58984H227.554V13.4098ZM236.594 15.2498H227.554V20.3898H236.594V15.2498ZM260.361 21.9898L259.021 23.7098C255.321 20.6498 252.901 17.4098 251.681 13.7298C250.501 17.4298 248.141 20.5698 244.301 23.5098L242.921 21.8898C248.581 17.7498 250.561 14.0698 250.681 7.56984C250.701 7.30984 250.701 6.68984 250.701 5.72984L252.561 5.78984C252.541 5.96984 252.541 6.38984 252.541 7.04984L252.521 8.30984C252.501 8.94984 252.461 9.42984 252.441 9.72984C253.181 14.7898 255.861 18.7098 260.361 21.9898ZM270.709 9.40984H267.589V7.70984H272.229C271.969 6.80984 271.749 6.10984 271.569 5.60984L273.409 5.32984C273.589 5.80984 273.849 6.60984 274.189 7.70984H279.369V9.40984H272.849C271.669 11.0098 270.769 12.0498 270.189 12.5498L275.869 12.3298C275.389 11.7498 274.909 11.2498 274.449 10.8098L275.729 9.74984C276.209 10.2098 276.809 10.8498 277.549 11.6698C278.289 12.4898 278.869 13.1898 279.289 13.7698L278.029 15.0498C277.809 14.7298 277.529 14.3498 277.169 13.8898L276.529 13.9098C276.049 13.9298 274.969 13.9898 273.309 14.0498C271.649 14.1098 270.269 14.1898 269.129 14.2498L267.549 14.3698L267.149 12.8298C267.429 12.7898 267.769 12.6298 268.169 12.3298C268.709 11.9898 269.769 10.7098 270.709 9.40984ZM267.349 8.52984L266.349 10.1698C265.989 9.78984 265.429 9.30984 264.689 8.70984C263.949 8.10984 263.369 7.66984 262.949 7.38984L263.969 5.98984C264.409 6.24984 264.989 6.64984 265.689 7.18984C266.409 7.72984 266.969 8.16984 267.349 8.52984ZM266.549 13.0898L265.609 14.7298C265.149 14.2898 264.569 13.7898 263.869 13.2098C263.169 12.6298 262.589 12.1898 262.129 11.8898L263.109 10.5098C264.209 11.2098 265.609 12.2298 266.549 13.0898ZM268.429 16.6098V15.0298L270.169 15.1098C270.169 15.9098 270.169 16.4898 270.149 16.8698C270.009 20.6498 269.569 21.6098 266.869 24.0298L265.609 22.8098C267.949 20.8898 268.349 20.1698 268.429 16.6098ZM278.889 19.2098L280.329 19.6898C280.309 20.3498 280.269 21.0098 280.169 21.6698C279.989 22.9498 279.489 23.2898 278.189 23.3498H277.089C275.789 23.3298 275.329 22.9298 275.329 21.6498V15.0298L277.009 15.1098V21.2098C277.009 21.6098 277.169 21.7098 277.589 21.7298H277.989C278.489 21.7098 278.629 21.6298 278.709 21.0898C278.809 20.5098 278.869 19.8898 278.889 19.2098ZM273.609 15.1298V23.1498H271.929V15.0698L273.609 15.1298ZM264.849 15.8298L265.749 16.0898L266.509 16.2898C266.389 16.9298 266.069 18.1298 265.529 19.9098C265.009 21.6898 264.629 22.8698 264.369 23.4698L262.569 22.9098C262.829 22.3498 263.229 21.1698 263.789 19.3898C264.369 17.5898 264.709 16.4098 264.849 15.8298ZM284.296 10.9498V6.16984H297.796V10.9498H284.296ZM286.136 8.06984H295.976V7.28984H286.136V8.06984ZM295.976 9.04984H286.136V9.86984H295.976V9.04984ZM299.876 13.0098H282.216V11.8098H299.876V13.0098ZM298.116 19.8898V21.0698H291.936V22.0098H299.456V23.2098H282.636V22.0098H290.176V21.0698H283.976V19.8898H290.176V18.9098H284.296V13.8898H297.796V18.9098H291.936V19.8898H298.116ZM286.116 15.8498H290.176V15.0298H286.116V15.8498ZM291.936 15.0298V15.8498H295.976V15.0298H291.936ZM290.176 16.9498H286.116V17.7698H290.176V16.9498ZM295.976 16.9498H291.936V17.7698H295.976V16.9498ZM310.784 14.5498L309.244 13.5898V15.2698H307.544V5.62984L309.244 5.68984V13.3898C309.904 12.2698 310.524 10.9698 311.104 9.48984C311.684 8.00984 312.124 6.64984 312.384 5.40984L314.184 5.80984C314.004 6.62984 313.804 7.32984 313.624 7.94984H319.284V9.70984H313.024C312.364 11.4898 311.624 13.1098 310.784 14.5498ZM303.584 14.7498V6.36984L305.284 6.44984V14.7498H303.584ZM313.044 11.3898L314.324 10.1698C314.824 10.5498 315.444 11.1498 316.224 11.9298C317.004 12.7098 317.604 13.3698 318.044 13.9098L316.704 15.2498C316.324 14.7498 315.764 14.1098 315.004 13.3298C314.264 12.5498 313.604 11.8898 313.044 11.3898ZM303.964 15.9498H317.484V21.2698H319.684V22.9098H301.824V21.2698H303.964V15.9498ZM308.024 21.2698V17.5898H305.684V21.2698H308.024ZM309.604 17.5898V21.2698H311.864V17.5898H309.604ZM313.444 17.5898V21.2698H315.784V17.5898H313.444ZM322.011 7.06984L322.991 5.78984C323.411 6.08984 323.931 6.50984 324.551 7.02984C325.171 7.52984 325.651 7.96984 326.011 8.34984L324.971 9.84984C324.671 9.46984 324.191 9.00984 323.571 8.44984C322.951 7.86984 322.431 7.40984 322.011 7.06984ZM334.171 21.6498L335.271 21.5698C336.371 21.4898 336.531 21.3698 336.531 20.4298V5.86984L338.031 5.94984V20.9898C338.031 22.7098 337.651 23.0698 335.751 23.2298L334.671 23.3098L334.171 21.6498ZM327.671 18.4098H326.151V6.66984H332.491V18.3498H330.931V8.28984H327.671V18.4098ZM335.211 18.9498H333.731V7.60984L335.211 7.66984V18.9498ZM325.671 23.4698L324.591 22.1698C325.771 21.3098 326.631 20.5698 327.171 19.9298C327.731 19.2698 328.111 18.5498 328.291 17.7698C328.491 16.9698 328.591 15.8898 328.591 14.5098V9.24984L330.071 9.32984V14.5098C330.071 16.1298 329.931 17.4098 329.671 18.3898C329.411 19.3498 328.991 20.1898 328.391 20.9298C327.791 21.6698 326.891 22.5098 325.671 23.4698ZM321.211 11.5498L322.271 10.2698C322.711 10.5898 323.251 11.0298 323.891 11.5898C324.531 12.1298 325.051 12.6098 325.451 13.0098L324.391 14.4898C324.011 14.0498 323.511 13.5498 322.871 12.9698C322.251 12.3898 321.691 11.9098 321.211 11.5498ZM323.111 23.2498L321.531 22.7098C321.791 22.0698 322.171 20.9098 322.631 19.2498C323.111 17.5698 323.411 16.3698 323.531 15.6698L324.331 15.9298L325.071 16.1898C324.911 17.0098 324.611 18.2098 324.171 19.7898C323.731 21.3698 323.371 22.5098 323.111 23.2498ZM329.391 19.6298L330.351 18.5298C331.531 19.5898 332.511 20.6298 333.271 21.6098L332.171 22.8498C331.211 21.5098 330.411 20.5898 329.391 19.6298ZM347.899 17.8698V21.5898L351.859 20.1498L352.079 21.8898C351.699 21.9898 351.019 22.1898 349.999 22.5098L347.359 23.4098C346.779 23.6098 346.359 23.7698 346.099 23.9098L345.459 22.4898C345.919 22.1898 346.139 21.8098 346.139 21.3898V19.0698C345.019 19.7698 343.559 20.5498 341.759 21.3898L340.939 19.6498C344.119 18.3698 346.459 17.0098 348.479 15.2498H341.619V13.7498H349.199V12.1898H343.179V10.6298H349.199V8.98984H342.399V7.44984H349.199V5.54984L350.999 5.62984V7.44984H357.859V8.98984H350.999V10.6298H357.059V12.1898H350.999V13.7498H358.639V15.2498H350.899C351.379 16.3098 351.939 17.1898 352.579 17.9098C353.959 17.1698 355.499 16.2298 356.399 15.5298L357.379 17.0298C356.499 17.6498 355.339 18.3498 353.899 19.1298C355.159 20.0698 356.759 20.7698 359.059 21.4098L358.319 23.0498C353.559 21.4498 351.339 19.7498 349.619 16.4298C349.119 16.8898 348.559 17.3698 347.899 17.8698Z" fill="white"/>
<path d="M34.4619 194.036V192.391H484.548V194.036" stroke="white"/>
<path d="M34.4619 192.391V194.036" stroke="white"/>
<path d="M31.9818 204.163C31.4941 204.163 31.0632 204.076 30.6892 203.904C30.3175 203.728 30.0275 203.488 29.8192 203.183C29.6108 202.875 29.5078 202.525 29.5102 202.132C29.5078 201.824 29.5682 201.54 29.6913 201.279C29.8144 201.017 29.9825 200.798 30.1956 200.622C30.411 200.445 30.6513 200.332 30.9165 200.285V200.242C30.5684 200.152 30.2915 199.957 30.0855 199.657C29.8795 199.353 29.7777 199.009 29.7801 198.623C29.7777 198.254 29.8712 197.924 30.0606 197.632C30.25 197.341 30.5104 197.112 30.8419 196.943C31.1757 196.775 31.5557 196.691 31.9818 196.691C32.4032 196.691 32.7796 196.775 33.1111 196.943C33.4425 197.112 33.7029 197.341 33.8923 197.632C34.0841 197.924 34.1811 198.254 34.1835 198.623C34.1811 199.009 34.0758 199.353 33.8675 199.657C33.6615 199.957 33.3881 200.152 33.0471 200.242V200.285C33.3099 200.332 33.5467 200.445 33.7574 200.622C33.9681 200.798 34.1362 201.017 34.2616 201.279C34.3871 201.54 34.451 201.824 34.4534 202.132C34.451 202.525 34.3445 202.875 34.1338 203.183C33.9255 203.488 33.6354 203.728 33.2638 203.904C32.8944 204.076 32.4671 204.163 31.9818 204.163ZM31.9818 203.382C32.3109 203.382 32.595 203.328 32.8341 203.222C33.0732 203.115 33.2578 202.965 33.3881 202.771C33.5183 202.577 33.5845 202.349 33.5869 202.089C33.5845 201.814 33.5135 201.572 33.3738 201.361C33.2342 201.15 33.0436 200.985 32.8021 200.864C32.563 200.743 32.2896 200.683 31.9818 200.683C31.6717 200.683 31.3947 200.743 31.1508 200.864C30.9094 200.985 30.7188 201.15 30.5791 201.361C30.4418 201.572 30.3743 201.814 30.3767 202.089C30.3743 202.349 30.4371 202.577 30.5649 202.771C30.6951 202.965 30.8809 203.115 31.1224 203.222C31.3639 203.328 31.6504 203.382 31.9818 203.382ZM31.9818 199.93C32.2422 199.93 32.473 199.878 32.6743 199.774C32.8779 199.67 33.0377 199.524 33.1537 199.337C33.2697 199.15 33.3289 198.931 33.3312 198.68C33.3289 198.434 33.2709 198.219 33.1572 198.037C33.0436 197.853 32.8862 197.71 32.6849 197.611C32.4837 197.509 32.2493 197.458 31.9818 197.458C31.7095 197.458 31.4716 197.509 31.268 197.611C31.0644 197.71 30.907 197.853 30.7957 198.037C30.6845 198.219 30.63 198.434 30.6324 198.68C30.63 198.931 30.6856 199.15 30.7993 199.337C30.9153 199.524 31.0751 199.67 31.2787 199.774C31.4823 199.878 31.7166 199.93 31.9818 199.93ZM40.0615 198.623C39.8615 198.623 39.6849 198.557 39.5315 198.423C39.3782 198.283 39.3015 198.1 39.3015 197.873C39.3015 197.647 39.3782 197.467 39.5315 197.333C39.6849 197.193 39.8615 197.123 40.0615 197.123C40.2615 197.123 40.4382 197.193 40.5915 197.333C40.7449 197.467 40.8215 197.647 40.8215 197.873C40.8215 198.1 40.7449 198.283 40.5915 198.423C40.4382 198.557 40.2615 198.623 40.0615 198.623ZM40.0615 203.523C39.8615 203.523 39.6849 203.457 39.5315 203.323C39.3782 203.183 39.3015 203 39.3015 202.773C39.3015 202.54 39.3782 202.357 39.5315 202.223C39.6849 202.083 39.8615 202.013 40.0615 202.013C40.2615 202.013 40.4382 202.083 40.5915 202.223C40.7449 202.357 40.8215 202.54 40.8215 202.773C40.8215 203 40.7449 203.183 40.5915 203.323C40.4382 203.457 40.2615 203.523 40.0615 203.523ZM45.6439 202.572V201.848L48.8399 196.791H49.3655V197.913H49.0104L46.5956 201.734V201.791H50.8996V202.572H45.6439ZM49.0672 204.063V202.352V202.014V196.791H49.9053V204.063H49.0672ZM54.5031 204.163C54.0864 204.163 53.7112 204.08 53.3774 203.914C53.0436 203.749 52.7761 203.521 52.5748 203.233C52.3736 202.944 52.2635 202.615 52.2446 202.245H53.0969C53.13 202.574 53.2791 202.847 53.5443 203.062C53.8118 203.275 54.1314 203.382 54.5031 203.382C54.8014 203.382 55.0666 203.312 55.2986 203.172C55.5329 203.032 55.7164 202.841 55.849 202.597C55.9839 202.351 56.0514 202.072 56.0514 201.762C56.0514 201.445 55.9816 201.162 55.8419 200.914C55.7046 200.663 55.5152 200.465 55.2737 200.321C55.0322 200.176 54.7564 200.103 54.4463 200.1C54.2238 200.098 53.9953 200.132 53.7609 200.203C53.5265 200.272 53.3336 200.361 53.1821 200.47L52.3582 200.37L52.7986 196.791H56.577V197.572H53.5372L53.2815 199.717H53.3241C53.4733 199.599 53.6603 199.5 53.8852 199.422C54.1101 199.344 54.3445 199.305 54.5883 199.305C55.0334 199.305 55.43 199.411 55.778 199.625C56.1283 199.835 56.403 200.124 56.6018 200.491C56.8031 200.858 56.9037 201.277 56.9037 201.748C56.9037 202.212 56.7995 202.626 56.5912 202.991C56.3852 203.353 56.1011 203.64 55.7389 203.85C55.3767 204.059 54.9648 204.163 54.5031 204.163Z" fill="white"/>
<path d="M71.9692 192.391V194.036" stroke="white"/>
<path d="M109.476 192.391V194.036" stroke="white"/>
<path d="M98.1126 196.691C98.4109 196.694 98.7092 196.751 99.0075 196.862C99.3058 196.973 99.5781 197.158 99.8243 197.416C100.07 197.671 100.268 198.021 100.417 198.463C100.566 198.906 100.641 199.461 100.641 200.129C100.641 200.775 100.579 201.349 100.456 201.851C100.336 202.351 100.16 202.772 99.9308 203.115C99.7035 203.459 99.4265 203.719 99.0998 203.897C98.7755 204.074 98.4085 204.163 97.999 204.163C97.5918 204.163 97.2284 204.082 96.9088 203.921C96.5915 203.758 96.3311 203.532 96.1275 203.243C95.9263 202.952 95.7973 202.615 95.7405 202.231H96.6069C96.6851 202.565 96.8401 202.841 97.0721 203.059C97.3065 203.274 97.6155 203.382 97.999 203.382C98.5601 203.382 99.0028 203.137 99.3271 202.647C99.6538 202.157 99.8172 201.464 99.8172 200.569H99.7603C99.6278 200.768 99.4703 200.94 99.288 201.084C99.1058 201.228 98.9033 201.34 98.6808 201.418C98.4583 201.496 98.2215 201.535 97.9706 201.535C97.5539 201.535 97.1716 201.432 96.8236 201.226C96.4779 201.018 96.2009 200.733 95.9926 200.37C95.7866 200.006 95.6836 199.589 95.6836 199.12C95.6836 198.675 95.7831 198.268 95.9819 197.899C96.1832 197.527 96.4649 197.231 96.8271 197.011C97.1917 196.791 97.6202 196.684 98.1126 196.691ZM98.1126 197.473C97.8143 197.473 97.5456 197.547 97.3065 197.696C97.0698 197.843 96.8816 198.042 96.7419 198.293C96.6046 198.541 96.5359 198.817 96.5359 199.12C96.5359 199.423 96.6022 199.699 96.7348 199.948C96.8697 200.194 97.0532 200.39 97.2852 200.537C97.5196 200.682 97.7859 200.754 98.0842 200.754C98.3091 200.754 98.5186 200.71 98.7128 200.622C98.9069 200.532 99.0762 200.411 99.2206 200.257C99.3674 200.1 99.4822 199.924 99.565 199.728C99.6479 199.529 99.6893 199.322 99.6893 199.106C99.6893 198.822 99.6207 198.556 99.4834 198.307C99.3484 198.059 99.1614 197.857 98.9223 197.703C98.6855 197.55 98.4156 197.473 98.1126 197.473ZM106.285 198.623C106.085 198.623 105.908 198.557 105.755 198.423C105.601 198.283 105.525 198.1 105.525 197.873C105.525 197.647 105.601 197.467 105.755 197.333C105.908 197.193 106.085 197.123 106.285 197.123C106.485 197.123 106.661 197.193 106.815 197.333C106.968 197.467 107.045 197.647 107.045 197.873C107.045 198.1 106.968 198.283 106.815 198.423C106.661 198.557 106.485 198.623 106.285 198.623ZM106.285 203.523C106.085 203.523 105.908 203.457 105.755 203.323C105.601 203.183 105.525 203 105.525 202.773C105.525 202.54 105.601 202.357 105.755 202.223C105.908 202.083 106.085 202.013 106.285 202.013C106.485 202.013 106.661 202.083 106.815 202.223C106.968 202.357 107.045 202.54 107.045 202.773C107.045 203 106.968 203.183 106.815 203.323C106.661 203.457 106.485 203.523 106.285 203.523ZM114.41 204.163C113.875 204.163 113.419 204.017 113.042 203.726C112.666 203.433 112.378 203.008 112.18 202.451C111.981 201.893 111.881 201.218 111.881 200.427C111.881 199.641 111.981 198.97 112.18 198.414C112.381 197.855 112.67 197.429 113.046 197.135C113.425 196.839 113.879 196.691 114.41 196.691C114.94 196.691 115.393 196.839 115.77 197.135C116.149 197.429 116.437 197.855 116.636 198.414C116.837 198.97 116.938 199.641 116.938 200.427C116.938 201.218 116.839 201.893 116.64 202.451C116.441 203.008 116.153 203.433 115.777 203.726C115.4 204.017 114.945 204.163 114.41 204.163ZM114.41 203.382C114.94 203.382 115.352 203.126 115.645 202.615C115.939 202.103 116.086 201.374 116.086 200.427C116.086 199.797 116.018 199.261 115.883 198.818C115.751 198.376 115.559 198.038 115.308 197.806C115.06 197.574 114.76 197.458 114.41 197.458C113.884 197.458 113.473 197.718 113.177 198.236C112.881 198.752 112.734 199.483 112.734 200.427C112.734 201.057 112.8 201.592 112.932 202.032C113.065 202.473 113.256 202.808 113.504 203.037C113.755 203.267 114.057 203.382 114.41 203.382ZM120.66 204.163C120.125 204.163 119.669 204.017 119.292 203.726C118.916 203.433 118.628 203.008 118.43 202.451C118.231 201.893 118.131 201.218 118.131 200.427C118.131 199.641 118.231 198.97 118.43 198.414C118.631 197.855 118.92 197.429 119.296 197.135C119.675 196.839 120.129 196.691 120.66 196.691C121.19 196.691 121.643 196.839 122.02 197.135C122.399 197.429 122.687 197.855 122.886 198.414C123.087 198.97 123.188 199.641 123.188 200.427C123.188 201.218 123.089 201.893 122.89 202.451C122.691 203.008 122.403 203.433 122.027 203.726C121.65 204.017 121.195 204.163 120.66 204.163ZM120.66 203.382C121.19 203.382 121.602 203.126 121.895 202.615C122.189 202.103 122.336 201.374 122.336 200.427C122.336 199.797 122.268 199.261 122.133 198.818C122.001 198.376 121.809 198.038 121.558 197.806C121.31 197.574 121.01 197.458 120.66 197.458C120.134 197.458 119.723 197.718 119.427 198.236C119.131 198.752 118.984 199.483 118.984 200.427C118.984 201.057 119.05 201.592 119.182 202.032C119.315 202.473 119.506 202.808 119.754 203.037C120.005 203.267 120.307 203.382 120.66 203.382Z" fill="white"/>
<path d="M146.983 192.391V194.036" stroke="white"/>
<path d="M184.491 192.391V194.036" stroke="white"/>
<path d="M174.073 196.692C174.371 196.695 174.669 196.751 174.967 196.863C175.266 196.974 175.538 197.159 175.784 197.417C176.03 197.672 176.228 198.022 176.377 198.464C176.526 198.907 176.601 199.462 176.601 200.13C176.601 200.776 176.539 201.35 176.416 201.852C176.296 202.352 176.12 202.773 175.891 203.116C175.663 203.46 175.386 203.72 175.06 203.898C174.735 204.075 174.369 204.164 173.959 204.164C173.552 204.164 173.188 204.083 172.869 203.922C172.552 203.759 172.291 203.533 172.087 203.244C171.886 202.953 171.757 202.616 171.7 202.232H172.567C172.645 202.566 172.8 202.842 173.032 203.059C173.266 203.275 173.575 203.383 173.959 203.383C174.52 203.383 174.963 203.138 175.287 202.648C175.614 202.157 175.777 201.465 175.777 200.57H175.72C175.588 200.769 175.43 200.941 175.248 201.085C175.066 201.229 174.863 201.341 174.641 201.419C174.418 201.497 174.181 201.536 173.931 201.536C173.514 201.536 173.132 201.433 172.784 201.227C172.438 201.019 172.161 200.733 171.953 200.371C171.747 200.007 171.644 199.59 171.644 199.121C171.644 198.676 171.743 198.269 171.942 197.9C172.143 197.528 172.425 197.232 172.787 197.012C173.152 196.792 173.58 196.685 174.073 196.692ZM174.073 197.474C173.774 197.474 173.506 197.548 173.266 197.697C173.03 197.844 172.842 198.043 172.702 198.294C172.565 198.542 172.496 198.818 172.496 199.121C172.496 199.424 172.562 199.7 172.695 199.949C172.83 200.195 173.013 200.391 173.245 200.538C173.48 200.683 173.746 200.755 174.044 200.755C174.269 200.755 174.479 200.711 174.673 200.623C174.867 200.533 175.036 200.412 175.181 200.258C175.327 200.101 175.442 199.925 175.525 199.729C175.608 199.53 175.649 199.323 175.649 199.107C175.649 198.823 175.581 198.557 175.443 198.308C175.308 198.059 175.121 197.858 174.882 197.704C174.645 197.55 174.376 197.474 174.073 197.474ZM182.245 198.624C182.045 198.624 181.868 198.558 181.715 198.424C181.561 198.284 181.485 198.101 181.485 197.874C181.485 197.648 181.561 197.468 181.715 197.334C181.868 197.194 182.045 197.124 182.245 197.124C182.445 197.124 182.621 197.194 182.775 197.334C182.928 197.468 183.005 197.648 183.005 197.874C183.005 198.101 182.928 198.284 182.775 198.424C182.621 198.558 182.445 198.624 182.245 198.624ZM182.245 203.524C182.045 203.524 181.868 203.458 181.715 203.324C181.561 203.184 181.485 203.001 181.485 202.774C181.485 202.541 181.561 202.358 181.715 202.224C181.868 202.084 182.045 202.014 182.245 202.014C182.445 202.014 182.621 202.084 182.775 202.224C182.928 202.358 183.005 202.541 183.005 202.774C183.005 203.001 182.928 203.184 182.775 203.324C182.621 203.458 182.445 203.524 182.245 203.524ZM190.554 196.792V204.064H189.674V197.715H189.631L187.855 198.894V197.999L189.674 196.792H190.554ZM194.919 204.164C194.502 204.164 194.127 204.081 193.793 203.915C193.459 203.75 193.192 203.522 192.99 203.233C192.789 202.945 192.679 202.616 192.66 202.246H193.512C193.546 202.575 193.695 202.848 193.96 203.063C194.227 203.276 194.547 203.383 194.919 203.383C195.217 203.383 195.482 203.313 195.714 203.173C195.948 203.033 196.132 202.842 196.265 202.598C196.399 202.352 196.467 202.073 196.467 201.763C196.467 201.446 196.397 201.163 196.257 200.915C196.12 200.664 195.931 200.466 195.689 200.322C195.448 200.177 195.172 200.104 194.862 200.101C194.639 200.099 194.411 200.133 194.176 200.204C193.942 200.273 193.749 200.362 193.598 200.471L192.774 200.371L193.214 196.792H196.992V197.573H193.953L193.697 199.718H193.74C193.889 199.599 194.076 199.501 194.301 199.423C194.526 199.345 194.76 199.306 195.004 199.306C195.449 199.306 195.845 199.412 196.193 199.626C196.544 199.836 196.818 200.125 197.017 200.492C197.219 200.859 197.319 201.278 197.319 201.749C197.319 202.213 197.215 202.627 197.007 202.992C196.801 203.354 196.517 203.641 196.154 203.851C195.792 204.06 195.38 204.164 194.919 204.164Z" fill="white"/>
<path d="M221.998 192.391V194.036" stroke="white"/>
<path d="M259.505 192.391V194.036" stroke="white"/>
<path d="M248.083 196.691C248.381 196.694 248.679 196.751 248.978 196.862C249.276 196.973 249.548 197.158 249.794 197.416C250.041 197.671 250.238 198.021 250.388 198.463C250.537 198.906 250.611 199.461 250.611 200.129C250.611 200.775 250.55 201.349 250.427 201.851C250.306 202.351 250.131 202.772 249.901 203.115C249.674 203.459 249.397 203.719 249.07 203.897C248.746 204.074 248.379 204.163 247.969 204.163C247.562 204.163 247.199 204.082 246.879 203.921C246.562 203.758 246.301 203.532 246.098 203.243C245.897 202.952 245.767 202.615 245.711 202.231H246.577C246.655 202.565 246.81 202.841 247.042 203.059C247.277 203.274 247.586 203.382 247.969 203.382C248.53 203.382 248.973 203.137 249.297 202.647C249.624 202.157 249.787 201.464 249.787 200.569H249.731C249.598 200.768 249.441 200.94 249.258 201.084C249.076 201.228 248.874 201.34 248.651 201.418C248.428 201.496 248.192 201.535 247.941 201.535C247.524 201.535 247.142 201.432 246.794 201.226C246.448 201.018 246.171 200.733 245.963 200.37C245.757 200.006 245.654 199.589 245.654 199.12C245.654 198.675 245.753 198.268 245.952 197.899C246.153 197.527 246.435 197.231 246.797 197.011C247.162 196.791 247.59 196.684 248.083 196.691ZM248.083 197.473C247.785 197.473 247.516 197.547 247.277 197.696C247.04 197.843 246.852 198.042 246.712 198.293C246.575 198.541 246.506 198.817 246.506 199.12C246.506 199.423 246.572 199.699 246.705 199.948C246.84 200.194 247.023 200.39 247.255 200.537C247.49 200.682 247.756 200.754 248.054 200.754C248.279 200.754 248.489 200.71 248.683 200.622C248.877 200.532 249.046 200.411 249.191 200.257C249.338 200.1 249.452 199.924 249.535 199.728C249.618 199.529 249.66 199.322 249.66 199.106C249.66 198.822 249.591 198.556 249.454 198.307C249.319 198.059 249.132 197.857 248.892 197.703C248.656 197.55 248.386 197.473 248.083 197.473ZM256.255 198.623C256.055 198.623 255.878 198.557 255.725 198.423C255.572 198.283 255.495 198.1 255.495 197.873C255.495 197.647 255.572 197.467 255.725 197.333C255.878 197.193 256.055 197.123 256.255 197.123C256.455 197.123 256.632 197.193 256.785 197.333C256.938 197.467 257.015 197.647 257.015 197.873C257.015 198.1 256.938 198.283 256.785 198.423C256.632 198.557 256.455 198.623 256.255 198.623ZM256.255 203.523C256.055 203.523 255.878 203.457 255.725 203.323C255.572 203.183 255.495 203 255.495 202.773C255.495 202.54 255.572 202.357 255.725 202.223C255.878 202.083 256.055 202.013 256.255 202.013C256.455 202.013 256.632 202.083 256.785 202.223C256.938 202.357 257.015 202.54 257.015 202.773C257.015 203 256.938 203.183 256.785 203.323C256.632 203.457 256.455 203.523 256.255 203.523ZM264.465 204.163C263.996 204.163 263.579 204.082 263.212 203.921C262.847 203.76 262.557 203.537 262.342 203.25C262.128 202.961 262.012 202.626 261.994 202.245H262.888C262.907 202.48 262.988 202.682 263.13 202.853C263.272 203.021 263.458 203.151 263.687 203.243C263.917 203.335 264.172 203.382 264.451 203.382C264.763 203.382 265.04 203.327 265.282 203.218C265.523 203.109 265.713 202.958 265.85 202.764C265.987 202.57 266.056 202.345 266.056 202.089C266.056 201.822 265.99 201.586 265.857 201.382C265.725 201.176 265.53 201.015 265.275 200.899C265.019 200.783 264.707 200.725 264.337 200.725H263.755V199.944H264.337C264.626 199.944 264.879 199.892 265.097 199.788C265.317 199.684 265.489 199.537 265.612 199.348C265.738 199.158 265.8 198.936 265.8 198.68C265.8 198.434 265.746 198.219 265.637 198.037C265.528 197.855 265.374 197.713 265.175 197.611C264.979 197.509 264.747 197.458 264.479 197.458C264.228 197.458 263.992 197.505 263.769 197.597C263.549 197.687 263.369 197.818 263.229 197.991C263.09 198.161 263.014 198.367 263.002 198.609H262.15C262.164 198.228 262.279 197.894 262.494 197.608C262.71 197.319 262.991 197.094 263.339 196.933C263.69 196.772 264.074 196.691 264.494 196.691C264.943 196.691 265.329 196.782 265.651 196.965C265.973 197.145 266.221 197.383 266.393 197.679C266.566 197.974 266.653 198.294 266.653 198.637C266.653 199.047 266.545 199.396 266.329 199.685C266.116 199.974 265.826 200.174 265.459 200.285V200.342C265.919 200.418 266.277 200.613 266.535 200.928C266.793 201.24 266.922 201.627 266.922 202.089C266.922 202.484 266.815 202.84 266.599 203.154C266.386 203.467 266.095 203.713 265.726 203.893C265.356 204.073 264.936 204.163 264.465 204.163ZM270.747 204.163C270.212 204.163 269.756 204.017 269.38 203.726C269.003 203.433 268.716 203.008 268.517 202.451C268.318 201.893 268.219 201.218 268.219 200.427C268.219 199.641 268.318 198.97 268.517 198.414C268.718 197.855 269.007 197.429 269.383 197.135C269.762 196.839 270.217 196.691 270.747 196.691C271.277 196.691 271.731 196.839 272.107 197.135C272.486 197.429 272.775 197.855 272.974 198.414C273.175 198.97 273.275 199.641 273.275 200.427C273.275 201.218 273.176 201.893 272.977 202.451C272.778 203.008 272.491 203.433 272.114 203.726C271.738 204.017 271.282 204.163 270.747 204.163ZM270.747 203.382C271.277 203.382 271.689 203.126 271.983 202.615C272.276 202.103 272.423 201.374 272.423 200.427C272.423 199.797 272.356 199.261 272.221 198.818C272.088 198.376 271.896 198.038 271.646 197.806C271.397 197.574 271.097 197.458 270.747 197.458C270.222 197.458 269.811 197.718 269.515 198.236C269.219 198.752 269.071 199.483 269.071 200.427C269.071 201.057 269.137 201.592 269.27 202.032C269.402 202.473 269.593 202.808 269.842 203.037C270.092 203.267 270.394 203.382 270.747 203.382Z" fill="white"/>
<path d="M297.012 192.391V194.036" stroke="white"/>
<path d="M334.52 192.391V194.036" stroke="white"/>
<path d="M323.156 196.691C323.454 196.694 323.752 196.751 324.051 196.862C324.349 196.973 324.621 197.158 324.867 197.416C325.114 197.671 325.311 198.021 325.461 198.463C325.61 198.906 325.684 199.461 325.684 200.129C325.684 200.775 325.623 201.349 325.5 201.851C325.379 202.351 325.204 202.772 324.974 203.115C324.747 203.459 324.47 203.719 324.143 203.897C323.819 204.074 323.452 204.163 323.042 204.163C322.635 204.163 322.272 204.082 321.952 203.921C321.635 203.758 321.374 203.532 321.171 203.243C320.97 202.952 320.84 202.615 320.784 202.231H321.65C321.728 202.565 321.883 202.841 322.115 203.059C322.35 203.274 322.659 203.382 323.042 203.382C323.603 203.382 324.046 203.137 324.37 202.647C324.697 202.157 324.86 201.464 324.86 200.569H324.804C324.671 200.768 324.514 200.94 324.331 201.084C324.149 201.228 323.947 201.34 323.724 201.418C323.501 201.496 323.265 201.535 323.014 201.535C322.597 201.535 322.215 201.432 321.867 201.226C321.521 201.018 321.244 200.733 321.036 200.37C320.83 200.006 320.727 199.589 320.727 199.12C320.727 198.675 320.826 198.268 321.025 197.899C321.226 197.527 321.508 197.231 321.87 197.011C322.235 196.791 322.663 196.684 323.156 196.691ZM323.156 197.473C322.858 197.473 322.589 197.547 322.35 197.696C322.113 197.843 321.925 198.042 321.785 198.293C321.648 198.541 321.579 198.817 321.579 199.12C321.579 199.423 321.645 199.699 321.778 199.948C321.913 200.194 322.096 200.39 322.328 200.537C322.563 200.682 322.829 200.754 323.127 200.754C323.352 200.754 323.562 200.71 323.756 200.622C323.95 200.532 324.119 200.411 324.264 200.257C324.411 200.1 324.525 199.924 324.608 199.728C324.691 199.529 324.733 199.322 324.733 199.106C324.733 198.822 324.664 198.556 324.527 198.307C324.392 198.059 324.205 197.857 323.965 197.703C323.729 197.55 323.459 197.473 323.156 197.473ZM331.328 198.623C331.128 198.623 330.951 198.557 330.798 198.423C330.645 198.283 330.568 198.1 330.568 197.873C330.568 197.647 330.645 197.467 330.798 197.333C330.951 197.193 331.128 197.123 331.328 197.123C331.528 197.123 331.705 197.193 331.858 197.333C332.011 197.467 332.088 197.647 332.088 197.873C332.088 198.1 332.011 198.283 331.858 198.423C331.705 198.557 331.528 198.623 331.328 198.623ZM331.328 203.523C331.128 203.523 330.951 203.457 330.798 203.323C330.645 203.183 330.568 203 330.568 202.773C330.568 202.54 330.645 202.357 330.798 202.223C330.951 202.083 331.128 202.013 331.328 202.013C331.528 202.013 331.705 202.083 331.858 202.223C332.011 202.357 332.088 202.54 332.088 202.773C332.088 203 332.011 203.183 331.858 203.323C331.705 203.457 331.528 203.523 331.328 203.523ZM336.91 202.572V201.848L340.106 196.791H340.632V197.913H340.277L337.862 201.734V201.791H342.166V202.572H336.91ZM340.334 204.063V202.352V202.014V196.791H341.172V204.063H340.334ZM345.769 204.163C345.353 204.163 344.978 204.08 344.644 203.914C344.31 203.749 344.042 203.521 343.841 203.233C343.64 202.944 343.53 202.615 343.511 202.245H344.363C344.396 202.574 344.546 202.847 344.811 203.062C345.078 203.275 345.398 203.382 345.769 203.382C346.068 203.382 346.333 203.312 346.565 203.172C346.799 203.032 346.983 202.841 347.115 202.597C347.25 202.351 347.318 202.072 347.318 201.762C347.318 201.445 347.248 201.162 347.108 200.914C346.971 200.663 346.782 200.465 346.54 200.321C346.299 200.176 346.023 200.103 345.713 200.1C345.49 200.098 345.262 200.132 345.027 200.203C344.793 200.272 344.6 200.361 344.448 200.47L343.625 200.37L344.065 196.791H347.843V197.572H344.804L344.548 199.717H344.59C344.74 199.599 344.927 199.5 345.152 199.422C345.376 199.344 345.611 199.305 345.855 199.305C346.3 199.305 346.696 199.411 347.044 199.625C347.395 199.835 347.669 200.124 347.868 200.491C348.069 200.858 348.17 201.277 348.17 201.748C348.17 202.212 348.066 202.626 347.858 202.991C347.652 203.353 347.367 203.64 347.005 203.85C346.643 204.059 346.231 204.163 345.769 204.163Z" fill="white"/>
<path d="M372.027 192.391V194.036" stroke="white"/>
<path d="M409.534 192.391V194.036" stroke="white"/>
<path d="M395.583 196.791V204.063H394.702V197.714H394.659L392.884 198.893V197.998L394.702 196.791H395.583ZM400.046 204.163C399.511 204.163 399.056 204.017 398.679 203.726C398.303 203.433 398.015 203.008 397.816 202.451C397.617 201.893 397.518 201.218 397.518 200.427C397.518 199.641 397.617 198.97 397.816 198.414C398.018 197.855 398.306 197.429 398.683 197.135C399.062 196.839 399.516 196.691 400.046 196.691C400.577 196.691 401.03 196.839 401.406 197.135C401.785 197.429 402.074 197.855 402.273 198.414C402.474 198.97 402.575 199.641 402.575 200.427C402.575 201.218 402.475 201.893 402.277 202.451C402.078 203.008 401.79 203.433 401.414 203.726C401.037 204.017 400.581 204.163 400.046 204.163ZM400.046 203.382C400.577 203.382 400.989 203.126 401.282 202.615C401.576 202.103 401.723 201.374 401.723 200.427C401.723 199.797 401.655 199.261 401.52 198.818C401.388 198.376 401.196 198.038 400.945 197.806C400.696 197.574 400.397 197.458 400.046 197.458C399.521 197.458 399.11 197.718 398.814 198.236C398.518 198.752 398.37 199.483 398.37 200.427C398.37 201.057 398.437 201.592 398.569 202.032C398.702 202.473 398.892 202.808 399.141 203.037C399.392 203.267 399.694 203.382 400.046 203.382ZM408.171 198.623C407.971 198.623 407.795 198.557 407.641 198.423C407.488 198.283 407.411 198.1 407.411 197.873C407.411 197.647 407.488 197.467 407.641 197.333C407.795 197.193 407.971 197.123 408.171 197.123C408.371 197.123 408.548 197.193 408.701 197.333C408.855 197.467 408.931 197.647 408.931 197.873C408.931 198.1 408.855 198.283 408.701 198.423C408.548 198.557 408.371 198.623 408.171 198.623ZM408.171 203.523C407.971 203.523 407.795 203.457 407.641 203.323C407.488 203.183 407.411 203 407.411 202.773C407.411 202.54 407.488 202.357 407.641 202.223C407.795 202.083 407.971 202.013 408.171 202.013C408.371 202.013 408.548 202.083 408.701 202.223C408.855 202.357 408.931 202.54 408.931 202.773C408.931 203 408.855 203.183 408.701 203.323C408.548 203.457 408.371 203.523 408.171 203.523ZM416.296 204.163C415.761 204.163 415.306 204.017 414.929 203.726C414.553 203.433 414.265 203.008 414.066 202.451C413.867 201.893 413.768 201.218 413.768 200.427C413.768 199.641 413.867 198.97 414.066 198.414C414.268 197.855 414.556 197.429 414.933 197.135C415.312 196.839 415.766 196.691 416.296 196.691C416.827 196.691 417.28 196.839 417.656 197.135C418.035 197.429 418.324 197.855 418.523 198.414C418.724 198.97 418.825 199.641 418.825 200.427C418.825 201.218 418.725 201.893 418.527 202.451C418.328 203.008 418.04 203.433 417.664 203.726C417.287 204.017 416.831 204.163 416.296 204.163ZM416.296 203.382C416.827 203.382 417.239 203.126 417.532 202.615C417.826 202.103 417.973 201.374 417.973 200.427C417.973 199.797 417.905 199.261 417.77 198.818C417.638 198.376 417.446 198.038 417.195 197.806C416.946 197.574 416.647 197.458 416.296 197.458C415.771 197.458 415.36 197.718 415.064 198.236C414.768 198.752 414.62 199.483 414.62 200.427C414.62 201.057 414.687 201.592 414.819 202.032C414.952 202.473 415.142 202.808 415.391 203.037C415.642 203.267 415.944 203.382 416.296 203.382ZM422.546 204.163C422.011 204.163 421.556 204.017 421.179 203.726C420.803 203.433 420.515 203.008 420.316 202.451C420.117 201.893 420.018 201.218 420.018 200.427C420.018 199.641 420.117 198.97 420.316 198.414C420.518 197.855 420.806 197.429 421.183 197.135C421.562 196.839 422.016 196.691 422.546 196.691C423.077 196.691 423.53 196.839 423.906 197.135C424.285 197.429 424.574 197.855 424.773 198.414C424.974 198.97 425.075 199.641 425.075 200.427C425.075 201.218 424.975 201.893 424.777 202.451C424.578 203.008 424.29 203.433 423.914 203.726C423.537 204.017 423.081 204.163 422.546 204.163ZM422.546 203.382C423.077 203.382 423.489 203.126 423.782 202.615C424.076 202.103 424.223 201.374 424.223 200.427C424.223 199.797 424.155 199.261 424.02 198.818C423.888 198.376 423.696 198.038 423.445 197.806C423.196 197.574 422.897 197.458 422.546 197.458C422.021 197.458 421.61 197.718 421.314 198.236C421.018 198.752 420.87 199.483 420.87 200.427C420.87 201.057 420.937 201.592 421.069 202.032C421.202 202.473 421.392 202.808 421.641 203.037C421.892 203.267 422.194 203.382 422.546 203.382Z" fill="white"/>
<path d="M484.548 192.391V194.036" stroke="white"/>
<path d="M443.997 205.812H447.465V213.912H443.997V212.628H446.121V207.096H443.997V205.812ZM444.081 209.184H446.493V210.444H444.081V209.184ZM443.325 205.812H444.669V214.884H443.325V205.812ZM447.909 207.084H454.185V208.512H447.909V207.084ZM451.497 204.948H452.961V214.224C452.961 214.656 452.905 214.98 452.793 215.196C452.689 215.42 452.501 215.588 452.229 215.7C451.965 215.812 451.617 215.884 451.185 215.916C450.761 215.948 450.249 215.96 449.649 215.952C449.617 215.752 449.553 215.508 449.457 215.22C449.361 214.94 449.257 214.7 449.145 214.5C449.433 214.508 449.709 214.516 449.973 214.524C450.245 214.532 450.485 214.536 450.693 214.536C450.901 214.536 451.049 214.536 451.137 214.536C451.273 214.536 451.365 214.512 451.413 214.464C451.469 214.416 451.497 214.332 451.497 214.212V204.948ZM448.041 209.928L449.229 209.304C449.421 209.576 449.633 209.876 449.865 210.204C450.097 210.524 450.313 210.84 450.513 211.152C450.721 211.456 450.893 211.72 451.029 211.944L449.745 212.688C449.633 212.456 449.477 212.18 449.277 211.86C449.085 211.54 448.877 211.212 448.653 210.876C448.437 210.532 448.233 210.216 448.041 209.928ZM455.385 207.756H456.873V216.12H455.385V207.756ZM455.553 205.644L456.693 204.948C456.877 205.124 457.065 205.32 457.257 205.536C457.457 205.744 457.637 205.956 457.797 206.172C457.965 206.38 458.093 206.576 458.181 206.76L456.969 207.54C456.889 207.364 456.769 207.168 456.609 206.952C456.457 206.728 456.289 206.504 456.105 206.28C455.929 206.048 455.745 205.836 455.553 205.644ZM458.601 205.464H465.105V206.808H458.601V205.464ZM464.301 205.464H465.789V214.584C465.789 214.92 465.753 215.18 465.681 215.364C465.609 215.556 465.473 215.708 465.273 215.82C465.073 215.924 464.829 215.988 464.541 216.012C464.253 216.044 463.921 216.06 463.545 216.06C463.513 215.876 463.457 215.656 463.377 215.4C463.305 215.152 463.225 214.944 463.137 214.776C463.329 214.784 463.521 214.788 463.713 214.788C463.905 214.788 464.033 214.788 464.097 214.788C464.177 214.788 464.229 214.772 464.253 214.74C464.285 214.708 464.301 214.652 464.301 214.572V205.464ZM459.381 211.68V212.832H461.697V211.68H459.381ZM459.381 209.388V210.528H461.697V209.388H459.381ZM458.097 208.236H463.041V213.984H458.097V208.236ZM472.089 210.168H476.493V211.476H472.089V210.168ZM468.513 207.84H471.561V209.172H468.513V207.84ZM468.513 210.156H471.669V211.5H468.513V210.156ZM473.337 205.308H476.049V206.568H473.337V205.308ZM476.289 210.168H476.565L476.805 210.12L477.729 210.468C477.449 211.524 477.033 212.428 476.481 213.18C475.937 213.932 475.277 214.548 474.501 215.028C473.733 215.508 472.869 215.888 471.909 216.168C471.861 216.04 471.793 215.896 471.705 215.736C471.617 215.584 471.525 215.428 471.429 215.268C471.333 215.116 471.237 214.992 471.141 214.896C471.997 214.696 472.773 214.396 473.469 213.996C474.165 213.596 474.757 213.096 475.245 212.496C475.733 211.896 476.081 211.196 476.289 210.396V210.168ZM473.769 211.344C474.145 212.216 474.717 212.956 475.485 213.564C476.253 214.164 477.197 214.588 478.317 214.836C478.213 214.932 478.097 215.056 477.969 215.208C477.849 215.36 477.737 215.516 477.633 215.676C477.529 215.844 477.445 215.996 477.381 216.132C476.165 215.78 475.165 215.232 474.381 214.488C473.597 213.736 472.977 212.8 472.521 211.68L473.769 211.344ZM467.793 205.668L469.161 206.088V216.108H467.793V205.668ZM466.797 213.06C467.245 213.012 467.749 212.952 468.309 212.88C468.877 212.808 469.473 212.732 470.097 212.652C470.729 212.572 471.353 212.488 471.969 212.4L472.017 213.72C471.441 213.816 470.857 213.908 470.265 213.996C469.673 214.076 469.101 214.156 468.549 214.236C467.997 214.316 467.489 214.392 467.025 214.464L466.797 213.06ZM472.713 205.308H474.045V207.072C474.045 207.44 474.001 207.824 473.913 208.224C473.833 208.616 473.681 208.992 473.457 209.352C473.241 209.704 472.909 210.008 472.461 210.264C472.405 210.176 472.313 210.072 472.185 209.952C472.065 209.824 471.937 209.7 471.801 209.58C471.673 209.46 471.565 209.368 471.477 209.304C471.853 209.096 472.129 208.868 472.305 208.62C472.481 208.364 472.593 208.1 472.641 207.828C472.689 207.556 472.713 207.288 472.713 207.024V205.308ZM470.985 204.876L472.173 205.896C471.821 206.072 471.437 206.232 471.021 206.376C470.605 206.512 470.185 206.64 469.761 206.76C469.337 206.872 468.921 206.968 468.513 207.048C468.481 206.896 468.417 206.716 468.321 206.508C468.233 206.292 468.145 206.112 468.057 205.968C468.417 205.88 468.777 205.78 469.137 205.668C469.505 205.548 469.849 205.42 470.169 205.284C470.489 205.148 470.761 205.012 470.985 204.876ZM475.293 205.308H476.637V208.164C476.637 208.268 476.637 208.348 476.637 208.404C476.637 208.46 476.645 208.5 476.661 208.524C476.693 208.564 476.733 208.584 476.781 208.584C476.805 208.584 476.837 208.584 476.877 208.584C476.917 208.584 476.949 208.584 476.973 208.584C477.005 208.584 477.037 208.58 477.069 208.572C477.101 208.564 477.121 208.556 477.129 208.548C477.169 208.524 477.205 208.436 477.237 208.284C477.245 208.196 477.253 208.068 477.261 207.9C477.269 207.732 477.273 207.532 477.273 207.3C477.393 207.404 477.557 207.512 477.765 207.624C477.973 207.728 478.165 207.812 478.341 207.876C478.325 208.116 478.305 208.352 478.281 208.584C478.257 208.816 478.221 208.988 478.173 209.1C478.093 209.332 477.949 209.496 477.741 209.592C477.653 209.64 477.545 209.676 477.417 209.7C477.297 209.716 477.185 209.724 477.081 209.724C476.977 209.724 476.865 209.724 476.745 209.724C476.625 209.724 476.517 209.724 476.421 209.724C476.277 209.724 476.125 209.704 475.965 209.664C475.813 209.616 475.689 209.54 475.593 209.436C475.489 209.332 475.413 209.196 475.365 209.028C475.317 208.852 475.293 208.572 475.293 208.188V205.308Z" fill="#7B7B7B"/>
<path d="M34.4619 192.39V36.0586" stroke="white"/>
<path d="M34.4621 192.39H30.8127" stroke="white"/>
<path d="M25.6055 200.625C25.0704 200.625 24.6147 200.479 24.2383 200.188C23.8619 199.894 23.5742 199.47 23.3754 198.913C23.1765 198.354 23.0771 197.68 23.0771 196.889C23.0771 196.103 23.1765 195.432 23.3754 194.876C23.5766 194.317 23.8654 193.891 24.2418 193.597C24.6206 193.301 25.0752 193.153 25.6055 193.153C26.1358 193.153 26.5891 193.301 26.9656 193.597C27.3443 193.891 27.6332 194.317 27.832 194.876C28.0333 195.432 28.1339 196.103 28.1339 196.889C28.1339 197.68 28.0344 198.354 27.8356 198.913C27.6367 199.47 27.3491 199.894 26.9727 200.188C26.5962 200.479 26.1405 200.625 25.6055 200.625ZM25.6055 199.844C26.1358 199.844 26.5477 199.588 26.8413 199.077C27.1348 198.565 27.2816 197.836 27.2816 196.889C27.2816 196.259 27.2141 195.723 27.0792 195.28C26.9466 194.838 26.7549 194.5 26.5039 194.268C26.2553 194.036 25.9558 193.92 25.6055 193.92C25.0799 193.92 24.6692 194.18 24.3732 194.698C24.0773 195.214 23.9293 195.944 23.9293 196.889C23.9293 197.519 23.9956 198.054 24.1282 198.494C24.2608 198.934 24.4513 199.269 24.6999 199.499C24.9509 199.729 25.2527 199.844 25.6055 199.844Z" fill="white"/>
<path d="M34.4618 172.849H30.8125" stroke="white"/>
<path d="M12.8732 181.083C12.4566 181.083 12.0813 181 11.7475 180.834C11.4137 180.669 11.1462 180.441 10.945 180.152C10.7437 179.864 10.6336 179.535 10.6147 179.165H11.467C11.5001 179.494 11.6493 179.767 11.9144 179.982C12.1819 180.195 12.5015 180.302 12.8732 180.302C13.1715 180.302 13.4367 180.232 13.6687 180.092C13.9031 179.952 14.0865 179.761 14.2191 179.517C14.354 179.271 14.4215 178.992 14.4215 178.682C14.4215 178.365 14.3517 178.082 14.212 177.834C14.0747 177.583 13.8853 177.385 13.6438 177.241C13.4023 177.096 13.1265 177.023 12.8164 177.02C12.5939 177.018 12.3654 177.052 12.131 177.123C11.8967 177.192 11.7037 177.281 11.5522 177.39L10.7283 177.29L11.1687 173.711H14.9471V174.492H11.9073L11.6516 176.637H11.6942C11.8434 176.518 12.0304 176.42 12.2553 176.342C12.4802 176.264 12.7146 176.225 12.9585 176.225C13.4035 176.225 13.8001 176.331 14.1481 176.544C14.4985 176.755 14.7731 177.044 14.9719 177.411C15.1732 177.778 15.2738 178.197 15.2738 178.668C15.2738 179.132 15.1696 179.546 14.9613 179.911C14.7553 180.273 14.4712 180.56 14.109 180.77C13.7468 180.979 13.3349 181.083 12.8732 181.083ZM19.0566 181.083C18.5216 181.083 18.0659 180.937 17.6895 180.646C17.313 180.352 17.0254 179.928 16.8265 179.371C16.6277 178.812 16.5282 178.138 16.5282 177.347C16.5282 176.561 16.6277 175.89 16.8265 175.334C17.0278 174.775 17.3166 174.349 17.693 174.055C18.0718 173.759 18.5263 173.611 19.0566 173.611C19.5869 173.611 20.0403 173.759 20.4167 174.055C20.7955 174.349 21.0843 174.775 21.2832 175.334C21.4844 175.89 21.585 176.561 21.585 177.347C21.585 178.138 21.4856 178.812 21.2868 179.371C21.0879 179.928 20.8002 180.352 20.4238 180.646C20.0474 180.937 19.5917 181.083 19.0566 181.083ZM19.0566 180.302C19.5869 180.302 19.9989 180.046 20.2924 179.535C20.586 179.023 20.7328 178.294 20.7328 177.347C20.7328 176.717 20.6653 176.181 20.5304 175.738C20.3978 175.296 20.206 174.958 19.9551 174.726C19.7065 174.494 19.407 174.378 19.0566 174.378C18.5311 174.378 18.1203 174.638 17.8244 175.156C17.5285 175.672 17.3805 176.402 17.3805 177.347C17.3805 177.977 17.4468 178.512 17.5794 178.952C17.7119 179.392 17.9025 179.727 18.1511 179.957C18.402 180.187 18.7039 180.302 19.0566 180.302ZM25.3066 181.083C24.7716 181.083 24.3159 180.937 23.9395 180.646C23.563 180.352 23.2754 179.928 23.0765 179.371C22.8777 178.812 22.7782 178.138 22.7782 177.347C22.7782 176.561 22.8777 175.89 23.0765 175.334C23.2778 174.775 23.5666 174.349 23.943 174.055C24.3218 173.759 24.7763 173.611 25.3066 173.611C25.8369 173.611 26.2903 173.759 26.6667 174.055C27.0455 174.349 27.3343 174.775 27.5332 175.334C27.7344 175.89 27.835 176.561 27.835 177.347C27.835 178.138 27.7356 178.812 27.5368 179.371C27.3379 179.928 27.0502 180.352 26.6738 180.646C26.2974 180.937 25.8417 181.083 25.3066 181.083ZM25.3066 180.302C25.8369 180.302 26.2489 180.046 26.5424 179.535C26.836 179.023 26.9828 178.294 26.9828 177.347C26.9828 176.717 26.9153 176.181 26.7804 175.738C26.6478 175.296 26.456 174.958 26.2051 174.726C25.9565 174.494 25.657 174.378 25.3066 174.378C24.7811 174.378 24.3703 174.638 24.0744 175.156C23.7785 175.672 23.6305 176.402 23.6305 177.347C23.6305 177.977 23.6968 178.512 23.8294 178.952C23.9619 179.392 24.1525 179.727 24.4011 179.957C24.652 180.187 24.9539 180.302 25.3066 180.302Z" fill="white"/>
<path d="M34.4623 153.308H30.813" stroke="white"/>
<path d="M5.9664 154.17V161.442H5.08572V155.093H5.0431L3.26753 156.272V155.377L5.08572 154.17H5.9664ZM8.89253 160.448L8.83572 160.832C8.79547 161.101 8.73392 161.39 8.65106 161.698C8.57056 162.006 8.48652 162.296 8.39893 162.568C8.31133 162.84 8.23912 163.057 8.18231 163.218H7.5431C7.57388 163.066 7.61412 162.866 7.66384 162.618C7.71356 162.369 7.76327 162.091 7.81299 161.783C7.86507 161.478 7.90769 161.165 7.94083 160.846L7.98344 160.448H8.89253ZM12.5493 161.542C12.0143 161.542 11.5585 161.396 11.1821 161.105C10.8057 160.811 10.5181 160.387 10.3192 159.83C10.1203 159.271 10.0209 158.597 10.0209 157.806C10.0209 157.02 10.1203 156.349 10.3192 155.793C10.5204 155.234 10.8093 154.808 11.1857 154.514C11.5645 154.218 12.019 154.07 12.5493 154.07C13.0796 154.07 13.533 154.218 13.9094 154.514C14.2882 154.808 14.577 155.234 14.7759 155.793C14.9771 156.349 15.0777 157.02 15.0777 157.806C15.0777 158.597 14.9783 159.271 14.7794 159.83C14.5806 160.387 14.2929 160.811 13.9165 161.105C13.5401 161.396 13.0844 161.542 12.5493 161.542ZM12.5493 160.761C13.0796 160.761 13.4916 160.505 13.7851 159.994C14.0787 159.482 14.2255 158.753 14.2255 157.806C14.2255 157.176 14.158 156.64 14.023 156.197C13.8905 155.755 13.6987 155.417 13.4478 155.185C13.1992 154.953 12.8997 154.837 12.5493 154.837C12.0237 154.837 11.613 155.097 11.3171 155.615C11.0211 156.131 10.8732 156.861 10.8732 157.806C10.8732 158.436 10.9395 158.971 11.072 159.411C11.2046 159.851 11.3952 160.186 11.6438 160.416C11.8947 160.646 12.1966 160.761 12.5493 160.761ZM18.7993 161.542C18.2643 161.542 17.8085 161.396 17.4321 161.105C17.0557 160.811 16.7681 160.387 16.5692 159.83C16.3703 159.271 16.2709 158.597 16.2709 157.806C16.2709 157.02 16.3703 156.349 16.5692 155.793C16.7704 155.234 17.0593 154.808 17.4357 154.514C17.8145 154.218 18.269 154.07 18.7993 154.07C19.3296 154.07 19.783 154.218 20.1594 154.514C20.5382 154.808 20.827 155.234 21.0259 155.793C21.2271 156.349 21.3277 157.02 21.3277 157.806C21.3277 158.597 21.2283 159.271 21.0294 159.83C20.8306 160.387 20.5429 160.811 20.1665 161.105C19.7901 161.396 19.3344 161.542 18.7993 161.542ZM18.7993 160.761C19.3296 160.761 19.7416 160.505 20.0351 159.994C20.3287 159.482 20.4755 158.753 20.4755 157.806C20.4755 157.176 20.408 156.64 20.273 156.197C20.1405 155.755 19.9487 155.417 19.6978 155.185C19.4492 154.953 19.1497 154.837 18.7993 154.837C18.2737 154.837 17.863 155.097 17.5671 155.615C17.2711 156.131 17.1232 156.861 17.1232 157.806C17.1232 158.436 17.1895 158.971 17.322 159.411C17.4546 159.851 17.6452 160.186 17.8938 160.416C18.1447 160.646 18.4466 160.761 18.7993 160.761ZM25.0493 161.542C24.5143 161.542 24.0585 161.396 23.6821 161.105C23.3057 160.811 23.0181 160.387 22.8192 159.83C22.6203 159.271 22.5209 158.597 22.5209 157.806C22.5209 157.02 22.6203 156.349 22.8192 155.793C23.0204 155.234 23.3093 154.808 23.6857 154.514C24.0645 154.218 24.519 154.07 25.0493 154.07C25.5796 154.07 26.033 154.218 26.4094 154.514C26.7882 154.808 27.077 155.234 27.2759 155.793C27.4771 156.349 27.5777 157.02 27.5777 157.806C27.5777 158.597 27.4783 159.271 27.2794 159.83C27.0806 160.387 26.7929 160.811 26.4165 161.105C26.0401 161.396 25.5844 161.542 25.0493 161.542ZM25.0493 160.761C25.5796 160.761 25.9916 160.505 26.2851 159.994C26.5787 159.482 26.7255 158.753 26.7255 157.806C26.7255 157.176 26.658 156.64 26.523 156.197C26.3905 155.755 26.1987 155.417 25.9478 155.185C25.6992 154.953 25.3997 154.837 25.0493 154.837C24.5237 154.837 24.113 155.097 23.8171 155.615C23.5211 156.131 23.3732 156.861 23.3732 157.806C23.3732 158.436 23.4395 158.971 23.572 159.411C23.7046 159.851 23.8952 160.186 24.1438 160.416C24.3947 160.646 24.6966 160.761 25.0493 160.761Z" fill="white"/>
<path d="M34.4623 133.766H30.813" stroke="white"/>
<path d="M6.02499 134.628V141.9H5.14431V135.551H5.1017L3.32613 136.73V135.835L5.14431 134.628H6.02499ZM8.95113 140.906L8.89431 141.29C8.85406 141.559 8.79251 141.848 8.70965 142.156C8.62916 142.464 8.54511 142.754 8.45752 143.026C8.36992 143.298 8.29772 143.515 8.2409 143.676H7.6017C7.63247 143.524 7.67272 143.324 7.72243 143.076C7.77215 142.827 7.82187 142.549 7.87158 142.241C7.92367 141.936 7.96628 141.623 7.99942 141.304L8.04204 140.906H8.95113ZM12.6159 142C12.1992 142 11.824 141.917 11.4902 141.751C11.1564 141.586 10.8889 141.358 10.6876 141.069C10.4864 140.781 10.3763 140.452 10.3574 140.082H11.2097C11.2428 140.411 11.3919 140.684 11.6571 140.899C11.9246 141.112 12.2442 141.219 12.6159 141.219C12.9142 141.219 13.1793 141.149 13.4114 141.009C13.6457 140.869 13.8292 140.678 13.9618 140.434C14.0967 140.188 14.1642 139.909 14.1642 139.599C14.1642 139.282 14.0944 138.999 13.9547 138.751C13.8174 138.5 13.628 138.302 13.3865 138.157C13.145 138.013 12.8692 137.94 12.5591 137.937C12.3365 137.935 12.1081 137.969 11.8737 138.04C11.6393 138.109 11.4464 138.198 11.2949 138.307L10.471 138.207L10.9114 134.628H14.6898V135.409H11.65L11.3943 137.554H11.4369C11.5861 137.435 11.7731 137.337 11.998 137.259C12.2229 137.181 12.4573 137.142 12.7011 137.142C13.1462 137.142 13.5427 137.248 13.8908 137.461C14.2411 137.672 14.5158 137.961 14.7146 138.328C14.9159 138.695 15.0165 139.114 15.0165 139.585C15.0165 140.049 14.9123 140.463 14.704 140.828C14.498 141.19 14.2139 141.477 13.8517 141.687C13.4895 141.896 13.0775 142 12.6159 142ZM18.7993 142C18.2643 142 17.8085 141.854 17.4321 141.563C17.0557 141.269 16.7681 140.845 16.5692 140.288C16.3703 139.729 16.2709 139.055 16.2709 138.264C16.2709 137.478 16.3703 136.807 16.5692 136.251C16.7704 135.692 17.0593 135.266 17.4357 134.972C17.8145 134.676 18.269 134.528 18.7993 134.528C19.3296 134.528 19.783 134.676 20.1594 134.972C20.5382 135.266 20.827 135.692 21.0259 136.251C21.2271 136.807 21.3277 137.478 21.3277 138.264C21.3277 139.055 21.2283 139.729 21.0294 140.288C20.8306 140.845 20.5429 141.269 20.1665 141.563C19.7901 141.854 19.3344 142 18.7993 142ZM18.7993 141.219C19.3296 141.219 19.7416 140.963 20.0351 140.452C20.3287 139.94 20.4755 139.211 20.4755 138.264C20.4755 137.634 20.408 137.098 20.273 136.655C20.1405 136.213 19.9487 135.875 19.6978 135.643C19.4492 135.411 19.1497 135.295 18.7993 135.295C18.2737 135.295 17.863 135.555 17.5671 136.073C17.2711 136.589 17.1232 137.319 17.1232 138.264C17.1232 138.894 17.1895 139.429 17.322 139.869C17.4546 140.309 17.6452 140.644 17.8938 140.874C18.1447 141.104 18.4466 141.219 18.7993 141.219ZM25.0493 142C24.5143 142 24.0585 141.854 23.6821 141.563C23.3057 141.269 23.0181 140.845 22.8192 140.288C22.6203 139.729 22.5209 139.055 22.5209 138.264C22.5209 137.478 22.6203 136.807 22.8192 136.251C23.0204 135.692 23.3093 135.266 23.6857 134.972C24.0645 134.676 24.519 134.528 25.0493 134.528C25.5796 134.528 26.033 134.676 26.4094 134.972C26.7882 135.266 27.077 135.692 27.2759 136.251C27.4771 136.807 27.5777 137.478 27.5777 138.264C27.5777 139.055 27.4783 139.729 27.2794 140.288C27.0806 140.845 26.7929 141.269 26.4165 141.563C26.0401 141.854 25.5844 142 25.0493 142ZM25.0493 141.219C25.5796 141.219 25.9916 140.963 26.2851 140.452C26.5787 139.94 26.7255 139.211 26.7255 138.264C26.7255 137.634 26.658 137.098 26.523 136.655C26.3905 136.213 26.1987 135.875 25.9478 135.643C25.6992 135.411 25.3997 135.295 25.0493 135.295C24.5237 135.295 24.113 135.555 23.8171 136.073C23.5211 136.589 23.3732 137.319 23.3732 138.264C23.3732 138.894 23.4395 139.429 23.572 139.869C23.7046 140.309 23.8952 140.644 24.1438 140.874C24.3947 141.104 24.6966 141.219 25.0493 141.219Z" fill="white"/>
<path d="M34.4621 114.225H30.8127" stroke="white"/>
<path d="M2.35709 122.359V121.72L4.75766 119.092C5.03938 118.785 5.27139 118.517 5.45368 118.29C5.63597 118.06 5.77091 117.845 5.85851 117.643C5.94847 117.44 5.99345 117.227 5.99345 117.004C5.99345 116.749 5.9319 116.527 5.80879 116.34C5.68805 116.153 5.52234 116.009 5.31163 115.907C5.10093 115.805 4.86419 115.754 4.60141 115.754C4.32205 115.754 4.07821 115.812 3.86987 115.928C3.66391 116.042 3.50411 116.202 3.39047 116.408C3.2792 116.614 3.22357 116.855 3.22357 117.132H2.3855C2.3855 116.706 2.48375 116.332 2.68024 116.01C2.87674 115.688 3.14426 115.437 3.4828 115.257C3.82371 115.077 4.20605 114.987 4.62982 114.987C5.05595 114.987 5.43356 115.077 5.76263 115.257C6.0917 115.437 6.34975 115.68 6.53678 115.985C6.7238 116.29 6.81732 116.63 6.81732 117.004C6.81732 117.272 6.76878 117.533 6.67172 117.789C6.57702 118.042 6.4113 118.325 6.17456 118.638C5.94019 118.948 5.61466 119.327 5.198 119.774L3.56448 121.521V121.578H6.94516V122.359H2.35709ZM9.67598 121.365L9.61916 121.749C9.57892 122.018 9.51736 122.307 9.4345 122.615C9.35401 122.923 9.26997 123.213 9.18237 123.485C9.09478 123.757 9.02257 123.974 8.96575 124.135H8.32655C8.35733 123.983 8.39757 123.783 8.44729 123.535C8.497 123.286 8.54672 123.008 8.59644 122.7C8.64852 122.395 8.69113 122.082 8.72428 121.763L8.76689 121.365H9.67598ZM13.3328 122.459C12.7977 122.459 12.342 122.313 11.9656 122.022C11.5892 121.728 11.3015 121.304 11.1027 120.747C10.9038 120.188 10.8044 119.514 10.8044 118.723C10.8044 117.937 10.9038 117.266 11.1027 116.71C11.3039 116.151 11.5927 115.725 11.9691 115.431C12.3479 115.135 12.8025 114.987 13.3328 114.987C13.8631 114.987 14.3164 115.135 14.6928 115.431C15.0716 115.725 15.3605 116.151 15.5593 116.71C15.7606 117.266 15.8612 117.937 15.8612 118.723C15.8612 119.514 15.7617 120.188 15.5629 120.747C15.364 121.304 15.0764 121.728 14.7 122.022C14.3235 122.313 13.8678 122.459 13.3328 122.459ZM13.3328 121.678C13.8631 121.678 14.275 121.422 14.5686 120.911C14.8621 120.399 15.0089 119.67 15.0089 118.723C15.0089 118.093 14.9414 117.557 14.8065 117.114C14.6739 116.672 14.4821 116.334 14.2312 116.102C13.9826 115.87 13.6831 115.754 13.3328 115.754C12.8072 115.754 12.3964 116.013 12.1005 116.532C11.8046 117.048 11.6566 117.778 11.6566 118.723C11.6566 119.353 11.7229 119.888 11.8555 120.328C11.9881 120.768 12.1786 121.103 12.4272 121.333C12.6782 121.563 12.98 121.678 13.3328 121.678ZM19.5828 122.459C19.0477 122.459 18.592 122.313 18.2156 122.022C17.8392 121.728 17.5515 121.304 17.3527 120.747C17.1538 120.188 17.0544 119.514 17.0544 118.723C17.0544 117.937 17.1538 117.266 17.3527 116.71C17.5539 116.151 17.8427 115.725 18.2191 115.431C18.5979 115.135 19.0525 114.987 19.5828 114.987C20.1131 114.987 20.5664 115.135 20.9428 115.431C21.3216 115.725 21.6105 116.151 21.8093 116.71C22.0106 117.266 22.1112 117.937 22.1112 118.723C22.1112 119.514 22.0117 120.188 21.8129 120.747C21.614 121.304 21.3264 121.728 20.95 122.022C20.5735 122.313 20.1178 122.459 19.5828 122.459ZM19.5828 121.678C20.1131 121.678 20.525 121.422 20.8186 120.911C21.1121 120.399 21.2589 119.67 21.2589 118.723C21.2589 118.093 21.1914 117.557 21.0565 117.114C20.9239 116.672 20.7321 116.334 20.4812 116.102C20.2326 115.87 19.9331 115.754 19.5828 115.754C19.0572 115.754 18.6464 116.013 18.3505 116.532C18.0546 117.048 17.9066 117.778 17.9066 118.723C17.9066 119.353 17.9729 119.888 18.1055 120.328C18.2381 120.768 18.4286 121.103 18.6772 121.333C18.9282 121.563 19.23 121.678 19.5828 121.678ZM25.8328 122.459C25.2977 122.459 24.842 122.313 24.4656 122.022C24.0892 121.728 23.8015 121.304 23.6027 120.747C23.4038 120.188 23.3044 119.514 23.3044 118.723C23.3044 117.937 23.4038 117.266 23.6027 116.71C23.8039 116.151 24.0927 115.725 24.4691 115.431C24.8479 115.135 25.3025 114.987 25.8328 114.987C26.3631 114.987 26.8164 115.135 27.1928 115.431C27.5716 115.725 27.8605 116.151 28.0593 116.71C28.2606 117.266 28.3612 117.937 28.3612 118.723C28.3612 119.514 28.2617 120.188 28.0629 120.747C27.864 121.304 27.5764 121.728 27.2 122.022C26.8235 122.313 26.3678 122.459 25.8328 122.459ZM25.8328 121.678C26.3631 121.678 26.775 121.422 27.0686 120.911C27.3621 120.399 27.5089 119.67 27.5089 118.723C27.5089 118.093 27.4414 117.557 27.3065 117.114C27.1739 116.672 26.9821 116.334 26.7312 116.102C26.4826 115.87 26.1831 115.754 25.8328 115.754C25.3072 115.754 24.8964 116.013 24.6005 116.532C24.3046 117.048 24.1566 117.778 24.1566 118.723C24.1566 119.353 24.2229 119.888 24.3555 120.328C24.4881 120.768 24.6786 121.103 24.9272 121.333C25.1782 121.563 25.48 121.678 25.8328 121.678Z" fill="white"/>
<path d="M34.4621 94.6826H30.8127" stroke="white"/>
<path d="M2.41568 102.818V102.179L4.81625 99.5513C5.09797 99.2435 5.32998 98.976 5.51227 98.7488C5.69457 98.5191 5.82951 98.3037 5.9171 98.1025C6.00707 97.8989 6.05205 97.6858 6.05205 97.4632C6.05205 97.2076 5.99049 96.9862 5.86739 96.7992C5.74665 96.6122 5.58093 96.4677 5.37023 96.3659C5.15953 96.2641 4.92279 96.2132 4.66 96.2132C4.38064 96.2132 4.1368 96.2712 3.92847 96.3873C3.7225 96.5009 3.5627 96.6607 3.44906 96.8667C3.33779 97.0726 3.28216 97.3141 3.28216 97.5911H2.44409C2.44409 97.165 2.54234 96.7909 2.73884 96.4689C2.93533 96.147 3.20285 95.896 3.54139 95.7161C3.8823 95.5362 4.26464 95.4462 4.68841 95.4462C5.11455 95.4462 5.49215 95.5362 5.82122 95.7161C6.15029 95.896 6.40834 96.1387 6.59537 96.4441C6.7824 96.7495 6.87591 97.0892 6.87591 97.4632C6.87591 97.7308 6.82738 97.9924 6.73031 98.248C6.63562 98.5014 6.4699 98.7843 6.23315 99.0968C5.99878 99.4069 5.67326 99.7857 5.25659 100.233L3.62307 101.98V102.037H7.00375V102.818H2.41568ZM9.73457 101.824L9.67776 102.208C9.63751 102.477 9.57596 102.766 9.4931 103.074C9.41261 103.382 9.32856 103.672 9.24097 103.944C9.15337 104.216 9.08117 104.433 9.02435 104.594H8.38514C8.41592 104.442 8.45617 104.242 8.50588 103.994C8.5556 103.745 8.60531 103.467 8.65503 103.159C8.70711 102.854 8.74973 102.541 8.78287 102.222L8.82548 101.824H9.73457ZM13.3993 102.918C12.9827 102.918 12.6074 102.835 12.2736 102.669C11.9398 102.503 11.6723 102.276 11.4711 101.987C11.2698 101.699 11.1598 101.369 11.1408 101H11.9931C12.0262 101.329 12.1754 101.602 12.4405 101.817C12.7081 102.03 13.0277 102.137 13.3993 102.137C13.6976 102.137 13.9628 102.067 14.1948 101.927C14.4292 101.787 14.6127 101.596 14.7452 101.352C14.8802 101.106 14.9476 100.827 14.9476 100.517C14.9476 100.2 14.8778 99.9171 14.7381 99.6685C14.6008 99.4176 14.4114 99.2199 14.1699 99.0755C13.9285 98.931 13.6527 98.8577 13.3425 98.8553C13.12 98.8529 12.8915 98.8873 12.6572 98.9583C12.4228 99.0269 12.2298 99.1157 12.0783 99.2246L11.2545 99.1252L11.6948 95.5456H15.4732V96.3269H12.4334L12.1778 98.4718H12.2204C12.3695 98.3534 12.5565 98.2551 12.7814 98.177C13.0064 98.0989 13.2407 98.0598 13.4846 98.0598C13.9297 98.0598 14.3262 98.1664 14.6742 98.3794C15.0246 98.5901 15.2992 98.879 15.4981 99.2459C15.6993 99.6129 15.7999 100.032 15.7999 100.503C15.7999 100.967 15.6957 101.381 15.4874 101.746C15.2814 102.108 14.9974 102.395 14.6351 102.605C14.2729 102.814 13.861 102.918 13.3993 102.918ZM19.5828 102.918C19.0477 102.918 18.592 102.772 18.2156 102.481C17.8392 102.187 17.5515 101.762 17.3527 101.206C17.1538 100.647 17.0544 99.9727 17.0544 99.182C17.0544 98.396 17.1538 97.7248 17.3527 97.1685C17.5539 96.6098 17.8427 96.1837 18.2191 95.8901C18.5979 95.5942 19.0525 95.4462 19.5828 95.4462C20.1131 95.4462 20.5664 95.5942 20.9428 95.8901C21.3216 96.1837 21.6105 96.6098 21.8093 97.1685C22.0106 97.7248 22.1112 98.396 22.1112 99.182C22.1112 99.9727 22.0117 100.647 21.8129 101.206C21.614 101.762 21.3264 102.187 20.95 102.481C20.5735 102.772 20.1178 102.918 19.5828 102.918ZM19.5828 102.137C20.1131 102.137 20.525 101.881 20.8186 101.369C21.1121 100.858 21.2589 100.129 21.2589 99.182C21.2589 98.5523 21.1914 98.016 21.0565 97.5733C20.9239 97.1306 20.7321 96.7933 20.4812 96.5613C20.2326 96.3292 19.9331 96.2132 19.5828 96.2132C19.0572 96.2132 18.6464 96.4725 18.3505 96.9909C18.0546 97.507 17.9066 98.2374 17.9066 99.182C17.9066 99.8117 17.9729 100.347 18.1055 100.787C18.2381 101.227 18.4286 101.562 18.6772 101.792C18.9282 102.022 19.23 102.137 19.5828 102.137ZM25.8328 102.918C25.2977 102.918 24.842 102.772 24.4656 102.481C24.0892 102.187 23.8015 101.762 23.6027 101.206C23.4038 100.647 23.3044 99.9727 23.3044 99.182C23.3044 98.396 23.4038 97.7248 23.6027 97.1685C23.8039 96.6098 24.0927 96.1837 24.4691 95.8901C24.8479 95.5942 25.3025 95.4462 25.8328 95.4462C26.3631 95.4462 26.8164 95.5942 27.1928 95.8901C27.5716 96.1837 27.8605 96.6098 28.0593 97.1685C28.2606 97.7248 28.3612 98.396 28.3612 99.182C28.3612 99.9727 28.2617 100.647 28.0629 101.206C27.864 101.762 27.5764 102.187 27.2 102.481C26.8235 102.772 26.3678 102.918 25.8328 102.918ZM25.8328 102.137C26.3631 102.137 26.775 101.881 27.0686 101.369C27.3621 100.858 27.5089 100.129 27.5089 99.182C27.5089 98.5523 27.4414 98.016 27.3065 97.5733C27.1739 97.1306 26.9821 96.7933 26.7312 96.5613C26.4826 96.3292 26.1831 96.2132 25.8328 96.2132C25.3072 96.2132 24.8964 96.4725 24.6005 96.9909C24.3046 97.507 24.1566 98.2374 24.1566 99.182C24.1566 99.8117 24.2229 100.347 24.3555 100.787C24.4881 101.227 24.6786 101.562 24.9272 101.792C25.1782 102.022 25.48 102.137 25.8328 102.137Z" fill="white"/>
<path d="M34.4621 75.1416H30.8127" stroke="white"/>
<path d="M4.72658 83.3758C4.25783 83.3758 3.83998 83.2953 3.47303 83.1343C3.10845 82.9733 2.81844 82.7496 2.60301 82.4632C2.38994 82.1743 2.27393 81.8393 2.25499 81.4582H3.14988C3.16882 81.6926 3.24931 81.895 3.39136 82.0654C3.5334 82.2335 3.71925 82.3637 3.94889 82.4561C4.17853 82.5484 4.43302 82.5945 4.71238 82.5945C5.02488 82.5945 5.30187 82.5401 5.54335 82.4312C5.78482 82.3223 5.97422 82.1708 6.11153 81.9767C6.24884 81.7825 6.31749 81.5576 6.31749 81.3019C6.31749 81.0344 6.25121 80.7989 6.11863 80.5953C5.98605 80.3893 5.79193 80.2283 5.53624 80.1123C5.28056 79.9963 4.96806 79.9383 4.59874 79.9383H4.01636V79.157H4.59874C4.88757 79.157 5.14088 79.105 5.35869 79.0008C5.57886 78.8966 5.7505 78.7499 5.8736 78.5605C5.99908 78.3711 6.06181 78.1485 6.06181 77.8928C6.06181 77.6466 6.00736 77.4324 5.89846 77.2501C5.78956 77.0678 5.63568 76.9258 5.43681 76.824C5.24032 76.7222 5.00831 76.6713 4.74079 76.6713C4.48984 76.6713 4.2531 76.7174 4.03056 76.8097C3.81039 76.8997 3.63047 77.0311 3.49079 77.2039C3.35111 77.3744 3.27535 77.5803 3.26352 77.8218H2.41124C2.42545 77.4407 2.54027 77.1069 2.7557 76.8204C2.97114 76.5316 3.25286 76.3067 3.60087 76.1457C3.95125 75.9847 4.33596 75.9042 4.75499 75.9042C5.2048 75.9042 5.59069 75.9954 5.91266 76.1776C6.23463 76.3576 6.48203 76.5955 6.65485 76.8914C6.82767 77.1874 6.91408 77.507 6.91408 77.8502C6.91408 78.2598 6.80637 78.609 6.59093 78.8978C6.37786 79.1866 6.08785 79.3867 5.7209 79.498V79.5548C6.18018 79.6305 6.53885 79.8258 6.7969 80.1407C7.05495 80.4532 7.18397 80.8403 7.18397 81.3019C7.18397 81.6973 7.07625 82.0524 6.86082 82.3673C6.64775 82.6798 6.35656 82.926 5.98724 83.1059C5.61792 83.2858 5.1977 83.3758 4.72658 83.3758ZM9.67598 82.282L9.61916 82.6656C9.57892 82.9355 9.51736 83.2243 9.4345 83.532C9.35401 83.8398 9.26997 84.1298 9.18237 84.4021C9.09478 84.6743 9.02257 84.891 8.96575 85.0519H8.32655C8.35733 84.9004 8.39757 84.7004 8.44729 84.4518C8.497 84.2032 8.54672 83.925 8.59644 83.6173C8.64852 83.3119 8.69113 82.9994 8.72428 82.6798L8.76689 82.282H9.67598ZM13.3328 83.3758C12.7977 83.3758 12.342 83.2302 11.9656 82.939C11.5892 82.6454 11.3015 82.2205 11.1027 81.6642C10.9038 81.1054 10.8044 80.4307 10.8044 79.64C10.8044 78.854 10.9038 78.1829 11.1027 77.6265C11.3039 77.0678 11.5927 76.6417 11.9691 76.3481C12.3479 76.0522 12.8025 75.9042 13.3328 75.9042C13.8631 75.9042 14.3164 76.0522 14.6928 76.3481C15.0716 76.6417 15.3605 77.0678 15.5593 77.6265C15.7606 78.1829 15.8612 78.854 15.8612 79.64C15.8612 80.4307 15.7617 81.1054 15.5629 81.6642C15.364 82.2205 15.0764 82.6454 14.7 82.939C14.3235 83.2302 13.8678 83.3758 13.3328 83.3758ZM13.3328 82.5945C13.8631 82.5945 14.275 82.3389 14.5686 81.8275C14.8621 81.3161 15.0089 80.587 15.0089 79.64C15.0089 79.0103 14.9414 78.474 14.8065 78.0313C14.6739 77.5886 14.4821 77.2513 14.2312 77.0193C13.9826 76.7873 13.6831 76.6713 13.3328 76.6713C12.8072 76.6713 12.3964 76.9305 12.1005 77.449C11.8046 77.9651 11.6566 78.6954 11.6566 79.64C11.6566 80.2697 11.7229 80.8048 11.8555 81.2451C11.9881 81.6855 12.1786 82.0204 12.4272 82.2501C12.6782 82.4797 12.98 82.5945 13.3328 82.5945ZM19.5828 83.3758C19.0477 83.3758 18.592 83.2302 18.2156 82.939C17.8392 82.6454 17.5515 82.2205 17.3527 81.6642C17.1538 81.1054 17.0544 80.4307 17.0544 79.64C17.0544 78.854 17.1538 78.1829 17.3527 77.6265C17.5539 77.0678 17.8427 76.6417 18.2191 76.3481C18.5979 76.0522 19.0525 75.9042 19.5828 75.9042C20.1131 75.9042 20.5664 76.0522 20.9428 76.3481C21.3216 76.6417 21.6105 77.0678 21.8093 77.6265C22.0106 78.1829 22.1112 78.854 22.1112 79.64C22.1112 80.4307 22.0117 81.1054 21.8129 81.6642C21.614 82.2205 21.3264 82.6454 20.95 82.939C20.5735 83.2302 20.1178 83.3758 19.5828 83.3758ZM19.5828 82.5945C20.1131 82.5945 20.525 82.3389 20.8186 81.8275C21.1121 81.3161 21.2589 80.587 21.2589 79.64C21.2589 79.0103 21.1914 78.474 21.0565 78.0313C20.9239 77.5886 20.7321 77.2513 20.4812 77.0193C20.2326 76.7873 19.9331 76.6713 19.5828 76.6713C19.0572 76.6713 18.6464 76.9305 18.3505 77.449C18.0546 77.9651 17.9066 78.6954 17.9066 79.64C17.9066 80.2697 17.9729 80.8048 18.1055 81.2451C18.2381 81.6855 18.4286 82.0204 18.6772 82.2501C18.9282 82.4797 19.23 82.5945 19.5828 82.5945ZM25.8328 83.3758C25.2977 83.3758 24.842 83.2302 24.4656 82.939C24.0892 82.6454 23.8015 82.2205 23.6027 81.6642C23.4038 81.1054 23.3044 80.4307 23.3044 79.64C23.3044 78.854 23.4038 78.1829 23.6027 77.6265C23.8039 77.0678 24.0927 76.6417 24.4691 76.3481C24.8479 76.0522 25.3025 75.9042 25.8328 75.9042C26.3631 75.9042 26.8164 76.0522 27.1928 76.3481C27.5716 76.6417 27.8605 77.0678 28.0593 77.6265C28.2606 78.1829 28.3612 78.854 28.3612 79.64C28.3612 80.4307 28.2617 81.1054 28.0629 81.6642C27.864 82.2205 27.5764 82.6454 27.2 82.939C26.8235 83.2302 26.3678 83.3758 25.8328 83.3758ZM25.8328 82.5945C26.3631 82.5945 26.775 82.3389 27.0686 81.8275C27.3621 81.3161 27.5089 80.587 27.5089 79.64C27.5089 79.0103 27.4414 78.474 27.3065 78.0313C27.1739 77.5886 26.9821 77.2513 26.7312 77.0193C26.4826 76.7873 26.1831 76.6713 25.8328 76.6713C25.3072 76.6713 24.8964 76.9305 24.6005 77.449C24.3046 77.9651 24.1566 78.6954 24.1566 79.64C24.1566 80.2697 24.2229 80.8048 24.3555 81.2451C24.4881 81.6855 24.6786 82.0204 24.9272 82.2501C25.1782 82.4797 25.48 82.5945 25.8328 82.5945Z" fill="white"/>
<path d="M34.4621 55.6006H30.8127" stroke="white"/>
<path d="M4.78518 63.8348C4.31643 63.8348 3.89858 63.7543 3.53163 63.5933C3.16704 63.4323 2.87703 63.2086 2.6616 62.9221C2.44853 62.6333 2.33253 62.2983 2.31359 61.9172H3.20847C3.22741 62.1515 3.30791 62.354 3.44995 62.5244C3.592 62.6925 3.77784 62.8227 4.00748 62.915C4.23712 63.0074 4.49162 63.0535 4.77097 63.0535C5.08347 63.0535 5.36046 62.9991 5.60194 62.8902C5.84342 62.7813 6.03281 62.6298 6.17012 62.4356C6.30743 62.2415 6.37609 62.0166 6.37609 61.7609C6.37609 61.4934 6.3098 61.2578 6.17722 61.0542C6.04465 60.8483 5.85052 60.6873 5.59484 60.5713C5.33916 60.4553 5.02666 60.3973 4.65734 60.3973H4.07495V59.616H4.65734C4.94616 59.616 5.19948 59.5639 5.41728 59.4598C5.63745 59.3556 5.80909 59.2088 5.9322 59.0194C6.05767 58.83 6.12041 58.6075 6.12041 58.3518C6.12041 58.1056 6.06596 57.8914 5.95705 57.7091C5.84815 57.5268 5.69427 57.3847 5.49541 57.2829C5.29891 57.1811 5.0669 57.1302 4.79938 57.1302C4.54844 57.1302 4.31169 57.1764 4.08916 57.2687C3.86899 57.3587 3.68906 57.4901 3.54938 57.6629C3.40971 57.8334 3.33395 58.0393 3.32211 58.2808H2.46984C2.48404 57.8997 2.59886 57.5658 2.8143 57.2794C3.02973 56.9906 3.31146 56.7657 3.65947 56.6047C4.00985 56.4437 4.39455 56.3632 4.81359 56.3632C5.2634 56.3632 5.64929 56.4543 5.97126 56.6366C6.29323 56.8166 6.54062 57.0545 6.71345 57.3504C6.88627 57.6463 6.97268 57.9659 6.97268 58.3092C6.97268 58.7188 6.86496 59.068 6.64952 59.3568C6.43646 59.6456 6.14645 59.8457 5.7795 59.9569V60.0138C6.23878 60.0895 6.59744 60.2848 6.85549 60.5997C7.11354 60.9122 7.24256 61.2993 7.24256 61.7609C7.24256 62.1563 7.13485 62.5114 6.91941 62.8263C6.70634 63.1388 6.41515 63.385 6.04583 63.5649C5.67651 63.7448 5.2563 63.8348 4.78518 63.8348ZM9.73457 62.741L9.67776 63.1246C9.63751 63.3944 9.57596 63.6833 9.4931 63.991C9.41261 64.2988 9.32856 64.5888 9.24097 64.8611C9.15337 65.1333 9.08117 65.3499 9.02435 65.5109H8.38514C8.41592 65.3594 8.45617 65.1594 8.50588 64.9108C8.5556 64.6622 8.60531 64.384 8.65503 64.0763C8.70711 63.7709 8.74973 63.4584 8.78287 63.1388L8.82548 62.741H9.73457ZM13.3993 63.8348C12.9827 63.8348 12.6074 63.7519 12.2736 63.5862C11.9398 63.4205 11.6723 63.1932 11.4711 62.9044C11.2698 62.6156 11.1598 62.2865 11.1408 61.9172H11.9931C12.0262 62.2462 12.1754 62.5185 12.4405 62.7339C12.7081 62.947 13.0277 63.0535 13.3993 63.0535C13.6976 63.0535 13.9628 62.9837 14.1948 62.844C14.4292 62.7043 14.6127 62.5126 14.7452 62.2687C14.8802 62.0225 14.9476 61.7443 14.9476 61.4342C14.9476 61.117 14.8778 60.8341 14.7381 60.5855C14.6008 60.3345 14.4114 60.1369 14.1699 59.9925C13.9285 59.848 13.6527 59.7747 13.3425 59.7723C13.12 59.7699 12.8915 59.8042 12.6572 59.8753C12.4228 59.9439 12.2298 60.0327 12.0783 60.1416L11.2545 60.0422L11.6948 56.4626H15.4732V57.2439H12.4334L12.1778 59.3888H12.2204C12.3695 59.2704 12.5565 59.1721 12.7814 59.094C13.0064 59.0159 13.2407 58.9768 13.4846 58.9768C13.9297 58.9768 14.3262 59.0834 14.6742 59.2964C15.0246 59.5071 15.2992 59.796 15.4981 60.1629C15.6993 60.5299 15.7999 60.9489 15.7999 61.42C15.7999 61.884 15.6957 62.2983 15.4874 62.6629C15.2814 63.0251 14.9974 63.3116 14.6351 63.5223C14.2729 63.7306 13.861 63.8348 13.3993 63.8348ZM19.5828 63.8348C19.0477 63.8348 18.592 63.6892 18.2156 63.398C17.8392 63.1044 17.5515 62.6795 17.3527 62.1231C17.1538 61.5644 17.0544 60.8897 17.0544 60.099C17.0544 59.313 17.1538 58.6418 17.3527 58.0855C17.5539 57.5268 17.8427 57.1006 18.2191 56.8071C18.5979 56.5112 19.0525 56.3632 19.5828 56.3632C20.1131 56.3632 20.5664 56.5112 20.9428 56.8071C21.3216 57.1006 21.6105 57.5268 21.8093 58.0855C22.0106 58.6418 22.1112 59.313 22.1112 60.099C22.1112 60.8897 22.0117 61.5644 21.8129 62.1231C21.614 62.6795 21.3264 63.1044 20.95 63.398C20.5735 63.6892 20.1178 63.8348 19.5828 63.8348ZM19.5828 63.0535C20.1131 63.0535 20.525 62.7979 20.8186 62.2865C21.1121 61.7751 21.2589 61.046 21.2589 60.099C21.2589 59.4693 21.1914 58.933 21.0565 58.4903C20.9239 58.0476 20.7321 57.7103 20.4812 57.4782C20.2326 57.2462 19.9331 57.1302 19.5828 57.1302C19.0572 57.1302 18.6464 57.3895 18.3505 57.9079C18.0546 58.424 17.9066 59.1544 17.9066 60.099C17.9066 60.7287 17.9729 61.2638 18.1055 61.7041C18.2381 62.1444 18.4286 62.4794 18.6772 62.7091C18.9282 62.9387 19.23 63.0535 19.5828 63.0535ZM25.8328 63.8348C25.2977 63.8348 24.842 63.6892 24.4656 63.398C24.0892 63.1044 23.8015 62.6795 23.6027 62.1231C23.4038 61.5644 23.3044 60.8897 23.3044 60.099C23.3044 59.313 23.4038 58.6418 23.6027 58.0855C23.8039 57.5268 24.0927 57.1006 24.4691 56.8071C24.8479 56.5112 25.3025 56.3632 25.8328 56.3632C26.3631 56.3632 26.8164 56.5112 27.1928 56.8071C27.5716 57.1006 27.8605 57.5268 28.0593 58.0855C28.2606 58.6418 28.3612 59.313 28.3612 60.099C28.3612 60.8897 28.2617 61.5644 28.0629 62.1231C27.864 62.6795 27.5764 63.1044 27.2 63.398C26.8235 63.6892 26.3678 63.8348 25.8328 63.8348ZM25.8328 63.0535C26.3631 63.0535 26.775 62.7979 27.0686 62.2865C27.3621 61.7751 27.5089 61.046 27.5089 60.099C27.5089 59.4693 27.4414 58.933 27.3065 58.4903C27.1739 58.0476 26.9821 57.7103 26.7312 57.4782C26.4826 57.2462 26.1831 57.1302 25.8328 57.1302C25.3072 57.1302 24.8964 57.3895 24.6005 57.9079C24.3046 58.424 24.1566 59.1544 24.1566 60.099C24.1566 60.7287 24.2229 61.2638 24.3555 61.7041C24.4881 62.1444 24.6786 62.4794 24.9272 62.7091C25.1782 62.9387 25.48 63.0535 25.8328 63.0535Z" fill="white"/>
<path d="M34.4621 36.0586H30.8127" stroke="white"/>
<path d="M2.1671 42.7019V41.9775L5.36313 36.9206H5.88869V38.0428H5.53358L3.11881 41.8638V41.9206H7.42278V42.7019H2.1671ZM5.5904 44.1934V42.4817V42.1444V36.9206H6.42847V44.1934H5.5904ZM9.67598 43.199L9.61916 43.5826C9.57892 43.8525 9.51736 44.1413 9.4345 44.449C9.35401 44.7568 9.26997 45.0468 9.18237 45.3191C9.09478 45.5913 9.02257 45.8079 8.96575 45.9689H8.32655C8.35733 45.8174 8.39757 45.6174 8.44729 45.3688C8.497 45.1202 8.54672 44.842 8.59644 44.5343C8.64852 44.2289 8.69113 43.9164 8.72428 43.5968L8.76689 43.199H9.67598ZM13.3328 44.2928C12.7977 44.2928 12.342 44.1472 11.9656 43.856C11.5892 43.5624 11.3015 43.1375 11.1027 42.5811C10.9038 42.0224 10.8044 41.3477 10.8044 40.557C10.8044 39.771 10.9038 39.0998 11.1027 38.5435C11.3039 37.9848 11.5927 37.5587 11.9691 37.2651C12.3479 36.9692 12.8025 36.8212 13.3328 36.8212C13.8631 36.8212 14.3164 36.9692 14.6928 37.2651C15.0716 37.5587 15.3605 37.9848 15.5593 38.5435C15.7606 39.0998 15.8612 39.771 15.8612 40.557C15.8612 41.3477 15.7617 42.0224 15.5629 42.5811C15.364 43.1375 15.0764 43.5624 14.7 43.856C14.3235 44.1472 13.8678 44.2928 13.3328 44.2928ZM13.3328 43.5115C13.8631 43.5115 14.275 43.2559 14.5686 42.7445C14.8621 42.2331 15.0089 41.504 15.0089 40.557C15.0089 39.9273 14.9414 39.391 14.8065 38.9483C14.6739 38.5056 14.4821 38.1683 14.2312 37.9363C13.9826 37.7042 13.6831 37.5882 13.3328 37.5882C12.8072 37.5882 12.3964 37.8475 12.1005 38.3659C11.8046 38.882 11.6566 39.6124 11.6566 40.557C11.6566 41.1867 11.7229 41.7218 11.8555 42.1621C11.9881 42.6025 12.1786 42.9374 12.4272 43.1671C12.6782 43.3967 12.98 43.5115 13.3328 43.5115ZM19.5828 44.2928C19.0477 44.2928 18.592 44.1472 18.2156 43.856C17.8392 43.5624 17.5515 43.1375 17.3527 42.5811C17.1538 42.0224 17.0544 41.3477 17.0544 40.557C17.0544 39.771 17.1538 39.0998 17.3527 38.5435C17.5539 37.9848 17.8427 37.5587 18.2191 37.2651C18.5979 36.9692 19.0525 36.8212 19.5828 36.8212C20.1131 36.8212 20.5664 36.9692 20.9428 37.2651C21.3216 37.5587 21.6105 37.9848 21.8093 38.5435C22.0106 39.0998 22.1112 39.771 22.1112 40.557C22.1112 41.3477 22.0117 42.0224 21.8129 42.5811C21.614 43.1375 21.3264 43.5624 20.95 43.856C20.5735 44.1472 20.1178 44.2928 19.5828 44.2928ZM19.5828 43.5115C20.1131 43.5115 20.525 43.2559 20.8186 42.7445C21.1121 42.2331 21.2589 41.504 21.2589 40.557C21.2589 39.9273 21.1914 39.391 21.0565 38.9483C20.9239 38.5056 20.7321 38.1683 20.4812 37.9363C20.2326 37.7042 19.9331 37.5882 19.5828 37.5882C19.0572 37.5882 18.6464 37.8475 18.3505 38.3659C18.0546 38.882 17.9066 39.6124 17.9066 40.557C17.9066 41.1867 17.9729 41.7218 18.1055 42.1621C18.2381 42.6025 18.4286 42.9374 18.6772 43.1671C18.9282 43.3967 19.23 43.5115 19.5828 43.5115ZM25.8328 44.2928C25.2977 44.2928 24.842 44.1472 24.4656 43.856C24.0892 43.5624 23.8015 43.1375 23.6027 42.5811C23.4038 42.0224 23.3044 41.3477 23.3044 40.557C23.3044 39.771 23.4038 39.0998 23.6027 38.5435C23.8039 37.9848 24.0927 37.5587 24.4691 37.2651C24.8479 36.9692 25.3025 36.8212 25.8328 36.8212C26.3631 36.8212 26.8164 36.9692 27.1928 37.2651C27.5716 37.5587 27.8605 37.9848 28.0593 38.5435C28.2606 39.0998 28.3612 39.771 28.3612 40.557C28.3612 41.3477 28.2617 42.0224 28.0629 42.5811C27.864 43.1375 27.5764 43.5624 27.2 43.856C26.8235 44.1472 26.3678 44.2928 25.8328 44.2928ZM25.8328 43.5115C26.3631 43.5115 26.775 43.2559 27.0686 42.7445C27.3621 42.2331 27.5089 41.504 27.5089 40.557C27.5089 39.9273 27.4414 39.391 27.3065 38.9483C27.1739 38.5056 26.9821 38.1683 26.7312 37.9363C26.4826 37.7042 26.1831 37.5882 25.8328 37.5882C25.3072 37.5882 24.8964 37.8475 24.6005 38.3659C24.3046 38.882 24.1566 39.6124 24.1566 40.557C24.1566 41.1867 24.2229 41.7218 24.3555 42.1621C24.4881 42.6025 24.6786 42.9374 24.9272 43.1671C25.1782 43.3967 25.48 43.5115 25.8328 43.5115Z" fill="white"/>
<path d="M7.16632 13.7403H8.82232C8.80632 14.0763 8.77832 14.5083 8.73832 15.0363C8.69832 15.5643 8.62232 16.1523 8.51032 16.8003C8.40632 17.4403 8.24632 18.1123 8.03032 18.8163C7.81432 19.5203 7.51832 20.2243 7.14232 20.9283C6.77432 21.6243 6.30232 22.2923 5.72632 22.9323C5.15832 23.5643 4.46632 24.1283 3.65032 24.6243C3.52232 24.4403 3.34632 24.2443 3.12232 24.0363C2.90632 23.8283 2.67832 23.6403 2.43832 23.4723C3.23832 23.0243 3.91032 22.5123 4.45432 21.9363C4.99832 21.3603 5.44232 20.7563 5.78632 20.1243C6.13032 19.4843 6.39432 18.8443 6.57832 18.2043C6.76232 17.5563 6.89432 16.9443 6.97432 16.3683C7.05432 15.7923 7.10232 15.2763 7.11832 14.8203C7.13432 14.3643 7.15032 14.0043 7.16632 13.7403ZM8.76232 14.0643C8.77032 14.2163 8.78632 14.4563 8.81032 14.7843C8.83432 15.1123 8.88232 15.5043 8.95432 15.9603C9.02632 16.4163 9.13432 16.9123 9.27832 17.4483C9.43032 17.9763 9.63032 18.5203 9.87832 19.0803C10.1263 19.6403 10.4343 20.1883 10.8023 20.7243C11.1703 21.2603 11.6143 21.7563 12.1343 22.2123C12.6623 22.6683 13.2783 23.0643 13.9823 23.4003C13.7503 23.5683 13.5343 23.7643 13.3343 23.9883C13.1423 24.2123 12.9863 24.4243 12.8663 24.6243C12.1303 24.2563 11.4863 23.8203 10.9343 23.3163C10.3903 22.8043 9.92232 22.2523 9.53032 21.6603C9.14632 21.0603 8.82632 20.4523 8.57032 19.8363C8.31432 19.2203 8.10632 18.6163 7.94632 18.0243C7.79432 17.4243 7.67832 16.8683 7.59832 16.3563C7.51832 15.8443 7.46232 15.4003 7.43032 15.0243C7.40632 14.6483 7.38632 14.3763 7.37032 14.2083L8.76232 14.0643ZM14.5223 19.7163H20.5943V20.8803H14.5223V19.7163ZM14.6663 15.4803H20.5583V16.6203H14.6663V15.4803ZM16.6943 18.8643L18.0263 19.1403C17.8263 19.5563 17.6103 19.9843 17.3783 20.4243C17.1543 20.8643 16.9303 21.2923 16.7063 21.7083C16.4823 22.1163 16.2743 22.4803 16.0823 22.8003L14.8223 22.4163C15.0143 22.1123 15.2183 21.7563 15.4343 21.3483C15.6583 20.9403 15.8783 20.5203 16.0943 20.0883C16.3183 19.6483 16.5183 19.2403 16.6943 18.8643ZM18.3863 20.5203L19.7183 20.6403C19.6063 21.2723 19.4383 21.8163 19.2143 22.2723C18.9983 22.7203 18.7063 23.1043 18.3383 23.4243C17.9783 23.7363 17.5383 23.9963 17.0183 24.2043C16.4983 24.4203 15.8783 24.6003 15.1583 24.7443C15.1183 24.5443 15.0423 24.3323 14.9303 24.1083C14.8183 23.8843 14.7023 23.7003 14.5823 23.5563C15.3743 23.4523 16.0263 23.2883 16.5383 23.0643C17.0583 22.8403 17.4663 22.5243 17.7623 22.1163C18.0583 21.7083 18.2663 21.1763 18.3863 20.5203ZM19.2383 13.5963L20.4503 14.0883C20.2583 14.3523 20.0663 14.6163 19.8743 14.8803C19.6903 15.1363 19.5223 15.3563 19.3703 15.5403L18.4463 15.1323C18.5823 14.9243 18.7263 14.6763 18.8783 14.3883C19.0303 14.0923 19.1503 13.8283 19.2383 13.5963ZM16.9583 13.4403H18.2783V19.0323H16.9583V13.4403ZM14.9663 14.0883L15.9983 13.6563C16.1583 13.8803 16.3063 14.1323 16.4423 14.4123C16.5783 14.6923 16.6743 14.9363 16.7303 15.1443L15.6263 15.6243C15.5863 15.4163 15.5023 15.1683 15.3743 14.8803C15.2463 14.5923 15.1103 14.3283 14.9663 14.0883ZM16.9943 16.0443L17.9183 16.6083C17.7263 16.9283 17.4743 17.2483 17.1623 17.5683C16.8583 17.8883 16.5303 18.1883 16.1783 18.4683C15.8343 18.7403 15.4943 18.9723 15.1583 19.1643C15.0783 19.0123 14.9663 18.8323 14.8223 18.6243C14.6863 18.4163 14.5543 18.2483 14.4263 18.1203C14.7463 17.9843 15.0703 17.8083 15.3983 17.5923C15.7263 17.3683 16.0303 17.1243 16.3103 16.8603C16.5983 16.5883 16.8263 16.3163 16.9943 16.0443ZM18.1583 16.3923C18.2703 16.4483 18.4223 16.5323 18.6143 16.6443C18.8143 16.7563 19.0263 16.8803 19.2503 17.0163C19.4823 17.1443 19.6903 17.2643 19.8743 17.3763C20.0663 17.4883 20.2023 17.5723 20.2823 17.6283L19.5263 18.6243C19.4143 18.5203 19.2703 18.3923 19.0943 18.2403C18.9183 18.0883 18.7303 17.9323 18.5303 17.7723C18.3303 17.6123 18.1383 17.4603 17.9543 17.3163C17.7703 17.1723 17.6103 17.0563 17.4743 16.9683L18.1583 16.3923ZM21.3863 15.6243H25.8023V16.9563H21.3863V15.6243ZM21.5183 13.4403L22.9823 13.6563C22.8543 14.4803 22.6903 15.2803 22.4903 16.0563C22.2903 16.8243 22.0463 17.5363 21.7583 18.1923C21.4783 18.8403 21.1503 19.4123 20.7743 19.9083C20.7023 19.8123 20.5983 19.7003 20.4623 19.5723C20.3263 19.4443 20.1823 19.3203 20.0303 19.2003C19.8783 19.0723 19.7503 18.9683 19.6463 18.8883C19.9823 18.4723 20.2703 17.9803 20.5103 17.4123C20.7583 16.8363 20.9663 16.2123 21.1343 15.5403C21.3023 14.8603 21.4303 14.1603 21.5183 13.4403ZM23.7023 16.4403L25.1783 16.5843C25.0023 17.9523 24.7303 19.1563 24.3623 20.1963C24.0023 21.2363 23.5023 22.1323 22.8623 22.8843C22.2223 23.6363 21.3983 24.2643 20.3903 24.7683C20.3423 24.6563 20.2703 24.5163 20.1743 24.3483C20.0783 24.1803 19.9743 24.0123 19.8623 23.8443C19.7503 23.6843 19.6463 23.5563 19.5503 23.4603C20.4623 23.0603 21.1983 22.5403 21.7583 21.9003C22.3263 21.2603 22.7623 20.4883 23.0663 19.5843C23.3703 18.6723 23.5823 17.6243 23.7023 16.4403ZM22.2023 16.6923C22.3703 17.7003 22.6063 18.6483 22.9103 19.5363C23.2143 20.4243 23.6143 21.2043 24.1103 21.8763C24.6063 22.5483 25.2183 23.0763 25.9463 23.4603C25.8423 23.5483 25.7263 23.6643 25.5983 23.8083C25.4703 23.9603 25.3463 24.1163 25.2263 24.2763C25.1143 24.4363 25.0223 24.5803 24.9503 24.7083C24.1423 24.2283 23.4743 23.6083 22.9463 22.8483C22.4263 22.0883 22.0063 21.2083 21.6863 20.2083C21.3663 19.2003 21.1063 18.1003 20.9063 16.9083L22.2023 16.6923ZM15.8783 22.4283L16.6463 21.4563C17.1183 21.6323 17.5863 21.8363 18.0503 22.0683C18.5223 22.3003 18.9583 22.5403 19.3583 22.7883C19.7663 23.0283 20.1063 23.2603 20.3783 23.4843L19.3703 24.5043C19.1223 24.2803 18.8103 24.0443 18.4343 23.7963C18.0583 23.5483 17.6503 23.3083 17.2103 23.0763C16.7703 22.8363 16.3263 22.6203 15.8783 22.4283Z" fill="#7B7B7B"/>
<path d="M34.4619 183.909C71.9691 183.909 71.9691 167.65 109.476 167.65C146.983 167.65 146.983 146.272 184.491 146.272C221.998 146.272 221.998 123.408 259.505 123.408C297.012 123.408 297.012 103.242 334.519 103.242C372.027 103.242 372.027 72.4833 409.534 72.4833C447.041 72.4833 447.041 39.0283 484.548 39.0283" stroke="#1F77B4"/>
<path d="M34.6921 186.403C72.1993 186.403 72.1993 176.753 109.706 176.753C147.214 176.753 147.214 170.212 184.721 170.212C222.228 170.212 222.228 167.834 259.735 167.834C297.242 167.834 297.242 169.481 334.75 169.481C372.257 169.481 372.257 155.531 409.764 155.531C447.271 155.531 447.271 148.625 484.778 148.625" stroke="#1F77B4"/>
<path d="M34.6921 192.118C72.1993 192.118 72.1993 191.751 109.706 191.751C147.214 191.751 147.214 191.384 184.721 191.384C222.228 191.384 222.228 190.956 259.735 190.956C297.242 190.956 297.242 189.948 334.75 189.948C372.257 189.948 372.257 188.908 409.764 188.908C447.271 188.908 447.271 186.402 484.778 186.402" stroke="#1F77B4"/>
</svg>
