<svg width="500" height="263" viewBox="0 0 500 263" fill="none" xmlns="http://www.w3.org/2000/svg">
<path d="M32.8196 236.442V234.021H464.382V236.442" stroke="white"/>
<path d="M32.8196 234.021V236.442" stroke="white"/>
<path d="M25.5056 239.21H26.3863V244.409C26.3863 244.873 26.301 245.267 26.1306 245.591C25.9601 245.915 25.7198 246.162 25.4097 246.33C25.0996 246.498 24.7338 246.582 24.3124 246.582C23.9147 246.582 23.5608 246.51 23.2506 246.365C22.9405 246.218 22.6966 246.01 22.5191 245.74C22.3415 245.47 22.2528 245.15 22.2528 244.778H23.1192C23.1192 244.984 23.1701 245.164 23.2719 245.318C23.3761 245.469 23.5181 245.588 23.6981 245.673C23.878 245.758 24.0828 245.801 24.3124 245.801C24.5657 245.801 24.7812 245.747 24.9587 245.641C25.1363 245.534 25.2712 245.378 25.3635 245.172C25.4582 244.964 25.5056 244.709 25.5056 244.409V239.21ZM31.4751 244.252V241.028H32.3131V246.482H31.4751V245.559H31.4182C31.2904 245.836 31.0915 246.072 30.8216 246.266C30.5518 246.458 30.2108 246.553 29.7989 246.553C29.458 246.553 29.155 246.479 28.8898 246.33C28.6247 246.178 28.4163 245.951 28.2648 245.648C28.1133 245.343 28.0376 244.958 28.0376 244.494V241.028H28.8756V244.437C28.8756 244.835 28.9869 245.152 29.2094 245.389C29.4343 245.625 29.7208 245.744 30.0688 245.744C30.2771 245.744 30.489 245.691 30.7045 245.584C30.9223 245.477 31.1046 245.314 31.2513 245.094C31.4005 244.874 31.4751 244.593 31.4751 244.252ZM34.6862 239.21V246.482H33.8481V239.21H34.6862ZM36.7609 248.528C36.6189 248.528 36.4922 248.516 36.3809 248.492C36.2697 248.471 36.1927 248.45 36.1501 248.428L36.3632 247.69C36.5668 247.742 36.7467 247.761 36.903 247.747C37.0592 247.732 37.1977 247.663 37.3184 247.537C37.4416 247.414 37.554 247.214 37.6558 246.937L37.8121 246.511L35.795 241.028H36.7041L38.2098 245.374H38.2666L39.7723 241.028H40.6814L38.366 247.278C38.2619 247.56 38.1328 247.793 37.979 247.977C37.8251 248.164 37.6463 248.303 37.4427 248.393C37.2415 248.483 37.0142 248.528 36.7609 248.528Z" fill="white"/>
<path d="M68.783 234.021V236.442" stroke="white"/>
<path d="M104.747 234.021V236.442" stroke="white"/>
<path d="M89.2574 246.482L87.2687 239.21H88.1636L89.6835 245.133H89.7545L91.3028 239.21H92.2971L93.8454 245.133H93.9165L95.4363 239.21H96.3312L94.3426 246.482H93.4335L91.8284 240.687H91.7716L90.1665 246.482H89.2574ZM99.094 246.596C98.5684 246.596 98.1151 246.48 97.7339 246.248C97.3551 246.014 97.0628 245.687 96.8568 245.268C96.6532 244.847 96.5514 244.356 96.5514 243.798C96.5514 243.239 96.6532 242.747 96.8568 242.32C97.0628 241.892 97.3492 241.558 97.7162 241.319C98.0855 241.078 98.5164 240.957 99.0088 240.957C99.2929 240.957 99.5734 241.004 99.8504 241.099C100.127 241.194 100.38 241.347 100.607 241.561C100.834 241.771 101.015 242.051 101.15 242.399C101.285 242.747 101.353 243.175 101.353 243.684V244.039H97.148V243.315H100.5C100.5 243.007 100.439 242.732 100.316 242.491C100.195 242.249 100.022 242.059 99.7971 241.919C99.5746 241.78 99.3118 241.71 99.0088 241.71C98.675 241.71 98.3862 241.793 98.1423 241.958C97.9008 242.122 97.715 242.335 97.5848 242.597C97.4546 242.86 97.3895 243.142 97.3895 243.443V243.926C97.3895 244.338 97.4605 244.687 97.6025 244.973C97.747 245.257 97.947 245.474 98.2027 245.623C98.4584 245.77 98.7555 245.843 99.094 245.843C99.3142 245.843 99.5131 245.812 99.6906 245.751C99.8705 245.687 100.026 245.592 100.156 245.467C100.286 245.339 100.387 245.18 100.458 244.991L101.267 245.218C101.182 245.493 101.039 245.734 100.838 245.943C100.636 246.149 100.388 246.31 100.092 246.426C99.796 246.539 99.4633 246.596 99.094 246.596ZM104.687 246.596C104.233 246.596 103.831 246.481 103.483 246.252C103.135 246.02 102.863 245.693 102.666 245.271C102.47 244.848 102.372 244.347 102.372 243.769C102.372 243.196 102.47 242.699 102.666 242.278C102.863 241.856 103.136 241.531 103.487 241.301C103.837 241.072 104.242 240.957 104.701 240.957C105.056 240.957 105.337 241.016 105.543 241.134C105.751 241.25 105.91 241.383 106.019 241.532C106.13 241.679 106.216 241.8 106.278 241.894H106.349V239.21H107.187V246.482H106.377V245.644H106.278C106.216 245.744 106.129 245.869 106.015 246.021C105.902 246.17 105.739 246.304 105.529 246.422C105.318 246.538 105.037 246.596 104.687 246.596ZM104.801 245.843C105.137 245.843 105.421 245.756 105.653 245.58C105.885 245.403 106.061 245.158 106.182 244.845C106.303 244.53 106.363 244.167 106.363 243.755C106.363 243.348 106.304 242.992 106.186 242.686C106.067 242.378 105.892 242.139 105.66 241.969C105.428 241.796 105.142 241.71 104.801 241.71C104.446 241.71 104.15 241.801 103.913 241.983C103.679 242.163 103.502 242.408 103.384 242.718C103.268 243.026 103.21 243.372 103.21 243.755C103.21 244.143 103.269 244.496 103.387 244.813C103.508 245.128 103.686 245.379 103.92 245.566C104.157 245.751 104.45 245.843 104.801 245.843ZM114.009 246.582C113.474 246.582 113.018 246.436 112.642 246.145C112.265 245.852 111.978 245.427 111.779 244.87C111.58 244.311 111.48 243.637 111.48 242.846C111.48 242.06 111.58 241.389 111.779 240.833C111.98 240.274 112.269 239.848 112.645 239.554C113.024 239.258 113.478 239.11 114.009 239.11C114.539 239.11 114.992 239.258 115.369 239.554C115.748 239.848 116.036 240.274 116.235 240.833C116.437 241.389 116.537 242.06 116.537 242.846C116.537 243.637 116.438 244.311 116.239 244.87C116.04 245.427 115.752 245.852 115.376 246.145C115 246.436 114.544 246.582 114.009 246.582ZM114.009 245.801C114.539 245.801 114.951 245.545 115.245 245.034C115.538 244.522 115.685 243.793 115.685 242.846C115.685 242.216 115.617 241.68 115.483 241.237C115.35 240.795 115.158 240.457 114.907 240.225C114.659 239.993 114.359 239.877 114.009 239.877C113.483 239.877 113.072 240.137 112.777 240.655C112.481 241.171 112.333 241.901 112.333 242.846C112.333 243.476 112.399 244.011 112.532 244.451C112.664 244.892 112.855 245.227 113.103 245.456C113.354 245.686 113.656 245.801 114.009 245.801ZM117.887 246.482V245.843L120.287 243.215C120.569 242.908 120.801 242.64 120.983 242.413C121.166 242.183 121.3 241.968 121.388 241.767C121.478 241.563 121.523 241.35 121.523 241.127C121.523 240.872 121.461 240.65 121.338 240.463C121.218 240.276 121.052 240.132 120.841 240.03C120.63 239.928 120.394 239.877 120.131 239.877C119.852 239.877 119.608 239.935 119.399 240.051C119.193 240.165 119.034 240.325 118.92 240.531C118.809 240.737 118.753 240.978 118.753 241.255H117.915C117.915 240.829 118.013 240.455 118.21 240.133C118.406 239.811 118.674 239.56 119.012 239.38C119.353 239.2 119.736 239.11 120.159 239.11C120.585 239.11 120.963 239.2 121.292 239.38C121.621 239.56 121.879 239.803 122.066 240.108C122.253 240.414 122.347 240.753 122.347 241.127C122.347 241.395 122.298 241.656 122.201 241.912C122.107 242.165 121.941 242.448 121.704 242.761C121.47 243.071 121.144 243.45 120.728 243.897L119.094 245.644V245.701H122.475V246.482H117.887Z" fill="white"/>
<path d="M140.71 234.021V236.442" stroke="white"/>
<path d="M176.674 234.021V236.442" stroke="white"/>
<path d="M160.125 239.991V239.21H165.579V239.991H163.292V246.482H162.411V239.991H160.125ZM167.663 243.201V246.482H166.825V239.21H167.663V241.88H167.734C167.862 241.598 168.053 241.375 168.309 241.209C168.567 241.041 168.91 240.957 169.339 240.957C169.711 240.957 170.036 241.031 170.315 241.181C170.595 241.327 170.811 241.553 170.965 241.859C171.122 242.162 171.2 242.548 171.2 243.017V246.482H170.362V243.073C170.362 242.64 170.249 242.305 170.024 242.068C169.802 241.829 169.493 241.71 169.097 241.71C168.823 241.71 168.577 241.768 168.359 241.884C168.143 242 167.973 242.169 167.847 242.392C167.724 242.614 167.663 242.884 167.663 243.201ZM176.17 244.252V241.028H177.008V246.482H176.17V245.559H176.114C175.986 245.836 175.787 246.072 175.517 246.266C175.247 246.458 174.906 246.553 174.494 246.553C174.153 246.553 173.85 246.479 173.585 246.33C173.32 246.178 173.112 245.951 172.96 245.648C172.809 245.343 172.733 244.958 172.733 244.494V241.028H173.571V244.437C173.571 244.835 173.682 245.152 173.905 245.389C174.13 245.625 174.416 245.744 174.764 245.744C174.972 245.744 175.184 245.691 175.4 245.584C175.618 245.477 175.8 245.314 175.947 245.094C176.096 244.874 176.17 244.593 176.17 244.252ZM183.714 246.582C183.179 246.582 182.723 246.436 182.347 246.145C181.97 245.852 181.683 245.427 181.484 244.87C181.285 244.311 181.185 243.637 181.185 242.846C181.185 242.06 181.285 241.389 181.484 240.833C181.685 240.274 181.974 239.848 182.35 239.554C182.729 239.258 183.184 239.11 183.714 239.11C184.244 239.11 184.698 239.258 185.074 239.554C185.453 239.848 185.742 240.274 185.94 240.833C186.142 241.389 186.242 242.06 186.242 242.846C186.242 243.637 186.143 244.311 185.944 244.87C185.745 245.427 185.457 245.852 185.081 246.145C184.705 246.436 184.249 246.582 183.714 246.582ZM183.714 245.801C184.244 245.801 184.656 245.545 184.95 245.034C185.243 244.522 185.39 243.793 185.39 242.846C185.39 242.216 185.323 241.68 185.188 241.237C185.055 240.795 184.863 240.457 184.612 240.225C184.364 239.993 184.064 239.877 183.714 239.877C183.188 239.877 182.778 240.137 182.482 240.655C182.186 241.171 182.038 241.901 182.038 242.846C182.038 243.476 182.104 244.011 182.237 244.451C182.369 244.892 182.56 245.227 182.808 245.456C183.059 245.686 183.361 245.801 183.714 245.801ZM190.049 246.582C189.58 246.582 189.162 246.501 188.796 246.34C188.431 246.179 188.141 245.956 187.926 245.669C187.712 245.38 187.596 245.045 187.578 244.664H188.472C188.491 244.899 188.572 245.101 188.714 245.271C188.856 245.44 189.042 245.57 189.271 245.662C189.501 245.754 189.756 245.801 190.035 245.801C190.347 245.801 190.624 245.746 190.866 245.637C191.107 245.528 191.297 245.377 191.434 245.183C191.571 244.989 191.64 244.764 191.64 244.508C191.64 244.24 191.574 244.005 191.441 243.801C191.309 243.595 191.114 243.434 190.859 243.318C190.603 243.202 190.291 243.144 189.921 243.144H189.339V242.363H189.921C190.21 242.363 190.463 242.311 190.681 242.207C190.901 242.103 191.073 241.956 191.196 241.767C191.322 241.577 191.384 241.355 191.384 241.099C191.384 240.853 191.33 240.638 191.221 240.456C191.112 240.274 190.958 240.132 190.759 240.03C190.563 239.928 190.331 239.877 190.063 239.877C189.812 239.877 189.576 239.923 189.353 240.016C189.133 240.106 188.953 240.237 188.813 240.41C188.674 240.58 188.598 240.786 188.586 241.028H187.734C187.748 240.647 187.863 240.313 188.078 240.026C188.294 239.738 188.575 239.513 188.923 239.352C189.274 239.191 189.658 239.11 190.078 239.11C190.527 239.11 190.913 239.201 191.235 239.384C191.557 239.564 191.805 239.802 191.977 240.097C192.15 240.393 192.237 240.713 192.237 241.056C192.237 241.466 192.129 241.815 191.913 242.104C191.7 242.393 191.41 242.593 191.043 242.704V242.761C191.503 242.837 191.861 243.032 192.119 243.347C192.377 243.659 192.506 244.046 192.506 244.508C192.506 244.903 192.399 245.258 192.183 245.573C191.97 245.886 191.679 246.132 191.31 246.312C190.94 246.492 190.52 246.582 190.049 246.582Z" fill="white"/>
<path d="M212.637 234.021V236.442" stroke="white"/>
<path d="M248.601 234.021V236.442" stroke="white"/>
<path d="M235.179 246.482V239.21H239.54V239.991H236.059V242.448H239.213V243.23H236.059V246.482H235.179ZM240.876 246.482V241.028H241.685V241.852H241.742C241.842 241.582 242.022 241.363 242.282 241.195C242.542 241.027 242.836 240.943 243.163 240.943C243.224 240.943 243.301 240.944 243.393 240.946C243.486 240.949 243.556 240.952 243.603 240.957V241.809C243.575 241.802 243.509 241.791 243.408 241.777C243.308 241.761 243.203 241.752 243.092 241.752C242.826 241.752 242.59 241.808 242.381 241.919C242.175 242.028 242.012 242.18 241.891 242.374C241.773 242.566 241.714 242.785 241.714 243.031V246.482H240.876ZM244.596 246.482V241.028H245.434V246.482H244.596ZM245.023 240.119C244.859 240.119 244.718 240.063 244.6 239.952C244.484 239.841 244.426 239.707 244.426 239.551C244.426 239.394 244.484 239.261 244.6 239.149C244.718 239.038 244.859 238.982 245.023 238.982C245.186 238.982 245.326 239.038 245.442 239.149C245.56 239.261 245.619 239.394 245.619 239.551C245.619 239.707 245.56 239.841 245.442 239.952C245.326 240.063 245.186 240.119 245.023 240.119ZM252.14 246.582C251.605 246.582 251.149 246.436 250.773 246.145C250.396 245.852 250.109 245.427 249.91 244.87C249.711 244.311 249.611 243.637 249.611 242.846C249.611 242.06 249.711 241.389 249.91 240.833C250.111 240.274 250.4 239.848 250.776 239.554C251.155 239.258 251.61 239.11 252.14 239.11C252.67 239.11 253.124 239.258 253.5 239.554C253.879 239.848 254.168 240.274 254.366 240.833C254.568 241.389 254.668 242.06 254.668 242.846C254.668 243.637 254.569 244.311 254.37 244.87C254.171 245.427 253.884 245.852 253.507 246.145C253.131 246.436 252.675 246.582 252.14 246.582ZM252.14 245.801C252.67 245.801 253.082 245.545 253.376 245.034C253.669 244.522 253.816 243.793 253.816 242.846C253.816 242.216 253.749 241.68 253.614 241.237C253.481 240.795 253.289 240.457 253.038 240.225C252.79 239.993 252.49 239.877 252.14 239.877C251.614 239.877 251.204 240.137 250.908 240.655C250.612 241.171 250.464 241.901 250.464 242.846C250.464 243.476 250.53 244.011 250.663 244.451C250.795 244.892 250.986 245.227 251.234 245.456C251.485 245.686 251.787 245.801 252.14 245.801ZM255.847 244.991V244.267L259.043 239.21H259.569V240.332H259.214L256.799 244.153V244.21H261.103V244.991H255.847ZM259.271 246.482V244.771V244.433V239.21H260.109V246.482H259.271Z" fill="white"/>
<path d="M284.564 234.021V236.442" stroke="white"/>
<path d="M320.528 234.021V236.442" stroke="white"/>
<path d="M310.004 241.028C309.962 240.668 309.789 240.389 309.486 240.19C309.183 239.991 308.811 239.892 308.371 239.892C308.049 239.892 307.767 239.944 307.526 240.048C307.286 240.152 307.099 240.295 306.964 240.477C306.832 240.66 306.766 240.867 306.766 241.099C306.766 241.293 306.812 241.46 306.904 241.6C306.999 241.737 307.119 241.852 307.266 241.944C307.413 242.034 307.567 242.109 307.728 242.168C307.889 242.225 308.037 242.271 308.172 242.306L308.91 242.505C309.1 242.555 309.311 242.624 309.543 242.711C309.777 242.799 310.001 242.918 310.214 243.07C310.429 243.219 310.607 243.411 310.746 243.645C310.886 243.879 310.956 244.167 310.956 244.508C310.956 244.901 310.853 245.256 310.647 245.573C310.443 245.891 310.145 246.143 309.752 246.33C309.361 246.517 308.887 246.61 308.328 246.61C307.807 246.61 307.356 246.526 306.975 246.358C306.596 246.19 306.298 245.956 306.08 245.655C305.865 245.354 305.743 245.005 305.714 244.607H306.624C306.647 244.882 306.74 245.109 306.901 245.289C307.064 245.467 307.27 245.599 307.518 245.687C307.769 245.772 308.039 245.815 308.328 245.815C308.664 245.815 308.966 245.76 309.234 245.651C309.501 245.54 309.713 245.386 309.869 245.19C310.026 244.991 310.104 244.759 310.104 244.494C310.104 244.252 310.036 244.056 309.901 243.904C309.766 243.753 309.589 243.63 309.369 243.535C309.148 243.44 308.91 243.357 308.655 243.286L307.76 243.031C307.192 242.867 306.742 242.634 306.41 242.331C306.079 242.028 305.913 241.632 305.913 241.142C305.913 240.734 306.023 240.379 306.244 240.076C306.466 239.771 306.764 239.534 307.138 239.366C307.515 239.195 307.935 239.11 308.399 239.11C308.868 239.11 309.284 239.194 309.649 239.362C310.014 239.528 310.302 239.755 310.516 240.044C310.731 240.333 310.845 240.661 310.856 241.028H310.004ZM313.895 246.61C313.55 246.61 313.236 246.545 312.954 246.415C312.673 246.282 312.449 246.092 312.283 245.843C312.117 245.592 312.035 245.289 312.035 244.934C312.035 244.622 312.096 244.368 312.219 244.174C312.342 243.978 312.507 243.824 312.713 243.713C312.919 243.601 313.146 243.518 313.395 243.464C313.646 243.407 313.898 243.362 314.151 243.329C314.482 243.286 314.751 243.254 314.957 243.233C315.165 243.209 315.317 243.17 315.412 243.116C315.509 243.061 315.557 242.967 315.557 242.832V242.803C315.557 242.453 315.461 242.181 315.27 241.987C315.08 241.793 314.793 241.695 314.407 241.695C314.007 241.695 313.693 241.783 313.466 241.958C313.238 242.133 313.079 242.32 312.986 242.519L312.191 242.235C312.333 241.904 312.522 241.646 312.759 241.461C312.998 241.274 313.259 241.144 313.54 241.07C313.824 240.995 314.104 240.957 314.378 240.957C314.553 240.957 314.755 240.978 314.982 241.021C315.212 241.061 315.433 241.145 315.646 241.273C315.861 241.401 316.04 241.594 316.182 241.852C316.324 242.11 316.395 242.455 316.395 242.889V246.482H315.557V245.744H315.515C315.458 245.862 315.363 245.989 315.231 246.124C315.098 246.259 314.922 246.374 314.701 246.468C314.481 246.563 314.213 246.61 313.895 246.61ZM314.023 245.857C314.355 245.857 314.634 245.792 314.861 245.662C315.091 245.532 315.264 245.364 315.38 245.158C315.498 244.952 315.557 244.735 315.557 244.508V243.741C315.522 243.784 315.444 243.823 315.323 243.858C315.205 243.891 315.067 243.921 314.911 243.947C314.757 243.971 314.607 243.992 314.46 244.011C314.316 244.027 314.198 244.042 314.108 244.053C313.891 244.082 313.687 244.128 313.498 244.192C313.311 244.253 313.159 244.347 313.043 244.472C312.929 244.596 312.873 244.764 312.873 244.977C312.873 245.268 312.98 245.488 313.196 245.637C313.414 245.784 313.689 245.857 314.023 245.857ZM320.297 241.028V241.738H317.47V241.028H320.297ZM318.294 239.721H319.132V244.92C319.132 245.157 319.167 245.334 319.235 245.453C319.306 245.569 319.396 245.647 319.505 245.687C319.617 245.725 319.734 245.744 319.857 245.744C319.949 245.744 320.025 245.739 320.084 245.73C320.143 245.718 320.191 245.708 320.226 245.701L320.397 246.454C320.34 246.475 320.26 246.497 320.159 246.518C320.057 246.542 319.928 246.553 319.772 246.553C319.535 246.553 319.303 246.503 319.076 246.401C318.851 246.299 318.664 246.144 318.514 245.936C318.368 245.727 318.294 245.464 318.294 245.147V239.721ZM326.728 246.582C326.193 246.582 325.738 246.436 325.361 246.145C324.985 245.852 324.697 245.427 324.498 244.87C324.299 244.311 324.2 243.637 324.2 242.846C324.2 242.06 324.299 241.389 324.498 240.833C324.699 240.274 324.988 239.848 325.365 239.554C325.743 239.258 326.198 239.11 326.728 239.11C327.259 239.11 327.712 239.258 328.088 239.554C328.467 239.848 328.756 240.274 328.955 240.833C329.156 241.389 329.257 242.06 329.257 242.846C329.257 243.637 329.157 244.311 328.958 244.87C328.76 245.427 328.472 245.852 328.095 246.145C327.719 246.436 327.263 246.582 326.728 246.582ZM326.728 245.801C327.259 245.801 327.671 245.545 327.964 245.034C328.258 244.522 328.404 243.793 328.404 242.846C328.404 242.216 328.337 241.68 328.202 241.237C328.069 240.795 327.878 240.457 327.627 240.225C327.378 239.993 327.079 239.877 326.728 239.877C326.203 239.877 325.792 240.137 325.496 240.655C325.2 241.171 325.052 241.901 325.052 242.846C325.052 243.476 325.118 244.011 325.251 244.451C325.384 244.892 325.574 245.227 325.823 245.456C326.074 245.686 326.376 245.801 326.728 245.801ZM332.879 246.582C332.462 246.582 332.087 246.499 331.753 246.333C331.419 246.168 331.152 245.94 330.951 245.651C330.749 245.363 330.639 245.034 330.62 244.664H331.473C331.506 244.993 331.655 245.266 331.92 245.481C332.188 245.694 332.507 245.801 332.879 245.801C333.177 245.801 333.442 245.731 333.674 245.591C333.909 245.451 334.092 245.26 334.225 245.016C334.36 244.77 334.427 244.491 334.427 244.181C334.427 243.864 334.357 243.581 334.218 243.333C334.08 243.082 333.891 242.884 333.649 242.74C333.408 242.595 333.132 242.522 332.822 242.519C332.599 242.517 332.371 242.551 332.137 242.622C331.902 242.691 331.709 242.78 331.558 242.889L330.734 242.789L331.174 239.21H334.953V239.991H331.913L331.657 242.136H331.7C331.849 242.017 332.036 241.919 332.261 241.841C332.486 241.763 332.72 241.724 332.964 241.724C333.409 241.724 333.806 241.83 334.154 242.044C334.504 242.254 334.779 242.543 334.978 242.91C335.179 243.277 335.279 243.696 335.279 244.167C335.279 244.631 335.175 245.045 334.967 245.41C334.761 245.772 334.477 246.059 334.115 246.269C333.752 246.478 333.34 246.582 332.879 246.582Z" fill="white"/>
<path d="M356.491 234.021V236.442" stroke="white"/>
<path d="M392.454 234.021V236.442" stroke="white"/>
<path d="M376.401 246.482H375.478L378.148 239.21H379.057L381.728 246.482H380.805L378.631 240.36H378.574L376.401 246.482ZM376.742 243.642H380.464V244.423H376.742V243.642ZM386.185 244.252V241.028H387.023V246.482H386.185V245.559H386.128C386 245.836 385.801 246.072 385.531 246.266C385.261 246.458 384.92 246.553 384.508 246.553C384.167 246.553 383.864 246.479 383.599 246.33C383.334 246.178 383.126 245.951 382.974 245.648C382.823 245.343 382.747 244.958 382.747 244.494V241.028H383.585V244.437C383.585 244.835 383.696 245.152 383.919 245.389C384.144 245.625 384.43 245.744 384.778 245.744C384.987 245.744 385.198 245.691 385.414 245.584C385.632 245.477 385.814 245.314 385.961 245.094C386.11 244.874 386.185 244.593 386.185 244.252ZM390.759 248.642C390.354 248.642 390.006 248.589 389.715 248.485C389.424 248.383 389.181 248.249 388.987 248.08C388.795 247.915 388.643 247.737 388.529 247.548L389.197 247.079C389.273 247.178 389.368 247.292 389.484 247.42C389.6 247.55 389.759 247.663 389.96 247.757C390.164 247.854 390.43 247.903 390.759 247.903C391.2 247.903 391.563 247.796 391.849 247.583C392.136 247.37 392.279 247.036 392.279 246.582V245.474H392.208C392.147 245.573 392.059 245.696 391.945 245.843C391.834 245.988 391.673 246.117 391.462 246.23C391.254 246.342 390.972 246.397 390.617 246.397C390.177 246.397 389.782 246.293 389.431 246.085C389.083 245.876 388.807 245.573 388.604 245.176C388.403 244.778 388.302 244.295 388.302 243.727C388.302 243.168 388.4 242.682 388.597 242.267C388.793 241.851 389.067 241.529 389.417 241.301C389.767 241.072 390.172 240.957 390.631 240.957C390.987 240.957 391.268 241.016 391.477 241.134C391.687 241.25 391.848 241.383 391.96 241.532C392.073 241.679 392.161 241.8 392.222 241.894H392.308V241.028H393.117V246.639C393.117 247.107 393.011 247.489 392.798 247.782C392.587 248.078 392.303 248.295 391.945 248.432C391.59 248.572 391.195 248.642 390.759 248.642ZM390.731 245.644C391.067 245.644 391.351 245.567 391.583 245.414C391.815 245.26 391.992 245.038 392.112 244.749C392.233 244.461 392.293 244.115 392.293 243.713C392.293 243.32 392.234 242.973 392.116 242.672C391.997 242.371 391.822 242.136 391.59 241.965C391.358 241.795 391.072 241.71 390.731 241.71C390.376 241.71 390.08 241.8 389.843 241.98C389.609 242.16 389.432 242.401 389.314 242.704C389.198 243.007 389.14 243.343 389.14 243.713C389.14 244.091 389.199 244.426 389.318 244.718C389.438 245.006 389.616 245.234 389.85 245.399C390.087 245.563 390.38 245.644 390.731 245.644ZM399.822 246.582C399.287 246.582 398.831 246.436 398.455 246.145C398.078 245.852 397.791 245.427 397.592 244.87C397.393 244.311 397.293 243.637 397.293 242.846C397.293 242.06 397.393 241.389 397.592 240.833C397.793 240.274 398.082 239.848 398.458 239.554C398.837 239.258 399.291 239.11 399.822 239.11C400.352 239.11 400.805 239.258 401.182 239.554C401.561 239.848 401.849 240.274 402.048 240.833C402.25 241.389 402.35 242.06 402.35 242.846C402.35 243.637 402.251 244.311 402.052 244.87C401.853 245.427 401.565 245.852 401.189 246.145C400.813 246.436 400.357 246.582 399.822 246.582ZM399.822 245.801C400.352 245.801 400.764 245.545 401.058 245.034C401.351 244.522 401.498 243.793 401.498 242.846C401.498 242.216 401.43 241.68 401.295 241.237C401.163 240.795 400.971 240.457 400.72 240.225C400.472 239.993 400.172 239.877 399.822 239.877C399.296 239.877 398.885 240.137 398.59 240.655C398.294 241.171 398.146 241.901 398.146 242.846C398.146 243.476 398.212 244.011 398.345 244.451C398.477 244.892 398.668 245.227 398.916 245.456C399.167 245.686 399.469 245.801 399.822 245.801ZM406.114 246.582C405.816 246.577 405.518 246.52 405.22 246.411C404.921 246.302 404.649 246.119 404.403 245.861C404.157 245.601 403.959 245.249 403.81 244.806C403.661 244.361 403.586 243.802 403.586 243.13C403.586 242.486 403.646 241.916 403.767 241.419C403.888 240.919 404.063 240.499 404.293 240.158C404.522 239.815 404.799 239.554 405.124 239.377C405.45 239.199 405.818 239.11 406.228 239.11C406.635 239.11 406.997 239.192 407.315 239.355C407.634 239.516 407.895 239.741 408.096 240.03C408.297 240.319 408.427 240.651 408.487 241.028H407.62C407.54 240.701 407.383 240.43 407.151 240.215C406.919 239.999 406.612 239.892 406.228 239.892C405.665 239.892 405.221 240.137 404.896 240.627C404.574 241.117 404.412 241.804 404.41 242.69H404.467C404.599 242.489 404.757 242.317 404.939 242.175C405.124 242.03 405.327 241.919 405.55 241.841C405.772 241.763 406.008 241.724 406.256 241.724C406.673 241.724 407.054 241.828 407.4 242.036C407.746 242.242 408.023 242.528 408.231 242.892C408.439 243.254 408.543 243.67 408.543 244.139C408.543 244.588 408.443 245 408.242 245.374C408.04 245.746 407.757 246.042 407.393 246.262C407.031 246.48 406.604 246.587 406.114 246.582ZM406.114 245.801C406.413 245.801 406.68 245.726 406.917 245.577C407.156 245.428 407.344 245.228 407.482 244.977C407.621 244.726 407.691 244.446 407.691 244.139C407.691 243.838 407.624 243.565 407.489 243.318C407.356 243.07 407.173 242.872 406.938 242.725C406.706 242.579 406.441 242.505 406.143 242.505C405.918 242.505 405.708 242.55 405.514 242.64C405.32 242.728 405.15 242.848 405.003 243.002C404.858 243.156 404.745 243.333 404.662 243.531C404.579 243.728 404.538 243.935 404.538 244.153C404.538 244.442 404.605 244.712 404.74 244.963C404.877 245.213 405.064 245.416 405.301 245.57C405.54 245.724 405.811 245.801 406.114 245.801Z" fill="white"/>
<path d="M428.418 234.021V236.442" stroke="white"/>
<path d="M464.382 234.021V236.442" stroke="white"/>
<path d="M446.894 239.21H447.945L450.416 245.247H450.502L452.973 239.21H454.024V246.482H453.2V240.957H453.129L450.857 246.482H450.061L447.789 240.957H447.717V246.482H446.894V239.21ZM457.892 246.596C457.4 246.596 456.968 246.479 456.596 246.244C456.227 246.01 455.938 245.682 455.73 245.261C455.524 244.839 455.421 244.347 455.421 243.784C455.421 243.215 455.524 242.719 455.73 242.296C455.938 241.872 456.227 241.543 456.596 241.308C456.968 241.074 457.4 240.957 457.892 240.957C458.385 240.957 458.816 241.074 459.185 241.308C459.557 241.543 459.846 241.872 460.051 242.296C460.26 242.719 460.364 243.215 460.364 243.784C460.364 244.347 460.26 244.839 460.051 245.261C459.846 245.682 459.557 246.01 459.185 246.244C458.816 246.479 458.385 246.596 457.892 246.596ZM457.892 245.843C458.266 245.843 458.574 245.747 458.816 245.556C459.057 245.364 459.236 245.112 459.352 244.799C459.468 244.487 459.526 244.148 459.526 243.784C459.526 243.419 459.468 243.079 459.352 242.764C459.236 242.45 459.057 242.195 458.816 242.001C458.574 241.807 458.266 241.71 457.892 241.71C457.518 241.71 457.211 241.807 456.969 242.001C456.728 242.195 456.549 242.45 456.433 242.764C456.317 243.079 456.259 243.419 456.259 243.784C456.259 244.148 456.317 244.487 456.433 244.799C456.549 245.112 456.728 245.364 456.969 245.556C457.211 245.747 457.518 245.843 457.892 245.843ZM462.481 243.201V246.482H461.643V241.028H462.453V241.88H462.524C462.652 241.603 462.846 241.381 463.106 241.213C463.367 241.042 463.703 240.957 464.115 240.957C464.484 240.957 464.807 241.033 465.084 241.184C465.361 241.333 465.577 241.561 465.731 241.866C465.885 242.169 465.961 242.552 465.961 243.017V246.482H465.123V243.073C465.123 242.645 465.012 242.311 464.79 242.072C464.567 241.83 464.262 241.71 463.873 241.71C463.606 241.71 463.367 241.768 463.156 241.884C462.948 242 462.783 242.169 462.662 242.392C462.542 242.614 462.481 242.884 462.481 243.201ZM472.663 246.582C472.128 246.582 471.673 246.436 471.296 246.145C470.92 245.852 470.632 245.427 470.433 244.87C470.234 244.311 470.135 243.637 470.135 242.846C470.135 242.06 470.234 241.389 470.433 240.833C470.634 240.274 470.923 239.848 471.3 239.554C471.678 239.258 472.133 239.11 472.663 239.11C473.194 239.11 473.647 239.258 474.023 239.554C474.402 239.848 474.691 240.274 474.89 240.833C475.091 241.389 475.192 242.06 475.192 242.846C475.192 243.637 475.092 244.311 474.893 244.87C474.695 245.427 474.407 245.852 474.031 246.145C473.654 246.436 473.198 246.582 472.663 246.582ZM472.663 245.801C473.194 245.801 473.606 245.545 473.899 245.034C474.193 244.522 474.339 243.793 474.339 242.846C474.339 242.216 474.272 241.68 474.137 241.237C474.004 240.795 473.813 240.457 473.562 240.225C473.313 239.993 473.014 239.877 472.663 239.877C472.138 239.877 471.727 240.137 471.431 240.655C471.135 241.171 470.987 241.901 470.987 242.846C470.987 243.476 471.053 244.011 471.186 244.451C471.319 244.892 471.509 245.227 471.758 245.456C472.009 245.686 472.311 245.801 472.663 245.801ZM476.573 246.482L479.826 240.048V239.991H476.076V239.21H480.735V240.034L477.496 246.482H476.573Z" fill="white"/>
<path d="M477.097 250.014H485.473V260.394H483.925V251.466H478.573V260.418H477.097V250.014ZM478.105 254.046H484.561V255.462H478.105V254.046ZM478.105 258.174H484.573V259.626H478.105V258.174ZM494.629 249.822H497.725V251.13H494.629V249.822ZM494.629 252.534H497.725V253.806H494.629V252.534ZM494.617 255.282H497.737V256.566H494.617V255.282ZM497.113 249.822H498.493V258.966C498.493 259.318 498.453 259.594 498.373 259.794C498.293 260.002 498.149 260.166 497.941 260.286C497.733 260.398 497.469 260.47 497.149 260.502C496.837 260.534 496.457 260.546 496.009 260.538C495.985 260.346 495.933 260.114 495.853 259.842C495.773 259.578 495.689 259.354 495.601 259.17C495.857 259.186 496.109 259.194 496.357 259.194C496.613 259.194 496.785 259.194 496.873 259.194C496.961 259.194 497.021 259.178 497.053 259.146C497.093 259.106 497.113 259.042 497.113 258.954V249.822ZM494.029 249.822H495.385V254.238C495.385 254.71 495.369 255.226 495.337 255.786C495.313 256.346 495.257 256.914 495.169 257.49C495.089 258.058 494.973 258.61 494.821 259.146C494.669 259.682 494.461 260.162 494.197 260.586C494.125 260.498 494.017 260.398 493.873 260.286C493.729 260.182 493.585 260.082 493.441 259.986C493.297 259.89 493.169 259.818 493.057 259.77C493.361 259.25 493.581 258.67 493.717 258.03C493.853 257.39 493.937 256.742 493.969 256.086C494.009 255.422 494.029 254.806 494.029 254.238V249.822ZM487.753 250.698H493.633V251.958H487.753V250.698ZM489.313 252.666H492.181V253.758H489.313V252.666ZM489.313 254.526H492.181V255.63H489.313V254.526ZM487.609 256.434H493.549V257.694H487.609V256.434ZM488.689 249.426H489.985V256.89H488.689V249.426ZM491.485 249.426H492.805V256.89H491.485V249.426ZM489.097 257.778L490.465 258.174C490.241 258.614 489.965 259.05 489.637 259.482C489.309 259.922 488.985 260.29 488.665 260.586C488.585 260.498 488.473 260.402 488.329 260.298C488.193 260.194 488.049 260.09 487.897 259.986C487.753 259.882 487.625 259.798 487.513 259.734C487.833 259.494 488.133 259.198 488.413 258.846C488.701 258.494 488.929 258.138 489.097 257.778ZM490.885 258.318L491.977 257.718C492.137 257.886 492.301 258.078 492.469 258.294C492.645 258.502 492.809 258.71 492.961 258.918C493.121 259.118 493.249 259.302 493.345 259.47L492.181 260.142C492.101 259.982 491.985 259.794 491.833 259.578C491.689 259.37 491.533 259.154 491.365 258.93C491.197 258.706 491.037 258.502 490.885 258.318Z" fill="#7B7B7B"/>
<path d="M4.85305 68.5316H12.473V69.8996H4.85305V68.5316ZM5.12905 63.1316H12.017V64.4996H5.12905V63.1316ZM7.93705 63.4436H9.38905V73.8356H7.93705V63.4436ZM10.685 64.9556L12.065 65.2436C11.969 65.5796 11.869 65.9236 11.765 66.2756C11.661 66.6276 11.557 66.9596 11.453 67.2716C11.357 67.5836 11.257 67.8636 11.153 68.1116L10.025 67.8116C10.113 67.5556 10.201 67.2596 10.289 66.9236C10.377 66.5876 10.453 66.2476 10.517 65.9036C10.589 65.5596 10.645 65.2436 10.685 64.9556ZM5.36905 65.2436L6.58105 64.9556C6.68505 65.2436 6.77705 65.5556 6.85705 65.8916C6.94504 66.2276 7.02104 66.5556 7.08505 66.8756C7.15705 67.1876 7.20505 67.4716 7.22905 67.7276L5.94505 68.0516C5.92105 67.7956 5.88105 67.5076 5.82505 67.1876C5.76905 66.8596 5.70105 66.5276 5.62104 66.1916C5.54105 65.8556 5.45705 65.5396 5.36905 65.2436ZM1.74505 63.6596L2.64505 62.7956C2.85304 62.9716 3.07704 63.1676 3.31704 63.3836C3.56504 63.5996 3.79704 63.8156 4.01304 64.0316C4.23704 64.2476 4.41704 64.4436 4.55305 64.6196L3.58104 65.6156C3.46104 65.4316 3.29704 65.2276 3.08905 65.0036C2.88104 64.7796 2.65704 64.5516 2.41704 64.3196C2.17704 64.0796 1.95305 63.8596 1.74505 63.6596ZM2.70504 73.6916L2.38105 72.3956L2.63305 71.9516L4.82905 70.1276C4.88505 70.3196 4.96505 70.5356 5.06904 70.7756C5.17305 71.0156 5.26505 71.2076 5.34504 71.3516C4.83305 71.7836 4.41705 72.1356 4.09704 72.4076C3.77705 72.6796 3.52105 72.8956 3.32904 73.0556C3.14504 73.2236 3.00905 73.3516 2.92105 73.4396C2.83305 73.5276 2.76104 73.6116 2.70504 73.6916ZM1.24104 66.2756H3.37705V67.6556H1.24104V66.2756ZM2.70504 73.6916C2.67305 73.5716 2.62105 73.4356 2.54905 73.2836C2.47704 73.1316 2.39704 72.9836 2.30904 72.8396C2.22104 72.6956 2.14104 72.5796 2.06904 72.4916C2.18904 72.4036 2.31304 72.2716 2.44104 72.0956C2.56905 71.9116 2.63305 71.6876 2.63305 71.4236V66.2636H3.97705V72.4076C3.97705 72.4076 3.91305 72.4516 3.78505 72.5396C3.65705 72.6276 3.50905 72.7356 3.34105 72.8636C3.17305 72.9996 3.02505 73.1396 2.89705 73.2836C2.76904 73.4276 2.70504 73.5636 2.70504 73.6916ZM21.377 62.9996C21.609 63.4716 21.905 63.9516 22.265 64.4396C22.633 64.9196 23.029 65.3676 23.453 65.7836C23.885 66.1916 24.317 66.5356 24.749 66.8156C24.645 66.9036 24.525 67.0156 24.389 67.1516C24.261 67.2796 24.137 67.4156 24.017 67.5596C23.905 67.6956 23.809 67.8236 23.729 67.9436C23.385 67.6876 23.045 67.3916 22.709 67.0556C22.373 66.7196 22.049 66.3556 21.737 65.9636C21.433 65.5636 21.145 65.1516 20.873 64.7276C20.601 64.3036 20.361 63.8756 20.153 63.4436L21.377 62.9996ZM20.105 62.5316L21.653 62.8076C21.365 63.4316 21.021 64.0516 20.621 64.6676C20.229 65.2836 19.773 65.8796 19.253 66.4556C18.741 67.0316 18.149 67.5676 17.477 68.0636C17.413 67.9516 17.325 67.8236 17.213 67.6796C17.109 67.5356 16.993 67.3996 16.865 67.2716C16.737 67.1356 16.621 67.0276 16.517 66.9476C17.117 66.5316 17.649 66.0756 18.113 65.5796C18.577 65.0836 18.973 64.5756 19.301 64.0556C19.637 63.5276 19.905 63.0196 20.105 62.5316ZM18.113 67.0916H19.553V71.6156C19.553 71.8716 19.597 72.0356 19.685 72.1076C19.781 72.1716 19.989 72.2036 20.309 72.2036C20.389 72.2036 20.513 72.2036 20.681 72.2036C20.849 72.2036 21.033 72.2036 21.233 72.2036C21.441 72.2036 21.633 72.2036 21.809 72.2036C21.993 72.2036 22.129 72.2036 22.217 72.2036C22.417 72.2036 22.565 72.1636 22.661 72.0836C22.765 71.9956 22.837 71.8316 22.877 71.5916C22.925 71.3516 22.961 70.9956 22.985 70.5236C23.089 70.5956 23.217 70.6716 23.369 70.7516C23.529 70.8236 23.689 70.8876 23.849 70.9436C24.017 70.9996 24.161 71.0436 24.281 71.0756C24.225 71.6996 24.133 72.1876 24.005 72.5396C23.877 72.8916 23.681 73.1396 23.417 73.2836C23.161 73.4276 22.797 73.4996 22.325 73.4996C22.261 73.4996 22.153 73.4996 22.001 73.4996C21.857 73.4996 21.693 73.4996 21.509 73.4996C21.325 73.4996 21.141 73.4996 20.957 73.4996C20.781 73.4996 20.621 73.4996 20.477 73.4996C20.333 73.4996 20.229 73.4996 20.165 73.4996C19.629 73.4996 19.209 73.4436 18.905 73.3316C18.609 73.2196 18.401 73.0276 18.281 72.7556C18.169 72.4836 18.113 72.1076 18.113 71.6276V67.0916ZM22.385 67.5116L23.321 68.7356C22.905 68.9756 22.457 69.2196 21.977 69.4676C21.497 69.7076 21.017 69.9356 20.537 70.1516C20.065 70.3596 19.625 70.5396 19.217 70.6916L18.461 69.6116C18.853 69.4516 19.285 69.2556 19.757 69.0236C20.237 68.7916 20.705 68.5436 21.161 68.2796C21.625 68.0156 22.033 67.7596 22.385 67.5116ZM13.841 63.6476L14.729 62.6876C14.969 62.8636 15.237 63.0636 15.533 63.2876C15.829 63.5116 16.105 63.7356 16.361 63.9596C16.625 64.1836 16.841 64.3836 17.009 64.5596L16.049 65.6516C15.905 65.4676 15.705 65.2596 15.449 65.0276C15.193 64.7876 14.921 64.5476 14.633 64.3076C14.353 64.0596 14.089 63.8396 13.841 63.6476ZM15.005 73.7636L14.681 72.4196L14.957 71.9756L17.225 70.1516C17.281 70.3516 17.357 70.5716 17.453 70.8116C17.557 71.0516 17.649 71.2436 17.729 71.3876C17.193 71.8196 16.761 72.1756 16.433 72.4556C16.105 72.7276 15.845 72.9476 15.653 73.1156C15.461 73.2836 15.317 73.4156 15.221 73.5116C15.133 73.6076 15.061 73.6916 15.005 73.7636ZM13.205 66.2756H15.677V67.6556H13.205V66.2756ZM15.005 73.7636C14.965 73.6596 14.901 73.5436 14.813 73.4156C14.725 73.2876 14.633 73.1636 14.537 73.0436C14.441 72.9236 14.353 72.8316 14.273 72.7676C14.361 72.6876 14.449 72.5876 14.537 72.4676C14.633 72.3396 14.713 72.1916 14.777 72.0236C14.841 71.8476 14.873 71.6556 14.873 71.4476V66.2756H16.253V72.2156C16.253 72.2156 16.209 72.2516 16.121 72.3236C16.033 72.3956 15.929 72.4916 15.809 72.6116C15.689 72.7316 15.565 72.8596 15.437 72.9956C15.317 73.1396 15.213 73.2756 15.125 73.4036C15.045 73.5396 15.005 73.6596 15.005 73.7636ZM25.169 68.8316H31.241V69.9956H25.169V68.8316ZM25.313 64.5956H31.205V65.7356H25.313V64.5956ZM27.341 67.9796L28.673 68.2556C28.473 68.6716 28.257 69.0996 28.025 69.5396C27.801 69.9796 27.577 70.4076 27.353 70.8236C27.129 71.2316 26.921 71.5956 26.729 71.9156L25.469 71.5316C25.661 71.2276 25.865 70.8716 26.081 70.4636C26.305 70.0556 26.525 69.6356 26.741 69.2036C26.965 68.7636 27.165 68.3556 27.341 67.9796ZM29.033 69.6356L30.365 69.7556C30.253 70.3876 30.085 70.9316 29.861 71.3876C29.645 71.8356 29.353 72.2196 28.985 72.5396C28.625 72.8516 28.185 73.1116 27.665 73.3196C27.145 73.5356 26.525 73.7156 25.805 73.8596C25.765 73.6596 25.689 73.4476 25.577 73.2236C25.465 72.9996 25.349 72.8156 25.229 72.6716C26.021 72.5676 26.673 72.4036 27.185 72.1796C27.705 71.9556 28.113 71.6396 28.409 71.2316C28.705 70.8236 28.913 70.2916 29.033 69.6356ZM29.885 62.7116L31.097 63.2036C30.905 63.4676 30.713 63.7316 30.521 63.9956C30.337 64.2516 30.169 64.4716 30.017 64.6556L29.093 64.2476C29.229 64.0396 29.373 63.7916 29.525 63.5036C29.677 63.2076 29.797 62.9436 29.885 62.7116ZM27.605 62.5556H28.925V68.1476H27.605V62.5556ZM25.613 63.2036L26.645 62.7716C26.805 62.9956 26.953 63.2476 27.089 63.5276C27.225 63.8076 27.321 64.0516 27.377 64.2596L26.273 64.7396C26.233 64.5316 26.149 64.2836 26.021 63.9956C25.893 63.7076 25.757 63.4436 25.613 63.2036ZM27.641 65.1596L28.565 65.7236C28.373 66.0436 28.121 66.3636 27.809 66.6836C27.505 67.0036 27.177 67.3036 26.825 67.5836C26.481 67.8556 26.141 68.0876 25.805 68.2796C25.725 68.1276 25.613 67.9476 25.469 67.7396C25.333 67.5316 25.201 67.3636 25.073 67.2356C25.393 67.0996 25.717 66.9236 26.045 66.7076C26.373 66.4836 26.677 66.2396 26.957 65.9756C27.245 65.7036 27.473 65.4316 27.641 65.1596ZM28.805 65.5076C28.917 65.5636 29.069 65.6476 29.261 65.7596C29.461 65.8716 29.673 65.9956 29.897 66.1316C30.129 66.2596 30.337 66.3796 30.521 66.4916C30.713 66.6036 30.849 66.6876 30.929 66.7436L30.173 67.7396C30.061 67.6356 29.917 67.5076 29.741 67.3556C29.565 67.2036 29.377 67.0476 29.177 66.8876C28.977 66.7276 28.785 66.5756 28.601 66.4316C28.417 66.2876 28.257 66.1716 28.121 66.0836L28.805 65.5076ZM32.033 64.7396H36.449V66.0716H32.033V64.7396ZM32.165 62.5556L33.629 62.7716C33.501 63.5956 33.337 64.3956 33.137 65.1716C32.937 65.9396 32.693 66.6516 32.405 67.3076C32.125 67.9556 31.797 68.5276 31.421 69.0236C31.349 68.9276 31.245 68.8156 31.109 68.6876C30.973 68.5596 30.829 68.4356 30.677 68.3156C30.525 68.1876 30.397 68.0836 30.293 68.0036C30.629 67.5876 30.917 67.0956 31.157 66.5276C31.405 65.9516 31.613 65.3276 31.781 64.6556C31.949 63.9756 32.077 63.2756 32.165 62.5556ZM34.349 65.5556L35.825 65.6996C35.649 67.0676 35.377 68.2716 35.009 69.3116C34.649 70.3516 34.149 71.2476 33.509 71.9996C32.869 72.7516 32.045 73.3796 31.037 73.8836C30.989 73.7716 30.917 73.6316 30.821 73.4636C30.725 73.2956 30.621 73.1276 30.509 72.9596C30.397 72.7996 30.293 72.6716 30.197 72.5756C31.109 72.1756 31.845 71.6556 32.405 71.0156C32.973 70.3756 33.409 69.6036 33.713 68.6996C34.017 67.7876 34.229 66.7396 34.349 65.5556ZM32.849 65.8076C33.017 66.8156 33.253 67.7636 33.557 68.6516C33.861 69.5396 34.261 70.3196 34.757 70.9916C35.253 71.6636 35.865 72.1916 36.593 72.5756C36.489 72.6636 36.373 72.7796 36.245 72.9236C36.117 73.0756 35.993 73.2316 35.873 73.3916C35.761 73.5516 35.669 73.6956 35.597 73.8236C34.789 73.3436 34.121 72.7236 33.593 71.9636C33.073 71.2036 32.653 70.3236 32.333 69.3236C32.013 68.3156 31.753 67.2156 31.553 66.0236L32.849 65.8076ZM26.525 71.5436L27.293 70.5716C27.765 70.7476 28.233 70.9516 28.697 71.1836C29.169 71.4156 29.605 71.6556 30.005 71.9036C30.413 72.1436 30.753 72.3756 31.025 72.5996L30.017 73.6196C29.769 73.3956 29.457 73.1596 29.081 72.9116C28.705 72.6636 28.297 72.4236 27.857 72.1916C27.417 71.9516 26.973 71.7356 26.525 71.5436Z" fill="#7B7B7B"/>
<path d="M32.8196 234.022L32.8196 80.5312" stroke="white"/>
<path d="M32.8195 234.021H29.3203" stroke="white"/>
<path d="M23.7554 236.063C23.263 236.063 22.8309 235.946 22.4593 235.711C22.0899 235.477 21.8011 235.149 21.5928 234.728C21.3868 234.306 21.2838 233.814 21.2838 233.25C21.2838 232.682 21.3868 232.186 21.5928 231.762C21.8011 231.339 22.0899 231.01 22.4593 230.775C22.8309 230.541 23.263 230.424 23.7554 230.424C24.2478 230.424 24.6787 230.541 25.048 230.775C25.4197 231.01 25.7085 231.339 25.9145 231.762C26.1228 232.186 26.227 232.682 26.227 233.25C26.227 233.814 26.1228 234.306 25.9145 234.728C25.7085 235.149 25.4197 235.477 25.048 235.711C24.6787 235.946 24.2478 236.063 23.7554 236.063ZM23.7554 235.31C24.1295 235.31 24.4372 235.214 24.6787 235.022C24.9202 234.831 25.0989 234.578 25.2149 234.266C25.3309 233.953 25.3889 233.615 25.3889 233.25C25.3889 232.886 25.3309 232.546 25.2149 232.231C25.0989 231.916 24.9202 231.662 24.6787 231.468C24.4372 231.274 24.1295 231.176 23.7554 231.176C23.3814 231.176 23.0736 231.274 22.8321 231.468C22.5906 231.662 22.4119 231.916 22.2959 232.231C22.1799 232.546 22.1219 232.886 22.1219 233.25C22.1219 233.615 22.1799 233.953 22.2959 234.266C22.4119 234.578 22.5906 234.831 22.8321 235.022C23.0736 235.214 23.3814 235.31 23.7554 235.31Z" fill="white"/>
<path d="M32.8195 218.693H29.3203" stroke="white"/>
<path d="M17.2346 226.049C16.8179 226.049 16.4426 225.966 16.1088 225.8C15.775 225.634 15.5075 225.407 15.3063 225.118C15.1051 224.829 14.995 224.5 14.976 224.131H15.8283C15.8614 224.46 16.0106 224.732 16.2757 224.948C16.5433 225.161 16.8629 225.267 17.2346 225.267C17.5328 225.267 17.798 225.198 18.03 225.058C18.2644 224.918 18.4479 224.726 18.5804 224.483C18.7154 224.236 18.7828 223.958 18.7828 223.648C18.7828 223.331 18.713 223.048 18.5733 222.799C18.436 222.548 18.2466 222.351 18.0051 222.206C17.7637 222.062 17.4879 221.989 17.1777 221.986C16.9552 221.984 16.7267 222.018 16.4924 222.089C16.258 222.158 16.065 222.247 15.9135 222.355L15.0897 222.256L15.53 218.676H19.3084V219.458H16.2686L16.013 221.603H16.0556C16.2047 221.484 16.3917 221.386 16.6167 221.308C16.8416 221.23 17.0759 221.191 17.3198 221.191C17.7649 221.191 18.1614 221.297 18.5094 221.51C18.8598 221.721 19.1344 222.01 19.3333 222.377C19.5345 222.744 19.6351 223.163 19.6351 223.634C19.6351 224.098 19.531 224.512 19.3226 224.877C19.1167 225.239 18.8326 225.525 18.4703 225.736C18.1081 225.944 17.6962 226.049 17.2346 226.049ZM23.418 226.049C22.8829 226.049 22.4272 225.903 22.0508 225.612C21.6744 225.318 21.3867 224.893 21.1879 224.337C20.989 223.778 20.8896 223.104 20.8896 222.313C20.8896 221.527 20.989 220.856 21.1879 220.299C21.3891 219.741 21.6779 219.315 22.0543 219.021C22.4331 218.725 22.8877 218.577 23.418 218.577C23.9483 218.577 24.4016 218.725 24.7781 219.021C25.1568 219.315 25.4457 219.741 25.6445 220.299C25.8458 220.856 25.9464 221.527 25.9464 222.313C25.9464 223.104 25.8469 223.778 25.6481 224.337C25.4492 224.893 25.1616 225.318 24.7852 225.612C24.4087 225.903 23.953 226.049 23.418 226.049ZM23.418 225.267C23.9483 225.267 24.3602 225.012 24.6538 224.5C24.9473 223.989 25.0941 223.26 25.0941 222.313C25.0941 221.683 25.0266 221.147 24.8917 220.704C24.7591 220.261 24.5674 219.924 24.3164 219.692C24.0678 219.46 23.7683 219.344 23.418 219.344C22.8924 219.344 22.4817 219.603 22.1857 220.122C21.8898 220.638 21.7418 221.368 21.7418 222.313C21.7418 222.943 21.8081 223.478 21.9407 223.918C22.0733 224.358 22.2638 224.693 22.5124 224.923C22.7634 225.153 23.0652 225.267 23.418 225.267Z" fill="white"/>
<path d="M32.8195 203.363H29.3203" stroke="white"/>
<path d="M13.0099 203.348V210.621H12.1292V204.272H12.0866L10.311 205.451V204.556L12.1292 203.348H13.0099ZM17.4736 210.721C16.9386 210.721 16.4829 210.575 16.1064 210.284C15.73 209.99 15.4424 209.565 15.2435 209.009C15.0447 208.45 14.9452 207.775 14.9452 206.985C14.9452 206.199 15.0447 205.528 15.2435 204.971C15.4448 204.413 15.7336 203.986 16.11 203.693C16.4888 203.397 16.9433 203.249 17.4736 203.249C18.0039 203.249 18.4573 203.397 18.8337 203.693C19.2125 203.986 19.5013 204.413 19.7002 204.971C19.9014 205.528 20.002 206.199 20.002 206.985C20.002 207.775 19.9026 208.45 19.7037 209.009C19.5049 209.565 19.2172 209.99 18.8408 210.284C18.4644 210.575 18.0087 210.721 17.4736 210.721ZM17.4736 209.939C18.0039 209.939 18.4159 209.684 18.7094 209.172C19.003 208.661 19.1498 207.932 19.1498 206.985C19.1498 206.355 19.0823 205.819 18.9474 205.376C18.8148 204.933 18.623 204.596 18.3721 204.364C18.1235 204.132 17.824 204.016 17.4736 204.016C16.9481 204.016 16.5373 204.275 16.2414 204.794C15.9455 205.31 15.7975 206.04 15.7975 206.985C15.7975 207.614 15.8638 208.15 15.9964 208.59C16.1289 209.03 16.3195 209.365 16.5681 209.595C16.819 209.824 17.1209 209.939 17.4736 209.939ZM23.7236 210.721C23.1886 210.721 22.7329 210.575 22.3564 210.284C21.98 209.99 21.6924 209.565 21.4935 209.009C21.2947 208.45 21.1952 207.775 21.1952 206.985C21.1952 206.199 21.2947 205.528 21.4935 204.971C21.6948 204.413 21.9836 203.986 22.36 203.693C22.7388 203.397 23.1933 203.249 23.7236 203.249C24.2539 203.249 24.7073 203.397 25.0837 203.693C25.4625 203.986 25.7513 204.413 25.9502 204.971C26.1514 205.528 26.252 206.199 26.252 206.985C26.252 207.775 26.1526 208.45 25.9537 209.009C25.7549 209.565 25.4672 209.99 25.0908 210.284C24.7144 210.575 24.2587 210.721 23.7236 210.721ZM23.7236 209.939C24.2539 209.939 24.6659 209.684 24.9594 209.172C25.253 208.661 25.3998 207.932 25.3998 206.985C25.3998 206.355 25.3323 205.819 25.1974 205.376C25.0648 204.933 24.873 204.596 24.6221 204.364C24.3735 204.132 24.074 204.016 23.7236 204.016C23.1981 204.016 22.7873 204.275 22.4914 204.794C22.1955 205.31 22.0475 206.04 22.0475 206.985C22.0475 207.614 22.1138 208.15 22.2464 208.59C22.3789 209.03 22.5695 209.365 22.8181 209.595C23.069 209.824 23.3709 209.939 23.7236 209.939Z" fill="white"/>
<path d="M32.8195 188.035H29.3203" stroke="white"/>
<path d="M13.6483 188.018V195.291H12.7676V188.942H12.725L10.9494 190.121V189.226L12.7676 188.018H13.6483ZM18.0126 195.39C17.596 195.39 17.2207 195.308 16.8869 195.142C16.5531 194.976 16.2856 194.749 16.0844 194.46C15.8831 194.171 15.773 193.842 15.7541 193.473H16.6064C16.6395 193.802 16.7887 194.074 17.0538 194.29C17.3213 194.503 17.6409 194.609 18.0126 194.609C18.3109 194.609 18.5761 194.539 18.8081 194.4C19.0425 194.26 19.2259 194.068 19.3585 193.824C19.4935 193.578 19.5609 193.3 19.5609 192.99C19.5609 192.673 19.4911 192.39 19.3514 192.141C19.2141 191.89 19.0247 191.693 18.7832 191.548C18.5417 191.404 18.2659 191.33 17.9558 191.328C17.7333 191.326 17.5048 191.36 17.2704 191.431C17.0361 191.5 16.8431 191.588 16.6916 191.697L15.8677 191.598L16.3081 188.018H20.0865V188.8H17.0467L16.791 190.944H16.8337C16.9828 190.826 17.1698 190.728 17.3947 190.65C17.6196 190.572 17.854 190.532 18.0979 190.532C18.5429 190.532 18.9395 190.639 19.2875 190.852C19.6379 191.063 19.9125 191.352 20.1114 191.719C20.3126 192.086 20.4132 192.505 20.4132 192.976C20.4132 193.44 20.309 193.854 20.1007 194.219C19.8947 194.581 19.6106 194.867 19.2484 195.078C18.8862 195.286 18.4743 195.39 18.0126 195.39ZM24.196 195.39C23.661 195.39 23.2053 195.245 22.8289 194.954C22.4524 194.66 22.1648 194.235 21.9659 193.679C21.7671 193.12 21.6676 192.445 21.6676 191.655C21.6676 190.869 21.7671 190.198 21.9659 189.641C22.1672 189.082 22.456 188.656 22.8324 188.363C23.2112 188.067 23.6657 187.919 24.196 187.919C24.7263 187.919 25.1797 188.067 25.5561 188.363C25.9349 188.656 26.2237 189.082 26.4226 189.641C26.6238 190.198 26.7245 190.869 26.7245 191.655C26.7245 192.445 26.625 193.12 26.4262 193.679C26.2273 194.235 25.9397 194.66 25.5632 194.954C25.1868 195.245 24.7311 195.39 24.196 195.39ZM24.196 194.609C24.7263 194.609 25.1383 194.354 25.4318 193.842C25.7254 193.331 25.8722 192.602 25.8722 191.655C25.8722 191.025 25.8047 190.489 25.6698 190.046C25.5372 189.603 25.3454 189.266 25.0945 189.034C24.8459 188.802 24.5464 188.686 24.196 188.686C23.6705 188.686 23.2597 188.945 22.9638 189.464C22.6679 189.98 22.5199 190.71 22.5199 191.655C22.5199 192.284 22.5862 192.819 22.7188 193.26C22.8513 193.7 23.0419 194.035 23.2905 194.265C23.5415 194.494 23.8433 194.609 24.196 194.609Z" fill="white"/>
<path d="M32.8195 172.707H29.3203" stroke="white"/>
<path d="M8.46353 179.963V179.324L10.8641 176.696C11.1458 176.388 11.3778 176.121 11.5601 175.893C11.7424 175.664 11.8774 175.448 11.965 175.247C12.0549 175.043 12.0999 174.83 12.0999 174.608C12.0999 174.352 12.0383 174.131 11.9152 173.944C11.7945 173.757 11.6288 173.612 11.4181 173.51C11.2074 173.409 10.9706 173.358 10.7079 173.358C10.4285 173.358 10.1847 173.416 9.97632 173.532C9.77035 173.645 9.61055 173.805 9.49692 174.011C9.38565 174.217 9.33001 174.459 9.33001 174.736H8.49194C8.49194 174.309 8.59019 173.935 8.78669 173.613C8.98318 173.291 9.2507 173.041 9.58924 172.861C9.93015 172.681 10.3125 172.591 10.7363 172.591C11.1624 172.591 11.54 172.681 11.8691 172.861C12.1981 173.041 12.4562 173.283 12.6432 173.589C12.8302 173.894 12.9238 174.234 12.9238 174.608C12.9238 174.875 12.8752 175.137 12.7782 175.393C12.6835 175.646 12.5177 175.929 12.281 176.241C12.0466 176.551 11.7211 176.93 11.3044 177.378L9.67092 179.125V179.182H13.0516V179.963H8.46353ZM16.8904 180.062C16.3553 180.062 15.8996 179.917 15.5232 179.626C15.1468 179.332 14.8591 178.907 14.6603 178.351C14.4614 177.792 14.362 177.117 14.362 176.327C14.362 175.541 14.4614 174.869 14.6603 174.313C14.8615 173.754 15.1503 173.328 15.5267 173.035C15.9055 172.739 16.3601 172.591 16.8904 172.591C17.4207 172.591 17.874 172.739 18.2505 173.035C18.6293 173.328 18.9181 173.754 19.1169 174.313C19.3182 174.869 19.4188 175.541 19.4188 176.327C19.4188 177.117 19.3194 177.792 19.1205 178.351C18.9216 178.907 18.634 179.332 18.2576 179.626C17.8811 179.917 17.4254 180.062 16.8904 180.062ZM16.8904 179.281C17.4207 179.281 17.8326 179.025 18.1262 178.514C18.4197 178.003 18.5665 177.273 18.5665 176.327C18.5665 175.697 18.499 175.161 18.3641 174.718C18.2315 174.275 18.0398 173.938 17.7888 173.706C17.5402 173.474 17.2408 173.358 16.8904 173.358C16.3648 173.358 15.9541 173.617 15.6581 174.135C15.3622 174.652 15.2142 175.382 15.2142 176.327C15.2142 176.956 15.2805 177.491 15.4131 177.932C15.5457 178.372 15.7363 178.707 15.9848 178.937C16.2358 179.166 16.5376 179.281 16.8904 179.281ZM23.1404 180.062C22.6053 180.062 22.1496 179.917 21.7732 179.626C21.3968 179.332 21.1091 178.907 20.9103 178.351C20.7114 177.792 20.612 177.117 20.612 176.327C20.612 175.541 20.7114 174.869 20.9103 174.313C21.1115 173.754 21.4003 173.328 21.7767 173.035C22.1555 172.739 22.6101 172.591 23.1404 172.591C23.6707 172.591 24.124 172.739 24.5005 173.035C24.8793 173.328 25.1681 173.754 25.3669 174.313C25.5682 174.869 25.6688 175.541 25.6688 176.327C25.6688 177.117 25.5694 177.792 25.3705 178.351C25.1716 178.907 24.884 179.332 24.5076 179.626C24.1311 179.917 23.6754 180.062 23.1404 180.062ZM23.1404 179.281C23.6707 179.281 24.0826 179.025 24.3762 178.514C24.6697 178.003 24.8165 177.273 24.8165 176.327C24.8165 175.697 24.749 175.161 24.6141 174.718C24.4815 174.275 24.2898 173.938 24.0388 173.706C23.7902 173.474 23.4908 173.358 23.1404 173.358C22.6148 173.358 22.2041 173.617 21.9081 174.135C21.6122 174.652 21.4642 175.382 21.4642 176.327C21.4642 176.956 21.5305 177.491 21.6631 177.932C21.7957 178.372 21.9863 178.707 22.2348 178.937C22.4858 179.166 22.7876 179.281 23.1404 179.281Z" fill="white"/>
<path d="M32.8195 157.377H29.3203" stroke="white"/>
<path d="M8.62955 164.635V163.996L11.0301 161.368C11.3118 161.06 11.5438 160.792 11.7261 160.565C11.9084 160.336 12.0434 160.12 12.131 159.919C12.2209 159.715 12.2659 159.502 12.2659 159.28C12.2659 159.024 12.2044 158.803 12.0813 158.616C11.9605 158.429 11.7948 158.284 11.5841 158.182C11.3734 158.081 11.1367 158.03 10.8739 158.03C10.5945 158.03 10.3507 158.088 10.1423 158.204C9.93637 158.317 9.77657 158.477 9.66293 158.683C9.55166 158.889 9.49603 159.131 9.49603 159.407H8.65796C8.65796 158.981 8.75621 158.607 8.9527 158.285C9.1492 157.963 9.41672 157.712 9.75526 157.532C10.0962 157.353 10.4785 157.263 10.9023 157.263C11.3284 157.263 11.706 157.353 12.0351 157.532C12.3642 157.712 12.6222 157.955 12.8092 158.26C12.9963 158.566 13.0898 158.906 13.0898 159.28C13.0898 159.547 13.0412 159.809 12.9442 160.064C12.8495 160.318 12.6838 160.601 12.447 160.913C12.2126 161.223 11.8871 161.602 11.4705 162.05L9.83694 163.797V163.854H13.2176V164.635H8.62955ZM16.957 164.734C16.5403 164.734 16.1651 164.651 15.8313 164.486C15.4974 164.32 15.2299 164.093 15.0287 163.804C14.8275 163.515 14.7174 163.186 14.6984 162.817H15.5507C15.5839 163.146 15.733 163.418 15.9982 163.633C16.2657 163.846 16.5853 163.953 16.957 163.953C17.2553 163.953 17.5204 163.883 17.7524 163.743C17.9868 163.604 18.1703 163.412 18.3028 163.168C18.4378 162.922 18.5053 162.644 18.5053 162.334C18.5053 162.016 18.4354 161.733 18.2957 161.485C18.1584 161.234 17.969 161.036 17.7276 160.892C17.4861 160.747 17.2103 160.674 16.9001 160.672C16.6776 160.669 16.4492 160.704 16.2148 160.775C15.9804 160.843 15.7875 160.932 15.6359 161.041L14.8121 160.942L15.2524 157.362H19.0308V158.143H15.9911L15.7354 160.288H15.778C15.9271 160.17 16.1142 160.072 16.3391 159.993C16.564 159.915 16.7983 159.876 17.0422 159.876C17.4873 159.876 17.8838 159.983 18.2318 160.196C18.5822 160.407 18.8568 160.695 19.0557 161.062C19.2569 161.429 19.3575 161.848 19.3575 162.319C19.3575 162.783 19.2534 163.198 19.045 163.562C18.8391 163.925 18.555 164.211 18.1928 164.422C17.8305 164.63 17.4186 164.734 16.957 164.734ZM23.1404 164.734C22.6053 164.734 22.1496 164.589 21.7732 164.297C21.3968 164.004 21.1091 163.579 20.9103 163.023C20.7114 162.464 20.612 161.789 20.612 160.998C20.612 160.212 20.7114 159.541 20.9103 158.985C21.1115 158.426 21.4003 158 21.7767 157.706C22.1555 157.411 22.6101 157.263 23.1404 157.263C23.6707 157.263 24.124 157.411 24.5005 157.706C24.8793 158 25.1681 158.426 25.3669 158.985C25.5682 159.541 25.6688 160.212 25.6688 160.998C25.6688 161.789 25.5694 162.464 25.3705 163.023C25.1716 163.579 24.884 164.004 24.5076 164.297C24.1311 164.589 23.6754 164.734 23.1404 164.734ZM23.1404 163.953C23.6707 163.953 24.0826 163.697 24.3762 163.186C24.6697 162.675 24.8165 161.945 24.8165 160.998C24.8165 160.369 24.749 159.832 24.6141 159.39C24.4815 158.947 24.2898 158.61 24.0388 158.378C23.7902 158.146 23.4908 158.03 23.1404 158.03C22.6148 158.03 22.2041 158.289 21.9081 158.807C21.6122 159.323 21.4642 160.054 21.4642 160.998C21.4642 161.628 21.5305 162.163 21.6631 162.604C21.7957 163.044 21.9863 163.379 22.2348 163.608C22.4858 163.838 22.7876 163.953 23.1404 163.953Z" fill="white"/>
<path d="M32.8195 142.049H29.3203" stroke="white"/>
<path d="M10.6084 149.404C10.1397 149.404 9.72182 149.324 9.35487 149.163C8.99029 149.002 8.70028 148.778 8.48484 148.491C8.27177 148.203 8.15577 147.868 8.13683 147.487H9.03172C9.05066 147.721 9.13115 147.923 9.27319 148.094C9.41524 148.262 9.60108 148.392 9.83072 148.484C10.0604 148.577 10.3149 148.623 10.5942 148.623C10.9067 148.623 11.1837 148.568 11.4252 148.46C11.6667 148.351 11.8561 148.199 11.9934 148.005C12.1307 147.811 12.1993 147.586 12.1993 147.33C12.1993 147.063 12.133 146.827 12.0005 146.624C11.8679 146.418 11.6738 146.257 11.4181 146.141C11.1624 146.025 10.8499 145.967 10.4806 145.967H9.89819V145.185H10.4806C10.7694 145.185 11.0227 145.133 11.2405 145.029C11.4607 144.925 11.6323 144.778 11.7554 144.589C11.8809 144.399 11.9436 144.177 11.9436 143.921C11.9436 143.675 11.8892 143.461 11.7803 143.278C11.6714 143.096 11.5175 142.954 11.3186 142.852C11.1222 142.75 10.8901 142.7 10.6226 142.7C10.3717 142.7 10.1349 142.746 9.9124 142.838C9.69223 142.928 9.5123 143.059 9.37263 143.232C9.23295 143.403 9.15719 143.609 9.14535 143.85H8.29308C8.30728 143.469 8.4221 143.135 8.63754 142.849C8.85298 142.56 9.1347 142.335 9.48271 142.174C9.83309 142.013 10.2178 141.933 10.6368 141.933C11.0866 141.933 11.4725 142.024 11.7945 142.206C12.1165 142.386 12.3639 142.624 12.5367 142.92C12.7095 143.216 12.7959 143.535 12.7959 143.879C12.7959 144.288 12.6882 144.637 12.4728 144.926C12.2597 145.215 11.9697 145.415 11.6027 145.526V145.583C12.062 145.659 12.4207 145.854 12.6787 146.169C12.9368 146.482 13.0658 146.869 13.0658 147.33C13.0658 147.726 12.9581 148.081 12.7427 148.396C12.5296 148.708 12.2384 148.954 11.8691 149.134C11.4998 149.314 11.0795 149.404 10.6084 149.404ZM16.8904 149.404C16.3553 149.404 15.8996 149.259 15.5232 148.967C15.1468 148.674 14.8591 148.249 14.6603 147.692C14.4614 147.134 14.362 146.459 14.362 145.668C14.362 144.882 14.4614 144.211 14.6603 143.655C14.8615 143.096 15.1503 142.67 15.5267 142.376C15.9055 142.08 16.3601 141.933 16.8904 141.933C17.4207 141.933 17.874 142.08 18.2505 142.376C18.6293 142.67 18.9181 143.096 19.1169 143.655C19.3182 144.211 19.4188 144.882 19.4188 145.668C19.4188 146.459 19.3194 147.134 19.1205 147.692C18.9216 148.249 18.634 148.674 18.2576 148.967C17.8811 149.259 17.4254 149.404 16.8904 149.404ZM16.8904 148.623C17.4207 148.623 17.8326 148.367 18.1262 147.856C18.4197 147.344 18.5665 146.615 18.5665 145.668C18.5665 145.039 18.499 144.502 18.3641 144.06C18.2315 143.617 18.0398 143.28 17.7888 143.048C17.5402 142.816 17.2408 142.7 16.8904 142.7C16.3648 142.7 15.9541 142.959 15.6581 143.477C15.3622 143.993 15.2142 144.724 15.2142 145.668C15.2142 146.298 15.2805 146.833 15.4131 147.273C15.5457 147.714 15.7363 148.049 15.9848 148.278C16.2358 148.508 16.5376 148.623 16.8904 148.623ZM23.1404 149.404C22.6053 149.404 22.1496 149.259 21.7732 148.967C21.3968 148.674 21.1091 148.249 20.9103 147.692C20.7114 147.134 20.612 146.459 20.612 145.668C20.612 144.882 20.7114 144.211 20.9103 143.655C21.1115 143.096 21.4003 142.67 21.7767 142.376C22.1555 142.08 22.6101 141.933 23.1404 141.933C23.6707 141.933 24.124 142.08 24.5005 142.376C24.8793 142.67 25.1681 143.096 25.3669 143.655C25.5682 144.211 25.6688 144.882 25.6688 145.668C25.6688 146.459 25.5694 147.134 25.3705 147.692C25.1716 148.249 24.884 148.674 24.5076 148.967C24.1311 149.259 23.6754 149.404 23.1404 149.404ZM23.1404 148.623C23.6707 148.623 24.0826 148.367 24.3762 147.856C24.6697 147.344 24.8165 146.615 24.8165 145.668C24.8165 145.039 24.749 144.502 24.6141 144.06C24.4815 143.617 24.2898 143.28 24.0388 143.048C23.7902 142.816 23.4908 142.7 23.1404 142.7C22.6148 142.7 22.2041 142.959 21.9081 143.477C21.6122 143.993 21.4642 144.724 21.4642 145.668C21.4642 146.298 21.5305 146.833 21.6631 147.273C21.7957 147.714 21.9863 148.049 22.2348 148.278C22.4858 148.508 22.7876 148.623 23.1404 148.623Z" fill="white"/>
<path d="M32.8195 126.721H29.3203" stroke="white"/>
<path d="M10.7744 134.076C10.3057 134.076 9.88784 133.996 9.52089 133.835C9.1563 133.674 8.86629 133.45 8.65086 133.163C8.43779 132.875 8.32178 132.54 8.30285 132.158H9.19773C9.21667 132.393 9.29716 132.595 9.43921 132.766C9.58125 132.934 9.7671 133.064 9.99674 133.156C10.2264 133.249 10.4809 133.295 10.7602 133.295C11.0727 133.295 11.3497 133.24 11.5912 133.131C11.8327 133.022 12.0221 132.871 12.1594 132.677C12.2967 132.483 12.3653 132.258 12.3653 132.002C12.3653 131.735 12.2991 131.499 12.1665 131.295C12.0339 131.089 11.8398 130.929 11.5841 130.812C11.3284 130.696 11.0159 130.638 10.6466 130.638H10.0642V129.857H10.6466C10.9354 129.857 11.1887 129.805 11.4065 129.701C11.6267 129.597 11.7983 129.45 11.9215 129.261C12.0469 129.071 12.1097 128.849 12.1097 128.593C12.1097 128.347 12.0552 128.133 11.9463 127.95C11.8374 127.768 11.6835 127.626 11.4847 127.524C11.2882 127.422 11.0562 127.371 10.7886 127.371C10.5377 127.371 10.301 127.418 10.0784 127.51C9.85824 127.6 9.67832 127.731 9.53864 127.904C9.39896 128.075 9.32321 128.281 9.31137 128.522H8.4591C8.4733 128.141 8.58812 127.807 8.80356 127.521C9.01899 127.232 9.30071 127.007 9.64873 126.846C9.9991 126.685 10.3838 126.604 10.8028 126.604C11.2527 126.604 11.6385 126.696 11.9605 126.878C12.2825 127.058 12.5299 127.296 12.7027 127.592C12.8755 127.888 12.9619 128.207 12.9619 128.55C12.9619 128.96 12.8542 129.309 12.6388 129.598C12.4257 129.887 12.1357 130.087 11.7688 130.198V130.255C12.228 130.331 12.5867 130.526 12.8447 130.841C13.1028 131.153 13.2318 131.54 13.2318 132.002C13.2318 132.397 13.1241 132.753 12.9087 133.067C12.6956 133.38 12.4044 133.626 12.0351 133.806C11.6658 133.986 11.2456 134.076 10.7744 134.076ZM16.957 134.076C16.5403 134.076 16.1651 133.993 15.8313 133.827C15.4974 133.662 15.2299 133.434 15.0287 133.146C14.8275 132.857 14.7174 132.528 14.6984 132.158H15.5507C15.5839 132.487 15.733 132.76 15.9982 132.975C16.2657 133.188 16.5853 133.295 16.957 133.295C17.2553 133.295 17.5204 133.225 17.7524 133.085C17.9868 132.946 18.1703 132.754 18.3028 132.51C18.4378 132.264 18.5053 131.986 18.5053 131.675C18.5053 131.358 18.4354 131.075 18.2957 130.827C18.1584 130.576 17.969 130.378 17.7276 130.234C17.4861 130.089 17.2103 130.016 16.9001 130.013C16.6776 130.011 16.4492 130.045 16.2148 130.116C15.9804 130.185 15.7875 130.274 15.6359 130.383L14.8121 130.283L15.2524 126.704H19.0308V127.485H15.9911L15.7354 129.63H15.778C15.9271 129.512 16.1142 129.413 16.3391 129.335C16.564 129.257 16.7983 129.218 17.0422 129.218C17.4873 129.218 17.8838 129.325 18.2318 129.538C18.5822 129.748 18.8568 130.037 19.0557 130.404C19.2569 130.771 19.3575 131.19 19.3575 131.661C19.3575 132.125 19.2534 132.54 19.045 132.904C18.8391 133.266 18.555 133.553 18.1928 133.763C17.8305 133.972 17.4186 134.076 16.957 134.076ZM23.1404 134.076C22.6053 134.076 22.1496 133.93 21.7732 133.639C21.3968 133.346 21.1091 132.921 20.9103 132.364C20.7114 131.806 20.612 131.131 20.612 130.34C20.612 129.554 20.7114 128.883 20.9103 128.327C21.1115 127.768 21.4003 127.342 21.7767 127.048C22.1555 126.752 22.6101 126.604 23.1404 126.604C23.6707 126.604 24.124 126.752 24.5005 127.048C24.8793 127.342 25.1681 127.768 25.3669 128.327C25.5682 128.883 25.6688 129.554 25.6688 130.34C25.6688 131.131 25.5694 131.806 25.3705 132.364C25.1716 132.921 24.884 133.346 24.5076 133.639C24.1311 133.93 23.6754 134.076 23.1404 134.076ZM23.1404 133.295C23.6707 133.295 24.0826 133.039 24.3762 132.528C24.6697 132.016 24.8165 131.287 24.8165 130.34C24.8165 129.71 24.749 129.174 24.6141 128.732C24.4815 128.289 24.2898 127.951 24.0388 127.719C23.7902 127.487 23.4908 127.371 23.1404 127.371C22.6148 127.371 22.2041 127.631 21.9081 128.149C21.6122 128.665 21.4642 129.396 21.4642 130.34C21.4642 130.97 21.5305 131.505 21.6631 131.945C21.7957 132.386 21.9863 132.721 22.2348 132.95C22.4858 133.18 22.7876 133.295 23.1404 133.295Z" fill="white"/>
<path d="M32.8195 111.391H29.3203" stroke="white"/>
<path d="M7.93175 117.157V116.433L11.1278 111.376H11.6533V112.498H11.2982L8.88346 116.319V116.376H13.1874V117.157H7.93175ZM11.355 118.648V116.937V116.599V111.376H12.1931V118.648H11.355ZM16.8904 118.748C16.3553 118.748 15.8996 118.602 15.5232 118.311C15.1468 118.018 14.8591 117.593 14.6603 117.036C14.4614 116.478 14.362 115.803 14.362 115.012C14.362 114.226 14.4614 113.555 14.6603 112.999C14.8615 112.44 15.1503 112.014 15.5267 111.72C15.9055 111.424 16.3601 111.276 16.8904 111.276C17.4207 111.276 17.874 111.424 18.2505 111.72C18.6293 112.014 18.9181 112.44 19.1169 112.999C19.3182 113.555 19.4188 114.226 19.4188 115.012C19.4188 115.803 19.3194 116.478 19.1205 117.036C18.9216 117.593 18.634 118.018 18.2576 118.311C17.8811 118.602 17.4254 118.748 16.8904 118.748ZM16.8904 117.967C17.4207 117.967 17.8326 117.711 18.1262 117.2C18.4197 116.688 18.5665 115.959 18.5665 115.012C18.5665 114.382 18.499 113.846 18.3641 113.403C18.2315 112.961 18.0398 112.623 17.7888 112.391C17.5402 112.159 17.2408 112.043 16.8904 112.043C16.3648 112.043 15.9541 112.303 15.6581 112.821C15.3622 113.337 15.2142 114.067 15.2142 115.012C15.2142 115.642 15.2805 116.177 15.4131 116.617C15.5457 117.058 15.7363 117.393 15.9848 117.622C16.2358 117.852 16.5376 117.967 16.8904 117.967ZM23.1404 118.748C22.6053 118.748 22.1496 118.602 21.7732 118.311C21.3968 118.018 21.1091 117.593 20.9103 117.036C20.7114 116.478 20.612 115.803 20.612 115.012C20.612 114.226 20.7114 113.555 20.9103 112.999C21.1115 112.44 21.4003 112.014 21.7767 111.72C22.1555 111.424 22.6101 111.276 23.1404 111.276C23.6707 111.276 24.124 111.424 24.5005 111.72C24.8793 112.014 25.1681 112.44 25.3669 112.999C25.5682 113.555 25.6688 114.226 25.6688 115.012C25.6688 115.803 25.5694 116.478 25.3705 117.036C25.1716 117.593 24.884 118.018 24.5076 118.311C24.1311 118.602 23.6754 118.748 23.1404 118.748ZM23.1404 117.967C23.6707 117.967 24.0826 117.711 24.3762 117.2C24.6697 116.688 24.8165 115.959 24.8165 115.012C24.8165 114.382 24.749 113.846 24.6141 113.403C24.4815 112.961 24.2898 112.623 24.0388 112.391C23.7902 112.159 23.4908 112.043 23.1404 112.043C22.6148 112.043 22.2041 112.303 21.9081 112.821C21.6122 113.337 21.4642 114.067 21.4642 115.012C21.4642 115.642 21.5305 116.177 21.6631 116.617C21.7957 117.058 21.9863 117.393 22.2348 117.622C22.4858 117.852 22.7876 117.967 23.1404 117.967Z" fill="white"/>
<path d="M32.8195 96.0625H29.3203" stroke="white"/>
<path d="M8.09777 101.827V101.102L11.2938 96.0456H11.8194V97.1678H11.4642L9.04947 100.989V101.046H13.3534V101.827H8.09777ZM11.5211 103.318V101.607V101.269V96.0456H12.3591V103.318H11.5211ZM16.957 103.418C16.5403 103.418 16.1651 103.335 15.8313 103.169C15.4974 103.003 15.2299 102.776 15.0287 102.487C14.8275 102.199 14.7174 101.869 14.6984 101.5H15.5507C15.5839 101.829 15.733 102.102 15.9982 102.317C16.2657 102.53 16.5853 102.637 16.957 102.637C17.2553 102.637 17.5204 102.567 17.7524 102.427C17.9868 102.287 18.1703 102.096 18.3028 101.852C18.4378 101.606 18.5053 101.327 18.5053 101.017C18.5053 100.7 18.4354 100.417 18.2957 100.169C18.1584 99.9176 17.969 99.7199 17.7276 99.5755C17.4861 99.431 17.2103 99.3577 16.9001 99.3553C16.6776 99.3529 16.4492 99.3873 16.2148 99.4583C15.9804 99.5269 15.7875 99.6157 15.6359 99.7246L14.8121 99.6252L15.2524 96.0456H19.0308V96.8269H15.9911L15.7354 98.9718H15.778C15.9271 98.8534 16.1142 98.7551 16.3391 98.677C16.564 98.5989 16.7983 98.5598 17.0422 98.5598C17.4873 98.5598 17.8838 98.6664 18.2318 98.8794C18.5822 99.0901 18.8568 99.379 19.0557 99.7459C19.2569 100.113 19.3575 100.532 19.3575 101.003C19.3575 101.467 19.2534 101.881 19.045 102.246C18.8391 102.608 18.555 102.895 18.1928 103.105C17.8305 103.314 17.4186 103.418 16.957 103.418ZM23.1404 103.418C22.6053 103.418 22.1496 103.272 21.7732 102.981C21.3968 102.687 21.1091 102.262 20.9103 101.706C20.7114 101.147 20.612 100.473 20.612 99.682C20.612 98.896 20.7114 98.2248 20.9103 97.6685C21.1115 97.1098 21.4003 96.6837 21.7767 96.3901C22.1555 96.0942 22.6101 95.9462 23.1404 95.9462C23.6707 95.9462 24.124 96.0942 24.5005 96.3901C24.8793 96.6837 25.1681 97.1098 25.3669 97.6685C25.5682 98.2248 25.6688 98.896 25.6688 99.682C25.6688 100.473 25.5694 101.147 25.3705 101.706C25.1716 102.262 24.884 102.687 24.5076 102.981C24.1311 103.272 23.6754 103.418 23.1404 103.418ZM23.1404 102.637C23.6707 102.637 24.0826 102.381 24.3762 101.869C24.6697 101.358 24.8165 100.629 24.8165 99.682C24.8165 99.0523 24.749 98.516 24.6141 98.0733C24.4815 97.6306 24.2898 97.2933 24.0388 97.0613C23.7902 96.8292 23.4908 96.7132 23.1404 96.7132C22.6148 96.7132 22.2041 96.9725 21.9081 97.4909C21.6122 98.007 21.4642 98.7374 21.4642 99.682C21.4642 100.312 21.5305 100.847 21.6631 101.287C21.7957 101.727 21.9863 102.062 22.2348 102.292C22.4858 102.522 22.7876 102.637 23.1404 102.637Z" fill="white"/>
<path d="M32.8195 80.7324H29.3203" stroke="white"/>
<path d="M10.707 88.0897C10.2903 88.0897 9.91506 88.0068 9.58125 87.8411C9.24745 87.6754 8.97993 87.4481 8.7787 87.1593C8.57747 86.8704 8.46738 86.5414 8.44844 86.1721H9.30071C9.33386 86.5011 9.48301 86.7734 9.74816 86.9888C10.0157 87.2019 10.3353 87.3084 10.707 87.3084C11.0053 87.3084 11.2704 87.2386 11.5024 87.0989C11.7368 86.9592 11.9203 86.7675 12.0528 86.5236C12.1878 86.2774 12.2553 85.9992 12.2553 85.6891C12.2553 85.3719 12.1854 85.089 12.0457 84.8404C11.9084 84.5894 11.719 84.3917 11.4776 84.2473C11.2361 84.1029 10.9603 84.0295 10.6501 84.0272C10.4276 84.0248 10.1992 84.0591 9.96478 84.1301C9.7304 84.1988 9.53746 84.2876 9.38594 84.3965L8.56208 84.2971L9.00242 80.7175H12.7808V81.4988H9.74106L9.48537 83.6436H9.52799C9.67714 83.5253 9.86416 83.427 10.0891 83.3489C10.314 83.2708 10.5483 83.2317 10.7922 83.2317C11.2373 83.2317 11.6338 83.3382 11.9818 83.5513C12.3322 83.762 12.6068 84.0508 12.8057 84.4178C13.0069 84.7847 13.1075 85.2038 13.1075 85.6749C13.1075 86.1389 13.0034 86.5532 12.795 86.9178C12.5891 87.28 12.305 87.5665 11.9428 87.7772C11.5805 87.9855 11.1686 88.0897 10.707 88.0897ZM16.8904 88.0897C16.3553 88.0897 15.8996 87.9441 15.5232 87.6529C15.1468 87.3593 14.8591 86.9344 14.6603 86.378C14.4614 85.8193 14.362 85.1446 14.362 84.3539C14.362 83.5679 14.4614 82.8967 14.6603 82.3404C14.8615 81.7817 15.1503 81.3555 15.5267 81.062C15.9055 80.766 16.3601 80.6181 16.8904 80.6181C17.4207 80.6181 17.874 80.766 18.2505 81.062C18.6293 81.3555 18.9181 81.7817 19.1169 82.3404C19.3182 82.8967 19.4188 83.5679 19.4188 84.3539C19.4188 85.1446 19.3194 85.8193 19.1205 86.378C18.9216 86.9344 18.634 87.3593 18.2576 87.6529C17.8811 87.9441 17.4254 88.0897 16.8904 88.0897ZM16.8904 87.3084C17.4207 87.3084 17.8326 87.0527 18.1262 86.5414C18.4197 86.03 18.5665 85.3008 18.5665 84.3539C18.5665 83.7241 18.499 83.1879 18.3641 82.7452C18.2315 82.3025 18.0398 81.9651 17.7888 81.7331C17.5402 81.5011 17.2408 81.3851 16.8904 81.3851C16.3648 81.3851 15.9541 81.6444 15.6581 82.1628C15.3622 82.6789 15.2142 83.4093 15.2142 84.3539C15.2142 84.9836 15.2805 85.5186 15.4131 85.959C15.5457 86.3993 15.7363 86.7343 15.9848 86.964C16.2358 87.1936 16.5376 87.3084 16.8904 87.3084ZM23.1404 88.0897C22.6053 88.0897 22.1496 87.9441 21.7732 87.6529C21.3968 87.3593 21.1091 86.9344 20.9103 86.378C20.7114 85.8193 20.612 85.1446 20.612 84.3539C20.612 83.5679 20.7114 82.8967 20.9103 82.3404C21.1115 81.7817 21.4003 81.3555 21.7767 81.062C22.1555 80.766 22.6101 80.6181 23.1404 80.6181C23.6707 80.6181 24.124 80.766 24.5005 81.062C24.8793 81.3555 25.1681 81.7817 25.3669 82.3404C25.5682 82.8967 25.6688 83.5679 25.6688 84.3539C25.6688 85.1446 25.5694 85.8193 25.3705 86.378C25.1716 86.9344 24.884 87.3593 24.5076 87.6529C24.1311 87.9441 23.6754 88.0897 23.1404 88.0897ZM23.1404 87.3084C23.6707 87.3084 24.0826 87.0527 24.3762 86.5414C24.6697 86.03 24.8165 85.3008 24.8165 84.3539C24.8165 83.7241 24.749 83.1879 24.6141 82.7452C24.4815 82.3025 24.2898 81.9651 24.0388 81.7331C23.7902 81.5011 23.4908 81.3851 23.1404 81.3851C22.6148 81.3851 22.2041 81.6444 21.9081 82.1628C21.6122 82.6789 21.4642 83.4093 21.4642 84.3539C21.4642 84.9836 21.5305 85.5186 21.6631 85.959C21.7957 86.3993 21.9863 86.7343 22.2348 86.964C22.4858 87.1936 22.7876 87.3084 23.1404 87.3084Z" fill="white"/>
<path d="M377.805 74.3476H388.029V75.7516H377.805V74.3476ZM383.169 78.4036H387.417V79.8076H383.169V78.4036ZM377.397 82.9876H388.365V84.3916H377.397V82.9876ZM382.473 74.9116H383.997V83.6716H382.473V74.9116ZM378.885 77.6236H380.385V83.7316H378.885V77.6236ZM393.189 78.8596H396.285V79.9876H393.189V78.8596ZM393.189 80.8876H396.297V82.0156H393.189V80.8876ZM390.873 82.9036H398.973V84.2356H390.873V82.9036ZM389.961 76.6996H399.765V84.8476H398.301V78.0196H391.353V84.8476H389.961V76.6996ZM392.577 77.5756H393.861V83.5036H392.577V77.5756ZM395.709 77.5756H397.005V83.4916H395.709V77.5756ZM393.945 74.8876L395.637 75.2476C395.493 75.6876 395.353 76.1276 395.217 76.5676C395.089 76.9996 394.965 77.3716 394.845 77.6836L393.537 77.3356C393.593 77.1036 393.649 76.8476 393.705 76.5676C393.761 76.2796 393.809 75.9916 393.849 75.7036C393.897 75.4076 393.929 75.1356 393.945 74.8876ZM389.469 74.2636H400.317V75.6196H389.469V74.2636ZM404.901 79.5316H412.521V80.8996H404.901V79.5316ZM405.177 74.1316H412.065V75.4996H405.177V74.1316ZM407.985 74.4436H409.437V84.8356H407.985V74.4436ZM410.733 75.9556L412.113 76.2436C412.017 76.5796 411.917 76.9236 411.813 77.2756C411.709 77.6276 411.605 77.9596 411.501 78.2716C411.405 78.5836 411.305 78.8636 411.201 79.1116L410.073 78.8116C410.161 78.5556 410.249 78.2596 410.337 77.9236C410.425 77.5876 410.501 77.2476 410.565 76.9036C410.637 76.5596 410.693 76.2436 410.733 75.9556ZM405.417 76.2436L406.629 75.9556C406.733 76.2436 406.825 76.5556 406.905 76.8916C406.993 77.2276 407.069 77.5556 407.133 77.8756C407.205 78.1876 407.253 78.4716 407.277 78.7276L405.993 79.0516C405.969 78.7956 405.929 78.5076 405.873 78.1876C405.817 77.8596 405.749 77.5276 405.669 77.1916C405.589 76.8556 405.505 76.5396 405.417 76.2436ZM401.793 74.6596L402.693 73.7956C402.901 73.9716 403.125 74.1676 403.365 74.3836C403.613 74.5996 403.845 74.8156 404.061 75.0316C404.285 75.2476 404.465 75.4436 404.601 75.6196L403.629 76.6156C403.509 76.4316 403.345 76.2276 403.137 76.0036C402.929 75.7796 402.705 75.5516 402.465 75.3196C402.225 75.0796 402.001 74.8596 401.793 74.6596ZM402.753 84.6916L402.429 83.3956L402.681 82.9516L404.877 81.1276C404.933 81.3196 405.013 81.5356 405.117 81.7756C405.221 82.0156 405.313 82.2076 405.393 82.3516C404.881 82.7836 404.465 83.1356 404.145 83.4076C403.825 83.6796 403.569 83.8956 403.377 84.0556C403.193 84.2236 403.057 84.3516 402.969 84.4396C402.881 84.5276 402.809 84.6116 402.753 84.6916ZM401.289 77.2756H403.425V78.6556H401.289V77.2756ZM402.753 84.6916C402.721 84.5716 402.669 84.4356 402.597 84.2836C402.525 84.1316 402.445 83.9836 402.357 83.8396C402.269 83.6956 402.189 83.5796 402.117 83.4916C402.237 83.4036 402.361 83.2716 402.489 83.0956C402.617 82.9116 402.681 82.6876 402.681 82.4236V77.2636H404.025V83.4076C404.025 83.4076 403.961 83.4516 403.833 83.5396C403.705 83.6276 403.557 83.7356 403.389 83.8636C403.221 83.9996 403.073 84.1396 402.945 84.2836C402.817 84.4276 402.753 84.5636 402.753 84.6916ZM421.425 73.9996C421.657 74.4716 421.953 74.9516 422.313 75.4396C422.681 75.9196 423.077 76.3676 423.501 76.7836C423.933 77.1916 424.365 77.5356 424.797 77.8156C424.693 77.9036 424.573 78.0156 424.437 78.1516C424.309 78.2796 424.185 78.4156 424.065 78.5596C423.953 78.6956 423.857 78.8236 423.777 78.9436C423.433 78.6876 423.093 78.3916 422.757 78.0556C422.421 77.7196 422.097 77.3556 421.785 76.9636C421.481 76.5636 421.193 76.1516 420.921 75.7276C420.649 75.3036 420.409 74.8756 420.201 74.4436L421.425 73.9996ZM420.153 73.5316L421.701 73.8076C421.413 74.4316 421.069 75.0516 420.669 75.6676C420.277 76.2836 419.821 76.8796 419.301 77.4556C418.789 78.0316 418.197 78.5676 417.525 79.0636C417.461 78.9516 417.373 78.8236 417.261 78.6796C417.157 78.5356 417.041 78.3996 416.913 78.2716C416.785 78.1356 416.669 78.0276 416.565 77.9476C417.165 77.5316 417.697 77.0756 418.161 76.5796C418.625 76.0836 419.021 75.5756 419.349 75.0556C419.685 74.5276 419.953 74.0196 420.153 73.5316ZM418.161 78.0916H419.601V82.6156C419.601 82.8716 419.645 83.0356 419.733 83.1076C419.829 83.1716 420.037 83.2036 420.357 83.2036C420.437 83.2036 420.561 83.2036 420.729 83.2036C420.897 83.2036 421.081 83.2036 421.281 83.2036C421.489 83.2036 421.681 83.2036 421.857 83.2036C422.041 83.2036 422.177 83.2036 422.265 83.2036C422.465 83.2036 422.613 83.1636 422.709 83.0836C422.813 82.9956 422.885 82.8316 422.925 82.5916C422.973 82.3516 423.009 81.9956 423.033 81.5236C423.137 81.5956 423.265 81.6716 423.417 81.7516C423.577 81.8236 423.737 81.8876 423.897 81.9436C424.065 81.9996 424.209 82.0436 424.329 82.0756C424.273 82.6996 424.181 83.1876 424.053 83.5396C423.925 83.8916 423.729 84.1396 423.465 84.2836C423.209 84.4276 422.845 84.4996 422.373 84.4996C422.309 84.4996 422.201 84.4996 422.049 84.4996C421.905 84.4996 421.741 84.4996 421.557 84.4996C421.373 84.4996 421.189 84.4996 421.005 84.4996C420.829 84.4996 420.669 84.4996 420.525 84.4996C420.381 84.4996 420.277 84.4996 420.213 84.4996C419.677 84.4996 419.257 84.4436 418.953 84.3316C418.657 84.2196 418.449 84.0276 418.329 83.7556C418.217 83.4836 418.161 83.1076 418.161 82.6276V78.0916ZM422.433 78.5116L423.369 79.7356C422.953 79.9756 422.505 80.2196 422.025 80.4676C421.545 80.7076 421.065 80.9356 420.585 81.1516C420.113 81.3596 419.673 81.5396 419.265 81.6916L418.509 80.6116C418.901 80.4516 419.333 80.2556 419.805 80.0236C420.285 79.7916 420.753 79.5436 421.209 79.2796C421.673 79.0156 422.081 78.7596 422.433 78.5116ZM413.889 74.6476L414.777 73.6876C415.017 73.8636 415.285 74.0636 415.581 74.2876C415.877 74.5116 416.153 74.7356 416.409 74.9596C416.673 75.1836 416.889 75.3836 417.057 75.5596L416.097 76.6516C415.953 76.4676 415.753 76.2596 415.497 76.0276C415.241 75.7876 414.969 75.5476 414.681 75.3076C414.401 75.0596 414.137 74.8396 413.889 74.6476ZM415.053 84.7636L414.729 83.4196L415.005 82.9756L417.273 81.1516C417.329 81.3516 417.405 81.5716 417.501 81.8116C417.605 82.0516 417.697 82.2436 417.777 82.3876C417.241 82.8196 416.809 83.1756 416.481 83.4556C416.153 83.7276 415.893 83.9476 415.701 84.1156C415.509 84.2836 415.365 84.4156 415.269 84.5116C415.181 84.6076 415.109 84.6916 415.053 84.7636ZM413.253 77.2756H415.725V78.6556H413.253V77.2756ZM415.053 84.7636C415.013 84.6596 414.949 84.5436 414.861 84.4156C414.773 84.2876 414.681 84.1636 414.585 84.0436C414.489 83.9236 414.401 83.8316 414.321 83.7676C414.409 83.6876 414.497 83.5876 414.585 83.4676C414.681 83.3396 414.761 83.1916 414.825 83.0236C414.889 82.8476 414.921 82.6556 414.921 82.4476V77.2756H416.301V83.2156C416.301 83.2156 416.257 83.2516 416.169 83.3236C416.081 83.3956 415.977 83.4916 415.857 83.6116C415.737 83.7316 415.613 83.8596 415.485 83.9956C415.365 84.1396 415.261 84.2756 415.173 84.4036C415.093 84.5396 415.053 84.6596 415.053 84.7636ZM428.325 75.7756V76.1836H433.317V75.7756H428.325ZM428.325 74.6716V75.0796H433.317V74.6716H428.325ZM426.945 73.9396H434.769V76.9156H426.945V73.9396ZM428.073 80.5636V80.9836H433.653V80.5636H428.073ZM428.073 79.4236V79.8436H433.653V79.4236H428.073ZM426.729 78.6676H435.069V81.7516H426.729V78.6676ZM430.161 78.9196H431.553V84.0676H430.161V78.9196ZM425.421 77.2756H436.353V78.3076H425.421V77.2756ZM426.477 82.1476H435.297V83.0596H426.477V82.1476ZM425.397 83.5036H436.377V84.5476H425.397V83.5036Z" fill="#7B7B7B"/>
<path d="M32.8196 175.398C68.7831 175.398 68.7831 153.759 104.747 153.759C140.71 153.759 140.71 142.568 176.674 142.568C212.637 142.568 212.637 100.127 248.601 100.127C284.564 100.127 284.564 84.3477 320.528 84.3477C356.491 84.3477 356.491 88.5948 392.455 88.5948C428.418 88.5948 428.418 119.968 464.382 119.968" stroke="#1F77B4"/>
<path d="M32.814 232.207C68.7775 232.207 68.7775 230.219 104.741 230.219C140.704 230.219 140.704 229.406 176.668 229.406C212.631 229.406 212.631 225.522 248.595 225.522C284.558 225.522 284.558 224.348 320.522 224.348C356.485 224.348 356.485 224.709 392.449 224.709C428.412 224.709 428.412 227.148 464.376 227.148" stroke="#1F77B4"/>
<path d="M380.505 210.718H384.213V211.87H379.581L380.505 210.718ZM380.217 209.554L381.777 209.83C381.473 210.398 381.133 210.966 380.757 211.534C380.381 212.094 379.949 212.634 379.461 213.154C378.981 213.674 378.441 214.17 377.841 214.642C377.761 214.53 377.657 214.41 377.529 214.282C377.409 214.154 377.281 214.034 377.145 213.922C377.009 213.802 376.881 213.706 376.761 213.634C377.321 213.242 377.821 212.818 378.261 212.362C378.709 211.898 379.097 211.426 379.425 210.946C379.753 210.466 380.017 210.002 380.217 209.554ZM383.661 210.718H383.985L384.213 210.658L385.209 211.294C385.057 211.59 384.869 211.91 384.645 212.254C384.421 212.598 384.189 212.934 383.949 213.262C383.709 213.59 383.477 213.878 383.253 214.126C383.109 214.022 382.929 213.902 382.713 213.766C382.497 213.63 382.305 213.518 382.137 213.43C382.337 213.198 382.537 212.938 382.737 212.65C382.937 212.354 383.117 212.062 383.277 211.774C383.445 211.478 383.573 211.218 383.661 210.994V210.718ZM382.557 218.866L383.445 217.942C383.949 218.142 384.465 218.358 384.993 218.59C385.521 218.814 386.017 219.034 386.481 219.25C386.953 219.466 387.357 219.666 387.693 219.85L386.577 220.834C386.273 220.65 385.901 220.446 385.461 220.222C385.021 219.998 384.553 219.77 384.057 219.538C383.561 219.298 383.061 219.074 382.557 218.866ZM381.765 215.026H383.265C383.217 215.674 383.145 216.266 383.049 216.802C382.953 217.33 382.789 217.81 382.557 218.242C382.333 218.666 382.013 219.042 381.597 219.37C381.189 219.69 380.653 219.97 379.989 220.21C379.333 220.45 378.517 220.65 377.541 220.81C377.493 220.626 377.397 220.414 377.253 220.174C377.117 219.934 376.985 219.738 376.857 219.586C377.737 219.474 378.469 219.33 379.053 219.154C379.637 218.97 380.101 218.754 380.445 218.506C380.797 218.25 381.061 217.954 381.237 217.618C381.413 217.274 381.537 216.89 381.609 216.466C381.681 216.034 381.733 215.554 381.765 215.026ZM378.525 213.01H386.553V218.29H385.041V214.258H379.977V218.29H378.525V213.01ZM392.697 214.834H395.793V215.962H392.697V214.834ZM392.697 216.862H395.805V217.99H392.697V216.862ZM390.381 218.878H398.481V220.21H390.381V218.878ZM389.469 212.674H399.273V220.822H397.809V213.994H390.861V220.822H389.469V212.674ZM392.085 213.55H393.369V219.478H392.085V213.55ZM395.217 213.55H396.513V219.466H395.217V213.55ZM393.453 210.862L395.145 211.222C395.001 211.662 394.861 212.102 394.725 212.542C394.597 212.974 394.473 213.346 394.353 213.658L393.045 213.31C393.101 213.078 393.157 212.822 393.213 212.542C393.269 212.254 393.317 211.966 393.357 211.678C393.405 211.382 393.437 211.11 393.453 210.862ZM388.977 210.238H399.825V211.594H388.977V210.238ZM404.409 215.506H412.029V216.874H404.409V215.506ZM404.685 210.106H411.573V211.474H404.685V210.106ZM407.493 210.418H408.945V220.81H407.493V210.418ZM410.241 211.93L411.621 212.218C411.525 212.554 411.425 212.898 411.321 213.25C411.217 213.602 411.113 213.934 411.009 214.246C410.913 214.558 410.813 214.838 410.709 215.086L409.581 214.786C409.669 214.53 409.757 214.234 409.845 213.898C409.933 213.562 410.009 213.222 410.073 212.878C410.145 212.534 410.201 212.218 410.241 211.93ZM404.925 212.218L406.137 211.93C406.241 212.218 406.333 212.53 406.413 212.866C406.501 213.202 406.577 213.53 406.641 213.85C406.713 214.162 406.761 214.446 406.785 214.702L405.501 215.026C405.477 214.77 405.437 214.482 405.381 214.162C405.325 213.834 405.257 213.502 405.177 213.166C405.097 212.83 405.013 212.514 404.925 212.218ZM401.301 210.634L402.201 209.77C402.409 209.946 402.633 210.142 402.873 210.358C403.121 210.574 403.353 210.79 403.569 211.006C403.793 211.222 403.973 211.418 404.109 211.594L403.137 212.59C403.017 212.406 402.853 212.202 402.645 211.978C402.437 211.754 402.213 211.526 401.973 211.294C401.733 211.054 401.509 210.834 401.301 210.634ZM402.261 220.666L401.937 219.37L402.189 218.926L404.385 217.102C404.441 217.294 404.521 217.51 404.625 217.75C404.729 217.99 404.821 218.182 404.901 218.326C404.389 218.758 403.973 219.11 403.653 219.382C403.333 219.654 403.077 219.87 402.885 220.03C402.701 220.198 402.565 220.326 402.477 220.414C402.389 220.502 402.317 220.586 402.261 220.666ZM400.797 213.25H402.933V214.63H400.797V213.25ZM402.261 220.666C402.229 220.546 402.177 220.41 402.105 220.258C402.033 220.106 401.953 219.958 401.865 219.814C401.777 219.67 401.697 219.554 401.625 219.466C401.745 219.378 401.869 219.246 401.997 219.07C402.125 218.886 402.189 218.662 402.189 218.398V213.238H403.533V219.382C403.533 219.382 403.469 219.426 403.341 219.514C403.213 219.602 403.065 219.71 402.897 219.838C402.729 219.974 402.581 220.114 402.453 220.258C402.325 220.402 402.261 220.538 402.261 220.666ZM420.933 209.974C421.165 210.446 421.461 210.926 421.821 211.414C422.189 211.894 422.585 212.342 423.009 212.758C423.441 213.166 423.873 213.51 424.305 213.79C424.201 213.878 424.081 213.99 423.945 214.126C423.817 214.254 423.693 214.39 423.573 214.534C423.461 214.67 423.365 214.798 423.285 214.918C422.941 214.662 422.601 214.366 422.265 214.03C421.929 213.694 421.605 213.33 421.293 212.938C420.989 212.538 420.701 212.126 420.429 211.702C420.157 211.278 419.917 210.85 419.709 210.418L420.933 209.974ZM419.661 209.506L421.209 209.782C420.921 210.406 420.577 211.026 420.177 211.642C419.785 212.258 419.329 212.854 418.809 213.43C418.297 214.006 417.705 214.542 417.033 215.038C416.969 214.926 416.881 214.798 416.769 214.654C416.665 214.51 416.549 214.374 416.421 214.246C416.293 214.11 416.177 214.002 416.073 213.922C416.673 213.506 417.205 213.05 417.669 212.554C418.133 212.058 418.529 211.55 418.857 211.03C419.193 210.502 419.461 209.994 419.661 209.506ZM417.669 214.066H419.109V218.59C419.109 218.846 419.153 219.01 419.241 219.082C419.337 219.146 419.545 219.178 419.865 219.178C419.945 219.178 420.069 219.178 420.237 219.178C420.405 219.178 420.589 219.178 420.789 219.178C420.997 219.178 421.189 219.178 421.365 219.178C421.549 219.178 421.685 219.178 421.773 219.178C421.973 219.178 422.121 219.138 422.217 219.058C422.321 218.97 422.393 218.806 422.433 218.566C422.481 218.326 422.517 217.97 422.541 217.498C422.645 217.57 422.773 217.646 422.925 217.726C423.085 217.798 423.245 217.862 423.405 217.918C423.573 217.974 423.717 218.018 423.837 218.05C423.781 218.674 423.689 219.162 423.561 219.514C423.433 219.866 423.237 220.114 422.973 220.258C422.717 220.402 422.353 220.474 421.881 220.474C421.817 220.474 421.709 220.474 421.557 220.474C421.413 220.474 421.249 220.474 421.065 220.474C420.881 220.474 420.697 220.474 420.513 220.474C420.337 220.474 420.177 220.474 420.033 220.474C419.889 220.474 419.785 220.474 419.721 220.474C419.185 220.474 418.765 220.418 418.461 220.306C418.165 220.194 417.957 220.002 417.837 219.73C417.725 219.458 417.669 219.082 417.669 218.602V214.066ZM421.941 214.486L422.877 215.71C422.461 215.95 422.013 216.194 421.533 216.442C421.053 216.682 420.573 216.91 420.093 217.126C419.621 217.334 419.181 217.514 418.773 217.666L418.017 216.586C418.409 216.426 418.841 216.23 419.313 215.998C419.793 215.766 420.261 215.518 420.717 215.254C421.181 214.99 421.589 214.734 421.941 214.486ZM413.397 210.622L414.285 209.662C414.525 209.838 414.793 210.038 415.089 210.262C415.385 210.486 415.661 210.71 415.917 210.934C416.181 211.158 416.397 211.358 416.565 211.534L415.605 212.626C415.461 212.442 415.261 212.234 415.005 212.002C414.749 211.762 414.477 211.522 414.189 211.282C413.909 211.034 413.645 210.814 413.397 210.622ZM414.561 220.738L414.237 219.394L414.513 218.95L416.781 217.126C416.837 217.326 416.913 217.546 417.009 217.786C417.113 218.026 417.205 218.218 417.285 218.362C416.749 218.794 416.317 219.15 415.989 219.43C415.661 219.702 415.401 219.922 415.209 220.09C415.017 220.258 414.873 220.39 414.777 220.486C414.689 220.582 414.617 220.666 414.561 220.738ZM412.761 213.25H415.233V214.63H412.761V213.25ZM414.561 220.738C414.521 220.634 414.457 220.518 414.369 220.39C414.281 220.262 414.189 220.138 414.093 220.018C413.997 219.898 413.909 219.806 413.829 219.742C413.917 219.662 414.005 219.562 414.093 219.442C414.189 219.314 414.269 219.166 414.333 218.998C414.397 218.822 414.429 218.63 414.429 218.422V213.25H415.809V219.19C415.809 219.19 415.765 219.226 415.677 219.298C415.589 219.37 415.485 219.466 415.365 219.586C415.245 219.706 415.121 219.834 414.993 219.97C414.873 220.114 414.769 220.25 414.681 220.378C414.601 220.514 414.561 220.634 414.561 220.738ZM427.833 211.75V212.158H432.825V211.75H427.833ZM427.833 210.646V211.054H432.825V210.646H427.833ZM426.453 209.914H434.277V212.89H426.453V209.914ZM427.581 216.538V216.958H433.161V216.538H427.581ZM427.581 215.398V215.818H433.161V215.398H427.581ZM426.237 214.642H434.577V217.726H426.237V214.642ZM429.669 214.894H431.061V220.042H429.669V214.894ZM424.929 213.25H435.861V214.282H424.929V213.25ZM425.985 218.122H434.805V219.034H425.985V218.122ZM424.905 219.478H435.885V220.522H424.905V219.478Z" fill="#7B7B7B"/>
</svg>
