<svg width="444" height="200" viewBox="0 0 444 200" fill="none" xmlns="http://www.w3.org/2000/svg">
<g filter="url(#filter0_d_142_322)">
<rect x="46.0137" y="42.0225" width="331.313" height="87.2543" rx="43.6272" fill="white"/>
</g>
<path d="M83.9311 101.284V102.649H82.5652V101.284H83.9311ZM83.9311 99.9177V101.284H82.5652V99.9177H83.9311ZM83.9311 98.5519V99.9177H82.5652V98.5519H83.9311ZM83.9311 97.186V98.5519H82.5652V97.186H83.9311ZM83.9311 95.8201V97.186H82.5652V95.8201H83.9311ZM83.9311 94.4543V95.8201H82.5652V94.4543H83.9311ZM83.9311 93.0884V94.4543H82.5652V93.0884H83.9311ZM83.9311 91.7226V93.0884H82.5652V91.7226H83.9311ZM83.9311 90.3567V91.7226H82.5652V90.3567H83.9311ZM83.9311 88.9909V90.3567H82.5652V88.9909H83.9311ZM83.9311 87.625V88.9909H82.5652V87.625H83.9311ZM83.9311 86.2592V87.625H82.5652V86.2592H83.9311ZM83.9311 84.8933V86.2592H82.5652V84.8933H83.9311ZM83.9311 83.5275V84.8933H82.5652V83.5275H83.9311ZM83.9311 82.1616V83.5275H82.5652V82.1616H83.9311ZM85.2969 82.1616V83.5275H83.9311V82.1616H85.2969ZM85.2969 83.5275V84.8933H83.9311V83.5275H85.2969ZM85.2969 84.8933V86.2592H83.9311V84.8933H85.2969ZM85.2969 86.2592V87.625H83.9311V86.2592H85.2969ZM85.2969 87.625V88.9909H83.9311V87.625H85.2969ZM85.2969 88.9909V90.3567H83.9311V88.9909H85.2969ZM85.2969 90.3567V91.7226H83.9311V90.3567H85.2969ZM86.6628 91.7226V93.0884H85.2969V91.7226H86.6628ZM86.6628 93.0884V94.4543H85.2969V93.0884H86.6628ZM86.6628 94.4543V95.8201H85.2969V94.4543H86.6628ZM86.6628 95.8201V97.186H85.2969V95.8201H86.6628ZM86.6628 97.186V98.5519H85.2969V97.186H86.6628ZM86.6628 98.5519V99.9177H85.2969V98.5519H86.6628ZM86.6628 99.9177V101.284H85.2969V99.9177H86.6628ZM86.6628 101.284V102.649H85.2969V101.284H86.6628ZM88.0286 101.284V102.649H86.6628V101.284H88.0286ZM89.3945 101.284V102.649H88.0286V101.284H89.3945ZM89.3945 99.9177V101.284H88.0286V99.9177H89.3945ZM89.3945 98.5519V99.9177H88.0286V98.5519H89.3945ZM89.3945 97.186V98.5519H88.0286V97.186H89.3945ZM89.3945 95.8201V97.186H88.0286V95.8201H89.3945ZM89.3945 94.4543V95.8201H88.0286V94.4543H89.3945ZM89.3945 93.0884V94.4543H88.0286V93.0884H89.3945ZM89.3945 91.7226V93.0884H88.0286V91.7226H89.3945ZM88.0286 91.7226V93.0884H86.6628V91.7226H88.0286ZM88.0286 90.3567V91.7226H86.6628V90.3567H88.0286ZM88.0286 93.0884V94.4543H86.6628V93.0884H88.0286ZM88.0286 94.4543V95.8201H86.6628V94.4543H88.0286ZM88.0286 95.8201V97.186H86.6628V95.8201H88.0286ZM88.0286 97.186V98.5519H86.6628V97.186H88.0286ZM88.0286 98.5519V99.9177H86.6628V98.5519H88.0286ZM88.0286 99.9177V101.284H86.6628V99.9177H88.0286ZM85.2969 101.284V102.649H83.9311V101.284H85.2969ZM85.2969 99.9177V101.284H83.9311V99.9177H85.2969ZM85.2969 98.5519V99.9177H83.9311V98.5519H85.2969ZM85.2969 97.186V98.5519H83.9311V97.186H85.2969ZM85.2969 95.8201V97.186H83.9311V95.8201H85.2969ZM85.2969 94.4543V95.8201H83.9311V94.4543H85.2969ZM85.2969 93.0884V94.4543H83.9311V93.0884H85.2969ZM85.2969 91.7226V93.0884H83.9311V91.7226H85.2969ZM83.9311 68.5031V69.8689H82.5652V68.5031H83.9311ZM83.9311 69.8689V71.2348H82.5652V69.8689H83.9311ZM83.9311 71.2348V72.6006H82.5652V71.2348H83.9311ZM83.9311 72.6006V73.9665H82.5652V72.6006H83.9311ZM83.9311 73.9665V75.3323H82.5652V73.9665H83.9311ZM83.9311 75.3323V76.6982H82.5652V75.3323H83.9311ZM83.9311 76.6982V78.064H82.5652V76.6982H83.9311ZM83.9311 78.064V79.4299H82.5652V78.064H83.9311ZM83.9311 79.4299V80.7958H82.5652V79.4299H83.9311ZM83.9311 80.7958V82.1616H82.5652V80.7958H83.9311ZM88.0286 68.5031V69.8689H86.6628V68.5031H88.0286ZM88.0286 69.8689V71.2348H86.6628V69.8689H88.0286ZM88.0286 71.2348V72.6006H86.6628V71.2348H88.0286ZM88.0286 72.6006V73.9665H86.6628V72.6006H88.0286ZM88.0286 73.9665V75.3323H86.6628V73.9665H88.0286ZM88.0286 75.3323V76.6982H86.6628V75.3323H88.0286ZM88.0286 78.064V79.4299H86.6628V78.064H88.0286ZM88.0286 79.4299V80.7958H86.6628V79.4299H88.0286ZM88.0286 80.7958V82.1616H86.6628V80.7958H88.0286ZM88.0286 82.1616V83.5275H86.6628V82.1616H88.0286ZM88.0286 83.5275V84.8933H86.6628V83.5275H88.0286ZM88.0286 84.8933V86.2592H86.6628V84.8933H88.0286ZM88.0286 86.2592V87.625H86.6628V86.2592H88.0286ZM89.3945 87.625V88.9909H88.0286V87.625H89.3945ZM89.3945 88.9909V90.3567H88.0286V88.9909H89.3945ZM89.3945 90.3567V91.7226H88.0286V90.3567H89.3945ZM89.3945 86.2592V87.625H88.0286V86.2592H89.3945ZM89.3945 84.8933V86.2592H88.0286V84.8933H89.3945ZM89.3945 83.5275V84.8933H88.0286V83.5275H89.3945ZM89.3945 82.1616V83.5275H88.0286V82.1616H89.3945ZM89.3945 80.7958V82.1616H88.0286V80.7958H89.3945ZM89.3945 79.4299V80.7958H88.0286V79.4299H89.3945ZM89.3945 78.064V79.4299H88.0286V78.064H89.3945ZM89.3945 76.6982V78.064H88.0286V76.6982H89.3945ZM89.3945 75.3323V76.6982H88.0286V75.3323H89.3945ZM89.3945 73.9665V75.3323H88.0286V73.9665H89.3945ZM88.0286 76.6982V78.064H86.6628V76.6982H88.0286ZM89.3945 72.6006V73.9665H88.0286V72.6006H89.3945ZM89.3945 71.2348V72.6006H88.0286V71.2348H89.3945ZM89.3945 69.8689V71.2348H88.0286V69.8689H89.3945ZM89.3945 68.5031V69.8689H88.0286V68.5031H89.3945ZM86.6628 68.5031V69.8689H85.2969V68.5031H86.6628ZM85.2969 68.5031V69.8689H83.9311V68.5031H85.2969ZM85.2969 69.8689V71.2348H83.9311V69.8689H85.2969ZM86.6628 69.8689V71.2348H85.2969V69.8689H86.6628ZM86.6628 71.2348V72.6006H85.2969V71.2348H86.6628ZM86.6628 72.6006V73.9665H85.2969V72.6006H86.6628ZM86.6628 73.9665V75.3323H85.2969V73.9665H86.6628ZM86.6628 75.3323V76.6982H85.2969V75.3323H86.6628ZM86.6628 76.6982V78.064H85.2969V76.6982H86.6628ZM86.6628 78.064V79.4299H85.2969V78.064H86.6628ZM85.2969 79.4299V80.7958H83.9311V79.4299H85.2969ZM85.2969 80.7958V82.1616H83.9311V80.7958H85.2969ZM85.2969 78.064V79.4299H83.9311V78.064H85.2969ZM85.2969 76.6982V78.064H83.9311V76.6982H85.2969ZM85.2969 75.3323V76.6982H83.9311V75.3323H85.2969ZM85.2969 73.9665V75.3323H83.9311V73.9665H85.2969ZM85.2969 72.6006V73.9665H83.9311V72.6006H85.2969ZM85.2969 71.2348V72.6006H83.9311V71.2348H85.2969ZM86.6628 79.4299V80.7958H85.2969V79.4299H86.6628ZM86.6628 80.7958V82.1616H85.2969V80.7958H86.6628ZM86.6628 82.1616V83.5275H85.2969V82.1616H86.6628ZM86.6628 83.5275V84.8933H85.2969V83.5275H86.6628ZM86.6628 84.8933V86.2592H85.2969V84.8933H86.6628ZM86.6628 86.2592V87.625H85.2969V86.2592H86.6628ZM86.6628 87.625V88.9909H85.2969V87.625H86.6628ZM86.6628 88.9909V90.3567H85.2969V88.9909H86.6628ZM86.6628 90.3567V91.7226H85.2969V90.3567H86.6628ZM88.0286 88.9909V90.3567H86.6628V88.9909H88.0286ZM88.0286 87.625V88.9909H86.6628V87.625H88.0286ZM90.7603 84.8933V86.2592H89.3945V84.8933H90.7603ZM92.1262 84.8933V86.2592H90.7603V84.8933H92.1262ZM92.1262 86.2592V87.625H90.7603V86.2592H92.1262ZM90.7603 86.2592V87.625H89.3945V86.2592H90.7603ZM90.7603 82.1616V83.5275H89.3945V82.1616H90.7603ZM92.1262 82.1616V83.5275H90.7603V82.1616H92.1262ZM90.7603 87.625V88.9909H89.3945V87.625H90.7603ZM92.1262 87.625V88.9909H90.7603V87.625H92.1262ZM92.1262 83.5275V84.8933H90.7603V83.5275H92.1262ZM90.7603 83.5275V84.8933H89.3945V83.5275H90.7603ZM90.7603 68.5031V69.8689H89.3945V68.5031H90.7603ZM92.1262 68.5031V69.8689H90.7603V68.5031H92.1262ZM92.1262 69.8689V71.2348H90.7603V69.8689H92.1262ZM90.7603 69.8689V71.2348H89.3945V69.8689H90.7603ZM90.7603 71.2348V72.6006H89.3945V71.2348H90.7603ZM92.1262 71.2348V72.6006H90.7603V71.2348H92.1262ZM92.1262 72.6006V73.9665H90.7603V72.6006H92.1262ZM90.7603 72.6006V73.9665H89.3945V72.6006H90.7603ZM90.7603 73.9665V75.3323H89.3945V73.9665H90.7603ZM92.1262 73.9665V75.3323H90.7603V73.9665H92.1262ZM90.7603 101.284V102.649H89.3945V101.284H90.7603ZM92.1262 101.284V102.649H90.7603V101.284H92.1262ZM92.1262 99.9177V101.284H90.7603V99.9177H92.1262ZM92.1262 98.5519V99.9177H90.7603V98.5519H92.1262ZM92.1262 97.186V98.5519H90.7603V97.186H92.1262ZM92.1262 95.8201V97.186H90.7603V95.8201H92.1262ZM90.7603 95.8201V97.186H89.3945V95.8201H90.7603ZM90.7603 97.186V98.5519H89.3945V97.186H90.7603ZM90.7603 98.5519V99.9177H89.3945V98.5519H90.7603ZM90.7603 99.9177V101.284H89.3945V99.9177H90.7603ZM93.492 82.1616V83.5275H92.1262V82.1616H93.492ZM94.8579 82.1616V83.5275H93.492V82.1616H94.8579ZM96.2237 82.1616V83.5275H94.8579V82.1616H96.2237ZM96.2237 73.9665V75.3323H94.8579V73.9665H96.2237ZM94.8579 73.9665V75.3323H93.492V73.9665H94.8579ZM93.492 73.9665V75.3323H92.1262V73.9665H93.492ZM93.492 68.5031V69.8689H92.1262V68.5031H93.492ZM94.8579 68.5031V69.8689H93.492V68.5031H94.8579ZM96.2237 68.5031V69.8689H94.8579V68.5031H96.2237ZM96.2237 72.6006V73.9665H94.8579V72.6006H96.2237ZM96.2237 71.2348V72.6006H94.8579V71.2348H96.2237ZM94.8579 71.2348V72.6006H93.492V71.2348H94.8579ZM93.492 71.2348V72.6006H92.1262V71.2348H93.492ZM93.492 69.8689V71.2348H92.1262V69.8689H93.492ZM94.8579 69.8689V71.2348H93.492V69.8689H94.8579ZM96.2237 69.8689V71.2348H94.8579V69.8689H96.2237ZM93.492 72.6006V73.9665H92.1262V72.6006H93.492ZM94.8579 72.6006V73.9665H93.492V72.6006H94.8579ZM96.2237 84.8933V86.2592H94.8579V84.8933H96.2237ZM94.8579 84.8933V86.2592H93.492V84.8933H94.8579ZM93.492 84.8933V86.2592H92.1262V84.8933H93.492ZM93.492 83.5275V84.8933H92.1262V83.5275H93.492ZM94.8579 83.5275V84.8933H93.492V83.5275H94.8579ZM96.2237 83.5275V84.8933H94.8579V83.5275H96.2237ZM93.492 86.2592V87.625H92.1262V86.2592H93.492ZM94.8579 86.2592V87.625H93.492V86.2592H94.8579ZM96.2237 86.2592V87.625H94.8579V86.2592H96.2237ZM96.2237 87.625V88.9909H94.8579V87.625H96.2237ZM94.8579 87.625V88.9909H93.492V87.625H94.8579ZM93.492 87.625V88.9909H92.1262V87.625H93.492ZM93.492 95.8201V97.186H92.1262V95.8201H93.492ZM94.8579 95.8201V97.186H93.492V95.8201H94.8579ZM96.2237 95.8201V97.186H94.8579V95.8201H96.2237ZM96.2237 99.9177V101.284H94.8579V99.9177H96.2237ZM94.8579 101.284V102.649H93.492V101.284H94.8579ZM93.492 101.284V102.649H92.1262V101.284H93.492ZM96.2237 101.284V102.649H94.8579V101.284H96.2237ZM94.8579 99.9177V101.284H93.492V99.9177H94.8579ZM93.492 99.9177V101.284H92.1262V99.9177H93.492ZM93.492 98.5519V99.9177H92.1262V98.5519H93.492ZM94.8579 98.5519V99.9177H93.492V98.5519H94.8579ZM96.2237 98.5519V99.9177H94.8579V98.5519H96.2237ZM96.2237 97.186V98.5519H94.8579V97.186H96.2237ZM94.8579 97.186V98.5519H93.492V97.186H94.8579ZM93.492 97.186V98.5519H92.1262V97.186H93.492ZM104.419 73.9665V75.3323H103.053V73.9665H104.419ZM104.419 95.8201V97.186H103.053V95.8201H104.419ZM97.5896 68.5031V69.8689H96.2237V68.5031H97.5896ZM98.9554 68.5031V69.8689H97.5896V68.5031H98.9554ZM100.321 68.5031V69.8689H98.9554V68.5031H100.321ZM101.687 68.5031V69.8689H100.321V68.5031H101.687ZM103.053 68.5031V69.8689H101.687V68.5031H103.053ZM103.053 69.8689V71.2348H101.687V69.8689H103.053ZM104.419 69.8689V71.2348H103.053V69.8689H104.419ZM104.419 71.2348V72.6006H103.053V71.2348H104.419ZM104.419 68.5031V69.8689H103.053V68.5031H104.419ZM104.419 72.6006V73.9665H103.053V72.6006H104.419ZM103.053 72.6006V73.9665H101.687V72.6006H103.053ZM101.687 72.6006V73.9665H100.321V72.6006H101.687ZM100.321 72.6006V73.9665H98.9554V72.6006H100.321ZM98.9554 72.6006V73.9665H97.5896V72.6006H98.9554ZM97.5896 72.6006V73.9665H96.2237V72.6006H97.5896ZM97.5896 71.2348V72.6006H96.2237V71.2348H97.5896ZM97.5896 69.8689V71.2348H96.2237V69.8689H97.5896ZM98.9554 69.8689V71.2348H97.5896V69.8689H98.9554ZM100.321 69.8689V71.2348H98.9554V69.8689H100.321ZM101.687 69.8689V71.2348H100.321V69.8689H101.687ZM101.687 71.2348V72.6006H100.321V71.2348H101.687ZM103.053 71.2348V72.6006H101.687V71.2348H103.053ZM100.321 71.2348V72.6006H98.9554V71.2348H100.321ZM98.9554 71.2348V72.6006H97.5896V71.2348H98.9554ZM97.5896 73.9665V75.3323H96.2237V73.9665H97.5896ZM98.9554 73.9665V75.3323H97.5896V73.9665H98.9554ZM100.321 73.9665V75.3323H98.9554V73.9665H100.321ZM101.687 73.9665V75.3323H100.321V73.9665H101.687ZM103.053 73.9665V75.3323H101.687V73.9665H103.053ZM104.419 97.186V98.5519H103.053V97.186H104.419ZM103.053 97.186V98.5519H101.687V97.186H103.053ZM103.053 98.5519V99.9177H101.687V98.5519H103.053ZM103.053 99.9177V101.284H101.687V99.9177H103.053ZM103.053 101.284V102.649H101.687V101.284H103.053ZM104.419 99.9177V101.284H103.053V99.9177H104.419ZM104.419 98.5519V99.9177H103.053V98.5519H104.419ZM104.419 101.284V102.649H103.053V101.284H104.419ZM97.5896 101.284V102.649H96.2237V101.284H97.5896ZM98.9554 101.284V102.649H97.5896V101.284H98.9554ZM100.321 101.284V102.649H98.9554V101.284H100.321ZM100.321 99.9177V101.284H98.9554V99.9177H100.321ZM101.687 101.284V102.649H100.321V101.284H101.687ZM101.687 99.9177V101.284H100.321V99.9177H101.687ZM101.687 98.5519V99.9177H100.321V98.5519H101.687ZM101.687 97.186V98.5519H100.321V97.186H101.687ZM101.687 95.8201V97.186H100.321V95.8201H101.687ZM103.053 95.8201V97.186H101.687V95.8201H103.053ZM97.5896 95.8201V97.186H96.2237V95.8201H97.5896ZM98.9554 95.8201V97.186H97.5896V95.8201H98.9554ZM100.321 95.8201V97.186H98.9554V95.8201H100.321ZM100.321 97.186V98.5519H98.9554V97.186H100.321ZM100.321 98.5519V99.9177H98.9554V98.5519H100.321ZM98.9554 98.5519V99.9177H97.5896V98.5519H98.9554ZM98.9554 97.186V98.5519H97.5896V97.186H98.9554ZM97.5896 97.186V98.5519H96.2237V97.186H97.5896ZM97.5896 98.5519V99.9177H96.2237V98.5519H97.5896ZM97.5896 99.9177V101.284H96.2237V99.9177H97.5896ZM98.9554 99.9177V101.284H97.5896V99.9177H98.9554ZM97.5896 82.1616V83.5275H96.2237V82.1616H97.5896ZM97.5896 83.5275V84.8933H96.2237V83.5275H97.5896ZM97.5896 84.8933V86.2592H96.2237V84.8933H97.5896ZM97.5896 86.2592V87.625H96.2237V86.2592H97.5896ZM98.9554 86.2592V87.625H97.5896V86.2592H98.9554ZM98.9554 87.625V88.9909H97.5896V87.625H98.9554ZM97.5896 87.625V88.9909H96.2237V87.625H97.5896ZM98.9554 82.1616V83.5275H97.5896V82.1616H98.9554ZM98.9554 83.5275V84.8933H97.5896V83.5275H98.9554ZM98.9554 84.8933V86.2592H97.5896V84.8933H98.9554ZM100.321 84.8933V86.2592H98.9554V84.8933H100.321ZM101.687 84.8933V86.2592H100.321V84.8933H101.687ZM101.687 83.5275V84.8933H100.321V83.5275H101.687ZM101.687 82.1616V83.5275H100.321V82.1616H101.687ZM100.321 82.1616V83.5275H98.9554V82.1616H100.321ZM100.321 83.5275V84.8933H98.9554V83.5275H100.321ZM100.321 86.2592V87.625H98.9554V86.2592H100.321ZM100.321 87.625V88.9909H98.9554V87.625H100.321ZM101.687 87.625V88.9909H100.321V87.625H101.687ZM101.687 86.2592V87.625H100.321V86.2592H101.687ZM111.275 69.8689H109.909V68.5031H111.275V69.8689ZM111.275 71.2348H109.909V69.8689H111.275V71.2348ZM111.275 72.6006H109.909V71.2348H111.275V72.6006ZM111.275 73.9665H109.909V72.6006H111.275V73.9665ZM112.641 73.9665H111.275V72.6006H112.641V73.9665ZM112.641 72.6006H111.275V71.2348H112.641V72.6006ZM112.641 71.2348H111.275V69.8689H112.641V71.2348ZM112.641 69.8689H111.275V68.5031H112.641V69.8689ZM111.275 78.064H109.909V76.6982H111.275V78.064ZM111.275 76.6982H109.909V75.3323H111.275V76.6982ZM111.275 75.3323H109.909V73.9665H111.275V75.3323ZM115.372 80.7958H114.007V79.4299H115.372V80.7958ZM115.372 78.064H114.007V76.6982H115.372V78.064ZM115.372 76.6982H114.007V75.3323H115.372V76.6982ZM115.372 75.3323H114.007V73.9665H115.372V75.3323ZM115.372 73.9665H114.007V72.6006H115.372V73.9665ZM115.372 72.6006H114.007V71.2348H115.372V72.6006ZM115.372 71.2348H114.007V69.8689H115.372V71.2348ZM115.372 69.8689H114.007V68.5031H115.372V69.8689ZM116.738 69.8689H115.372V68.5031H116.738V69.8689ZM116.738 71.2348H115.372V69.8689H116.738V71.2348ZM116.738 72.6006H115.372V71.2348H116.738V72.6006ZM116.738 73.9665H115.372V72.6006H116.738V73.9665ZM116.738 75.3323H115.372V73.9665H116.738V75.3323ZM116.738 76.6982H115.372V75.3323H116.738V76.6982ZM116.738 78.064H115.372V76.6982H116.738V78.064ZM116.738 79.4299H115.372V78.064H116.738V79.4299ZM116.738 80.7958H115.372V79.4299H116.738V80.7958ZM116.738 82.1616H115.372V80.7958H116.738V82.1616ZM115.372 79.4299H114.007V78.064H115.372V79.4299ZM116.738 83.5275H115.372V82.1616H116.738V83.5275ZM116.738 84.8933H115.372V83.5275H116.738V84.8933ZM114.007 80.7958H112.641V79.4299H114.007V80.7958ZM114.007 79.4299H112.641V78.064H114.007V79.4299ZM114.007 78.064H112.641V76.6982H114.007V78.064ZM112.641 76.6982H111.275V75.3323H112.641V76.6982ZM112.641 75.3323H111.275V73.9665H112.641V75.3323ZM112.641 78.064H111.275V76.6982H112.641V78.064ZM112.641 79.4299H111.275V78.064H112.641V79.4299ZM114.007 76.6982H112.641V75.3323H114.007V76.6982ZM114.007 75.3323H112.641V73.9665H114.007V75.3323ZM114.007 73.9665H112.641V72.6006H114.007V73.9665ZM114.007 72.6006H112.641V71.2348H114.007V72.6006ZM114.007 71.2348H112.641V69.8689H114.007V71.2348ZM114.007 69.8689H112.641V68.5031H114.007V69.8689ZM126.299 69.8689H124.933V68.5031H126.299V69.8689ZM126.299 71.2348H124.933V69.8689H126.299V71.2348ZM126.299 72.6006H124.933V71.2348H126.299V72.6006ZM126.299 73.9665H124.933V72.6006H126.299V73.9665ZM127.665 73.9665H126.299V72.6006H127.665V73.9665ZM127.665 72.6006H126.299V71.2348H127.665V72.6006ZM127.665 71.2348H126.299V69.8689H127.665V71.2348ZM127.665 69.8689H126.299V68.5031H127.665V69.8689ZM126.299 84.8933H124.933V83.5275H126.299V84.8933ZM126.299 83.5275H124.933V82.1616H126.299V83.5275ZM126.299 82.1616H124.933V80.7958H126.299V82.1616ZM126.299 80.7958H124.933V79.4299H126.299V80.7958ZM126.299 79.4299H124.933V78.064H126.299V79.4299ZM126.299 78.064H124.933V76.6982H126.299V78.064ZM126.299 76.6982H124.933V75.3323H126.299V76.6982ZM126.299 75.3323H124.933V73.9665H126.299V75.3323ZM130.397 80.7958H129.031V79.4299H130.397V80.7958ZM130.397 78.064H129.031V76.6982H130.397V78.064ZM130.397 76.6982H129.031V75.3323H130.397V76.6982ZM130.397 75.3323H129.031V73.9665H130.397V75.3323ZM130.397 73.9665H129.031V72.6006H130.397V73.9665ZM130.397 72.6006H129.031V71.2348H130.397V72.6006ZM130.397 71.2348H129.031V69.8689H130.397V71.2348ZM130.397 69.8689H129.031V68.5031H130.397V69.8689ZM131.763 69.8689H130.397V68.5031H131.763V69.8689ZM131.763 71.2348H130.397V69.8689H131.763V71.2348ZM131.763 72.6006H130.397V71.2348H131.763V72.6006ZM131.763 73.9665H130.397V72.6006H131.763V73.9665ZM131.763 75.3323H130.397V73.9665H131.763V75.3323ZM131.763 76.6982H130.397V75.3323H131.763V76.6982ZM131.763 78.064H130.397V76.6982H131.763V78.064ZM131.763 79.4299H130.397V78.064H131.763V79.4299ZM130.397 79.4299H129.031V78.064H130.397V79.4299ZM129.031 82.1616H127.665V80.7958H129.031V82.1616ZM129.031 80.7958H127.665V79.4299H129.031V80.7958ZM129.031 79.4299H127.665V78.064H129.031V79.4299ZM129.031 78.064H127.665V76.6982H129.031V78.064ZM127.665 76.6982H126.299V75.3323H127.665V76.6982ZM127.665 75.3323H126.299V73.9665H127.665V75.3323ZM127.665 78.064H126.299V76.6982H127.665V78.064ZM127.665 79.4299H126.299V78.064H127.665V79.4299ZM127.665 80.7958H126.299V79.4299H127.665V80.7958ZM127.665 82.1616H126.299V80.7958H127.665V82.1616ZM127.665 83.5275H126.299V82.1616H127.665V83.5275ZM129.031 76.6982H127.665V75.3323H129.031V76.6982ZM129.031 75.3323H127.665V73.9665H129.031V75.3323ZM129.031 73.9665H127.665V72.6006H129.031V73.9665ZM129.031 72.6006H127.665V71.2348H129.031V72.6006ZM129.031 71.2348H127.665V69.8689H129.031V71.2348ZM129.031 69.8689H127.665V68.5031H129.031V69.8689ZM124.933 86.2592H123.567V84.8933H124.933V86.2592ZM123.567 86.2592H122.202V84.8933H123.567V86.2592ZM122.202 86.2592H120.836V84.8933H122.202V86.2592ZM120.836 86.2592H119.47V84.8933H120.836V86.2592ZM119.47 86.2592H118.104V84.8933H119.47V86.2592ZM118.104 86.2592H116.738V84.8933H118.104V86.2592ZM118.104 84.8933H116.738V83.5275H118.104V84.8933ZM118.104 83.5275H116.738V82.1616H118.104V83.5275ZM119.47 84.8933H118.104V83.5275H119.47V84.8933ZM120.836 84.8933H119.47V83.5275H120.836V84.8933ZM122.202 84.8933H120.836V83.5275H122.202V84.8933ZM123.567 84.8933H122.202V83.5275H123.567V84.8933ZM124.933 84.8933H123.567V83.5275H124.933V84.8933ZM124.933 83.5275H123.567V82.1616H124.933V83.5275ZM123.567 83.5275H122.202V82.1616H123.567V83.5275ZM122.202 83.5275H120.836V82.1616H122.202V83.5275ZM120.836 83.5275H119.47V82.1616H120.836V83.5275ZM119.47 83.5275H118.104V82.1616H119.47V83.5275ZM118.104 82.1616H116.738V80.7958H118.104V82.1616ZM119.47 82.1616H118.104V80.7958H119.47V82.1616ZM124.933 82.1616H123.567V80.7958H124.933V82.1616ZM123.567 82.1616H122.202V80.7958H123.567V82.1616ZM124.933 80.7958H123.567V79.4299H124.933V80.7958ZM118.104 80.7958H116.738V79.4299H118.104V80.7958ZM115.372 83.5275H114.007V82.1616H115.372V83.5275ZM115.372 82.1616H114.007V80.7958H115.372V82.1616ZM114.007 82.1616H112.641V80.7958H114.007V82.1616ZM112.641 80.7958H111.275V79.4299H112.641V80.7958ZM111.275 79.4299H109.909V78.064H111.275V79.4299ZM118.104 79.4299H116.738V78.064H118.104V79.4299ZM119.47 80.7958H118.104V79.4299H119.47V80.7958ZM120.836 82.1616H119.47V80.7958H120.836V82.1616ZM122.202 82.1616H120.836V80.7958H122.202V82.1616ZM123.567 80.7958H122.202V79.4299H123.567V80.7958ZM124.933 79.4299H123.567V78.064H124.933V79.4299ZM120.836 80.7958H119.47V79.4299H120.836V80.7958ZM122.202 80.7958H120.836V79.4299H122.202V80.7958ZM119.47 79.4299H118.104V78.064H119.47V79.4299ZM118.104 78.064H116.738V76.6982H118.104V78.064ZM123.567 79.4299H122.202V78.064H123.567V79.4299ZM124.933 78.064H123.567V76.6982H124.933V78.064ZM111.275 101.284V102.649H109.909V101.284H111.275ZM111.275 99.9177V101.284H109.909V99.9177H111.275ZM111.275 98.5519V99.9177H109.909V98.5519H111.275ZM111.275 97.186V98.5519H109.909V97.186H111.275ZM112.641 97.186V98.5519H111.275V97.186H112.641ZM112.641 98.5519V99.9177H111.275V98.5519H112.641ZM112.641 99.9177V101.284H111.275V99.9177H112.641ZM112.641 101.284V102.649H111.275V101.284H112.641ZM111.275 93.0884V94.4543H109.909V93.0884H111.275ZM111.275 94.4543V95.8201H109.909V94.4543H111.275ZM111.275 95.8201V97.186H109.909V95.8201H111.275ZM115.372 90.3567V91.7226H114.007V90.3567H115.372ZM115.372 93.0884V94.4543H114.007V93.0884H115.372ZM115.372 94.4543V95.8201H114.007V94.4543H115.372ZM115.372 95.8201V97.186H114.007V95.8201H115.372ZM115.372 97.186V98.5519H114.007V97.186H115.372ZM115.372 98.5519V99.9177H114.007V98.5519H115.372ZM115.372 99.9177V101.284H114.007V99.9177H115.372ZM115.372 101.284V102.649H114.007V101.284H115.372ZM116.738 101.284V102.649H115.372V101.284H116.738ZM116.738 99.9177V101.284H115.372V99.9177H116.738ZM116.738 98.5519V99.9177H115.372V98.5519H116.738ZM116.738 97.186V98.5519H115.372V97.186H116.738ZM116.738 95.8201V97.186H115.372V95.8201H116.738ZM116.738 94.4543V95.8201H115.372V94.4543H116.738ZM116.738 93.0884V94.4543H115.372V93.0884H116.738ZM116.738 91.7226V93.0884H115.372V91.7226H116.738ZM116.738 90.3567V91.7226H115.372V90.3567H116.738ZM116.738 88.9909V90.3567H115.372V88.9909H116.738ZM115.372 91.7226V93.0884H114.007V91.7226H115.372ZM116.738 87.625V88.9909H115.372V87.625H116.738ZM116.738 86.2592V87.625H115.372V86.2592H116.738ZM114.007 90.3567V91.7226H112.641V90.3567H114.007ZM114.007 91.7226V93.0884H112.641V91.7226H114.007ZM114.007 93.0884V94.4543H112.641V93.0884H114.007ZM112.641 94.4543V95.8201H111.275V94.4543H112.641ZM112.641 95.8201V97.186H111.275V95.8201H112.641ZM112.641 93.0884V94.4543H111.275V93.0884H112.641ZM112.641 91.7226V93.0884H111.275V91.7226H112.641ZM114.007 94.4543V95.8201H112.641V94.4543H114.007ZM114.007 95.8201V97.186H112.641V95.8201H114.007ZM114.007 97.186V98.5519H112.641V97.186H114.007ZM114.007 98.5519V99.9177H112.641V98.5519H114.007ZM114.007 99.9177V101.284H112.641V99.9177H114.007ZM114.007 101.284V102.649H112.641V101.284H114.007ZM126.299 101.284V102.649H124.933V101.284H126.299ZM126.299 99.9177V101.284H124.933V99.9177H126.299ZM126.299 98.5519V99.9177H124.933V98.5519H126.299ZM126.299 97.186V98.5519H124.933V97.186H126.299ZM127.665 97.186V98.5519H126.299V97.186H127.665ZM127.665 98.5519V99.9177H126.299V98.5519H127.665ZM127.665 99.9177V101.284H126.299V99.9177H127.665ZM127.665 101.284V102.649H126.299V101.284H127.665ZM126.299 86.2592V87.625H124.933V86.2592H126.299ZM126.299 87.625V88.9909H124.933V87.625H126.299ZM126.299 88.9909V90.3567H124.933V88.9909H126.299ZM126.299 90.3567V91.7226H124.933V90.3567H126.299ZM126.299 91.7226V93.0884H124.933V91.7226H126.299ZM126.299 93.0884V94.4543H124.933V93.0884H126.299ZM126.299 94.4543V95.8201H124.933V94.4543H126.299ZM126.299 95.8201V97.186H124.933V95.8201H126.299ZM130.397 90.3567V91.7226H129.031V90.3567H130.397ZM130.397 93.0884V94.4543H129.031V93.0884H130.397ZM130.397 94.4543V95.8201H129.031V94.4543H130.397ZM130.397 95.8201V97.186H129.031V95.8201H130.397ZM130.397 97.186V98.5519H129.031V97.186H130.397ZM130.397 98.5519V99.9177H129.031V98.5519H130.397ZM130.397 99.9177V101.284H129.031V99.9177H130.397ZM130.397 101.284V102.649H129.031V101.284H130.397ZM131.763 101.284V102.649H130.397V101.284H131.763ZM131.763 99.9177V101.284H130.397V99.9177H131.763ZM131.763 98.5519V99.9177H130.397V98.5519H131.763ZM131.763 97.186V98.5519H130.397V97.186H131.763ZM131.763 95.8201V97.186H130.397V95.8201H131.763ZM131.763 94.4543V95.8201H130.397V94.4543H131.763ZM131.763 93.0884V94.4543H130.397V93.0884H131.763ZM131.763 91.7226V93.0884H130.397V91.7226H131.763ZM130.397 91.7226V93.0884H129.031V91.7226H130.397ZM129.031 88.9909V90.3567H127.665V88.9909H129.031ZM129.031 90.3567V91.7226H127.665V90.3567H129.031ZM129.031 91.7226V93.0884H127.665V91.7226H129.031ZM129.031 93.0884V94.4543H127.665V93.0884H129.031ZM127.665 94.4543V95.8201H126.299V94.4543H127.665ZM127.665 95.8201V97.186H126.299V95.8201H127.665ZM127.665 93.0884V94.4543H126.299V93.0884H127.665ZM127.665 91.7226V93.0884H126.299V91.7226H127.665ZM127.665 90.3567V91.7226H126.299V90.3567H127.665ZM127.665 88.9909V90.3567H126.299V88.9909H127.665ZM127.665 87.625V88.9909H126.299V87.625H127.665ZM129.031 94.4543V95.8201H127.665V94.4543H129.031ZM129.031 95.8201V97.186H127.665V95.8201H129.031ZM129.031 97.186V98.5519H127.665V97.186H129.031ZM129.031 98.5519V99.9177H127.665V98.5519H129.031ZM129.031 99.9177V101.284H127.665V99.9177H129.031ZM129.031 101.284V102.649H127.665V101.284H129.031ZM118.104 86.2592V87.625H116.738V86.2592H118.104ZM118.104 87.625V88.9909H116.738V87.625H118.104ZM119.47 86.2592V87.625H118.104V86.2592H119.47ZM120.836 86.2592V87.625H119.47V86.2592H120.836ZM122.202 86.2592V87.625H120.836V86.2592H122.202ZM123.567 86.2592V87.625H122.202V86.2592H123.567ZM124.933 86.2592V87.625H123.567V86.2592H124.933ZM124.933 87.625V88.9909H123.567V87.625H124.933ZM123.567 87.625V88.9909H122.202V87.625H123.567ZM122.202 87.625V88.9909H120.836V87.625H122.202ZM120.836 87.625V88.9909H119.47V87.625H120.836ZM119.47 87.625V88.9909H118.104V87.625H119.47ZM118.104 88.9909V90.3567H116.738V88.9909H118.104ZM119.47 88.9909V90.3567H118.104V88.9909H119.47ZM124.933 88.9909V90.3567H123.567V88.9909H124.933ZM123.567 88.9909V90.3567H122.202V88.9909H123.567ZM124.933 90.3567V91.7226H123.567V90.3567H124.933ZM118.104 90.3567V91.7226H116.738V90.3567H118.104ZM115.372 87.625V88.9909H114.007V87.625H115.372ZM115.372 88.9909V90.3567H114.007V88.9909H115.372ZM114.007 88.9909V90.3567H112.641V88.9909H114.007ZM112.641 90.3567V91.7226H111.275V90.3567H112.641ZM111.275 91.7226V93.0884H109.909V91.7226H111.275ZM118.104 91.7226V93.0884H116.738V91.7226H118.104ZM119.47 90.3567V91.7226H118.104V90.3567H119.47ZM120.836 88.9909V90.3567H119.47V88.9909H120.836ZM122.202 88.9909V90.3567H120.836V88.9909H122.202ZM123.567 90.3567V91.7226H122.202V90.3567H123.567ZM124.933 91.7226V93.0884H123.567V91.7226H124.933ZM120.836 90.3567V91.7226H119.47V90.3567H120.836ZM122.202 90.3567V91.7226H120.836V90.3567H122.202ZM119.47 91.7226V93.0884H118.104V91.7226H119.47ZM118.104 93.0884V94.4543H116.738V93.0884H118.104ZM123.567 91.7226V93.0884H122.202V91.7226H123.567ZM124.933 93.0884V94.4543H123.567V93.0884H124.933ZM138.619 101.284V102.649H137.253V101.284H138.619ZM138.619 99.9177V101.284H137.253V99.9177H138.619ZM138.619 98.5519V99.9177H137.253V98.5519H138.619ZM138.619 97.186V98.5519H137.253V97.186H138.619ZM138.619 95.8201V97.186H137.253V95.8201H138.619ZM138.619 94.4543V95.8201H137.253V94.4543H138.619ZM138.619 93.0884V94.4543H137.253V93.0884H138.619ZM138.619 91.7226V93.0884H137.253V91.7226H138.619ZM138.619 90.3567V91.7226H137.253V90.3567H138.619ZM138.619 88.9909V90.3567H137.253V88.9909H138.619ZM138.619 87.625V88.9909H137.253V87.625H138.619ZM138.619 86.2592V87.625H137.253V86.2592H138.619ZM138.619 84.8933V86.2592H137.253V84.8933H138.619ZM138.619 83.5275V84.8933H137.253V83.5275H138.619ZM138.619 82.1616V83.5275H137.253V82.1616H138.619ZM139.984 82.1616V83.5275H138.619V82.1616H139.984ZM139.984 83.5275V84.8933H138.619V83.5275H139.984ZM139.984 84.8933V86.2592H138.619V84.8933H139.984ZM139.984 86.2592V87.625H138.619V86.2592H139.984ZM139.984 87.625V88.9909H138.619V87.625H139.984ZM139.984 88.9909V90.3567H138.619V88.9909H139.984ZM139.984 90.3567V91.7226H138.619V90.3567H139.984ZM141.35 91.7226V93.0884H139.984V91.7226H141.35ZM141.35 93.0884V94.4543H139.984V93.0884H141.35ZM141.35 94.4543V95.8201H139.984V94.4543H141.35ZM141.35 95.8201V97.186H139.984V95.8201H141.35ZM141.35 97.186V98.5519H139.984V97.186H141.35ZM141.35 98.5519V99.9177H139.984V98.5519H141.35ZM141.35 99.9177V101.284H139.984V99.9177H141.35ZM141.35 101.284V102.649H139.984V101.284H141.35ZM142.716 101.284V102.649H141.35V101.284H142.716ZM144.082 101.284V102.649H142.716V101.284H144.082ZM144.082 95.8201V97.186H142.716V95.8201H144.082ZM144.082 94.4543V95.8201H142.716V94.4543H144.082ZM144.082 93.0884V94.4543H142.716V93.0884H144.082ZM144.082 91.7226V93.0884H142.716V91.7226H144.082ZM142.716 91.7226V93.0884H141.35V91.7226H142.716ZM142.716 90.3567V91.7226H141.35V90.3567H142.716ZM142.716 93.0884V94.4543H141.35V93.0884H142.716ZM142.716 94.4543V95.8201H141.35V94.4543H142.716ZM142.716 95.8201V97.186H141.35V95.8201H142.716ZM142.716 97.186V98.5519H141.35V97.186H142.716ZM142.716 98.5519V99.9177H141.35V98.5519H142.716ZM142.716 99.9177V101.284H141.35V99.9177H142.716ZM139.984 101.284V102.649H138.619V101.284H139.984ZM139.984 99.9177V101.284H138.619V99.9177H139.984ZM139.984 98.5519V99.9177H138.619V98.5519H139.984ZM139.984 97.186V98.5519H138.619V97.186H139.984ZM139.984 95.8201V97.186H138.619V95.8201H139.984ZM139.984 94.4543V95.8201H138.619V94.4543H139.984ZM139.984 93.0884V94.4543H138.619V93.0884H139.984ZM139.984 91.7226V93.0884H138.619V91.7226H139.984ZM138.619 68.5031V69.8689H137.253V68.5031H138.619ZM138.619 69.8689V71.2348H137.253V69.8689H138.619ZM138.619 71.2348V72.6006H137.253V71.2348H138.619ZM138.619 72.6006V73.9665H137.253V72.6006H138.619ZM138.619 73.9665V75.3323H137.253V73.9665H138.619ZM138.619 75.3323V76.6982H137.253V75.3323H138.619ZM138.619 76.6982V78.064H137.253V76.6982H138.619ZM138.619 78.064V79.4299H137.253V78.064H138.619ZM138.619 79.4299V80.7958H137.253V79.4299H138.619ZM138.619 80.7958V82.1616H137.253V80.7958H138.619ZM142.716 68.5031V69.8689H141.35V68.5031H142.716ZM142.716 69.8689V71.2348H141.35V69.8689H142.716ZM142.716 71.2348V72.6006H141.35V71.2348H142.716ZM142.716 72.6006V73.9665H141.35V72.6006H142.716ZM142.716 73.9665V75.3323H141.35V73.9665H142.716ZM142.716 75.3323V76.6982H141.35V75.3323H142.716ZM142.716 78.064V79.4299H141.35V78.064H142.716ZM142.716 79.4299V80.7958H141.35V79.4299H142.716ZM142.716 80.7958V82.1616H141.35V80.7958H142.716ZM142.716 82.1616V83.5275H141.35V82.1616H142.716ZM142.716 83.5275V84.8933H141.35V83.5275H142.716ZM142.716 84.8933V86.2592H141.35V84.8933H142.716ZM142.716 86.2592V87.625H141.35V86.2592H142.716ZM144.082 87.625V88.9909H142.716V87.625H144.082ZM144.082 88.9909V90.3567H142.716V88.9909H144.082ZM144.082 90.3567V91.7226H142.716V90.3567H144.082ZM144.082 86.2592V87.625H142.716V86.2592H144.082ZM144.082 84.8933V86.2592H142.716V84.8933H144.082ZM144.082 83.5275V84.8933H142.716V83.5275H144.082ZM144.082 82.1616V83.5275H142.716V82.1616H144.082ZM144.082 80.7958V82.1616H142.716V80.7958H144.082ZM144.082 79.4299V80.7958H142.716V79.4299H144.082ZM144.082 78.064V79.4299H142.716V78.064H144.082ZM144.082 76.6982V78.064H142.716V76.6982H144.082ZM144.082 75.3323V76.6982H142.716V75.3323H144.082ZM144.082 73.9665V75.3323H142.716V73.9665H144.082ZM142.716 76.6982V78.064H141.35V76.6982H142.716ZM144.082 72.6006V73.9665H142.716V72.6006H144.082ZM144.082 71.2348V72.6006H142.716V71.2348H144.082ZM144.082 69.8689V71.2348H142.716V69.8689H144.082ZM144.082 68.5031V69.8689H142.716V68.5031H144.082ZM141.35 68.5031V69.8689H139.984V68.5031H141.35ZM139.984 68.5031V69.8689H138.619V68.5031H139.984ZM139.984 69.8689V71.2348H138.619V69.8689H139.984ZM141.35 69.8689V71.2348H139.984V69.8689H141.35ZM141.35 71.2348V72.6006H139.984V71.2348H141.35ZM141.35 72.6006V73.9665H139.984V72.6006H141.35ZM141.35 73.9665V75.3323H139.984V73.9665H141.35ZM141.35 75.3323V76.6982H139.984V75.3323H141.35ZM141.35 76.6982V78.064H139.984V76.6982H141.35ZM141.35 78.064V79.4299H139.984V78.064H141.35ZM139.984 79.4299V80.7958H138.619V79.4299H139.984ZM139.984 80.7958V82.1616H138.619V80.7958H139.984ZM139.984 78.064V79.4299H138.619V78.064H139.984ZM139.984 76.6982V78.064H138.619V76.6982H139.984ZM139.984 75.3323V76.6982H138.619V75.3323H139.984ZM139.984 73.9665V75.3323H138.619V73.9665H139.984ZM139.984 72.6006V73.9665H138.619V72.6006H139.984ZM139.984 71.2348V72.6006H138.619V71.2348H139.984ZM141.35 79.4299V80.7958H139.984V79.4299H141.35ZM141.35 80.7958V82.1616H139.984V80.7958H141.35ZM141.35 82.1616V83.5275H139.984V82.1616H141.35ZM141.35 83.5275V84.8933H139.984V83.5275H141.35ZM141.35 84.8933V86.2592H139.984V84.8933H141.35ZM141.35 86.2592V87.625H139.984V86.2592H141.35ZM141.35 87.625V88.9909H139.984V87.625H141.35ZM141.35 88.9909V90.3567H139.984V88.9909H141.35ZM141.35 90.3567V91.7226H139.984V90.3567H141.35ZM142.716 88.9909V90.3567H141.35V88.9909H142.716ZM142.716 87.625V88.9909H141.35V87.625H142.716ZM145.448 87.625V88.9909H144.082V87.625H145.448ZM146.814 87.625V88.9909H145.448V87.625H146.814ZM146.814 88.9909V90.3567H145.448V88.9909H146.814ZM145.448 88.9909V90.3567H144.082V88.9909H145.448ZM145.448 84.8933V86.2592H144.082V84.8933H145.448ZM146.814 84.8933V86.2592H145.448V84.8933H146.814ZM145.448 90.3567V91.7226H144.082V90.3567H145.448ZM146.814 90.3567V91.7226H145.448V90.3567H146.814ZM146.814 86.2592V87.625H145.448V86.2592H146.814ZM145.448 86.2592V87.625H144.082V86.2592H145.448ZM145.448 68.5031V69.8689H144.082V68.5031H145.448ZM146.814 68.5031V69.8689H145.448V68.5031H146.814ZM146.814 69.8689V71.2348H145.448V69.8689H146.814ZM145.448 69.8689V71.2348H144.082V69.8689H145.448ZM145.448 71.2348V72.6006H144.082V71.2348H145.448ZM146.814 71.2348V72.6006H145.448V71.2348H146.814ZM146.814 72.6006V73.9665H145.448V72.6006H146.814ZM145.448 72.6006V73.9665H144.082V72.6006H145.448ZM145.448 73.9665V75.3323H144.082V73.9665H145.448ZM146.814 73.9665V75.3323H145.448V73.9665H146.814ZM148.18 84.8933V86.2592H146.814V84.8933H148.18ZM149.545 84.8933V86.2592H148.18V84.8933H149.545ZM150.911 84.8933V86.2592H149.545V84.8933H150.911ZM152.277 83.5275V84.8933H150.911V83.5275H152.277ZM153.643 82.1616V83.5275H152.277V82.1616H153.643ZM153.643 80.7958V82.1616H152.277V80.7958H153.643ZM153.643 76.6982V78.064H152.277V76.6982H153.643ZM152.277 75.3323V76.6982H150.911V75.3323H152.277ZM150.911 73.9665V75.3323H149.545V73.9665H150.911ZM149.545 73.9665V75.3323H148.18V73.9665H149.545ZM148.18 73.9665V75.3323H146.814V73.9665H148.18ZM148.18 68.5031V69.8689H146.814V68.5031H148.18ZM149.545 68.5031V69.8689H148.18V68.5031H149.545ZM150.911 68.5031V69.8689H149.545V68.5031H150.911ZM152.277 68.5031V69.8689H150.911V68.5031H152.277ZM152.277 69.8689V71.2348H150.911V69.8689H152.277ZM152.277 71.2348V72.6006H150.911V71.2348H152.277ZM152.277 72.6006V73.9665H150.911V72.6006H152.277ZM150.911 72.6006V73.9665H149.545V72.6006H150.911ZM150.911 71.2348V72.6006H149.545V71.2348H150.911ZM149.545 71.2348V72.6006H148.18V71.2348H149.545ZM148.18 71.2348V72.6006H146.814V71.2348H148.18ZM148.18 69.8689V71.2348H146.814V69.8689H148.18ZM149.545 69.8689V71.2348H148.18V69.8689H149.545ZM150.911 69.8689V71.2348H149.545V69.8689H150.911ZM148.18 72.6006V73.9665H146.814V72.6006H148.18ZM149.545 72.6006V73.9665H148.18V72.6006H149.545ZM152.277 73.9665V75.3323H150.911V73.9665H152.277ZM153.643 75.3323V76.6982H152.277V75.3323H153.643ZM153.643 73.9665V75.3323H152.277V73.9665H153.643ZM153.643 72.6006V73.9665H152.277V72.6006H153.643ZM153.643 71.2348V72.6006H152.277V71.2348H153.643ZM153.643 69.8689V71.2348H152.277V69.8689H153.643ZM153.643 68.5031V69.8689H152.277V68.5031H153.643ZM153.643 83.5275V84.8933H152.277V83.5275H153.643ZM153.643 84.8933V86.2592H152.277V84.8933H153.643ZM153.643 86.2592V87.625H152.277V86.2592H153.643ZM153.643 87.625V88.9909H152.277V87.625H153.643ZM152.277 87.625V88.9909H150.911V87.625H152.277ZM150.911 87.625V88.9909H149.545V87.625H150.911ZM149.545 87.625V88.9909H148.18V87.625H149.545ZM148.18 87.625V88.9909H146.814V87.625H148.18ZM148.18 86.2592V87.625H146.814V86.2592H148.18ZM149.545 86.2592V87.625H148.18V86.2592H149.545ZM150.911 86.2592V87.625H149.545V86.2592H150.911ZM152.277 86.2592V87.625H150.911V86.2592H152.277ZM152.277 84.8933V86.2592H150.911V84.8933H152.277ZM148.18 88.9909V90.3567H146.814V88.9909H148.18ZM149.545 88.9909V90.3567H148.18V88.9909H149.545ZM150.911 88.9909V90.3567H149.545V88.9909H150.911ZM152.277 88.9909V90.3567H150.911V88.9909H152.277ZM153.643 88.9909V90.3567H152.277V88.9909H153.643ZM153.643 90.3567V91.7226H152.277V90.3567H153.643ZM152.277 90.3567V91.7226H150.911V90.3567H152.277ZM150.911 90.3567V91.7226H149.545V90.3567H150.911ZM149.545 90.3567V91.7226H148.18V90.3567H149.545ZM148.18 90.3567V91.7226H146.814V90.3567H148.18ZM155.009 69.8689V71.2348H153.643V69.8689H155.009ZM156.375 69.8689V71.2348H155.009V69.8689H156.375ZM156.375 71.2348V72.6006H155.009V71.2348H156.375ZM157.741 71.2348V72.6006H156.375V71.2348H157.741ZM157.741 72.6006V73.9665H156.375V72.6006H157.741ZM157.741 73.9665V75.3323H156.375V73.9665H157.741ZM159.106 73.9665V75.3323H157.741V73.9665H159.106ZM159.106 75.3323V76.6982H157.741V75.3323H159.106ZM159.106 76.6982V78.064H157.741V76.6982H159.106ZM159.106 80.7958V82.1616H157.741V80.7958H159.106ZM159.106 82.1616V83.5275H157.741V82.1616H159.106ZM159.106 83.5275V84.8933H157.741V83.5275H159.106ZM159.106 84.8933V86.2592H157.741V84.8933H159.106ZM157.741 86.2592V87.625H156.375V86.2592H157.741ZM156.375 87.625V88.9909H155.009V87.625H156.375ZM155.009 88.9909V90.3567H153.643V88.9909H155.009ZM156.375 88.9909V90.3567H155.009V88.9909H156.375ZM155.009 90.3567V91.7226H153.643V90.3567H155.009ZM155.009 71.2348V72.6006H153.643V71.2348H155.009ZM155.009 72.6006V73.9665H153.643V72.6006H155.009ZM155.009 73.9665V75.3323H153.643V73.9665H155.009ZM155.009 75.3323V76.6982H153.643V75.3323H155.009ZM155.009 76.6982V78.064H153.643V76.6982H155.009ZM155.009 80.7958V82.1616H153.643V80.7958H155.009ZM155.009 82.1616V83.5275H153.643V82.1616H155.009ZM155.009 83.5275V84.8933H153.643V83.5275H155.009ZM155.009 84.8933V86.2592H153.643V84.8933H155.009ZM155.009 86.2592V87.625H153.643V86.2592H155.009ZM155.009 87.625V88.9909H153.643V87.625H155.009ZM156.375 86.2592V87.625H155.009V86.2592H156.375ZM156.375 84.8933V86.2592H155.009V84.8933H156.375ZM156.375 83.5275V84.8933H155.009V83.5275H156.375ZM156.375 82.1616V83.5275H155.009V82.1616H156.375ZM156.375 80.7958V82.1616H155.009V80.7958H156.375ZM156.375 76.6982V78.064H155.009V76.6982H156.375ZM156.375 75.3323V76.6982H155.009V75.3323H156.375ZM156.375 73.9665V75.3323H155.009V73.9665H156.375ZM156.375 72.6006V73.9665H155.009V72.6006H156.375ZM157.741 75.3323V76.6982H156.375V75.3323H157.741ZM157.741 76.6982V78.064H156.375V76.6982H157.741ZM157.741 80.7958V82.1616H156.375V80.7958H157.741ZM157.741 82.1616V83.5275H156.375V82.1616H157.741ZM157.741 83.5275V84.8933H156.375V83.5275H157.741ZM157.741 84.8933V86.2592H156.375V84.8933H157.741ZM144.082 98.5519V99.9177H142.716V98.5519H144.082ZM144.082 99.9177V101.284H142.716V99.9177H144.082ZM144.082 97.186V98.5519H142.716V97.186H144.082ZM153.643 78.064V79.4299H152.277V78.064H153.643ZM155.009 78.064V79.4299H153.643V78.064H155.009ZM156.375 78.064V79.4299H155.009V78.064H156.375ZM157.741 78.064V79.4299H156.375V78.064H157.741ZM159.106 78.064V79.4299H157.741V78.064H159.106ZM159.106 79.4299V80.7958H157.741V79.4299H159.106ZM157.741 79.4299V80.7958H156.375V79.4299H157.741ZM156.375 79.4299V80.7958H155.009V79.4299H156.375ZM155.009 79.4299V80.7958H153.643V79.4299H155.009ZM153.643 79.4299V80.7958H152.277V79.4299H153.643ZM165.962 101.284V102.649H164.596V101.284H165.962ZM165.962 99.9177V101.284H164.596V99.9177H165.962ZM165.962 98.5519V99.9177H164.596V98.5519H165.962ZM165.962 97.186V98.5519H164.596V97.186H165.962ZM165.962 95.8201V97.186H164.596V95.8201H165.962ZM165.962 94.4543V95.8201H164.596V94.4543H165.962ZM165.962 93.0884V94.4543H164.596V93.0884H165.962ZM165.962 91.7226V93.0884H164.596V91.7226H165.962ZM165.962 90.3567V91.7226H164.596V90.3567H165.962ZM165.962 88.9909V90.3567H164.596V88.9909H165.962ZM165.962 87.625V88.9909H164.596V87.625H165.962ZM165.962 86.2592V87.625H164.596V86.2592H165.962ZM165.962 84.8933V86.2592H164.596V84.8933H165.962ZM165.962 83.5275V84.8933H164.596V83.5275H165.962ZM165.962 82.1616V83.5275H164.596V82.1616H165.962ZM167.328 82.1616V83.5275H165.962V82.1616H167.328ZM167.328 83.5275V84.8933H165.962V83.5275H167.328ZM167.328 84.8933V86.2592H165.962V84.8933H167.328ZM167.328 86.2592V87.625H165.962V86.2592H167.328ZM167.328 87.625V88.9909H165.962V87.625H167.328ZM167.328 88.9909V90.3567H165.962V88.9909H167.328ZM167.328 90.3567V91.7226H165.962V90.3567H167.328ZM168.694 91.7226V93.0884H167.328V91.7226H168.694ZM168.694 93.0884V94.4543H167.328V93.0884H168.694ZM168.694 94.4543V95.8201H167.328V94.4543H168.694ZM168.694 95.8201V97.186H167.328V95.8201H168.694ZM168.694 97.186V98.5519H167.328V97.186H168.694ZM168.694 98.5519V99.9177H167.328V98.5519H168.694ZM168.694 99.9177V101.284H167.328V99.9177H168.694ZM168.694 101.284V102.649H167.328V101.284H168.694ZM170.06 101.284V102.649H168.694V101.284H170.06ZM171.426 101.284V102.649H170.06V101.284H171.426ZM171.426 99.9177V101.284H170.06V99.9177H171.426ZM171.426 98.5519V99.9177H170.06V98.5519H171.426ZM171.426 97.186V98.5519H170.06V97.186H171.426ZM171.426 95.8201V97.186H170.06V95.8201H171.426ZM171.426 94.4543V95.8201H170.06V94.4543H171.426ZM171.426 93.0884V94.4543H170.06V93.0884H171.426ZM171.426 91.7226V93.0884H170.06V91.7226H171.426ZM170.06 91.7226V93.0884H168.694V91.7226H170.06ZM170.06 90.3567V91.7226H168.694V90.3567H170.06ZM170.06 93.0884V94.4543H168.694V93.0884H170.06ZM170.06 94.4543V95.8201H168.694V94.4543H170.06ZM170.06 95.8201V97.186H168.694V95.8201H170.06ZM170.06 97.186V98.5519H168.694V97.186H170.06ZM170.06 98.5519V99.9177H168.694V98.5519H170.06ZM170.06 99.9177V101.284H168.694V99.9177H170.06ZM167.328 101.284V102.649H165.962V101.284H167.328ZM167.328 99.9177V101.284H165.962V99.9177H167.328ZM167.328 98.5519V99.9177H165.962V98.5519H167.328ZM167.328 97.186V98.5519H165.962V97.186H167.328ZM167.328 95.8201V97.186H165.962V95.8201H167.328ZM167.328 94.4543V95.8201H165.962V94.4543H167.328ZM167.328 93.0884V94.4543H165.962V93.0884H167.328ZM167.328 91.7226V93.0884H165.962V91.7226H167.328ZM165.962 68.5031V69.8689H164.596V68.5031H165.962ZM165.962 69.8689V71.2348H164.596V69.8689H165.962ZM165.962 71.2348V72.6006H164.596V71.2348H165.962ZM165.962 72.6006V73.9665H164.596V72.6006H165.962ZM165.962 73.9665V75.3323H164.596V73.9665H165.962ZM165.962 75.3323V76.6982H164.596V75.3323H165.962ZM165.962 76.6982V78.064H164.596V76.6982H165.962ZM165.962 78.064V79.4299H164.596V78.064H165.962ZM165.962 79.4299V80.7958H164.596V79.4299H165.962ZM165.962 80.7958V82.1616H164.596V80.7958H165.962ZM170.06 68.5031V69.8689H168.694V68.5031H170.06ZM170.06 69.8689V71.2348H168.694V69.8689H170.06ZM170.06 71.2348V72.6006H168.694V71.2348H170.06ZM170.06 72.6006V73.9665H168.694V72.6006H170.06ZM170.06 73.9665V75.3323H168.694V73.9665H170.06ZM170.06 75.3323V76.6982H168.694V75.3323H170.06ZM170.06 78.064V79.4299H168.694V78.064H170.06ZM170.06 79.4299V80.7958H168.694V79.4299H170.06ZM170.06 80.7958V82.1616H168.694V80.7958H170.06ZM170.06 82.1616V83.5275H168.694V82.1616H170.06ZM170.06 83.5275V84.8933H168.694V83.5275H170.06ZM170.06 84.8933V86.2592H168.694V84.8933H170.06ZM170.06 86.2592V87.625H168.694V86.2592H170.06ZM171.426 87.625V88.9909H170.06V87.625H171.426ZM171.426 88.9909V90.3567H170.06V88.9909H171.426ZM171.426 90.3567V91.7226H170.06V90.3567H171.426ZM171.426 86.2592V87.625H170.06V86.2592H171.426ZM171.426 84.8933V86.2592H170.06V84.8933H171.426ZM171.426 83.5275V84.8933H170.06V83.5275H171.426ZM171.426 82.1616V83.5275H170.06V82.1616H171.426ZM171.426 80.7958V82.1616H170.06V80.7958H171.426ZM171.426 79.4299V80.7958H170.06V79.4299H171.426ZM171.426 78.064V79.4299H170.06V78.064H171.426ZM171.426 76.6982V78.064H170.06V76.6982H171.426ZM171.426 75.3323V76.6982H170.06V75.3323H171.426ZM171.426 73.9665V75.3323H170.06V73.9665H171.426ZM170.06 76.6982V78.064H168.694V76.6982H170.06ZM171.426 72.6006V73.9665H170.06V72.6006H171.426ZM171.426 71.2348V72.6006H170.06V71.2348H171.426ZM171.426 69.8689V71.2348H170.06V69.8689H171.426ZM171.426 68.5031V69.8689H170.06V68.5031H171.426ZM168.694 68.5031V69.8689H167.328V68.5031H168.694ZM167.328 68.5031V69.8689H165.962V68.5031H167.328ZM167.328 69.8689V71.2348H165.962V69.8689H167.328ZM168.694 69.8689V71.2348H167.328V69.8689H168.694ZM168.694 71.2348V72.6006H167.328V71.2348H168.694ZM168.694 72.6006V73.9665H167.328V72.6006H168.694ZM168.694 73.9665V75.3323H167.328V73.9665H168.694ZM168.694 75.3323V76.6982H167.328V75.3323H168.694ZM168.694 76.6982V78.064H167.328V76.6982H168.694ZM168.694 78.064V79.4299H167.328V78.064H168.694ZM167.328 79.4299V80.7958H165.962V79.4299H167.328ZM167.328 80.7958V82.1616H165.962V80.7958H167.328ZM167.328 78.064V79.4299H165.962V78.064H167.328ZM167.328 76.6982V78.064H165.962V76.6982H167.328ZM167.328 75.3323V76.6982H165.962V75.3323H167.328ZM167.328 73.9665V75.3323H165.962V73.9665H167.328ZM167.328 72.6006V73.9665H165.962V72.6006H167.328ZM167.328 71.2348V72.6006H165.962V71.2348H167.328ZM168.694 79.4299V80.7958H167.328V79.4299H168.694ZM168.694 80.7958V82.1616H167.328V80.7958H168.694ZM168.694 82.1616V83.5275H167.328V82.1616H168.694ZM168.694 83.5275V84.8933H167.328V83.5275H168.694ZM168.694 84.8933V86.2592H167.328V84.8933H168.694ZM168.694 86.2592V87.625H167.328V86.2592H168.694ZM168.694 87.625V88.9909H167.328V87.625H168.694ZM168.694 88.9909V90.3567H167.328V88.9909H168.694ZM168.694 90.3567V91.7226H167.328V90.3567H168.694ZM170.06 88.9909V90.3567H168.694V88.9909H170.06ZM170.06 87.625V88.9909H168.694V87.625H170.06ZM172.792 101.284V102.649H171.426V101.284H172.792ZM174.157 101.284V102.649H172.792V101.284H174.157ZM174.157 99.9177V101.284H172.792V99.9177H174.157ZM174.157 98.5519V99.9177H172.792V98.5519H174.157ZM174.157 97.186V98.5519H172.792V97.186H174.157ZM174.157 95.8201V97.186H172.792V95.8201H174.157ZM172.792 95.8201V97.186H171.426V95.8201H172.792ZM172.792 97.186V98.5519H171.426V97.186H172.792ZM172.792 98.5519V99.9177H171.426V98.5519H172.792ZM172.792 99.9177V101.284H171.426V99.9177H172.792ZM175.523 95.8201V97.186H174.157V95.8201H175.523ZM176.889 95.8201V97.186H175.523V95.8201H176.889ZM178.255 95.8201V97.186H176.889V95.8201H178.255ZM178.255 99.9177V101.284H176.889V99.9177H178.255ZM176.889 101.284V102.649H175.523V101.284H176.889ZM175.523 101.284V102.649H174.157V101.284H175.523ZM178.255 101.284V102.649H176.889V101.284H178.255ZM176.889 99.9177V101.284H175.523V99.9177H176.889ZM175.523 99.9177V101.284H174.157V99.9177H175.523ZM175.523 98.5519V99.9177H174.157V98.5519H175.523ZM176.889 98.5519V99.9177H175.523V98.5519H176.889ZM178.255 98.5519V99.9177H176.889V98.5519H178.255ZM178.255 97.186V98.5519H176.889V97.186H178.255ZM176.889 97.186V98.5519H175.523V97.186H176.889ZM175.523 97.186V98.5519H174.157V97.186H175.523ZM179.621 101.284V102.649H178.255V101.284H179.621ZM180.987 101.284V102.649H179.621V101.284H180.987ZM182.353 101.284V102.649H180.987V101.284H182.353ZM182.353 99.9177V101.284H180.987V99.9177H182.353ZM179.621 95.8201V97.186H178.255V95.8201H179.621ZM180.987 95.8201V97.186H179.621V95.8201H180.987ZM182.353 95.8201V97.186H180.987V95.8201H182.353ZM182.353 97.186V98.5519H180.987V97.186H182.353ZM182.353 98.5519V99.9177H180.987V98.5519H182.353ZM180.987 98.5519V99.9177H179.621V98.5519H180.987ZM180.987 97.186V98.5519H179.621V97.186H180.987ZM179.621 97.186V98.5519H178.255V97.186H179.621ZM179.621 98.5519V99.9177H178.255V98.5519H179.621ZM179.621 99.9177V101.284H178.255V99.9177H179.621ZM180.987 99.9177V101.284H179.621V99.9177H180.987ZM189.204 95.8201V97.186H187.839V95.8201H189.204ZM189.204 94.4543V95.8201H187.839V94.4543H189.204ZM189.204 93.0884V94.4543H187.839V93.0884H189.204ZM189.204 91.7226V93.0884H187.839V91.7226H189.204ZM189.204 90.3567V91.7226H187.839V90.3567H189.204ZM189.204 88.9909V90.3567H187.839V88.9909H189.204ZM189.204 87.625V88.9909H187.839V87.625H189.204ZM189.204 86.2592V87.625H187.839V86.2592H189.204ZM189.204 84.8933V86.2592H187.839V84.8933H189.204ZM189.204 83.5275V84.8933H187.839V83.5275H189.204ZM189.204 82.1616V83.5275H187.839V82.1616H189.204ZM190.57 82.1616V83.5275H189.204V82.1616H190.57ZM190.57 83.5275V84.8933H189.204V83.5275H190.57ZM190.57 84.8933V86.2592H189.204V84.8933H190.57ZM190.57 86.2592V87.625H189.204V86.2592H190.57ZM190.57 87.625V88.9909H189.204V87.625H190.57ZM190.57 88.9909V90.3567H189.204V88.9909H190.57ZM190.57 90.3567V91.7226H189.204V90.3567H190.57ZM191.936 91.7226V93.0884H190.57V91.7226H191.936ZM191.936 93.0884V94.4543H190.57V93.0884H191.936ZM191.936 94.4543V95.8201H190.57V94.4543H191.936ZM191.936 95.8201V97.186H190.57V95.8201H191.936ZM191.936 97.186V98.5519H190.57V97.186H191.936ZM191.936 98.5519V99.9177H190.57V98.5519H191.936ZM191.936 99.9177V101.284H190.57V99.9177H191.936ZM194.668 101.284V102.649H193.302V101.284H194.668ZM194.668 99.9177V101.284H193.302V99.9177H194.668ZM194.668 98.5519V99.9177H193.302V98.5519H194.668ZM194.668 97.186V98.5519H193.302V97.186H194.668ZM194.668 95.8201V97.186H193.302V95.8201H194.668ZM194.668 94.4543V95.8201H193.302V94.4543H194.668ZM194.668 93.0884V94.4543H193.302V93.0884H194.668ZM194.668 91.7226V93.0884H193.302V91.7226H194.668ZM193.302 91.7226V93.0884H191.936V91.7226H193.302ZM193.302 90.3567V91.7226H191.936V90.3567H193.302ZM193.302 93.0884V94.4543H191.936V93.0884H193.302ZM193.302 94.4543V95.8201H191.936V94.4543H193.302ZM193.302 95.8201V97.186H191.936V95.8201H193.302ZM193.302 97.186V98.5519H191.936V97.186H193.302ZM193.302 98.5519V99.9177H191.936V98.5519H193.302ZM193.302 99.9177V101.284H191.936V99.9177H193.302ZM190.57 98.5519V99.9177H189.204V98.5519H190.57ZM190.57 97.186V98.5519H189.204V97.186H190.57ZM190.57 95.8201V97.186H189.204V95.8201H190.57ZM190.57 94.4543V95.8201H189.204V94.4543H190.57ZM190.57 93.0884V94.4543H189.204V93.0884H190.57ZM190.57 91.7226V93.0884H189.204V91.7226H190.57ZM189.204 80.7958V82.1616H187.839V80.7958H189.204ZM193.302 80.7958V82.1616H191.936V80.7958H193.302ZM193.302 82.1616V83.5275H191.936V82.1616H193.302ZM193.302 83.5275V84.8933H191.936V83.5275H193.302ZM193.302 84.8933V86.2592H191.936V84.8933H193.302ZM193.302 86.2592V87.625H191.936V86.2592H193.302ZM194.668 87.625V88.9909H193.302V87.625H194.668ZM194.668 88.9909V90.3567H193.302V88.9909H194.668ZM194.668 90.3567V91.7226H193.302V90.3567H194.668ZM194.668 86.2592V87.625H193.302V86.2592H194.668ZM194.668 84.8933V86.2592H193.302V84.8933H194.668ZM194.668 83.5275V84.8933H193.302V83.5275H194.668ZM194.668 82.1616V83.5275H193.302V82.1616H194.668ZM194.668 80.7958V82.1616H193.302V80.7958H194.668ZM190.57 80.7958V82.1616H189.204V80.7958H190.57ZM191.936 80.7958V82.1616H190.57V80.7958H191.936ZM191.936 82.1616V83.5275H190.57V82.1616H191.936ZM191.936 83.5275V84.8933H190.57V83.5275H191.936ZM191.936 84.8933V86.2592H190.57V84.8933H191.936ZM191.936 86.2592V87.625H190.57V86.2592H191.936ZM191.936 87.625V88.9909H190.57V87.625H191.936ZM191.936 88.9909V90.3567H190.57V88.9909H191.936ZM191.936 90.3567V91.7226H190.57V90.3567H191.936ZM193.302 88.9909V90.3567H191.936V88.9909H193.302ZM193.302 87.625V88.9909H191.936V87.625H193.302ZM205.595 101.284V102.649H204.229V101.284H205.595ZM205.595 99.9177V101.284H204.229V99.9177H205.595ZM205.595 98.5519V99.9177H204.229V98.5519H205.595ZM205.595 97.186V98.5519H204.229V97.186H205.595ZM205.595 95.8201V97.186H204.229V95.8201H205.595ZM205.595 94.4543V95.8201H204.229V94.4543H205.595ZM205.595 93.0884V94.4543H204.229V93.0884H205.595ZM205.595 91.7226V93.0884H204.229V91.7226H205.595ZM205.595 90.3567V91.7226H204.229V90.3567H205.595ZM205.595 88.9909V90.3567H204.229V88.9909H205.595ZM205.595 87.625V88.9909H204.229V87.625H205.595ZM205.595 86.2592V87.625H204.229V86.2592H205.595ZM205.595 84.8933V86.2592H204.229V84.8933H205.595ZM205.595 83.5275V84.8933H204.229V83.5275H205.595ZM205.595 82.1616V83.5275H204.229V82.1616H205.595ZM206.961 82.1616V83.5275H205.595V82.1616H206.961ZM206.961 83.5275V84.8933H205.595V83.5275H206.961ZM206.961 84.8933V86.2592H205.595V84.8933H206.961ZM206.961 86.2592V87.625H205.595V86.2592H206.961ZM206.961 87.625V88.9909H205.595V87.625H206.961ZM206.961 88.9909V90.3567H205.595V88.9909H206.961ZM206.961 90.3567V91.7226H205.595V90.3567H206.961ZM208.326 91.7226V93.0884H206.961V91.7226H208.326ZM208.326 93.0884V94.4543H206.961V93.0884H208.326ZM208.326 94.4543V95.8201H206.961V94.4543H208.326ZM208.326 95.8201V97.186H206.961V95.8201H208.326ZM208.326 97.186V98.5519H206.961V97.186H208.326ZM208.326 98.5519V99.9177H206.961V98.5519H208.326ZM208.326 99.9177V101.284H206.961V99.9177H208.326ZM211.058 95.8201V97.186H209.692V95.8201H211.058ZM211.058 94.4543V95.8201H209.692V94.4543H211.058ZM211.058 93.0884V94.4543H209.692V93.0884H211.058ZM211.058 91.7226V93.0884H209.692V91.7226H211.058ZM209.692 91.7226V93.0884H208.326V91.7226H209.692ZM209.692 90.3567V91.7226H208.326V90.3567H209.692ZM209.692 93.0884V94.4543H208.326V93.0884H209.692ZM209.692 94.4543V95.8201H208.326V94.4543H209.692ZM209.692 95.8201V97.186H208.326V95.8201H209.692ZM209.692 97.186V98.5519H208.326V97.186H209.692ZM209.692 98.5519V99.9177H208.326V98.5519H209.692ZM206.961 99.9177V101.284H205.595V99.9177H206.961ZM206.961 98.5519V99.9177H205.595V98.5519H206.961ZM206.961 97.186V98.5519H205.595V97.186H206.961ZM206.961 95.8201V97.186H205.595V95.8201H206.961ZM206.961 94.4543V95.8201H205.595V94.4543H206.961ZM206.961 93.0884V94.4543H205.595V93.0884H206.961ZM206.961 91.7226V93.0884H205.595V91.7226H206.961ZM205.595 80.7958V82.1616H204.229V80.7958H205.595ZM209.692 80.7958V82.1616H208.326V80.7958H209.692ZM209.692 82.1616V83.5275H208.326V82.1616H209.692ZM209.692 83.5275V84.8933H208.326V83.5275H209.692ZM209.692 84.8933V86.2592H208.326V84.8933H209.692ZM209.692 86.2592V87.625H208.326V86.2592H209.692ZM211.058 87.625V88.9909H209.692V87.625H211.058ZM211.058 88.9909V90.3567H209.692V88.9909H211.058ZM211.058 90.3567V91.7226H209.692V90.3567H211.058ZM211.058 86.2592V87.625H209.692V86.2592H211.058ZM211.058 84.8933V86.2592H209.692V84.8933H211.058ZM211.058 83.5275V84.8933H209.692V83.5275H211.058ZM211.058 82.1616V83.5275H209.692V82.1616H211.058ZM211.058 80.7958V82.1616H209.692V80.7958H211.058ZM206.961 80.7958V82.1616H205.595V80.7958H206.961ZM208.326 80.7958V82.1616H206.961V80.7958H208.326ZM208.326 82.1616V83.5275H206.961V82.1616H208.326ZM208.326 83.5275V84.8933H206.961V83.5275H208.326ZM208.326 84.8933V86.2592H206.961V84.8933H208.326ZM208.326 86.2592V87.625H206.961V86.2592H208.326ZM208.326 87.625V88.9909H206.961V87.625H208.326ZM208.326 88.9909V90.3567H206.961V88.9909H208.326ZM208.326 90.3567V91.7226H206.961V90.3567H208.326ZM209.692 88.9909V90.3567H208.326V88.9909H209.692ZM209.692 87.625V88.9909H208.326V87.625H209.692ZM196.034 101.284V102.649H194.668V101.284H196.034ZM197.4 101.284V102.649H196.034V101.284H197.4ZM198.765 101.284V102.649H197.4V101.284H198.765ZM200.131 101.284V102.649H198.765V101.284H200.131ZM202.863 101.284V102.649H201.497V101.284H202.863ZM204.229 101.284V102.649H202.863V101.284H204.229ZM204.229 99.9177V101.284H202.863V99.9177H204.229ZM202.863 99.9177V101.284H201.497V99.9177H202.863ZM200.131 99.9177V101.284H198.765V99.9177H200.131ZM198.765 99.9177V101.284H197.4V99.9177H198.765ZM197.4 99.9177V101.284H196.034V99.9177H197.4ZM196.034 99.9177V101.284H194.668V99.9177H196.034ZM196.034 98.5519V99.9177H194.668V98.5519H196.034ZM197.4 98.5519V99.9177H196.034V98.5519H197.4ZM198.765 98.5519V99.9177H197.4V98.5519H198.765ZM200.131 98.5519V99.9177H198.765V98.5519H200.131ZM202.863 98.5519V99.9177H201.497V98.5519H202.863ZM204.229 98.5519V99.9177H202.863V98.5519H204.229ZM204.229 97.186V98.5519H202.863V97.186H204.229ZM202.863 97.186V98.5519H201.497V97.186H202.863ZM200.131 97.186V98.5519H198.765V97.186H200.131ZM198.765 97.186V98.5519H197.4V97.186H198.765ZM197.4 97.186V98.5519H196.034V97.186H197.4ZM196.034 97.186V98.5519H194.668V97.186H196.034ZM196.034 95.8201V97.186H194.668V95.8201H196.034ZM204.229 95.8201V97.186H202.863V95.8201H204.229ZM209.692 75.3323V73.9665H211.058V75.3323H209.692ZM209.692 76.6982V75.3323H211.058V76.6982H209.692ZM209.692 78.064V76.6982H211.058V78.064H209.692ZM206.961 78.064V76.6982H208.326V78.064H206.961ZM206.961 76.6982V75.3323H208.326V76.6982H206.961ZM206.961 75.3323V73.9665H208.326V75.3323H206.961ZM206.961 73.9665V72.6006H208.326V73.9665H206.961ZM206.961 72.6006V71.2348H208.326V72.6006H206.961ZM206.961 71.2348V69.8689H208.326V71.2348H206.961ZM204.229 69.8689V68.5031H205.595V69.8689H204.229ZM204.229 71.2348V69.8689H205.595V71.2348H204.229ZM204.229 72.6006V71.2348H205.595V72.6006H204.229ZM204.229 73.9665V72.6006H205.595V73.9665H204.229ZM204.229 75.3323V73.9665H205.595V75.3323H204.229ZM204.229 76.6982V75.3323H205.595V76.6982H204.229ZM204.229 78.064V76.6982H205.595V78.064H204.229ZM205.595 78.064V76.6982H206.961V78.064H205.595ZM205.595 76.6982V75.3323H206.961V76.6982H205.595ZM205.595 75.3323V73.9665H206.961V75.3323H205.595ZM205.595 73.9665V72.6006H206.961V73.9665H205.595ZM205.595 72.6006V71.2348H206.961V72.6006H205.595ZM205.595 71.2348V69.8689H206.961V71.2348H205.595ZM208.326 72.6006V71.2348H209.692V72.6006H208.326ZM208.326 73.9665V72.6006H209.692V73.9665H208.326ZM208.326 75.3323V73.9665H209.692V75.3323H208.326ZM208.326 76.6982V75.3323H209.692V76.6982H208.326ZM208.326 78.064V76.6982H209.692V78.064H208.326ZM193.302 69.8689V68.5031H194.668V69.8689H193.302ZM193.302 71.2348V69.8689H194.668V71.2348H193.302ZM193.302 72.6006V71.2348H194.668V72.6006H193.302ZM193.302 73.9665V72.6006H194.668V73.9665H193.302ZM193.302 75.3323V73.9665H194.668V75.3323H193.302ZM193.302 76.6982V75.3323H194.668V76.6982H193.302ZM193.302 78.064V76.6982H194.668V78.064H193.302ZM190.57 78.064V76.6982H191.936V78.064H190.57ZM190.57 76.6982V75.3323H191.936V76.6982H190.57ZM190.57 75.3323V73.9665H191.936V75.3323H190.57ZM190.57 73.9665V72.6006H191.936V73.9665H190.57ZM190.57 72.6006V71.2348H191.936V72.6006H190.57ZM190.57 71.2348V69.8689H191.936V71.2348H190.57ZM187.839 75.3323V73.9665H189.204V75.3323H187.839ZM187.839 76.6982V75.3323H189.204V76.6982H187.839ZM187.839 78.064V76.6982H189.204V78.064H187.839ZM189.204 78.064V76.6982H190.57V78.064H189.204ZM189.204 76.6982V75.3323H190.57V76.6982H189.204ZM189.204 75.3323V73.9665H190.57V75.3323H189.204ZM189.204 73.9665V72.6006H190.57V73.9665H189.204ZM189.204 72.6006V71.2348H190.57V72.6006H189.204ZM191.936 71.2348V69.8689H193.302V71.2348H191.936ZM191.936 72.6006V71.2348H193.302V72.6006H191.936ZM191.936 73.9665V72.6006H193.302V73.9665H191.936ZM191.936 75.3323V73.9665H193.302V75.3323H191.936ZM191.936 76.6982V75.3323H193.302V76.6982H191.936ZM191.936 78.064V76.6982H193.302V78.064H191.936ZM202.863 69.8689V68.5031H204.229V69.8689H202.863ZM201.497 69.8689V68.5031H202.863V69.8689H201.497ZM198.765 69.8689V68.5031H200.131V69.8689H198.765ZM197.4 69.8689V68.5031H198.765V69.8689H197.4ZM196.034 69.8689V68.5031H197.4V69.8689H196.034ZM194.668 69.8689V68.5031H196.034V69.8689H194.668ZM194.668 71.2348V69.8689H196.034V71.2348H194.668ZM196.034 71.2348V69.8689H197.4V71.2348H196.034ZM197.4 71.2348V69.8689H198.765V71.2348H197.4ZM198.765 71.2348V69.8689H200.131V71.2348H198.765ZM201.497 71.2348V69.8689H202.863V71.2348H201.497ZM202.863 71.2348V69.8689H204.229V71.2348H202.863ZM202.863 72.6006V71.2348H204.229V72.6006H202.863ZM201.497 72.6006V71.2348H202.863V72.6006H201.497ZM198.765 72.6006V71.2348H200.131V72.6006H198.765ZM197.4 72.6006V71.2348H198.765V72.6006H197.4ZM196.034 72.6006V71.2348H197.4V72.6006H196.034ZM194.668 72.6006V71.2348H196.034V72.6006H194.668ZM194.668 73.9665V72.6006H196.034V73.9665H194.668ZM196.034 73.9665V72.6006H197.4V73.9665H196.034ZM197.4 73.9665V72.6006H198.765V73.9665H197.4ZM198.765 73.9665V72.6006H200.131V73.9665H198.765ZM201.497 73.9665V72.6006H202.863V73.9665H201.497ZM202.863 73.9665V72.6006H204.229V73.9665H202.863ZM202.863 75.3323V73.9665H204.229V75.3323H202.863ZM194.668 75.3323V73.9665H196.034V75.3323H194.668ZM189.204 79.4299V80.7958H187.839V79.4299H189.204ZM190.57 79.4299V80.7958H189.204V79.4299H190.57ZM189.204 78.064V79.4299H187.839V78.064H189.204ZM193.302 78.064V79.4299H191.936V78.064H193.302ZM193.302 79.4299V80.7958H191.936V79.4299H193.302ZM194.668 79.4299V80.7958H193.302V79.4299H194.668ZM194.668 78.064V79.4299H193.302V78.064H194.668ZM190.57 78.064V79.4299H189.204V78.064H190.57ZM191.936 78.064V79.4299H190.57V78.064H191.936ZM191.936 79.4299V80.7958H190.57V79.4299H191.936ZM205.595 79.4299V80.7958H204.229V79.4299H205.595ZM206.961 79.4299V80.7958H205.595V79.4299H206.961ZM205.595 78.064V79.4299H204.229V78.064H205.595ZM209.692 78.064V79.4299H208.326V78.064H209.692ZM209.692 79.4299V80.7958H208.326V79.4299H209.692ZM211.058 79.4299V80.7958H209.692V79.4299H211.058ZM211.058 78.064V79.4299H209.692V78.064H211.058ZM206.961 78.064V79.4299H205.595V78.064H206.961ZM208.326 78.064V79.4299H206.961V78.064H208.326ZM208.326 79.4299V80.7958H206.961V79.4299H208.326ZM197.4 95.8201V97.186H196.034V95.8201H197.4ZM198.765 95.8201V97.186H197.4V95.8201H198.765ZM200.131 95.8201V97.186H198.765V95.8201H200.131ZM202.863 95.8201V97.186H201.497V95.8201H202.863ZM204.229 94.4543V95.8201H202.863V94.4543H204.229ZM196.034 94.4543V95.8201H194.668V94.4543H196.034ZM197.4 73.9665V75.3323H196.034V73.9665H197.4ZM198.765 73.9665V75.3323H197.4V73.9665H198.765ZM200.131 73.9665V75.3323H198.765V73.9665H200.131ZM202.863 73.9665V75.3323H201.497V73.9665H202.863ZM204.229 75.3323V76.6982H202.863V75.3323H204.229ZM196.034 75.3323V76.6982H194.668V75.3323H196.034ZM201.497 68.5031V69.8689H200.131V68.5031H201.497ZM201.497 69.8689V71.2348H200.131V69.8689H201.497ZM201.497 71.2348V72.6006H200.131V71.2348H201.497ZM201.497 72.6006V73.9665H200.131V72.6006H201.497ZM201.497 73.9665V75.3323H200.131V73.9665H201.497ZM201.497 95.8201V97.186H200.131V95.8201H201.497ZM201.497 97.186V98.5519H200.131V97.186H201.497ZM201.497 98.5519V99.9177H200.131V98.5519H201.497ZM201.497 99.9177V101.284H200.131V99.9177H201.497ZM201.497 101.284V102.649H200.131V101.284H201.497ZM217.861 101.284V102.649H216.495V101.284H217.861ZM217.861 99.9177V101.284H216.495V99.9177H217.861ZM217.861 98.5519V99.9177H216.495V98.5519H217.861ZM217.861 97.186V98.5519H216.495V97.186H217.861ZM217.861 95.8201V97.186H216.495V95.8201H217.861ZM217.861 94.4543V95.8201H216.495V94.4543H217.861ZM217.861 93.0884V94.4543H216.495V93.0884H217.861ZM217.861 91.7226V93.0884H216.495V91.7226H217.861ZM217.861 90.3567V91.7226H216.495V90.3567H217.861ZM217.861 88.9909V90.3567H216.495V88.9909H217.861ZM217.861 87.625V88.9909H216.495V87.625H217.861ZM217.861 86.2592V87.625H216.495V86.2592H217.861ZM217.861 84.8933V86.2592H216.495V84.8933H217.861ZM217.861 83.5275V84.8933H216.495V83.5275H217.861ZM217.861 82.1616V83.5275H216.495V82.1616H217.861ZM219.227 82.1616V83.5275H217.861V82.1616H219.227ZM219.227 83.5275V84.8933H217.861V83.5275H219.227ZM219.227 84.8933V86.2592H217.861V84.8933H219.227ZM219.227 86.2592V87.625H217.861V86.2592H219.227ZM219.227 87.625V88.9909H217.861V87.625H219.227ZM219.227 88.9909V90.3567H217.861V88.9909H219.227ZM219.227 90.3567V91.7226H217.861V90.3567H219.227ZM220.592 91.7226V93.0884H219.227V91.7226H220.592ZM220.592 93.0884V94.4543H219.227V93.0884H220.592ZM220.592 94.4543V95.8201H219.227V94.4543H220.592ZM220.592 95.8201V97.186H219.227V95.8201H220.592ZM220.592 97.186V98.5519H219.227V97.186H220.592ZM220.592 98.5519V99.9177H219.227V98.5519H220.592ZM220.592 99.9177V101.284H219.227V99.9177H220.592ZM220.592 101.284V102.649H219.227V101.284H220.592ZM221.958 101.284V102.649H220.592V101.284H221.958ZM223.324 101.284V102.649H221.958V101.284H223.324ZM223.324 95.8201V97.186H221.958V95.8201H223.324ZM223.324 94.4543V95.8201H221.958V94.4543H223.324ZM223.324 93.0884V94.4543H221.958V93.0884H223.324ZM223.324 91.7226V93.0884H221.958V91.7226H223.324ZM221.958 91.7226V93.0884H220.592V91.7226H221.958ZM221.958 90.3567V91.7226H220.592V90.3567H221.958ZM221.958 93.0884V94.4543H220.592V93.0884H221.958ZM221.958 94.4543V95.8201H220.592V94.4543H221.958ZM221.958 95.8201V97.186H220.592V95.8201H221.958ZM221.958 97.186V98.5519H220.592V97.186H221.958ZM221.958 98.5519V99.9177H220.592V98.5519H221.958ZM221.958 99.9177V101.284H220.592V99.9177H221.958ZM219.227 101.284V102.649H217.861V101.284H219.227ZM219.227 99.9177V101.284H217.861V99.9177H219.227ZM219.227 98.5519V99.9177H217.861V98.5519H219.227ZM219.227 97.186V98.5519H217.861V97.186H219.227ZM219.227 95.8201V97.186H217.861V95.8201H219.227ZM219.227 94.4543V95.8201H217.861V94.4543H219.227ZM219.227 93.0884V94.4543H217.861V93.0884H219.227ZM219.227 91.7226V93.0884H217.861V91.7226H219.227ZM217.861 68.5031V69.8689H216.495V68.5031H217.861ZM217.861 69.8689V71.2348H216.495V69.8689H217.861ZM217.861 71.2348V72.6006H216.495V71.2348H217.861ZM217.861 72.6006V73.9665H216.495V72.6006H217.861ZM217.861 73.9665V75.3323H216.495V73.9665H217.861ZM217.861 75.3323V76.6982H216.495V75.3323H217.861ZM217.861 76.6982V78.064H216.495V76.6982H217.861ZM217.861 78.064V79.4299H216.495V78.064H217.861ZM217.861 79.4299V80.7958H216.495V79.4299H217.861ZM217.861 80.7958V82.1616H216.495V80.7958H217.861ZM221.958 68.5031V69.8689H220.592V68.5031H221.958ZM221.958 69.8689V71.2348H220.592V69.8689H221.958ZM221.958 71.2348V72.6006H220.592V71.2348H221.958ZM221.958 72.6006V73.9665H220.592V72.6006H221.958ZM221.958 73.9665V75.3323H220.592V73.9665H221.958ZM221.958 75.3323V76.6982H220.592V75.3323H221.958ZM221.958 78.064V79.4299H220.592V78.064H221.958ZM221.958 79.4299V80.7958H220.592V79.4299H221.958ZM221.958 80.7958V82.1616H220.592V80.7958H221.958ZM221.958 82.1616V83.5275H220.592V82.1616H221.958ZM221.958 83.5275V84.8933H220.592V83.5275H221.958ZM221.958 84.8933V86.2592H220.592V84.8933H221.958ZM221.958 86.2592V87.625H220.592V86.2592H221.958ZM223.324 87.625V88.9909H221.958V87.625H223.324ZM223.324 88.9909V90.3567H221.958V88.9909H223.324ZM223.324 90.3567V91.7226H221.958V90.3567H223.324ZM223.324 86.2592V87.625H221.958V86.2592H223.324ZM223.324 84.8933V86.2592H221.958V84.8933H223.324ZM223.324 83.5275V84.8933H221.958V83.5275H223.324ZM223.324 82.1616V83.5275H221.958V82.1616H223.324ZM223.324 80.7958V82.1616H221.958V80.7958H223.324ZM223.324 79.4299V80.7958H221.958V79.4299H223.324ZM223.324 78.064V79.4299H221.958V78.064H223.324ZM223.324 76.6982V78.064H221.958V76.6982H223.324ZM223.324 75.3323V76.6982H221.958V75.3323H223.324ZM223.324 73.9665V75.3323H221.958V73.9665H223.324ZM221.958 76.6982V78.064H220.592V76.6982H221.958ZM223.324 72.6006V73.9665H221.958V72.6006H223.324ZM223.324 71.2348V72.6006H221.958V71.2348H223.324ZM223.324 69.8689V71.2348H221.958V69.8689H223.324ZM223.324 68.5031V69.8689H221.958V68.5031H223.324ZM220.592 68.5031V69.8689H219.227V68.5031H220.592ZM219.227 68.5031V69.8689H217.861V68.5031H219.227ZM219.227 69.8689V71.2348H217.861V69.8689H219.227ZM220.592 69.8689V71.2348H219.227V69.8689H220.592ZM220.592 71.2348V72.6006H219.227V71.2348H220.592ZM220.592 72.6006V73.9665H219.227V72.6006H220.592ZM220.592 73.9665V75.3323H219.227V73.9665H220.592ZM220.592 75.3323V76.6982H219.227V75.3323H220.592ZM220.592 76.6982V78.064H219.227V76.6982H220.592ZM220.592 78.064V79.4299H219.227V78.064H220.592ZM219.227 79.4299V80.7958H217.861V79.4299H219.227ZM219.227 80.7958V82.1616H217.861V80.7958H219.227ZM219.227 78.064V79.4299H217.861V78.064H219.227ZM219.227 76.6982V78.064H217.861V76.6982H219.227ZM219.227 75.3323V76.6982H217.861V75.3323H219.227ZM219.227 73.9665V75.3323H217.861V73.9665H219.227ZM219.227 72.6006V73.9665H217.861V72.6006H219.227ZM219.227 71.2348V72.6006H217.861V71.2348H219.227ZM220.592 79.4299V80.7958H219.227V79.4299H220.592ZM220.592 80.7958V82.1616H219.227V80.7958H220.592ZM220.592 82.1616V83.5275H219.227V82.1616H220.592ZM220.592 83.5275V84.8933H219.227V83.5275H220.592ZM220.592 84.8933V86.2592H219.227V84.8933H220.592ZM220.592 86.2592V87.625H219.227V86.2592H220.592ZM220.592 87.625V88.9909H219.227V87.625H220.592ZM220.592 88.9909V90.3567H219.227V88.9909H220.592ZM220.592 90.3567V91.7226H219.227V90.3567H220.592ZM221.958 88.9909V90.3567H220.592V88.9909H221.958ZM221.958 87.625V88.9909H220.592V87.625H221.958ZM224.69 87.625V88.9909H223.324V87.625H224.69ZM226.056 87.625V88.9909H224.69V87.625H226.056ZM226.056 88.9909V90.3567H224.69V88.9909H226.056ZM224.69 88.9909V90.3567H223.324V88.9909H224.69ZM224.69 84.8933V86.2592H223.324V84.8933H224.69ZM226.056 84.8933V86.2592H224.69V84.8933H226.056ZM224.69 90.3567V91.7226H223.324V90.3567H224.69ZM226.056 90.3567V91.7226H224.69V90.3567H226.056ZM226.056 86.2592V87.625H224.69V86.2592H226.056ZM224.69 86.2592V87.625H223.324V86.2592H224.69ZM224.69 68.5031V69.8689H223.324V68.5031H224.69ZM226.056 68.5031V69.8689H224.69V68.5031H226.056ZM226.056 69.8689V71.2348H224.69V69.8689H226.056ZM224.69 69.8689V71.2348H223.324V69.8689H224.69ZM224.69 71.2348V72.6006H223.324V71.2348H224.69ZM226.056 71.2348V72.6006H224.69V71.2348H226.056ZM226.056 72.6006V73.9665H224.69V72.6006H226.056ZM224.69 72.6006V73.9665H223.324V72.6006H224.69ZM224.69 73.9665V75.3323H223.324V73.9665H224.69ZM226.056 73.9665V75.3323H224.69V73.9665H226.056ZM227.422 84.8933V86.2592H226.056V84.8933H227.422ZM228.788 84.8933V86.2592H227.422V84.8933H228.788ZM230.153 84.8933V86.2592H228.788V84.8933H230.153ZM231.519 83.5275V84.8933H230.153V83.5275H231.519ZM232.885 82.1616V83.5275H231.519V82.1616H232.885ZM232.885 80.7958V82.1616H231.519V80.7958H232.885ZM232.885 76.6982V78.064H231.519V76.6982H232.885ZM231.519 75.3323V76.6982H230.153V75.3323H231.519ZM230.153 73.9665V75.3323H228.788V73.9665H230.153ZM228.788 73.9665V75.3323H227.422V73.9665H228.788ZM227.422 73.9665V75.3323H226.056V73.9665H227.422ZM227.422 68.5031V69.8689H226.056V68.5031H227.422ZM228.788 68.5031V69.8689H227.422V68.5031H228.788ZM230.153 68.5031V69.8689H228.788V68.5031H230.153ZM231.519 68.5031V69.8689H230.153V68.5031H231.519ZM231.519 69.8689V71.2348H230.153V69.8689H231.519ZM231.519 71.2348V72.6006H230.153V71.2348H231.519ZM231.519 72.6006V73.9665H230.153V72.6006H231.519ZM230.153 72.6006V73.9665H228.788V72.6006H230.153ZM230.153 71.2348V72.6006H228.788V71.2348H230.153ZM228.788 71.2348V72.6006H227.422V71.2348H228.788ZM227.422 71.2348V72.6006H226.056V71.2348H227.422ZM227.422 69.8689V71.2348H226.056V69.8689H227.422ZM228.788 69.8689V71.2348H227.422V69.8689H228.788ZM230.153 69.8689V71.2348H228.788V69.8689H230.153ZM227.422 72.6006V73.9665H226.056V72.6006H227.422ZM228.788 72.6006V73.9665H227.422V72.6006H228.788ZM231.519 73.9665V75.3323H230.153V73.9665H231.519ZM232.885 75.3323V76.6982H231.519V75.3323H232.885ZM232.885 73.9665V75.3323H231.519V73.9665H232.885ZM232.885 72.6006V73.9665H231.519V72.6006H232.885ZM232.885 71.2348V72.6006H231.519V71.2348H232.885ZM232.885 69.8689V71.2348H231.519V69.8689H232.885ZM232.885 68.5031V69.8689H231.519V68.5031H232.885ZM232.885 83.5275V84.8933H231.519V83.5275H232.885ZM232.885 84.8933V86.2592H231.519V84.8933H232.885ZM232.885 86.2592V87.625H231.519V86.2592H232.885ZM232.885 87.625V88.9909H231.519V87.625H232.885ZM231.519 87.625V88.9909H230.153V87.625H231.519ZM230.153 87.625V88.9909H228.788V87.625H230.153ZM228.788 87.625V88.9909H227.422V87.625H228.788ZM227.422 87.625V88.9909H226.056V87.625H227.422ZM227.422 86.2592V87.625H226.056V86.2592H227.422ZM228.788 86.2592V87.625H227.422V86.2592H228.788ZM230.153 86.2592V87.625H228.788V86.2592H230.153ZM231.519 86.2592V87.625H230.153V86.2592H231.519ZM231.519 84.8933V86.2592H230.153V84.8933H231.519ZM227.422 88.9909V90.3567H226.056V88.9909H227.422ZM228.788 88.9909V90.3567H227.422V88.9909H228.788ZM230.153 88.9909V90.3567H228.788V88.9909H230.153ZM231.519 88.9909V90.3567H230.153V88.9909H231.519ZM232.885 88.9909V90.3567H231.519V88.9909H232.885ZM232.885 90.3567V91.7226H231.519V90.3567H232.885ZM231.519 90.3567V91.7226H230.153V90.3567H231.519ZM230.153 90.3567V91.7226H228.788V90.3567H230.153ZM228.788 90.3567V91.7226H227.422V90.3567H228.788ZM227.422 90.3567V91.7226H226.056V90.3567H227.422ZM234.251 69.8689V71.2348H232.885V69.8689H234.251ZM235.617 69.8689V71.2348H234.251V69.8689H235.617ZM235.617 71.2348V72.6006H234.251V71.2348H235.617ZM236.983 71.2348V72.6006H235.617V71.2348H236.983ZM236.983 72.6006V73.9665H235.617V72.6006H236.983ZM236.983 73.9665V75.3323H235.617V73.9665H236.983ZM238.349 73.9665V75.3323H236.983V73.9665H238.349ZM238.349 75.3323V76.6982H236.983V75.3323H238.349ZM238.349 76.6982V78.064H236.983V76.6982H238.349ZM238.349 80.7958V82.1616H236.983V80.7958H238.349ZM238.349 82.1616V83.5275H236.983V82.1616H238.349ZM238.349 83.5275V84.8933H236.983V83.5275H238.349ZM238.349 84.8933V86.2592H236.983V84.8933H238.349ZM236.983 86.2592V87.625H235.617V86.2592H236.983ZM235.617 87.625V88.9909H234.251V87.625H235.617ZM234.251 88.9909V90.3567H232.885V88.9909H234.251ZM235.617 88.9909V90.3567H234.251V88.9909H235.617ZM234.251 90.3567V91.7226H232.885V90.3567H234.251ZM234.251 71.2348V72.6006H232.885V71.2348H234.251ZM234.251 72.6006V73.9665H232.885V72.6006H234.251ZM234.251 73.9665V75.3323H232.885V73.9665H234.251ZM234.251 75.3323V76.6982H232.885V75.3323H234.251ZM234.251 76.6982V78.064H232.885V76.6982H234.251ZM234.251 80.7958V82.1616H232.885V80.7958H234.251ZM234.251 82.1616V83.5275H232.885V82.1616H234.251ZM234.251 83.5275V84.8933H232.885V83.5275H234.251ZM234.251 84.8933V86.2592H232.885V84.8933H234.251ZM234.251 86.2592V87.625H232.885V86.2592H234.251ZM234.251 87.625V88.9909H232.885V87.625H234.251ZM235.617 86.2592V87.625H234.251V86.2592H235.617ZM235.617 84.8933V86.2592H234.251V84.8933H235.617ZM235.617 83.5275V84.8933H234.251V83.5275H235.617ZM235.617 82.1616V83.5275H234.251V82.1616H235.617ZM235.617 80.7958V82.1616H234.251V80.7958H235.617ZM235.617 76.6982V78.064H234.251V76.6982H235.617ZM235.617 75.3323V76.6982H234.251V75.3323H235.617ZM235.617 73.9665V75.3323H234.251V73.9665H235.617ZM235.617 72.6006V73.9665H234.251V72.6006H235.617ZM236.983 75.3323V76.6982H235.617V75.3323H236.983ZM236.983 76.6982V78.064H235.617V76.6982H236.983ZM236.983 80.7958V82.1616H235.617V80.7958H236.983ZM236.983 82.1616V83.5275H235.617V82.1616H236.983ZM236.983 83.5275V84.8933H235.617V83.5275H236.983ZM236.983 84.8933V86.2592H235.617V84.8933H236.983ZM223.324 98.5519V99.9177H221.958V98.5519H223.324ZM223.324 99.9177V101.284H221.958V99.9177H223.324ZM223.324 97.186V98.5519H221.958V97.186H223.324ZM232.885 78.064V79.4299H231.519V78.064H232.885ZM234.251 78.064V79.4299H232.885V78.064H234.251ZM235.617 78.064V79.4299H234.251V78.064H235.617ZM236.983 78.064V79.4299H235.617V78.064H236.983ZM238.349 78.064V79.4299H236.983V78.064H238.349ZM238.349 79.4299V80.7958H236.983V79.4299H238.349ZM236.983 79.4299V80.7958H235.617V79.4299H236.983ZM235.617 79.4299V80.7958H234.251V79.4299H235.617ZM234.251 79.4299V80.7958H232.885V79.4299H234.251ZM232.885 79.4299V80.7958H231.519V79.4299H232.885ZM236.983 88.9909V90.3567H235.617V88.9909H236.983ZM238.349 90.3567V91.7226H236.983V90.3567H238.349ZM238.349 91.7226V93.0884H236.983V91.7226H238.349ZM238.349 93.0884V94.4543H236.983V93.0884H238.349ZM238.349 94.4543V95.8201H236.983V94.4543H238.349ZM238.349 95.8201V97.186H236.983V95.8201H238.349ZM238.349 97.186V98.5519H236.983V97.186H238.349ZM238.349 101.284V102.649H236.983V101.284H238.349ZM238.349 99.9177V101.284H236.983V99.9177H238.349ZM238.349 98.5519V99.9177H236.983V98.5519H238.349ZM236.983 101.284V102.649H235.617V101.284H236.983ZM235.617 101.284V102.649H234.251V101.284H235.617ZM234.251 101.284V102.649H232.885V101.284H234.251ZM234.251 99.9177V101.284H232.885V99.9177H234.251ZM234.251 98.5519V99.9177H232.885V98.5519H234.251ZM234.251 97.186V98.5519H232.885V97.186H234.251ZM234.251 95.8201V97.186H232.885V95.8201H234.251ZM235.617 95.8201V97.186H234.251V95.8201H235.617ZM235.617 94.4543V95.8201H234.251V94.4543H235.617ZM236.983 94.4543V95.8201H235.617V94.4543H236.983ZM236.983 95.8201V97.186H235.617V95.8201H236.983ZM236.983 97.186V98.5519H235.617V97.186H236.983ZM236.983 98.5519V99.9177H235.617V98.5519H236.983ZM236.983 99.9177V101.284H235.617V99.9177H236.983ZM235.617 99.9177V101.284H234.251V99.9177H235.617ZM235.617 98.5519V99.9177H234.251V98.5519H235.617ZM235.617 97.186V98.5519H234.251V97.186H235.617ZM232.885 101.284V102.649H231.519V101.284H232.885ZM232.885 99.9177V101.284H231.519V99.9177H232.885ZM232.885 98.5519V99.9177H231.519V98.5519H232.885ZM232.885 97.186V98.5519H231.519V97.186H232.885ZM232.885 95.8201V97.186H231.519V95.8201H232.885ZM232.885 94.4543V95.8201H231.519V94.4543H232.885ZM232.885 93.0884V94.4543H231.519V93.0884H232.885ZM232.885 91.7226V93.0884H231.519V91.7226H232.885ZM234.251 91.7226V93.0884H232.885V91.7226H234.251ZM235.617 91.7226V93.0884H234.251V91.7226H235.617ZM236.983 91.7226V93.0884H235.617V91.7226H236.983ZM236.983 90.3567V91.7226H235.617V90.3567H236.983ZM235.617 90.3567V91.7226H234.251V90.3567H235.617ZM235.617 93.0884V94.4543H234.251V93.0884H235.617ZM234.251 93.0884V94.4543H232.885V93.0884H234.251ZM234.251 94.4543V95.8201H232.885V94.4543H234.251ZM236.983 93.0884V94.4543H235.617V93.0884H236.983ZM245.204 101.284V102.649H243.839V101.284H245.204ZM245.204 99.9177V101.284H243.839V99.9177H245.204ZM245.204 98.5519V99.9177H243.839V98.5519H245.204ZM245.204 97.186V98.5519H243.839V97.186H245.204ZM245.204 95.8201V97.186H243.839V95.8201H245.204ZM245.204 94.4543V95.8201H243.839V94.4543H245.204ZM245.204 93.0884V94.4543H243.839V93.0884H245.204ZM245.204 91.7226V93.0884H243.839V91.7226H245.204ZM245.204 90.3567V91.7226H243.839V90.3567H245.204ZM245.204 88.9909V90.3567H243.839V88.9909H245.204ZM245.204 87.625V88.9909H243.839V87.625H245.204ZM245.204 86.2592V87.625H243.839V86.2592H245.204ZM245.204 84.8933V86.2592H243.839V84.8933H245.204ZM245.204 83.5275V84.8933H243.839V83.5275H245.204ZM245.204 82.1616V83.5275H243.839V82.1616H245.204ZM246.57 82.1616V83.5275H245.204V82.1616H246.57ZM246.57 83.5275V84.8933H245.204V83.5275H246.57ZM246.57 84.8933V86.2592H245.204V84.8933H246.57ZM246.57 86.2592V87.625H245.204V86.2592H246.57ZM246.57 87.625V88.9909H245.204V87.625H246.57ZM246.57 88.9909V90.3567H245.204V88.9909H246.57ZM246.57 90.3567V91.7226H245.204V90.3567H246.57ZM247.936 91.7226V93.0884H246.57V91.7226H247.936ZM247.936 93.0884V94.4543H246.57V93.0884H247.936ZM247.936 94.4543V95.8201H246.57V94.4543H247.936ZM247.936 95.8201V97.186H246.57V95.8201H247.936ZM247.936 97.186V98.5519H246.57V97.186H247.936ZM247.936 98.5519V99.9177H246.57V98.5519H247.936ZM247.936 99.9177V101.284H246.57V99.9177H247.936ZM247.936 101.284V102.649H246.57V101.284H247.936ZM249.302 101.284V102.649H247.936V101.284H249.302ZM250.668 101.284V102.649H249.302V101.284H250.668ZM250.668 99.9177V101.284H249.302V99.9177H250.668ZM250.668 98.5519V99.9177H249.302V98.5519H250.668ZM250.668 97.186V98.5519H249.302V97.186H250.668ZM250.668 95.8201V97.186H249.302V95.8201H250.668ZM250.668 94.4543V95.8201H249.302V94.4543H250.668ZM250.668 93.0884V94.4543H249.302V93.0884H250.668ZM250.668 91.7226V93.0884H249.302V91.7226H250.668ZM249.302 91.7226V93.0884H247.936V91.7226H249.302ZM249.302 90.3567V91.7226H247.936V90.3567H249.302ZM249.302 93.0884V94.4543H247.936V93.0884H249.302ZM249.302 94.4543V95.8201H247.936V94.4543H249.302ZM249.302 95.8201V97.186H247.936V95.8201H249.302ZM249.302 97.186V98.5519H247.936V97.186H249.302ZM249.302 98.5519V99.9177H247.936V98.5519H249.302ZM249.302 99.9177V101.284H247.936V99.9177H249.302ZM246.57 101.284V102.649H245.204V101.284H246.57ZM246.57 99.9177V101.284H245.204V99.9177H246.57ZM246.57 98.5519V99.9177H245.204V98.5519H246.57ZM246.57 97.186V98.5519H245.204V97.186H246.57ZM246.57 95.8201V97.186H245.204V95.8201H246.57ZM246.57 94.4543V95.8201H245.204V94.4543H246.57ZM246.57 93.0884V94.4543H245.204V93.0884H246.57ZM246.57 91.7226V93.0884H245.204V91.7226H246.57ZM245.204 68.5031V69.8689H243.839V68.5031H245.204ZM245.204 69.8689V71.2348H243.839V69.8689H245.204ZM245.204 71.2348V72.6006H243.839V71.2348H245.204ZM245.204 72.6006V73.9665H243.839V72.6006H245.204ZM245.204 73.9665V75.3323H243.839V73.9665H245.204ZM245.204 75.3323V76.6982H243.839V75.3323H245.204ZM245.204 76.6982V78.064H243.839V76.6982H245.204ZM245.204 78.064V79.4299H243.839V78.064H245.204ZM245.204 79.4299V80.7958H243.839V79.4299H245.204ZM245.204 80.7958V82.1616H243.839V80.7958H245.204ZM249.302 68.5031V69.8689H247.936V68.5031H249.302ZM249.302 69.8689V71.2348H247.936V69.8689H249.302ZM249.302 71.2348V72.6006H247.936V71.2348H249.302ZM249.302 72.6006V73.9665H247.936V72.6006H249.302ZM249.302 73.9665V75.3323H247.936V73.9665H249.302ZM249.302 75.3323V76.6982H247.936V75.3323H249.302ZM249.302 78.064V79.4299H247.936V78.064H249.302ZM249.302 79.4299V80.7958H247.936V79.4299H249.302ZM249.302 80.7958V82.1616H247.936V80.7958H249.302ZM249.302 82.1616V83.5275H247.936V82.1616H249.302ZM249.302 83.5275V84.8933H247.936V83.5275H249.302ZM249.302 84.8933V86.2592H247.936V84.8933H249.302ZM249.302 86.2592V87.625H247.936V86.2592H249.302ZM250.668 87.625V88.9909H249.302V87.625H250.668ZM250.668 88.9909V90.3567H249.302V88.9909H250.668ZM250.668 90.3567V91.7226H249.302V90.3567H250.668ZM250.668 86.2592V87.625H249.302V86.2592H250.668ZM250.668 84.8933V86.2592H249.302V84.8933H250.668ZM250.668 83.5275V84.8933H249.302V83.5275H250.668ZM250.668 82.1616V83.5275H249.302V82.1616H250.668ZM250.668 80.7958V82.1616H249.302V80.7958H250.668ZM250.668 79.4299V80.7958H249.302V79.4299H250.668ZM250.668 78.064V79.4299H249.302V78.064H250.668ZM250.668 76.6982V78.064H249.302V76.6982H250.668ZM250.668 75.3323V76.6982H249.302V75.3323H250.668ZM250.668 73.9665V75.3323H249.302V73.9665H250.668ZM249.302 76.6982V78.064H247.936V76.6982H249.302ZM250.668 72.6006V73.9665H249.302V72.6006H250.668ZM250.668 71.2348V72.6006H249.302V71.2348H250.668ZM250.668 69.8689V71.2348H249.302V69.8689H250.668ZM250.668 68.5031V69.8689H249.302V68.5031H250.668ZM247.936 68.5031V69.8689H246.57V68.5031H247.936ZM246.57 68.5031V69.8689H245.204V68.5031H246.57ZM246.57 69.8689V71.2348H245.204V69.8689H246.57ZM247.936 69.8689V71.2348H246.57V69.8689H247.936ZM247.936 71.2348V72.6006H246.57V71.2348H247.936ZM247.936 72.6006V73.9665H246.57V72.6006H247.936ZM247.936 73.9665V75.3323H246.57V73.9665H247.936ZM247.936 75.3323V76.6982H246.57V75.3323H247.936ZM247.936 76.6982V78.064H246.57V76.6982H247.936ZM247.936 78.064V79.4299H246.57V78.064H247.936ZM246.57 79.4299V80.7958H245.204V79.4299H246.57ZM246.57 80.7958V82.1616H245.204V80.7958H246.57ZM246.57 78.064V79.4299H245.204V78.064H246.57ZM246.57 76.6982V78.064H245.204V76.6982H246.57ZM246.57 75.3323V76.6982H245.204V75.3323H246.57ZM246.57 73.9665V75.3323H245.204V73.9665H246.57ZM246.57 72.6006V73.9665H245.204V72.6006H246.57ZM246.57 71.2348V72.6006H245.204V71.2348H246.57ZM247.936 79.4299V80.7958H246.57V79.4299H247.936ZM247.936 80.7958V82.1616H246.57V80.7958H247.936ZM247.936 82.1616V83.5275H246.57V82.1616H247.936ZM247.936 83.5275V84.8933H246.57V83.5275H247.936ZM247.936 84.8933V86.2592H246.57V84.8933H247.936ZM247.936 86.2592V87.625H246.57V86.2592H247.936ZM247.936 87.625V88.9909H246.57V87.625H247.936ZM247.936 88.9909V90.3567H246.57V88.9909H247.936ZM247.936 90.3567V91.7226H246.57V90.3567H247.936ZM249.302 88.9909V90.3567H247.936V88.9909H249.302ZM249.302 87.625V88.9909H247.936V87.625H249.302ZM252.034 84.8933V86.2592H250.668V84.8933H252.034ZM253.4 84.8933V86.2592H252.034V84.8933H253.4ZM253.4 86.2592V87.625H252.034V86.2592H253.4ZM252.034 86.2592V87.625H250.668V86.2592H252.034ZM252.034 82.1616V83.5275H250.668V82.1616H252.034ZM253.4 82.1616V83.5275H252.034V82.1616H253.4ZM252.034 87.625V88.9909H250.668V87.625H252.034ZM253.4 87.625V88.9909H252.034V87.625H253.4ZM253.4 83.5275V84.8933H252.034V83.5275H253.4ZM252.034 83.5275V84.8933H250.668V83.5275H252.034ZM252.034 68.5031V69.8689H250.668V68.5031H252.034ZM253.4 68.5031V69.8689H252.034V68.5031H253.4ZM253.4 69.8689V71.2348H252.034V69.8689H253.4ZM252.034 69.8689V71.2348H250.668V69.8689H252.034ZM252.034 71.2348V72.6006H250.668V71.2348H252.034ZM253.4 71.2348V72.6006H252.034V71.2348H253.4ZM253.4 72.6006V73.9665H252.034V72.6006H253.4ZM252.034 72.6006V73.9665H250.668V72.6006H252.034ZM252.034 73.9665V75.3323H250.668V73.9665H252.034ZM253.4 73.9665V75.3323H252.034V73.9665H253.4ZM252.034 101.284V102.649H250.668V101.284H252.034ZM253.4 101.284V102.649H252.034V101.284H253.4ZM253.4 99.9177V101.284H252.034V99.9177H253.4ZM253.4 98.5519V99.9177H252.034V98.5519H253.4ZM253.4 97.186V98.5519H252.034V97.186H253.4ZM253.4 95.8201V97.186H252.034V95.8201H253.4ZM252.034 95.8201V97.186H250.668V95.8201H252.034ZM252.034 97.186V98.5519H250.668V97.186H252.034ZM252.034 98.5519V99.9177H250.668V98.5519H252.034ZM252.034 99.9177V101.284H250.668V99.9177H252.034ZM254.765 82.1616V83.5275H253.4V82.1616H254.765ZM256.131 82.1616V83.5275H254.765V82.1616H256.131ZM257.497 82.1616V83.5275H256.131V82.1616H257.497ZM257.497 73.9665V75.3323H256.131V73.9665H257.497ZM256.131 73.9665V75.3323H254.765V73.9665H256.131ZM254.765 73.9665V75.3323H253.4V73.9665H254.765ZM254.765 68.5031V69.8689H253.4V68.5031H254.765ZM256.131 68.5031V69.8689H254.765V68.5031H256.131ZM257.497 68.5031V69.8689H256.131V68.5031H257.497ZM257.497 72.6006V73.9665H256.131V72.6006H257.497ZM257.497 71.2348V72.6006H256.131V71.2348H257.497ZM256.131 71.2348V72.6006H254.765V71.2348H256.131ZM254.765 71.2348V72.6006H253.4V71.2348H254.765ZM254.765 69.8689V71.2348H253.4V69.8689H254.765ZM256.131 69.8689V71.2348H254.765V69.8689H256.131ZM257.497 69.8689V71.2348H256.131V69.8689H257.497ZM254.765 72.6006V73.9665H253.4V72.6006H254.765ZM256.131 72.6006V73.9665H254.765V72.6006H256.131ZM257.497 84.8933V86.2592H256.131V84.8933H257.497ZM256.131 84.8933V86.2592H254.765V84.8933H256.131ZM254.765 84.8933V86.2592H253.4V84.8933H254.765ZM254.765 83.5275V84.8933H253.4V83.5275H254.765ZM256.131 83.5275V84.8933H254.765V83.5275H256.131ZM257.497 83.5275V84.8933H256.131V83.5275H257.497ZM254.765 86.2592V87.625H253.4V86.2592H254.765ZM256.131 86.2592V87.625H254.765V86.2592H256.131ZM257.497 86.2592V87.625H256.131V86.2592H257.497ZM257.497 87.625V88.9909H256.131V87.625H257.497ZM256.131 87.625V88.9909H254.765V87.625H256.131ZM254.765 87.625V88.9909H253.4V87.625H254.765ZM254.765 95.8201V97.186H253.4V95.8201H254.765ZM256.131 95.8201V97.186H254.765V95.8201H256.131ZM257.497 95.8201V97.186H256.131V95.8201H257.497ZM257.497 99.9177V101.284H256.131V99.9177H257.497ZM256.131 101.284V102.649H254.765V101.284H256.131ZM254.765 101.284V102.649H253.4V101.284H254.765ZM257.497 101.284V102.649H256.131V101.284H257.497ZM256.131 99.9177V101.284H254.765V99.9177H256.131ZM254.765 99.9177V101.284H253.4V99.9177H254.765ZM254.765 98.5519V99.9177H253.4V98.5519H254.765ZM256.131 98.5519V99.9177H254.765V98.5519H256.131ZM257.497 98.5519V99.9177H256.131V98.5519H257.497ZM257.497 97.186V98.5519H256.131V97.186H257.497ZM256.131 97.186V98.5519H254.765V97.186H256.131ZM254.765 97.186V98.5519H253.4V97.186H254.765ZM265.692 73.9665V75.3323H264.326V73.9665H265.692ZM265.692 95.8201V97.186H264.326V95.8201H265.692ZM258.863 68.5031V69.8689H257.497V68.5031H258.863ZM260.229 68.5031V69.8689H258.863V68.5031H260.229ZM261.595 68.5031V69.8689H260.229V68.5031H261.595ZM262.961 68.5031V69.8689H261.595V68.5031H262.961ZM264.326 68.5031V69.8689H262.961V68.5031H264.326ZM264.326 69.8689V71.2348H262.961V69.8689H264.326ZM265.692 69.8689V71.2348H264.326V69.8689H265.692ZM265.692 71.2348V72.6006H264.326V71.2348H265.692ZM265.692 68.5031V69.8689H264.326V68.5031H265.692ZM265.692 72.6006V73.9665H264.326V72.6006H265.692ZM264.326 72.6006V73.9665H262.961V72.6006H264.326ZM262.961 72.6006V73.9665H261.595V72.6006H262.961ZM261.595 72.6006V73.9665H260.229V72.6006H261.595ZM260.229 72.6006V73.9665H258.863V72.6006H260.229ZM258.863 72.6006V73.9665H257.497V72.6006H258.863ZM258.863 71.2348V72.6006H257.497V71.2348H258.863ZM258.863 69.8689V71.2348H257.497V69.8689H258.863ZM260.229 69.8689V71.2348H258.863V69.8689H260.229ZM261.595 69.8689V71.2348H260.229V69.8689H261.595ZM262.961 69.8689V71.2348H261.595V69.8689H262.961ZM262.961 71.2348V72.6006H261.595V71.2348H262.961ZM264.326 71.2348V72.6006H262.961V71.2348H264.326ZM261.595 71.2348V72.6006H260.229V71.2348H261.595ZM260.229 71.2348V72.6006H258.863V71.2348H260.229ZM258.863 73.9665V75.3323H257.497V73.9665H258.863ZM260.229 73.9665V75.3323H258.863V73.9665H260.229ZM261.595 73.9665V75.3323H260.229V73.9665H261.595ZM262.961 73.9665V75.3323H261.595V73.9665H262.961ZM264.326 73.9665V75.3323H262.961V73.9665H264.326ZM265.692 97.186V98.5519H264.326V97.186H265.692ZM264.326 97.186V98.5519H262.961V97.186H264.326ZM264.326 98.5519V99.9177H262.961V98.5519H264.326ZM264.326 99.9177V101.284H262.961V99.9177H264.326ZM264.326 101.284V102.649H262.961V101.284H264.326ZM265.692 99.9177V101.284H264.326V99.9177H265.692ZM265.692 98.5519V99.9177H264.326V98.5519H265.692ZM265.692 101.284V102.649H264.326V101.284H265.692ZM258.863 101.284V102.649H257.497V101.284H258.863ZM260.229 101.284V102.649H258.863V101.284H260.229ZM261.595 101.284V102.649H260.229V101.284H261.595ZM261.595 99.9177V101.284H260.229V99.9177H261.595ZM262.961 101.284V102.649H261.595V101.284H262.961ZM262.961 99.9177V101.284H261.595V99.9177H262.961ZM262.961 98.5519V99.9177H261.595V98.5519H262.961ZM262.961 97.186V98.5519H261.595V97.186H262.961ZM262.961 95.8201V97.186H261.595V95.8201H262.961ZM264.326 95.8201V97.186H262.961V95.8201H264.326ZM258.863 95.8201V97.186H257.497V95.8201H258.863ZM260.229 95.8201V97.186H258.863V95.8201H260.229ZM261.595 95.8201V97.186H260.229V95.8201H261.595ZM261.595 97.186V98.5519H260.229V97.186H261.595ZM261.595 98.5519V99.9177H260.229V98.5519H261.595ZM260.229 98.5519V99.9177H258.863V98.5519H260.229ZM260.229 97.186V98.5519H258.863V97.186H260.229ZM258.863 97.186V98.5519H257.497V97.186H258.863ZM258.863 98.5519V99.9177H257.497V98.5519H258.863ZM258.863 99.9177V101.284H257.497V99.9177H258.863ZM260.229 99.9177V101.284H258.863V99.9177H260.229ZM258.863 82.1616V83.5275H257.497V82.1616H258.863ZM258.863 83.5275V84.8933H257.497V83.5275H258.863ZM258.863 84.8933V86.2592H257.497V84.8933H258.863ZM258.863 86.2592V87.625H257.497V86.2592H258.863ZM260.229 86.2592V87.625H258.863V86.2592H260.229ZM260.229 87.625V88.9909H258.863V87.625H260.229ZM258.863 87.625V88.9909H257.497V87.625H258.863ZM260.229 82.1616V83.5275H258.863V82.1616H260.229ZM260.229 83.5275V84.8933H258.863V83.5275H260.229ZM260.229 84.8933V86.2592H258.863V84.8933H260.229ZM261.595 84.8933V86.2592H260.229V84.8933H261.595ZM262.961 84.8933V86.2592H261.595V84.8933H262.961ZM262.961 83.5275V84.8933H261.595V83.5275H262.961ZM262.961 82.1616V83.5275H261.595V82.1616H262.961ZM261.595 82.1616V83.5275H260.229V82.1616H261.595ZM261.595 83.5275V84.8933H260.229V83.5275H261.595ZM261.595 86.2592V87.625H260.229V86.2592H261.595ZM261.595 87.625V88.9909H260.229V87.625H261.595ZM262.961 87.625V88.9909H261.595V87.625H262.961ZM262.961 86.2592V87.625H261.595V86.2592H262.961Z" fill="black"/>
<circle cx="333.145" cy="85.6498" r="32.1556" fill="black"/>
<path d="M328.686 69.9775L344.323 85.6149L328.686 101.252" stroke="white" stroke-width="8" stroke-linecap="round" stroke-linejoin="round"/>
<defs>
<filter id="filter0_d_142_322" x="0.0136719" y="0.0224609" width="443.313" height="199.254" filterUnits="userSpaceOnUse" color-interpolation-filters="sRGB">
<feFlood flood-opacity="0" result="BackgroundImageFix"/>
<feColorMatrix in="SourceAlpha" type="matrix" values="0 0 0 0 0 0 0 0 0 0 0 0 0 0 0 0 0 0 127 0" result="hardAlpha"/>
<feOffset dx="10" dy="14"/>
<feGaussianBlur stdDeviation="28"/>
<feComposite in2="hardAlpha" operator="out"/>
<feColorMatrix type="matrix" values="0 0 0 0 0 0 0 0 0 0 0 0 0 0 0 0 0 0 0.25 0"/>
<feBlend mode="normal" in2="BackgroundImageFix" result="effect1_dropShadow_142_322"/>
<feBlend mode="normal" in="SourceGraphic" in2="effect1_dropShadow_142_322" result="shape"/>
</filter>
</defs>
</svg>
