<svg width="716" height="720" viewBox="0 0 716 720" fill="none" xmlns="http://www.w3.org/2000/svg">
<g filter="url(#filter0_d_137_512)">
<rect x="46" y="42.75" width="603.424" height="606.725" rx="20" fill="white"/>
</g>
<path d="M251.305 275.452C253.388 275.778 254.998 277.54 255.189 279.748L255.203 279.964L258.211 348.234C258.214 348.496 258.214 348.698 258.193 348.893L258.191 348.907L250.628 431.564L250.629 431.566C250.371 434.446 247.771 436.377 245.151 435.836L244.898 435.775L244.896 435.775L152.634 411.176L152.404 411.114L152.396 411.116C150.364 410.455 149.006 408.413 149.18 406.166L149.203 405.941L149.203 405.939L157.857 334.565C157.902 334.234 157.912 333.91 157.912 333.618L157.912 333.61L157.911 333.602L156.772 266.269L156.772 266.268L156.775 265.988C156.875 263.21 159.215 261.129 161.814 261.386L162.075 261.42L162.077 261.42L251.304 275.452L251.305 275.452Z" fill="#E5E5E5" stroke="#60B8DC" stroke-width="2"/>
<path d="M329.497 283.166C331.732 283.064 333.763 284.508 334.46 286.719L334.523 286.936L334.523 286.937L344.471 323.553L344.472 323.555C345.321 326.661 348.059 328.82 351.187 328.834L351.491 328.829L351.493 328.828L392.524 327.132C394.759 327.041 396.786 328.515 397.466 330.734L397.528 330.952L397.527 330.953L405.139 359.985L405.139 359.986C405.985 363.214 403.742 366.354 400.631 366.563L400.329 366.574L367.016 366.723C362.546 366.737 359.335 371.002 360.231 375.396L360.329 375.822L392.772 498.324C393.62 501.517 391.449 504.635 388.378 504.91L388.078 504.928L349.552 505.99L349.551 505.989C347.334 506.051 345.334 504.567 344.668 502.357L344.608 502.14L303.652 342.596C302.824 339.36 299.943 337.135 296.714 337.217L296.4 337.232L296.399 337.232L288.118 337.829C285.849 337.987 283.749 336.521 283.045 334.256L282.982 334.034L282.982 334.033L271.922 292.344L271.803 291.898C271.274 288.905 273.322 286.086 276.205 285.769L276.501 285.744L329.497 283.166Z" fill="#E5E5E5" stroke="#60B8DC" stroke-width="2"/>
<path d="M368.588 276.8C369.681 276.797 370.743 277.12 371.665 277.733L371.847 277.86L371.848 277.861L385.083 287.419L385.085 287.421C386.057 288.117 386.796 289.111 387.202 290.268L387.278 290.501L387.279 290.503L391.035 302.687L391.036 302.689C391.54 304.315 391.353 306.085 390.527 307.553L390.353 307.843L390.351 307.844L385.749 315.077L385.749 315.078C384.736 316.674 383.056 317.658 381.249 317.757L380.886 317.765L367.424 317.62C366.266 317.606 365.141 317.232 364.196 316.541L364.01 316.399L364.009 316.398L351.919 306.814C350.988 306.077 350.299 305.068 349.935 303.909L349.866 303.675L346.784 292.291L346.752 292.17L346.75 292.166C346.355 290.59 346.592 288.903 347.414 287.515L347.591 287.236L347.592 287.234L352.845 279.367C353.867 277.839 355.489 276.902 357.24 276.795L357.592 276.784L357.594 276.785L368.584 276.8L368.588 276.8Z" fill="#E5E5E5" stroke="#60B8DC" stroke-width="2"/>
<path d="M483.248 301.488L483.25 301.489L521.601 313.086L521.601 313.087C522.479 313.353 523.191 314.043 523.498 314.951L523.554 315.136L523.555 315.14L534.794 356.172L534.794 356.171C535.294 358.002 534.08 359.803 532.351 360.014L532.182 360.03L532.181 360.03L526.563 360.379C523.537 360.564 521.484 363.488 522.107 366.447L522.175 366.733L522.176 366.734L542.745 442.846C543.359 445.118 545.434 446.67 547.746 446.523L547.746 446.524L558.447 445.858L558.449 445.858C559.696 445.778 560.853 446.555 561.299 447.775L561.379 448.024L561.379 448.025L573.187 491.103L573.187 491.105C573.696 492.949 572.444 494.77 570.686 494.946L570.514 494.959L570.512 494.958L564.068 495.218C560.997 495.338 558.876 498.281 559.508 501.282L559.578 501.572L578.744 572.54C579.252 574.415 577.946 576.246 576.159 576.381L575.985 576.388L538.238 576.839C537.062 576.851 536 576.12 535.552 574.983L535.47 574.75L522.256 531.229C521.985 530.323 522.134 529.333 522.655 528.566L522.764 528.416L522.766 528.413L526.069 524.125L526.068 524.124C526.991 522.93 527.328 521.387 527.01 519.912L526.937 519.618L484.318 366.189C483.721 364.037 481.808 362.542 479.636 362.537L479.427 362.541L429.389 364.558L429.386 364.558C428.091 364.612 426.898 363.734 426.527 362.394L426.526 362.393L417.558 329.883C417.045 328.017 418.318 326.189 420.091 326.03L420.264 326.02L420.265 326.02L478.147 324.379L478.149 324.379C481.176 324.287 483.32 321.44 482.791 318.462L482.731 318.174L482.73 318.172L479.64 305.132C479.108 302.886 481.042 300.978 483.054 301.436L483.248 301.488Z" fill="#E5E5E5" stroke="#60B8DC" stroke-width="2"/>
<path d="M492.887 524.58C493.638 524.556 494.325 525.026 494.59 525.763L494.637 525.915L494.638 525.916L508.445 576.881L508.446 576.883C508.751 577.996 508.02 579.077 506.999 579.24L506.791 579.26L347.719 584.56L347.632 584.563L347.625 584.564C346.936 584.56 346.305 584.13 346.03 583.441L345.978 583.294L331.143 534.795C330.806 533.671 331.522 532.558 332.55 532.378L332.76 532.356L332.761 532.355L352.275 531.4L352.277 531.401C354.573 531.284 356.17 529.118 355.773 526.868L355.727 526.649L355.727 526.647L355.689 526.429C355.566 525.415 356.259 524.502 357.188 524.355L357.39 524.336L357.392 524.336L403.261 522.589C403.939 522.563 404.578 522.948 404.891 523.603L404.891 523.604L405.829 525.581L405.831 525.582C406.444 526.87 407.692 527.707 409.079 527.76L409.358 527.759L492.888 524.582L492.887 524.58Z" fill="#E5E5E5" stroke="#60B8DC" stroke-width="2"/>
<path d="M310.658 531.488C312.426 531.414 314.035 532.604 314.534 534.405L314.534 534.406L327.248 580.505L327.249 580.506C327.934 582.98 326.261 585.429 323.881 585.674L323.649 585.691L191.12 591.153L191.119 591.153C189.35 591.227 187.742 590.037 187.243 588.234L187.242 588.234L174.528 542.137L174.527 542.135L174.469 541.896C173.934 539.426 175.705 537.051 178.129 536.95L178.128 536.949L310.658 531.488Z" fill="#E5E5E5" stroke="#60B8DC" stroke-width="2"/>
<path d="M254.41 263.437C256.493 263.762 258.103 265.524 258.295 267.732L258.309 267.948L261.316 336.219C261.319 336.48 261.319 336.683 261.298 336.877L261.297 336.891L253.734 419.548L253.734 419.55C253.477 422.431 250.876 424.361 248.257 423.82L248.003 423.76L248.001 423.759L155.739 399.16L155.51 399.099L155.501 399.1C153.469 398.44 152.112 396.398 152.286 394.151L152.309 393.925L152.308 393.924L160.962 322.549C161.008 322.219 161.017 321.895 161.017 321.602L161.017 321.594L161.016 321.586L159.878 254.253L159.877 254.252L159.88 253.972C159.98 251.195 162.32 249.113 164.92 249.371L165.18 249.405L165.182 249.404L254.409 263.437L254.41 263.437Z" fill="#E5E5E5" stroke="#60B8DC" stroke-width="2"/>
<g filter="url(#filter1_d_137_512)">
<path d="M274.067 280.574L285.126 322.264C285.88 325.113 288.474 327.015 291.31 326.815L299.592 326.218C302.45 326.014 305.058 327.94 305.795 330.817L346.75 490.363C347.462 493.136 349.926 495.055 352.7 494.978L391.228 493.917C395.118 493.806 397.873 489.957 396.84 486.063L364.397 363.561C363.355 359.622 366.205 355.724 370.142 355.712L403.455 355.563C407.394 355.542 410.239 351.663 409.207 347.727L401.596 318.694C400.867 315.905 398.368 313.998 395.574 314.113L354.543 315.809C351.771 315.919 349.293 314.05 348.537 311.286L338.589 274.671C337.839 271.886 335.329 270.019 332.543 270.147L279.543 272.726C275.705 272.915 273.03 276.734 274.045 280.579L274.067 280.574Z" fill="#D8D6D6"/>
<path d="M332.603 271.15C334.838 271.048 336.869 272.493 337.566 274.703L337.629 274.921L337.629 274.922L347.577 311.537L347.578 311.539C348.427 314.646 351.165 316.804 354.293 316.819L354.597 316.813L354.598 316.812L395.63 315.117C397.865 315.025 399.892 316.499 400.572 318.719L400.634 318.937L400.633 318.938L408.245 347.969L408.245 347.97C409.091 351.198 406.848 354.338 403.737 354.548L403.435 354.559L370.122 354.707C365.652 354.721 362.44 358.986 363.336 363.38L363.435 363.806L395.878 486.308C396.726 489.502 394.555 492.62 391.484 492.895L391.184 492.913L352.658 493.974L352.657 493.974C350.44 494.035 348.44 492.552 347.774 490.341L347.714 490.125L306.758 330.58C305.93 327.344 303.049 325.119 299.82 325.201L299.506 325.216L299.505 325.216L291.224 325.813C288.955 325.972 286.855 324.505 286.151 322.24L286.088 322.019L286.088 322.018L275.028 280.329L274.909 279.882C274.38 276.89 276.428 274.07 279.311 273.753L279.607 273.729L332.603 271.15Z" stroke="#60B8DC" stroke-width="2"/>
</g>
<g filter="url(#filter2_d_137_512)">
<path d="M348.93 280.524L352.013 291.91C352.411 293.373 353.249 294.657 354.418 295.583L366.507 305.166C367.666 306.089 369.079 306.589 370.535 306.607L383.997 306.751C386.289 306.776 388.438 305.592 389.695 303.612L394.298 296.379C395.428 294.611 395.718 292.405 395.091 290.385L391.335 278.201C390.886 276.734 389.982 275.464 388.759 274.587L375.524 265.029C374.39 264.21 373.054 263.774 371.676 263.778L360.685 263.762C358.461 263.756 356.388 264.887 355.123 266.778L349.869 274.646C348.723 276.356 348.383 278.515 348.923 280.512L348.93 280.524Z" fill="#D8D6D6"/>
<path d="M371.694 264.782C372.787 264.779 373.849 265.102 374.771 265.716L374.953 265.842L374.954 265.844L388.189 275.402L388.191 275.403C389.163 276.1 389.902 277.093 390.307 278.25L390.384 278.483L390.385 278.485L394.141 290.67L394.141 290.671C394.646 292.297 394.459 294.067 393.632 295.536L393.459 295.825L393.457 295.827L388.855 303.059L388.855 303.06C387.841 304.656 386.162 305.64 384.355 305.739L383.992 305.747L370.53 305.603C369.372 305.588 368.247 305.215 367.302 304.524L367.116 304.382L367.115 304.38L355.025 294.797C354.094 294.059 353.405 293.051 353.041 291.892L352.972 291.658L349.89 280.273L349.858 280.152L349.856 280.148C349.461 278.572 349.698 276.885 350.52 275.497L350.697 275.218L350.698 275.216L355.951 267.349C356.973 265.821 358.595 264.884 360.346 264.777L360.698 264.766L360.7 264.767L371.69 264.782L371.694 264.782Z" stroke="#60B8DC" stroke-width="2"/>
</g>
<g filter="url(#filter3_d_137_512)">
<path d="M419.705 318.121L428.674 350.632C429.167 352.411 430.77 353.619 432.55 353.544L482.588 351.527C484.367 351.453 485.973 352.65 486.466 354.429L529.084 507.857C529.433 509.113 529.178 510.459 528.385 511.484L525.082 515.772C524.274 516.814 524.026 518.215 524.411 519.492L537.625 563.014C538.141 564.703 539.658 565.844 541.371 565.826L579.12 565.375C581.665 565.342 583.499 562.814 582.81 560.272L563.644 489.305C562.966 486.798 564.719 484.301 567.229 484.204L573.674 483.945C576.183 483.848 577.942 481.331 577.252 478.832L565.444 435.754C564.949 433.942 563.298 432.721 561.477 432.838L550.776 433.504C548.955 433.62 547.303 432.399 546.811 430.578L526.242 354.466C525.576 351.995 527.273 349.515 529.745 349.364L535.364 349.015C537.835 348.864 539.535 346.374 538.859 343.9L527.62 302.869C527.261 301.535 526.256 300.494 524.979 300.107L486.628 288.509C483.758 287.637 481.066 290.324 481.779 293.334L484.868 306.374C485.456 308.866 483.683 311.282 481.209 311.357L423.328 312.998C420.794 313.067 419.011 315.599 419.705 318.121Z" fill="#D8D6D6"/>
<path d="M486.354 289.471L486.356 289.471L524.707 301.068L524.707 301.069C525.585 301.335 526.297 302.026 526.604 302.934L526.66 303.119L526.661 303.123L537.9 344.154L537.9 344.153C538.4 345.985 537.186 347.785 535.457 347.996L535.288 348.012L535.287 348.012L529.669 348.362C526.643 348.546 524.59 351.47 525.213 354.429L525.281 354.716L525.282 354.717L545.851 430.828C546.465 433.1 548.54 434.652 550.852 434.505L550.852 434.507L561.553 433.84L561.555 433.841C562.802 433.761 563.959 434.538 564.405 435.757L564.485 436.006L564.485 436.007L576.293 479.086L576.293 479.087C576.802 480.932 575.549 482.752 573.792 482.929L573.62 482.941L573.618 482.941L567.174 483.201C564.103 483.32 561.982 486.263 562.614 489.264L562.684 489.555L581.85 560.522C582.358 562.398 581.052 564.229 579.265 564.363L579.091 564.371L541.344 564.821C540.168 564.833 539.106 564.102 538.658 562.965L538.576 562.732L525.362 519.211C525.09 518.306 525.24 517.315 525.761 516.548L525.87 516.398L525.872 516.396L529.175 512.108L529.174 512.106C530.097 510.912 530.434 509.369 530.116 507.895L530.043 507.6L487.424 354.172C486.827 352.019 484.914 350.525 482.742 350.519L482.533 350.523L432.495 352.54L432.492 352.54C431.197 352.595 430.004 351.716 429.633 350.376L429.632 350.376L420.664 317.865C420.151 316 421.424 314.171 423.197 314.013L423.37 314.002L423.371 314.002L481.253 312.361L481.255 312.361C484.282 312.269 486.426 309.422 485.897 306.444L485.837 306.156L485.836 306.155L482.746 293.115C482.214 290.868 484.148 288.961 486.16 289.419L486.354 289.471Z" stroke="#60B8DC" stroke-width="2"/>
</g>
<g filter="url(#filter4_d_137_512)">
<path d="M350.873 573.549L509.946 568.248C511.733 568.186 513.001 566.403 512.511 564.614L498.704 513.65C498.361 512.374 497.215 511.519 495.941 511.562L412.411 514.74C411.324 514.782 410.315 514.158 409.832 513.144L408.894 511.166C408.411 510.151 407.402 509.528 406.314 509.569L360.445 511.317C358.7 511.379 357.45 513.093 357.865 514.85C358.274 516.595 357.048 518.294 355.317 518.382L335.803 519.336C333.99 519.423 332.757 521.27 333.298 523.062L348.135 571.565C348.513 572.786 349.618 573.597 350.851 573.554L350.873 573.549Z" fill="#D8D6D6"/>
<path d="M495.993 512.565C496.744 512.541 497.431 513.01 497.696 513.747L497.743 513.899L497.744 513.9L511.551 564.865L511.552 564.867C511.857 565.981 511.126 567.062 510.105 567.225L509.897 567.244L350.824 572.545L350.738 572.548L350.731 572.549C350.042 572.545 349.411 572.115 349.136 571.425L349.084 571.279L334.249 522.78C333.912 521.655 334.628 520.542 335.656 520.363L335.866 520.34L335.867 520.339L355.381 519.385L355.383 519.385C357.679 519.268 359.276 517.102 358.879 514.852L358.833 514.634L358.833 514.631L358.795 514.413C358.672 513.399 359.365 512.487 360.294 512.34L360.496 512.321L360.498 512.32L406.367 510.573C407.045 510.547 407.684 510.933 407.997 511.587L407.997 511.588L408.935 513.565L408.937 513.567C409.55 514.854 410.798 515.691 412.185 515.744L412.464 515.744L495.994 512.566L495.993 512.565Z" stroke="#60B8DC" stroke-width="2"/>
</g>
<g filter="url(#filter5_d_137_512)">
<path d="M318.598 522.134L331.313 568.232C332.186 571.384 329.971 574.546 326.81 574.677L194.281 580.139C192.031 580.233 190.011 578.717 189.39 576.473L176.675 530.374C175.802 527.223 178.017 524.06 181.177 523.929L313.707 518.467C315.957 518.373 317.977 519.89 318.598 522.134Z" fill="#D8D6D6"/>
<path d="M313.763 519.471C315.531 519.397 317.14 520.586 317.639 522.388L317.639 522.389L330.354 568.487L330.355 568.489C331.04 570.962 329.367 573.412 326.987 573.657L326.755 573.673L194.225 579.135L194.224 579.136C192.456 579.21 190.847 578.019 190.349 576.217L190.348 576.217L177.634 530.119L177.633 530.118L177.575 529.879C177.04 527.409 178.81 525.033 181.234 524.932L181.233 524.931L313.763 519.471Z" stroke="#60B8DC" stroke-width="2"/>
</g>
<g filter="url(#filter6_d_137_512)">
<path d="M342.457 208.319C342.198 213.248 345.269 217.708 349.846 219.065L469.677 254.445C472.484 255.279 474.816 257.311 476.077 260.044L478.587 265.475C479.81 268.111 482.026 270.112 484.729 270.991L508.636 278.792C516.657 281.406 524.119 273.401 521.308 265.171L515.998 249.625C514.892 246.377 512.315 243.89 509.115 242.969L355.368 198.703C349.085 196.894 342.814 201.57 342.457 208.319Z" fill="#E5E5E5"/>
</g>
<g filter="url(#filter7_d_137_512)">
<path d="M142.795 237.965L267.059 231.194C271.06 230.975 273.787 226.913 272.607 222.947L264.154 194.689C263.321 191.903 260.765 190.056 257.949 190.218L171.172 195.145C168.346 195.304 165.773 193.441 164.958 190.628L162.437 181.996C161.626 179.206 159.085 177.341 156.274 177.483C152.363 177.674 149.622 181.549 150.618 185.464L151.202 187.773C152.182 191.63 149.537 195.457 145.704 195.744L133.141 196.687C129.17 196.99 126.513 201.06 127.733 204.995L136.623 233.567C137.476 236.315 140.01 238.125 142.792 237.975L142.795 237.965Z" fill="#E5E5E5"/>
</g>
<g filter="url(#filter8_d_137_512)">
<path d="M161.156 334.496C161.156 332.287 162.947 330.496 165.156 330.496H237.156C239.366 330.496 241.156 332.287 241.156 334.496V362.496C241.156 364.705 239.366 366.496 237.156 366.496H165.156C162.947 366.496 161.156 364.705 161.156 362.496V334.496Z" fill="white"/>
<path d="M175.396 342.288H184.5V343.776H175.396V342.288ZM178.388 344.464H183.796V345.76H178.388V344.464ZM176.932 346.56H184.612V347.888H176.932V346.56ZM177.332 350.384H183.284V351.6H177.332V350.384ZM177.332 352.256H183.284V353.552H177.332V352.256ZM181.988 348.448H183.812V354.176C183.812 354.571 183.764 354.885 183.668 355.12C183.583 355.355 183.407 355.536 183.14 355.664C182.884 355.792 182.575 355.867 182.212 355.888C181.85 355.92 181.423 355.936 180.932 355.936C180.9 355.701 180.836 355.435 180.74 355.136C180.644 354.837 180.548 354.581 180.452 354.368C180.719 354.379 180.98 354.384 181.236 354.384C181.492 354.384 181.663 354.384 181.748 354.384C181.834 354.384 181.892 354.368 181.924 354.336C181.967 354.304 181.988 354.24 181.988 354.144V348.448ZM178.036 340.88L179.844 341.168C179.524 342.608 179.039 343.893 178.388 345.024C177.748 346.144 176.954 347.061 176.004 347.776C175.919 347.659 175.796 347.515 175.636 347.344C175.476 347.173 175.311 347.003 175.14 346.832C174.97 346.661 174.815 346.528 174.676 346.432C175.562 345.856 176.282 345.093 176.836 344.144C177.391 343.184 177.791 342.096 178.036 340.88ZM176.324 348.448H182.772V349.744H178.132V355.92H176.324V348.448ZM179.828 344.912H181.588V347.12H179.828V344.912ZM170.292 341.584H174.068V343.312H171.972V355.936H170.292V341.584ZM173.492 341.584H173.796L174.068 341.52L175.316 342.24C175.188 342.688 175.044 343.173 174.884 343.696C174.724 344.219 174.559 344.731 174.388 345.232C174.228 345.733 174.074 346.192 173.924 346.608C174.415 347.216 174.735 347.792 174.884 348.336C175.034 348.88 175.108 349.387 175.108 349.856C175.108 350.368 175.05 350.795 174.932 351.136C174.826 351.477 174.644 351.739 174.388 351.92C174.26 352.005 174.116 352.075 173.956 352.128C173.807 352.181 173.647 352.224 173.476 352.256C173.178 352.288 172.826 352.299 172.42 352.288C172.41 352.064 172.367 351.792 172.292 351.472C172.228 351.152 172.132 350.88 172.004 350.656C172.154 350.667 172.282 350.672 172.388 350.672C172.506 350.672 172.612 350.672 172.708 350.672C172.9 350.661 173.05 350.613 173.156 350.528C173.252 350.453 173.316 350.341 173.348 350.192C173.391 350.032 173.412 349.84 173.412 349.616C173.412 349.243 173.338 348.816 173.188 348.336C173.05 347.856 172.756 347.349 172.308 346.816C172.415 346.453 172.522 346.059 172.628 345.632C172.746 345.195 172.858 344.757 172.964 344.32C173.082 343.883 173.183 343.477 173.268 343.104C173.364 342.72 173.439 342.4 173.492 342.144V341.584ZM193.316 343.952H195.14V349.984H193.316V343.952ZM188.756 346.96H198.244V348.352H188.756V346.96ZM198.132 346.848H200.596V348.48H198.132V346.848ZM190.852 353.968H198.132V355.376H190.852V353.968ZM189.828 344.832H199.076V350.576H189.7V349.216H197.252V346.176H189.828V344.832ZM189.844 351.312H199.204V355.904H197.204V352.72H191.748V355.904H189.844V351.312ZM192.66 340.896H194.66V343.168H192.66V340.896ZM187.812 342.272H200.292V343.952H187.812V342.272ZM186.916 342.272H188.74V346.928C188.74 347.579 188.719 348.299 188.676 349.088C188.634 349.877 188.554 350.688 188.436 351.52C188.319 352.341 188.148 353.136 187.924 353.904C187.7 354.672 187.407 355.371 187.044 356C186.938 355.883 186.788 355.755 186.596 355.616C186.404 355.477 186.207 355.344 186.004 355.216C185.802 355.099 185.631 355.008 185.492 354.944C185.823 354.368 186.084 353.744 186.276 353.072C186.468 352.389 186.607 351.691 186.692 350.976C186.788 350.251 186.847 349.547 186.868 348.864C186.9 348.171 186.916 347.525 186.916 346.928V342.272ZM202.948 342.368H215.316V344.272H202.948V342.368ZM202.02 353.264H216.372V355.168H202.02V353.264ZM207.396 343.04H209.588C209.428 344 209.252 344.997 209.06 346.032C208.868 347.067 208.671 348.096 208.468 349.12C208.266 350.144 208.063 351.115 207.86 352.032C207.668 352.949 207.482 353.765 207.3 354.48H205.14C205.332 353.733 205.535 352.896 205.748 351.968C205.962 351.029 206.164 350.053 206.356 349.04C206.559 348.016 206.751 346.992 206.932 345.968C207.114 344.944 207.268 343.968 207.396 343.04ZM203.476 347.056H213.86V354.16H211.86V348.944H203.476V347.056ZM222.596 346.304L232.324 345.008L232.596 346.816L222.868 348.144L222.596 346.304ZM228.612 341.92L230.052 341.024C230.33 341.269 230.618 341.547 230.916 341.856C231.215 342.165 231.492 342.475 231.748 342.784C232.004 343.083 232.207 343.36 232.356 343.616L230.804 344.592C230.676 344.347 230.49 344.069 230.244 343.76C229.999 343.44 229.732 343.12 229.444 342.8C229.167 342.48 228.89 342.187 228.612 341.92ZM221.7 341.04L223.54 341.632C223.135 342.581 222.655 343.525 222.1 344.464C221.556 345.403 220.964 346.283 220.324 347.104C219.695 347.925 219.044 348.645 218.372 349.264C218.319 349.104 218.228 348.901 218.1 348.656C217.972 348.411 217.834 348.165 217.684 347.92C217.546 347.675 217.418 347.472 217.3 347.312C217.887 346.821 218.452 346.24 218.996 345.568C219.54 344.896 220.047 344.176 220.516 343.408C220.986 342.629 221.38 341.84 221.7 341.04ZM220.052 345.632L222.004 343.664L222.036 343.696V355.904H220.052V345.632ZM225.588 341.152H227.54C227.562 342.859 227.636 344.453 227.764 345.936C227.903 347.408 228.095 348.704 228.34 349.824C228.586 350.944 228.89 351.835 229.252 352.496C229.615 353.147 230.036 353.504 230.516 353.568C230.698 353.579 230.842 353.376 230.948 352.96C231.055 352.544 231.14 351.893 231.204 351.008C231.322 351.136 231.482 351.275 231.684 351.424C231.887 351.573 232.09 351.712 232.292 351.84C232.495 351.957 232.655 352.048 232.772 352.112C232.634 353.147 232.447 353.941 232.212 354.496C231.988 355.051 231.738 355.424 231.46 355.616C231.183 355.819 230.895 355.909 230.596 355.888C229.839 355.813 229.188 355.536 228.644 355.056C228.1 354.576 227.642 353.909 227.268 353.056C226.906 352.203 226.607 351.184 226.372 350C226.148 348.816 225.978 347.483 225.86 346C225.743 344.507 225.652 342.891 225.588 341.152Z" fill="#0069F2"/>
</g>
<g filter="url(#filter9_d_137_512)">
<path d="M201.156 376.496L191.156 366.496L211.156 366.496L201.156 376.496Z" fill="white"/>
</g>
<g filter="url(#filter10_d_137_512)">
<path d="M161.156 181.004C161.156 178.795 162.947 177.004 165.156 177.004H237.156C239.366 177.004 241.156 178.795 241.156 181.004V209.004C241.156 211.213 239.366 213.004 237.156 213.004H165.156C162.947 213.004 161.156 211.213 161.156 209.004V181.004Z" fill="white"/>
<path d="M171.06 188.94H183.268V190.908H171.06V188.94ZM172.164 194.092H181.988V196.044H172.164V194.092ZM170.164 199.516H184.116V201.468H170.164V199.516ZM189.124 190.668H197.028V192.332H189.124V190.668ZM189.556 193.852H196.676V195.468H189.556V193.852ZM188.964 197.372H197.3V198.94H188.964V197.372ZM192.18 191.196H193.956V198.204H192.18V191.196ZM194.468 195.98L195.684 195.356C195.919 195.58 196.164 195.841 196.42 196.14C196.676 196.428 196.868 196.684 196.996 196.908L195.716 197.628C195.588 197.404 195.402 197.137 195.156 196.828C194.922 196.519 194.692 196.236 194.468 195.98ZM186.372 188.044H199.892V202.412H197.844V189.804H188.324V202.412H186.372V188.044ZM187.444 199.852H198.788V201.628H187.444V199.852ZM202.068 188.444H216.292V190.284H202.068V188.444ZM202.612 191.9H215.06V193.708H204.532V202.46H202.612V191.9ZM213.764 191.9H215.7V200.284C215.7 200.796 215.636 201.196 215.508 201.484C215.38 201.772 215.14 201.991 214.788 202.14C214.447 202.289 214.02 202.38 213.508 202.412C213.007 202.444 212.404 202.46 211.7 202.46C211.658 202.183 211.572 201.857 211.444 201.484C211.327 201.121 211.204 200.812 211.076 200.556C211.386 200.577 211.695 200.593 212.004 200.604C212.324 200.604 212.607 200.604 212.852 200.604C213.108 200.604 213.284 200.604 213.38 200.604C213.519 200.604 213.615 200.577 213.668 200.524C213.732 200.471 213.764 200.38 213.764 200.252V191.9ZM206.356 195.916L207.38 194.556C207.636 194.791 207.892 195.052 208.148 195.34C208.415 195.617 208.666 195.895 208.9 196.172C209.146 196.439 209.332 196.684 209.46 196.908L208.356 198.444C208.239 198.209 208.063 197.943 207.828 197.644C207.604 197.345 207.359 197.047 207.092 196.748C206.836 196.449 206.591 196.172 206.356 195.916ZM206.212 189.74H208.1V193.148C208.1 193.724 208.063 194.337 207.988 194.988C207.924 195.639 207.802 196.295 207.62 196.956C207.45 197.617 207.199 198.252 206.868 198.86C206.538 199.468 206.106 200.028 205.572 200.54C205.476 200.401 205.348 200.247 205.188 200.076C205.039 199.905 204.879 199.74 204.708 199.58C204.548 199.42 204.388 199.292 204.228 199.196C204.687 198.791 205.044 198.332 205.3 197.82C205.567 197.308 205.764 196.78 205.892 196.236C206.02 195.681 206.106 195.143 206.148 194.62C206.191 194.087 206.212 193.596 206.212 193.148V189.74ZM210.42 195.916L211.444 194.556C211.754 194.876 212.084 195.223 212.436 195.596C212.799 195.969 213.135 196.343 213.444 196.716C213.764 197.079 214.01 197.404 214.18 197.692L213.092 199.228C212.922 198.919 212.687 198.572 212.388 198.188C212.09 197.804 211.764 197.415 211.412 197.02C211.071 196.615 210.74 196.247 210.42 195.916ZM210.196 189.74H212.084V193.148C212.084 193.724 212.047 194.337 211.972 194.988C211.908 195.639 211.786 196.295 211.604 196.956C211.434 197.617 211.183 198.252 210.852 198.86C210.522 199.468 210.095 200.028 209.572 200.54C209.476 200.401 209.348 200.247 209.188 200.076C209.039 199.905 208.874 199.74 208.692 199.58C208.522 199.42 208.362 199.292 208.212 199.196C208.671 198.791 209.034 198.332 209.3 197.82C209.567 197.308 209.764 196.78 209.892 196.236C210.02 195.681 210.1 195.143 210.132 194.62C210.175 194.087 210.196 193.596 210.196 193.148V189.74ZM219.828 195.324H230.692V202.38H228.644V196.924H221.78V202.444H219.828V195.324ZM221.012 197.836H229.348V199.276H221.012V197.836ZM220.98 200.236H229.316V201.836H220.98V200.236ZM218.724 188.012H231.7V189.724H218.724V188.012ZM217.924 192.86H232.42V194.636H217.924V192.86ZM222.532 188.62H224.404V193.74H222.532V188.62ZM225.796 188.62H227.7V193.756H225.796V188.62ZM219.348 190.252L220.964 189.804C221.188 190.177 221.391 190.593 221.572 191.052C221.764 191.511 221.898 191.905 221.972 192.236L220.244 192.764C220.18 192.423 220.063 192.017 219.892 191.548C219.732 191.068 219.551 190.636 219.348 190.252ZM229.252 189.868L231.044 190.348C230.81 190.807 230.57 191.255 230.324 191.692C230.09 192.129 229.871 192.503 229.668 192.812L228.132 192.348C228.26 192.124 228.394 191.868 228.532 191.58C228.671 191.281 228.804 190.983 228.932 190.684C229.071 190.385 229.178 190.113 229.252 189.868Z" fill="#0069F2"/>
</g>
<g filter="url(#filter11_d_137_512)">
<path d="M201.156 223.004L191.156 213.004L211.156 213.004L201.156 223.004Z" fill="white"/>
</g>
<g filter="url(#filter12_d_137_512)">
<path d="M404.006 181.004C404.006 178.795 405.797 177.004 408.006 177.004H464.006C466.215 177.004 468.006 178.795 468.006 181.004V209.004C468.006 211.213 466.215 213.004 464.006 213.004H408.006C405.797 213.004 404.006 211.213 404.006 209.004V181.004Z" fill="white"/>
<path d="M412.902 188.732H427.11V190.524H412.902V188.732ZM416.422 195.612H423.574V197.1H416.422V195.612ZM416.086 198.156H423.926V199.692H416.086V198.156ZM419.046 196.348H420.854V201.98H419.046V196.348ZM413.51 191.724H425.094V193.484H415.43V202.396H413.51V191.724ZM424.55 191.724H426.518V200.476C426.518 200.935 426.454 201.287 426.326 201.532C426.198 201.788 425.974 201.98 425.654 202.108C425.323 202.247 424.918 202.327 424.438 202.348C423.969 202.38 423.409 202.396 422.758 202.396C422.715 202.151 422.63 201.873 422.502 201.564C422.385 201.255 422.262 200.988 422.134 200.764C422.401 200.775 422.673 200.785 422.95 200.796C423.227 200.807 423.478 200.812 423.702 200.812C423.937 200.801 424.091 200.796 424.166 200.796C424.315 200.796 424.417 200.775 424.47 200.732C424.523 200.679 424.55 200.593 424.55 200.476V191.724ZM417.03 193.916L418.55 193.468C418.742 193.724 418.918 194.017 419.078 194.348C419.249 194.679 419.377 194.967 419.462 195.212L417.862 195.74C417.798 195.484 417.686 195.185 417.526 194.844C417.366 194.503 417.201 194.193 417.03 193.916ZM421.542 193.5L423.158 193.948C422.945 194.332 422.731 194.705 422.518 195.068C422.315 195.42 422.118 195.729 421.926 195.996L420.566 195.58C420.683 195.388 420.801 195.169 420.918 194.924C421.046 194.679 421.163 194.433 421.27 194.188C421.377 193.943 421.467 193.713 421.542 193.5ZM418.982 187.516H421.078V192.972H418.982V187.516ZM428.902 191.212H433.654V193.116H428.902V191.212ZM436.726 187.676H438.726V199.212C438.726 199.66 438.763 199.948 438.838 200.076C438.913 200.193 439.099 200.252 439.398 200.252C439.462 200.252 439.569 200.252 439.718 200.252C439.867 200.252 440.033 200.252 440.214 200.252C440.395 200.252 440.561 200.252 440.71 200.252C440.859 200.252 440.971 200.252 441.046 200.252C441.259 200.252 441.419 200.161 441.526 199.98C441.633 199.799 441.707 199.473 441.75 199.004C441.803 198.524 441.846 197.857 441.878 197.004C442.038 197.121 442.225 197.239 442.438 197.356C442.662 197.473 442.886 197.58 443.11 197.676C443.334 197.761 443.537 197.825 443.718 197.868C443.654 198.892 443.542 199.719 443.382 200.348C443.233 200.977 442.987 201.431 442.646 201.708C442.315 201.996 441.846 202.14 441.238 202.14C441.153 202.14 441.009 202.14 440.806 202.14C440.603 202.14 440.385 202.14 440.15 202.14C439.926 202.14 439.718 202.14 439.526 202.14C439.334 202.14 439.19 202.14 439.094 202.14C438.486 202.14 438.006 202.049 437.654 201.868C437.313 201.697 437.073 201.399 436.934 200.972C436.795 200.535 436.726 199.943 436.726 199.196V187.676ZM432.694 187.676H434.694V202.268H432.694V187.676ZM442.006 190.06L443.398 191.788C442.843 192.161 442.257 192.535 441.638 192.908C441.019 193.271 440.39 193.628 439.75 193.98C439.121 194.321 438.502 194.641 437.894 194.94C437.83 194.727 437.718 194.476 437.558 194.188C437.398 193.889 437.254 193.639 437.126 193.436C437.702 193.127 438.283 192.78 438.87 192.396C439.457 192.012 440.017 191.617 440.55 191.212C441.094 190.807 441.579 190.423 442.006 190.06ZM428.326 198.46C428.763 198.332 429.27 198.177 429.846 197.996C430.422 197.804 431.03 197.596 431.67 197.372C432.31 197.137 432.945 196.908 433.574 196.684L433.942 198.412C433.142 198.775 432.321 199.132 431.478 199.484C430.646 199.836 429.883 200.156 429.19 200.444L428.326 198.46ZM447.382 187.388H449.254V192.14H447.382V187.388ZM447.382 196.204H449.254V202.412H447.382V196.204ZM446.774 195.1V195.964H449.958V195.1H446.774ZM446.774 192.924V193.788H449.958V192.924H446.774ZM445.078 191.516H451.718V197.372H445.078V191.516ZM444.63 188.988H452.038V190.668H444.63V188.988ZM453.75 191.964H457.942V193.676H453.75V191.964ZM453.75 188.124H457.942V189.868H453.75V188.124ZM453.734 195.628H457.942V197.356H453.734V195.628ZM444.534 198.236H452.022V199.916H444.534V198.236ZM457.03 188.124H458.902V200.268C458.902 200.737 458.849 201.116 458.742 201.404C458.635 201.692 458.438 201.916 458.15 202.076C457.862 202.225 457.51 202.321 457.094 202.364C456.678 202.407 456.161 202.428 455.542 202.428C455.531 202.247 455.494 202.039 455.43 201.804C455.366 201.58 455.297 201.351 455.222 201.116C455.147 200.892 455.067 200.695 454.982 200.524C455.334 200.545 455.681 200.561 456.022 200.572C456.363 200.572 456.593 200.567 456.71 200.556C456.827 200.545 456.907 200.519 456.95 200.476C457.003 200.433 457.03 200.348 457.03 200.22V188.124ZM452.806 188.124H454.646V193.66C454.646 194.332 454.614 195.057 454.55 195.836C454.497 196.615 454.385 197.404 454.214 198.204C454.054 199.004 453.814 199.772 453.494 200.508C453.174 201.233 452.753 201.884 452.23 202.46C452.134 202.353 451.99 202.231 451.798 202.092C451.606 201.953 451.409 201.82 451.206 201.692C451.003 201.575 450.827 201.484 450.678 201.42C451.169 200.876 451.553 200.284 451.83 199.644C452.118 198.993 452.331 198.327 452.47 197.644C452.609 196.951 452.699 196.268 452.742 195.596C452.785 194.913 452.806 194.268 452.806 193.66V188.124Z" fill="#0069F2"/>
</g>
<g filter="url(#filter13_d_137_512)">
<path d="M436.006 223.004L426.006 213.004L446.006 213.004L436.006 223.004Z" fill="white"/>
</g>
<g filter="url(#filter14_d_137_512)">
<path d="M398.006 500.371C398.006 498.162 399.797 496.371 402.006 496.371H426.006C428.215 496.371 430.006 498.162 430.006 500.371V528.371C430.006 530.58 428.215 532.371 426.006 532.371H402.006C399.797 532.371 398.006 530.58 398.006 528.371V500.371Z" fill="white"/>
<path d="M414.982 513.475H416.966V519.027C416.966 519.336 416.998 519.534 417.062 519.619C417.137 519.694 417.307 519.731 417.574 519.731C417.627 519.731 417.718 519.731 417.846 519.731C417.974 519.731 418.113 519.731 418.262 519.731C418.422 519.731 418.566 519.731 418.694 519.731C418.833 519.731 418.945 519.731 419.03 519.731C419.211 519.731 419.345 519.667 419.43 519.539C419.526 519.4 419.595 519.139 419.638 518.755C419.681 518.36 419.713 517.779 419.734 517.011C419.873 517.118 420.049 517.224 420.262 517.331C420.475 517.438 420.694 517.534 420.918 517.619C421.142 517.704 421.339 517.768 421.51 517.811C421.446 518.771 421.334 519.523 421.174 520.067C421.025 520.6 420.795 520.974 420.486 521.187C420.177 521.411 419.75 521.523 419.206 521.523C419.11 521.523 418.971 521.523 418.79 521.523C418.619 521.523 418.433 521.523 418.23 521.523C418.027 521.523 417.835 521.523 417.654 521.523C417.483 521.523 417.35 521.523 417.254 521.523C416.657 521.523 416.193 521.443 415.862 521.283C415.531 521.134 415.302 520.878 415.174 520.515C415.046 520.152 414.982 519.662 414.982 519.043V513.475ZM406.854 512.259H421.206V514.115H406.854V512.259ZM408.31 507.907H419.734V509.747H408.31V507.907ZM410.518 513.731H412.582C412.518 514.606 412.411 515.438 412.262 516.227C412.113 517.016 411.873 517.758 411.542 518.451C411.211 519.134 410.737 519.758 410.118 520.323C409.499 520.878 408.689 521.358 407.686 521.763C407.579 521.518 407.409 521.24 407.174 520.931C406.939 520.632 406.715 520.387 406.502 520.195C407.377 519.875 408.07 519.491 408.582 519.043C409.094 518.584 409.483 518.083 409.75 517.539C410.017 516.984 410.198 516.387 410.294 515.747C410.39 515.096 410.465 514.424 410.518 513.731Z" fill="#0069F2"/>
</g>
<g filter="url(#filter15_d_137_512)">
<path d="M414.006 542.371L404.006 532.371L424.006 532.371L414.006 542.371Z" fill="white"/>
</g>
<g filter="url(#filter16_d_137_512)">
<path d="M489.177 339.68C489.177 337.471 490.967 335.68 493.177 335.68H533.177C535.386 335.68 537.177 337.471 537.177 339.68V367.68C537.177 369.889 535.386 371.68 533.177 371.68H493.177C490.967 371.68 489.177 369.889 489.177 367.68V339.68Z" fill="white"/>
<path d="M499.289 346.96H503.897V356.784H499.289V355.04H502.121V348.704H499.289V346.96ZM499.321 350.96H502.809V352.672H499.321V350.96ZM506.153 346.736H511.049V348.512H506.153V346.736ZM506.153 350.544H511.049V352.272H506.153V350.544ZM506.121 354.336H511.033V356.064H506.121V354.336ZM498.281 346.96H500.057V358.176H498.281V346.96ZM510.345 346.736H512.249V358.912C512.249 359.413 512.185 359.802 512.057 360.08C511.939 360.368 511.721 360.592 511.401 360.752C511.081 360.901 510.686 360.997 510.217 361.04C509.747 361.082 509.177 361.104 508.505 361.104C508.473 360.922 508.419 360.714 508.345 360.48C508.281 360.256 508.201 360.032 508.105 359.808C508.019 359.594 507.929 359.408 507.833 359.248C508.121 359.258 508.409 359.269 508.697 359.28C508.985 359.28 509.241 359.28 509.465 359.28C509.699 359.269 509.859 359.264 509.945 359.264C510.094 359.264 510.195 359.237 510.249 359.184C510.313 359.13 510.345 359.034 510.345 358.896V346.736ZM505.001 346.736H506.889V352.544C506.889 353.226 506.846 353.962 506.761 354.752C506.675 355.541 506.515 356.33 506.281 357.12C506.057 357.898 505.721 358.645 505.273 359.36C504.825 360.064 504.233 360.688 503.497 361.232C503.401 361.104 503.262 360.954 503.081 360.784C502.91 360.624 502.729 360.464 502.537 360.304C502.355 360.144 502.19 360.026 502.041 359.952C502.723 359.45 503.262 358.901 503.657 358.304C504.051 357.696 504.345 357.066 504.537 356.416C504.729 355.754 504.851 355.093 504.905 354.432C504.969 353.77 505.001 353.136 505.001 352.528V346.736ZM520.793 354.928H526.249V356.144H520.793V354.928ZM518.681 346.928H528.201V348.288H518.681V346.928ZM519.129 348.896H527.753V350.192H519.129V348.896ZM518.169 350.832H528.713V352.224H518.169V350.832ZM520.793 356.912H526.265V358.176H520.793V356.912ZM519.561 352.816H526.393V354.208H521.337V361.088H519.561V352.816ZM525.705 352.816H527.529V359.2C527.529 359.626 527.475 359.962 527.369 360.208C527.273 360.453 527.081 360.64 526.793 360.768C526.505 360.906 526.153 360.986 525.737 361.008C525.331 361.04 524.851 361.056 524.297 361.056C524.265 360.81 524.195 360.528 524.089 360.208C523.993 359.898 523.891 359.637 523.785 359.424C524.105 359.434 524.425 359.44 524.745 359.44C525.075 359.44 525.294 359.434 525.401 359.424C525.518 359.424 525.598 359.408 525.641 359.376C525.683 359.344 525.705 359.28 525.705 359.184V352.816ZM522.377 346.08H524.281V351.616H522.377V346.08ZM514.457 347.568L515.481 346.16C515.822 346.288 516.174 346.442 516.537 346.624C516.91 346.805 517.262 346.992 517.593 347.184C517.934 347.376 518.206 347.568 518.409 347.76L517.305 349.328C517.113 349.136 516.857 348.933 516.537 348.72C516.217 348.506 515.87 348.298 515.497 348.096C515.134 347.893 514.787 347.717 514.457 347.568ZM513.625 351.936L514.649 350.48C514.99 350.597 515.347 350.741 515.721 350.912C516.094 351.082 516.451 351.264 516.793 351.456C517.134 351.648 517.411 351.834 517.625 352.016L516.521 353.616C516.329 353.434 516.067 353.242 515.737 353.04C515.406 352.826 515.054 352.624 514.681 352.432C514.318 352.24 513.966 352.074 513.625 351.936ZM514.089 359.696C514.355 359.28 514.654 358.794 514.985 358.24C515.315 357.674 515.651 357.077 515.993 356.448C516.334 355.818 516.654 355.189 516.953 354.56L518.409 355.76C518.142 356.325 517.859 356.906 517.561 357.504C517.273 358.101 516.974 358.688 516.665 359.264C516.366 359.829 516.067 360.373 515.769 360.896L514.089 359.696Z" fill="#0069F2"/>
</g>
<g filter="url(#filter17_d_137_512)">
<path d="M513.177 381.68L503.177 371.68L523.177 371.68L513.177 381.68Z" fill="white"/>
</g>
<path d="M289.711 236.962H302.171V238.698H289.711V236.962ZM296.907 237.662C297.187 238.726 297.575 239.72 298.069 240.644C298.564 241.568 299.175 242.375 299.903 243.066C300.641 243.757 301.499 244.303 302.479 244.704C302.339 244.825 302.19 244.979 302.031 245.166C301.882 245.353 301.733 245.544 301.583 245.74C301.443 245.945 301.327 246.127 301.233 246.286C300.16 245.782 299.236 245.133 298.461 244.34C297.696 243.547 297.052 242.623 296.529 241.568C296.007 240.504 295.568 239.333 295.213 238.054L296.907 237.662ZM294.975 233.196H296.809C296.8 233.905 296.777 234.657 296.739 235.45C296.711 236.234 296.641 237.032 296.529 237.844C296.417 238.656 296.235 239.463 295.983 240.266C295.741 241.059 295.395 241.825 294.947 242.562C294.509 243.29 293.939 243.971 293.239 244.606C292.549 245.241 291.704 245.801 290.705 246.286C290.575 246.062 290.393 245.815 290.159 245.544C289.926 245.273 289.688 245.049 289.445 244.872C290.397 244.443 291.195 243.948 291.839 243.388C292.483 242.819 293.006 242.207 293.407 241.554C293.818 240.891 294.131 240.205 294.345 239.496C294.56 238.777 294.705 238.054 294.779 237.326C294.863 236.598 294.915 235.884 294.933 235.184C294.952 234.484 294.966 233.821 294.975 233.196ZM305.335 233.938H316.297V235.548H305.335V233.938ZM304.551 233.938H306.231V239.258C306.231 239.799 306.213 240.387 306.175 241.022C306.138 241.657 306.063 242.296 305.951 242.94C305.849 243.584 305.69 244.2 305.475 244.788C305.27 245.376 304.995 245.903 304.649 246.37C304.556 246.258 304.425 246.132 304.257 245.992C304.089 245.852 303.912 245.717 303.725 245.586C303.548 245.455 303.394 245.357 303.263 245.292C303.562 244.881 303.795 244.429 303.963 243.934C304.141 243.43 304.271 242.912 304.355 242.38C304.439 241.848 304.491 241.316 304.509 240.784C304.537 240.252 304.551 239.743 304.551 239.258V233.938ZM306.805 237.242H316.059V238.824H306.805V237.242ZM310.907 237.956H312.671V244.312C312.671 244.779 312.611 245.138 312.489 245.39C312.368 245.642 312.135 245.833 311.789 245.964C311.463 246.085 311.057 246.16 310.571 246.188C310.095 246.225 309.535 246.239 308.891 246.23C308.854 245.987 308.775 245.703 308.653 245.376C308.541 245.049 308.425 244.765 308.303 244.522C308.593 244.531 308.891 244.541 309.199 244.55C309.507 244.559 309.783 244.564 310.025 244.564C310.268 244.564 310.436 244.564 310.529 244.564C310.669 244.555 310.767 244.531 310.823 244.494C310.879 244.457 310.907 244.382 310.907 244.27V237.956ZM326.297 237.424C326.204 237.032 326.041 236.738 325.807 236.542C325.583 236.346 325.257 236.248 324.827 236.248C324.183 236.248 323.707 236.509 323.399 237.032C323.101 237.545 322.947 238.385 322.937 239.552C323.161 239.179 323.488 238.889 323.917 238.684C324.347 238.469 324.813 238.362 325.317 238.362C325.924 238.362 326.461 238.493 326.927 238.754C327.394 239.015 327.758 239.398 328.019 239.902C328.281 240.397 328.411 240.994 328.411 241.694C328.411 242.357 328.276 242.949 328.005 243.472C327.744 243.985 327.357 244.387 326.843 244.676C326.33 244.965 325.719 245.11 325.009 245.11C324.039 245.11 323.273 244.895 322.713 244.466C322.163 244.037 321.775 243.439 321.551 242.674C321.337 241.899 321.229 240.947 321.229 239.818C321.229 238.11 321.523 236.822 322.111 235.954C322.699 235.077 323.628 234.638 324.897 234.638C325.877 234.638 326.638 234.904 327.179 235.436C327.721 235.968 328.033 236.631 328.117 237.424H326.297ZM324.869 239.972C324.375 239.972 323.959 240.117 323.623 240.406C323.287 240.695 323.119 241.115 323.119 241.666C323.119 242.217 323.273 242.651 323.581 242.968C323.899 243.285 324.342 243.444 324.911 243.444C325.415 243.444 325.812 243.29 326.101 242.982C326.4 242.674 326.549 242.259 326.549 241.736C326.549 241.195 326.405 240.765 326.115 240.448C325.835 240.131 325.42 239.972 324.869 239.972Z" fill="#60B8DC"/>
<path d="M426.886 443.169H439.346V444.905H426.886V443.169ZM434.082 443.869C434.362 444.933 434.75 445.927 435.244 446.851C435.739 447.775 436.35 448.582 437.078 449.273C437.816 449.964 438.674 450.51 439.654 450.911C439.514 451.032 439.365 451.186 439.206 451.373C439.057 451.56 438.908 451.751 438.758 451.947C438.618 452.152 438.502 452.334 438.408 452.493C437.335 451.989 436.411 451.34 435.636 450.547C434.871 449.754 434.227 448.83 433.704 447.775C433.182 446.711 432.743 445.54 432.388 444.261L434.082 443.869ZM432.15 439.403H433.984C433.975 440.112 433.952 440.864 433.914 441.657C433.886 442.441 433.816 443.239 433.704 444.051C433.592 444.863 433.41 445.67 433.158 446.473C432.916 447.266 432.57 448.032 432.122 448.769C431.684 449.497 431.114 450.178 430.414 450.813C429.724 451.448 428.879 452.008 427.88 452.493C427.75 452.269 427.568 452.022 427.334 451.751C427.101 451.48 426.863 451.256 426.62 451.079C427.572 450.65 428.37 450.155 429.014 449.595C429.658 449.026 430.181 448.414 430.582 447.761C430.993 447.098 431.306 446.412 431.52 445.703C431.735 444.984 431.88 444.261 431.954 443.533C432.038 442.805 432.09 442.091 432.108 441.391C432.127 440.691 432.141 440.028 432.15 439.403ZM442.51 440.145H453.472V441.755H442.51V440.145ZM441.726 440.145H443.406V445.465C443.406 446.006 443.388 446.594 443.35 447.229C443.313 447.864 443.238 448.503 443.126 449.147C443.024 449.791 442.865 450.407 442.65 450.995C442.445 451.583 442.17 452.11 441.824 452.577C441.731 452.465 441.6 452.339 441.432 452.199C441.264 452.059 441.087 451.924 440.9 451.793C440.723 451.662 440.569 451.564 440.438 451.499C440.737 451.088 440.97 450.636 441.138 450.141C441.316 449.637 441.446 449.119 441.53 448.587C441.614 448.055 441.666 447.523 441.684 446.991C441.712 446.459 441.726 445.95 441.726 445.465V440.145ZM443.98 443.449H453.234V445.031H443.98V443.449ZM448.082 444.163H449.846V450.519C449.846 450.986 449.786 451.345 449.664 451.597C449.543 451.849 449.31 452.04 448.964 452.171C448.638 452.292 448.232 452.367 447.746 452.395C447.27 452.432 446.71 452.446 446.066 452.437C446.029 452.194 445.95 451.91 445.828 451.583C445.716 451.256 445.6 450.972 445.478 450.729C445.768 450.738 446.066 450.748 446.374 450.757C446.682 450.766 446.958 450.771 447.2 450.771C447.443 450.771 447.611 450.771 447.704 450.771C447.844 450.762 447.942 450.738 447.998 450.701C448.054 450.664 448.082 450.589 448.082 450.477V444.163ZM464.676 442.567L460.952 451.289H458.964L462.716 442.791H457.928V441.111H464.676V442.567Z" fill="#60B8DC"/>
<path d="M265.642 446.083H278.102V447.819H265.642V446.083ZM272.838 446.783C273.118 447.847 273.506 448.841 274 449.765C274.495 450.689 275.106 451.496 275.834 452.187C276.572 452.878 277.43 453.424 278.41 453.825C278.27 453.946 278.121 454.1 277.962 454.287C277.813 454.474 277.664 454.665 277.514 454.861C277.374 455.066 277.258 455.248 277.164 455.407C276.091 454.903 275.167 454.254 274.392 453.461C273.627 452.668 272.983 451.744 272.46 450.689C271.938 449.625 271.499 448.454 271.144 447.175L272.838 446.783ZM270.906 442.317H272.74C272.731 443.026 272.708 443.778 272.67 444.571C272.642 445.355 272.572 446.153 272.46 446.965C272.348 447.777 272.166 448.584 271.914 449.387C271.672 450.18 271.326 450.946 270.878 451.683C270.44 452.411 269.87 453.092 269.17 453.727C268.48 454.362 267.635 454.922 266.636 455.407C266.506 455.183 266.324 454.936 266.09 454.665C265.857 454.394 265.619 454.17 265.376 453.993C266.328 453.564 267.126 453.069 267.77 452.509C268.414 451.94 268.937 451.328 269.338 450.675C269.749 450.012 270.062 449.326 270.276 448.617C270.491 447.898 270.636 447.175 270.71 446.447C270.794 445.719 270.846 445.005 270.864 444.305C270.883 443.605 270.897 442.942 270.906 442.317ZM281.266 443.059H292.228V444.669H281.266V443.059ZM280.482 443.059H282.162V448.379C282.162 448.92 282.144 449.508 282.106 450.143C282.069 450.778 281.994 451.417 281.882 452.061C281.78 452.705 281.621 453.321 281.406 453.909C281.201 454.497 280.926 455.024 280.58 455.491C280.487 455.379 280.356 455.253 280.188 455.113C280.02 454.973 279.843 454.838 279.656 454.707C279.479 454.576 279.325 454.478 279.194 454.413C279.493 454.002 279.726 453.55 279.894 453.055C280.072 452.551 280.202 452.033 280.286 451.501C280.37 450.969 280.422 450.437 280.44 449.905C280.468 449.373 280.482 448.864 280.482 448.379V443.059ZM282.736 446.363H291.99V447.945H282.736V446.363ZM286.838 447.077H288.602V453.433C288.602 453.9 288.542 454.259 288.42 454.511C288.299 454.763 288.066 454.954 287.72 455.085C287.394 455.206 286.988 455.281 286.502 455.309C286.026 455.346 285.466 455.36 284.822 455.351C284.785 455.108 284.706 454.824 284.584 454.497C284.472 454.17 284.356 453.886 284.234 453.643C284.524 453.652 284.822 453.662 285.13 453.671C285.438 453.68 285.714 453.685 285.956 453.685C286.199 453.685 286.367 453.685 286.46 453.685C286.6 453.676 286.698 453.652 286.754 453.615C286.81 453.578 286.838 453.503 286.838 453.391V447.077ZM298.644 448.799C297.711 448.314 297.244 447.562 297.244 446.545C297.244 446.041 297.37 445.584 297.622 445.173C297.884 444.753 298.271 444.422 298.784 444.179C299.307 443.927 299.942 443.801 300.688 443.801C301.435 443.801 302.065 443.927 302.578 444.179C303.101 444.422 303.488 444.753 303.74 445.173C304.002 445.584 304.132 446.041 304.132 446.545C304.132 447.058 304.006 447.511 303.754 447.903C303.502 448.286 303.166 448.584 302.746 448.799C303.26 449.023 303.661 449.35 303.95 449.779C304.24 450.208 304.384 450.717 304.384 451.305C304.384 451.94 304.221 452.495 303.894 452.971C303.577 453.438 303.138 453.797 302.578 454.049C302.018 454.301 301.388 454.427 300.688 454.427C299.988 454.427 299.358 454.301 298.798 454.049C298.248 453.797 297.809 453.438 297.482 452.971C297.165 452.495 297.006 451.94 297.006 451.305C297.006 450.717 297.151 450.208 297.44 449.779C297.73 449.34 298.131 449.014 298.644 448.799ZM302.228 446.825C302.228 446.368 302.088 446.013 301.808 445.761C301.538 445.509 301.164 445.383 300.688 445.383C300.222 445.383 299.848 445.509 299.568 445.761C299.298 446.013 299.162 446.372 299.162 446.839C299.162 447.259 299.302 447.595 299.582 447.847C299.872 448.099 300.24 448.225 300.688 448.225C301.136 448.225 301.505 448.099 301.794 447.847C302.084 447.586 302.228 447.245 302.228 446.825ZM300.688 449.653C300.156 449.653 299.722 449.788 299.386 450.059C299.06 450.33 298.896 450.717 298.896 451.221C298.896 451.688 299.055 452.07 299.372 452.369C299.699 452.658 300.138 452.803 300.688 452.803C301.239 452.803 301.673 452.654 301.99 452.355C302.308 452.056 302.466 451.678 302.466 451.221C302.466 450.726 302.303 450.344 301.976 450.073C301.65 449.793 301.22 449.653 300.688 449.653Z" fill="#60B8DC"/>
<g filter="url(#filter18_d_137_512)">
<path d="M264.512 500.371C264.512 498.162 266.303 496.371 268.512 496.371H292.512C294.721 496.371 296.512 498.162 296.512 500.371V528.371C296.512 530.58 294.721 532.371 292.512 532.371H268.512C266.303 532.371 264.512 530.58 264.512 528.371V500.371Z" fill="white"/>
<path d="M273.328 513.139H287.68V514.979H273.328V513.139ZM279.472 510.819H281.456V521.811H279.472V510.819ZM278.72 513.971L280.432 514.595C279.962 515.512 279.408 516.392 278.768 517.235C278.128 518.078 277.424 518.846 276.656 519.539C275.898 520.222 275.109 520.803 274.288 521.283C274.181 521.123 274.042 520.942 273.872 520.739C273.712 520.536 273.546 520.339 273.376 520.147C273.205 519.944 273.04 519.784 272.88 519.667C273.477 519.368 274.058 519.011 274.624 518.595C275.2 518.179 275.738 517.726 276.24 517.235C276.752 516.734 277.216 516.206 277.632 515.651C278.058 515.096 278.421 514.536 278.72 513.971ZM282.08 514.147C282.4 514.659 282.778 515.171 283.216 515.683C283.664 516.195 284.154 516.686 284.688 517.155C285.221 517.624 285.781 518.056 286.368 518.451C286.954 518.835 287.541 519.16 288.128 519.427C287.978 519.555 287.808 519.72 287.616 519.923C287.434 520.126 287.258 520.334 287.088 520.547C286.928 520.771 286.789 520.968 286.672 521.139C286.085 520.798 285.498 520.398 284.912 519.939C284.336 519.48 283.776 518.974 283.232 518.419C282.698 517.864 282.197 517.283 281.728 516.675C281.269 516.056 280.853 515.427 280.48 514.787L282.08 514.147ZM279.44 506.787H281.488V509.699H279.44V506.787ZM273.552 508.419H287.44V512.227H285.392V510.227H275.504V512.227H273.552V508.419Z" fill="#0069F2"/>
</g>
<g filter="url(#filter19_d_137_512)">
<path d="M280.512 542.371L270.512 532.371L290.512 532.371L280.512 542.371Z" fill="white"/>
</g>
<g filter="url(#filter20_d_137_512)">
<path d="M341.106 429.656C341.106 427.447 342.897 425.656 345.106 425.656H369.106C371.315 425.656 373.106 427.447 373.106 429.656V453.656C373.106 455.865 371.315 457.656 369.106 457.656H345.106C342.897 457.656 341.106 455.865 341.106 453.656V429.656Z" fill="#0167EE"/>
<path d="M361.946 441.287C362.346 441.292 362.744 441.217 363.115 441.066C363.486 440.915 363.823 440.691 364.106 440.407L366.936 437.577C367.122 437.39 367.226 437.136 367.226 436.872C367.226 436.608 367.122 436.355 366.936 436.167C366.843 436.073 366.732 435.999 366.61 435.948C366.488 435.897 366.358 435.871 366.226 435.871C366.094 435.871 365.963 435.897 365.841 435.948C365.719 435.999 365.609 436.073 365.516 436.167L362.656 438.987C362.563 439.081 362.452 439.155 362.33 439.206C362.208 439.257 362.078 439.283 361.946 439.283C361.814 439.283 361.683 439.257 361.561 439.206C361.439 439.155 361.329 439.081 361.236 438.987L364.776 435.457C364.869 435.364 364.943 435.253 364.993 435.131C365.044 435.01 365.07 434.879 365.07 434.747C365.07 434.615 365.044 434.485 364.993 434.363C364.943 434.241 364.869 434.13 364.776 434.037C364.682 433.944 364.572 433.87 364.45 433.819C364.328 433.769 364.198 433.743 364.066 433.743C363.934 433.743 363.803 433.769 363.681 433.819C363.56 433.87 363.449 433.944 363.356 434.037L359.826 437.577C359.639 437.39 359.535 437.136 359.535 436.872C359.535 436.608 359.639 436.355 359.826 436.167L362.656 433.337C362.749 433.244 362.823 433.133 362.873 433.011C362.924 432.89 362.95 432.759 362.95 432.627C362.95 432.495 362.924 432.365 362.873 432.243C362.823 432.121 362.749 432.01 362.656 431.917C362.562 431.824 362.452 431.75 362.33 431.699C362.208 431.649 362.078 431.623 361.946 431.623C361.814 431.623 361.683 431.649 361.561 431.699C361.44 431.75 361.329 431.824 361.236 431.917L358.406 434.747C357.844 435.31 357.528 436.072 357.528 436.867C357.528 437.662 357.844 438.425 358.406 438.987L357.106 440.277L348.836 431.977L348.736 431.917C348.685 431.873 348.627 431.835 348.566 431.807L348.386 431.737L348.266 431.657H348.196H347.996C347.936 431.648 347.875 431.648 347.816 431.657C347.755 431.679 347.698 431.709 347.646 431.747L347.486 431.847H347.416L347.356 431.947C347.313 432 347.277 432.057 347.246 432.117C347.216 432.178 347.193 432.242 347.176 432.307C347.176 432.307 347.176 432.377 347.176 432.417C346.933 434.109 347.088 435.833 347.628 437.454C348.167 439.076 349.077 440.549 350.286 441.757L352.926 444.387L347.516 449.787C347.422 449.88 347.348 449.991 347.297 450.113C347.246 450.234 347.22 450.365 347.22 450.497C347.22 450.629 347.246 450.76 347.297 450.882C347.348 451.004 347.422 451.114 347.516 451.207C347.609 451.3 347.72 451.373 347.842 451.423C347.964 451.473 348.094 451.498 348.226 451.497C348.357 451.498 348.488 451.473 348.61 451.423C348.731 451.373 348.842 451.3 348.936 451.207L355.006 445.227L357.836 442.397L359.836 440.397C360.394 440.961 361.152 441.281 361.946 441.287ZM354.296 443.107L351.666 440.467C350.224 439.006 349.322 437.098 349.106 435.057L355.716 441.657L354.296 443.107ZM360.536 443.677C360.347 443.488 360.091 443.38 359.824 443.38C359.557 443.379 359.3 443.484 359.111 443.672C358.921 443.86 358.814 444.116 358.813 444.384C358.812 444.651 358.917 444.908 359.106 445.097L365.406 451.397C365.597 451.571 365.848 451.664 366.106 451.657C366.237 451.658 366.368 451.633 366.49 451.583C366.611 451.533 366.722 451.46 366.816 451.367C366.909 451.274 366.984 451.164 367.035 451.042C367.085 450.92 367.111 450.789 367.111 450.657C367.111 450.525 367.085 450.394 367.035 450.273C366.984 450.151 366.909 450.04 366.816 449.947L360.536 443.677Z" fill="white"/>
</g>
<g filter="url(#filter21_d_137_512)">
<path d="M357.106 467.656L349.106 457.656L365.106 457.656L357.106 467.656Z" fill="#0167EE"/>
</g>
<g filter="url(#filter22_d_137_512)">
<path d="M203.994 525.512C203.994 523.303 205.785 521.512 207.994 521.512H231.994C234.203 521.512 235.994 523.303 235.994 525.512V549.512C235.994 551.721 234.203 553.512 231.994 553.512H207.994C205.785 553.512 203.994 551.721 203.994 549.512V525.512Z" fill="#0167EE"/>
<path d="M226.994 532.512H223.994V531.512C223.994 530.451 223.572 529.433 222.822 528.683C222.072 527.933 221.055 527.512 219.994 527.512C218.933 527.512 217.916 527.933 217.165 528.683C216.415 529.433 215.994 530.451 215.994 531.512V532.512H212.994C212.729 532.512 212.474 532.617 212.287 532.805C212.099 532.992 211.994 533.247 211.994 533.512V544.512C211.994 545.307 212.31 546.07 212.873 546.633C213.435 547.196 214.198 547.512 214.994 547.512H224.994C225.79 547.512 226.553 547.196 227.115 546.633C227.678 546.07 227.994 545.307 227.994 544.512V533.512C227.994 533.247 227.889 532.992 227.701 532.805C227.513 532.617 227.259 532.512 226.994 532.512ZM217.994 531.512C217.994 530.981 218.205 530.473 218.58 530.098C218.955 529.722 219.463 529.512 219.994 529.512C220.524 529.512 221.033 529.722 221.408 530.098C221.783 530.473 221.994 530.981 221.994 531.512V532.512H217.994V531.512ZM225.994 544.512C225.994 544.777 225.889 545.031 225.701 545.219C225.513 545.406 225.259 545.512 224.994 545.512H214.994C214.729 545.512 214.474 545.406 214.287 545.219C214.099 545.031 213.994 544.777 213.994 544.512V534.512H215.994V535.512C215.994 535.777 216.099 536.031 216.287 536.219C216.474 536.406 216.729 536.512 216.994 536.512C217.259 536.512 217.513 536.406 217.701 536.219C217.889 536.031 217.994 535.777 217.994 535.512V534.512H221.994V535.512C221.994 535.777 222.099 536.031 222.287 536.219C222.474 536.406 222.729 536.512 222.994 536.512C223.259 536.512 223.513 536.406 223.701 536.219C223.889 536.031 223.994 535.777 223.994 535.512V534.512H225.994V544.512Z" fill="white"/>
</g>
<g filter="url(#filter23_d_137_512)">
<path d="M219.994 563.512L211.994 553.512L227.994 553.512L219.994 563.512Z" fill="#0167EE"/>
</g>
<g filter="url(#filter24_d_137_512)">
<path d="M533.105 502.758C533.105 500.549 534.896 498.758 537.105 498.758H561.105C563.315 498.758 565.105 500.549 565.105 502.758V526.758C565.105 528.967 563.315 530.758 561.105 530.758H537.105C534.896 530.758 533.105 528.967 533.105 526.758V502.758Z" fill="#0167EE"/>
<path d="M556.105 509.758H553.105V508.758C553.105 507.697 552.684 506.68 551.934 505.929C551.184 505.179 550.166 504.758 549.105 504.758C548.045 504.758 547.027 505.179 546.277 505.929C545.527 506.68 545.105 507.697 545.105 508.758V509.758H542.105C541.84 509.758 541.586 509.863 541.398 510.051C541.211 510.238 541.105 510.493 541.105 510.758V521.758C541.105 522.553 541.422 523.317 541.984 523.879C542.547 524.442 543.31 524.758 544.105 524.758H554.105C554.901 524.758 555.664 524.442 556.227 523.879C556.789 523.317 557.105 522.553 557.105 521.758V510.758C557.105 510.493 557 510.238 556.813 510.051C556.625 509.863 556.371 509.758 556.105 509.758ZM547.105 508.758C547.105 508.227 547.316 507.719 547.691 507.344C548.066 506.969 548.575 506.758 549.105 506.758C549.636 506.758 550.145 506.969 550.52 507.344C550.895 507.719 551.105 508.227 551.105 508.758V509.758H547.105V508.758ZM555.105 521.758C555.105 522.023 555 522.277 554.813 522.465C554.625 522.652 554.371 522.758 554.105 522.758H544.105C543.84 522.758 543.586 522.652 543.398 522.465C543.211 522.277 543.105 522.023 543.105 521.758V511.758H545.105V512.758C545.105 513.023 545.211 513.277 545.398 513.465C545.586 513.652 545.84 513.758 546.105 513.758C546.371 513.758 546.625 513.652 546.813 513.465C547 513.277 547.105 513.023 547.105 512.758V511.758H551.105V512.758C551.105 513.023 551.211 513.277 551.398 513.465C551.586 513.652 551.84 513.758 552.105 513.758C552.371 513.758 552.625 513.652 552.813 513.465C553 513.277 553.105 513.023 553.105 512.758V511.758H555.105V521.758Z" fill="white"/>
</g>
<g filter="url(#filter25_d_137_512)">
<path d="M549.105 540.758L541.105 530.758L557.105 530.758L549.105 540.758Z" fill="#0167EE"/>
</g>
<g filter="url(#filter26_d_137_512)">
<path d="M319.466 367.598C319.466 365.389 321.257 363.598 323.466 363.598H347.466C349.675 363.598 351.466 365.389 351.466 367.598V391.598C351.466 393.807 349.675 395.598 347.466 395.598H323.466C321.257 395.598 319.466 393.807 319.466 391.598V367.598Z" fill="#0167EE"/>
<path d="M342.466 374.598H339.466V373.598C339.466 372.537 339.045 371.519 338.295 370.769C337.545 370.019 336.527 369.598 335.466 369.598C334.405 369.598 333.388 370.019 332.638 370.769C331.888 371.519 331.466 372.537 331.466 373.598V374.598H328.466C328.201 374.598 327.947 374.703 327.759 374.891C327.572 375.078 327.466 375.332 327.466 375.598V386.598C327.466 387.393 327.782 388.156 328.345 388.719C328.908 389.282 329.671 389.598 330.466 389.598H340.466C341.262 389.598 342.025 389.282 342.588 388.719C343.15 388.156 343.466 387.393 343.466 386.598V375.598C343.466 375.332 343.361 375.078 343.173 374.891C342.986 374.703 342.732 374.598 342.466 374.598ZM333.466 373.598C333.466 373.067 333.677 372.559 334.052 372.183C334.427 371.808 334.936 371.598 335.466 371.598C335.997 371.598 336.505 371.808 336.881 372.183C337.256 372.559 337.466 373.067 337.466 373.598V374.598H333.466V373.598ZM341.466 386.598C341.466 386.863 341.361 387.117 341.173 387.305C340.986 387.492 340.732 387.598 340.466 387.598H330.466C330.201 387.598 329.947 387.492 329.759 387.305C329.572 387.117 329.466 386.863 329.466 386.598V376.598H331.466V377.598C331.466 377.863 331.572 378.117 331.759 378.305C331.947 378.492 332.201 378.598 332.466 378.598C332.732 378.598 332.986 378.492 333.173 378.305C333.361 378.117 333.466 377.863 333.466 377.598V376.598H337.466V377.598C337.466 377.863 337.572 378.117 337.759 378.305C337.947 378.492 338.201 378.598 338.466 378.598C338.732 378.598 338.986 378.492 339.173 378.305C339.361 378.117 339.466 377.863 339.466 377.598V376.598H341.466V386.598Z" fill="white"/>
</g>
<g filter="url(#filter27_d_137_512)">
<path d="M335.466 405.598L327.466 395.598L343.466 395.598L335.466 405.598Z" fill="#0167EE"/>
</g>
<path d="M537.818 287.174C537.617 287.697 537.868 288.279 538.377 288.473L546.668 291.647C547.177 291.842 547.752 291.576 547.952 291.053C548.152 290.531 547.902 289.949 547.393 289.754L540.022 286.933L542.92 279.362C543.12 278.84 542.87 278.258 542.361 278.063C541.852 277.868 541.278 278.134 541.078 278.657L537.818 287.174ZM575.473 270.535L575.077 269.617L538.344 286.608L538.739 287.527L539.134 288.445L575.868 271.454L575.473 270.535Z" fill="#0069F2"/>
<path d="M521.675 587.502C521.14 587.407 520.627 587.777 520.528 588.33L518.921 597.339C518.822 597.892 519.175 598.417 519.71 598.513C520.244 598.608 520.757 598.237 520.856 597.684L522.285 589.677L530.026 591.058C530.561 591.153 531.074 590.783 531.173 590.23C531.271 589.677 530.918 589.152 530.384 589.056L521.675 587.502ZM544.496 622.715L545.307 622.129L522.307 587.917L521.496 588.503L520.686 589.089L543.686 623.301L544.496 622.715Z" fill="#0069F2"/>
<path d="M336.284 591.881C335.75 591.786 335.237 592.156 335.138 592.709L333.53 601.718C333.432 602.271 333.785 602.796 334.319 602.891C334.854 602.987 335.367 602.616 335.466 602.063L336.895 594.055L344.636 595.437C345.17 595.532 345.684 595.162 345.782 594.609C345.881 594.056 345.528 593.53 344.993 593.435L336.284 591.881ZM359.106 627.094L359.916 626.508L336.916 592.296L336.106 592.882L335.295 593.468L358.295 627.679L359.106 627.094Z" fill="#0069F2"/>
<path d="M311.859 425.126C312.242 424.728 312.23 424.095 311.832 423.712L305.35 417.478C304.952 417.096 304.319 417.109 303.936 417.507C303.553 417.905 303.565 418.538 303.962 418.921L309.725 424.462L304.176 430.233C303.793 430.631 303.804 431.264 304.202 431.647C304.6 432.029 305.233 432.016 305.616 431.618L311.859 425.126ZM295.91 424.742L295.929 425.742L311.157 425.433L311.139 424.434L311.12 423.434L295.891 423.742L295.91 424.742Z" fill="#0069F2"/>
<path d="M517.821 507C518.212 506.61 518.212 505.976 517.821 505.586L511.457 499.222C511.067 498.831 510.434 498.831 510.043 499.222C509.653 499.612 509.653 500.246 510.043 500.636L515.7 506.293L510.043 511.95C509.653 512.34 509.653 512.974 510.043 513.364C510.434 513.755 511.067 513.755 511.457 513.364L517.821 507ZM501.883 506.293V507.293H517.114V506.293V505.293H501.883V506.293Z" fill="#0069F2"/>
<path d="M467.087 491.189C467.611 491.334 468.157 491.013 468.307 490.473L470.745 481.666C470.894 481.125 470.591 480.57 470.067 480.425C469.543 480.28 468.997 480.6 468.847 481.141L466.68 488.969L459.09 486.868C458.566 486.723 458.02 487.043 457.87 487.584C457.721 488.124 458.024 488.68 458.548 488.825L467.087 491.189ZM459.853 476.469L458.991 476.975L466.495 490.716L467.358 490.21L468.22 489.704L460.716 475.963L459.853 476.469Z" fill="#0069F2"/>
<path d="M495.163 425.59C495.554 425.199 495.554 424.566 495.163 424.176L488.799 417.812C488.409 417.421 487.775 417.421 487.385 417.812C486.994 418.202 486.994 418.835 487.385 419.226L493.042 424.883L487.385 430.54C486.994 430.93 486.994 431.563 487.385 431.954C487.775 432.344 488.409 432.344 488.799 431.954L495.163 425.59ZM479.224 424.883V425.883H494.456V424.883V423.883H479.224V424.883Z" fill="#0069F2"/>
<path d="M390.398 424.035C390.008 424.426 390.008 425.059 390.398 425.449L396.762 431.813C397.153 432.204 397.786 432.204 398.176 431.813C398.567 431.423 398.567 430.79 398.176 430.399L392.52 424.742L398.176 419.085C398.567 418.695 398.567 418.062 398.176 417.671C397.786 417.281 397.153 417.281 396.762 417.671L390.398 424.035ZM406.337 424.742L406.337 423.742L391.105 423.742L391.105 424.742L391.105 425.742L406.337 425.742L406.337 424.742Z" fill="#0069F2"/>
<path d="M560.689 135.542H573.489V137.446H560.689V135.542ZM559.841 142.326H574.417V144.262H559.841V142.326ZM561.649 138.486L563.409 137.958C563.591 138.31 563.767 138.684 563.937 139.078C564.119 139.462 564.273 139.846 564.401 140.23C564.54 140.604 564.641 140.94 564.705 141.238L562.833 141.83C562.78 141.532 562.695 141.196 562.577 140.822C562.46 140.438 562.321 140.044 562.161 139.638C562.001 139.222 561.831 138.838 561.649 138.486ZM570.769 137.91L572.833 138.438C572.641 138.854 572.439 139.265 572.225 139.67C572.023 140.076 571.82 140.465 571.617 140.838C571.425 141.201 571.239 141.521 571.057 141.798L569.377 141.302C569.548 140.993 569.719 140.641 569.889 140.246C570.071 139.852 570.236 139.452 570.385 139.046C570.545 138.641 570.673 138.262 570.769 137.91ZM566.097 136.342H568.097V149.574H566.097V136.342ZM580.865 141.606H584.993V143.11H580.865V141.606ZM580.865 144.31H585.009V145.814H580.865V144.31ZM577.777 146.998H588.577V148.774H577.777V146.998ZM576.561 138.726H589.633V149.59H587.681V140.486H578.417V149.59H576.561V138.726ZM580.049 139.894H581.761V147.798H580.049V139.894ZM584.225 139.894H585.953V147.782H584.225V139.894ZM581.873 136.31L584.129 136.79C583.937 137.377 583.751 137.964 583.569 138.55C583.399 139.126 583.233 139.622 583.073 140.038L581.329 139.574C581.404 139.265 581.479 138.924 581.553 138.55C581.628 138.166 581.692 137.782 581.745 137.398C581.809 137.004 581.852 136.641 581.873 136.31ZM575.905 135.478H590.369V137.286H575.905V135.478ZM592.257 135.174H605.985V149.59H604.049V136.886H594.097V149.59H592.257V135.174ZM593.393 147.334H605.089V149.014H593.393V147.334ZM596.833 143.878L597.601 142.79C598.049 142.876 598.519 142.988 599.009 143.126C599.511 143.254 599.985 143.393 600.433 143.542C600.892 143.692 601.281 143.841 601.601 143.99L600.817 145.174C600.508 145.025 600.124 144.87 599.665 144.71C599.207 144.54 598.732 144.38 598.241 144.23C597.751 144.081 597.281 143.964 596.833 143.878ZM597.601 136.838L599.169 137.382C598.86 137.852 598.497 138.316 598.081 138.774C597.665 139.222 597.228 139.644 596.769 140.038C596.311 140.433 595.863 140.78 595.425 141.078C595.34 140.961 595.217 140.833 595.057 140.694C594.908 140.556 594.753 140.417 594.593 140.278C594.433 140.129 594.289 140.012 594.161 139.926C594.823 139.553 595.463 139.094 596.081 138.55C596.711 137.996 597.217 137.425 597.601 136.838ZM601.841 138.118H602.145L602.417 138.038L603.489 138.678C603.073 139.329 602.54 139.932 601.889 140.486C601.249 141.03 600.54 141.521 599.761 141.958C598.983 142.385 598.167 142.758 597.313 143.078C596.471 143.398 595.628 143.66 594.785 143.862C594.732 143.713 594.652 143.542 594.545 143.35C594.449 143.148 594.343 142.956 594.225 142.774C594.119 142.582 594.012 142.428 593.905 142.31C594.705 142.161 595.505 141.958 596.305 141.702C597.116 141.446 597.879 141.148 598.593 140.806C599.319 140.465 599.959 140.086 600.513 139.67C601.079 139.254 601.521 138.812 601.841 138.342V138.118ZM597.297 139.222C597.767 139.702 598.369 140.14 599.105 140.534C599.841 140.929 600.652 141.27 601.537 141.558C602.433 141.846 603.34 142.07 604.257 142.23C604.087 142.401 603.895 142.63 603.681 142.918C603.479 143.196 603.319 143.441 603.201 143.654C602.263 143.452 601.34 143.169 600.433 142.806C599.527 142.444 598.684 142.012 597.905 141.51C597.127 141.009 596.46 140.46 595.905 139.862L597.297 139.222ZM597.665 138.118H602.385V139.526H596.689L597.665 138.118ZM595.361 145.926L596.225 144.678C596.769 144.732 597.335 144.812 597.921 144.918C598.519 145.014 599.111 145.126 599.697 145.254C600.284 145.372 600.839 145.5 601.361 145.638C601.884 145.777 602.353 145.91 602.769 146.038L601.921 147.398C601.399 147.206 600.764 147.014 600.017 146.822C599.281 146.62 598.508 146.444 597.697 146.294C596.887 146.134 596.108 146.012 595.361 145.926Z" fill="#0069F2"/>
<rect x="564.605" y="75.5938" width="38" height="40.5424" rx="19" fill="white"/>
<rect x="564.605" y="75.5938" width="38" height="40.5424" rx="19" stroke="#0069F2" stroke-width="3"/>
<path d="M572.545 100.025V97.8252L579.085 88.4652H582.345V97.5852H584.105V100.025H582.345V102.865H579.545V100.025H572.545ZM579.725 91.4652L575.625 97.5852H579.725V91.4652ZM594.828 88.9052V91.1652H589.008V94.7452H593.468V96.9652H589.008V102.865H586.208V88.9052H594.828Z" fill="#0069F2"/>
<g filter="url(#filter28_d_137_512)">
<rect x="187.987" y="268.328" width="40" height="40" rx="10" fill="#0069F2"/>
<path d="M214.987 287.328H208.987V281.328C208.987 281.063 208.882 280.809 208.694 280.621C208.507 280.433 208.252 280.328 207.987 280.328C207.722 280.328 207.467 280.433 207.28 280.621C207.092 280.809 206.987 281.063 206.987 281.328V287.328H200.987C200.722 287.328 200.467 287.433 200.28 287.621C200.092 287.809 199.987 288.063 199.987 288.328C199.987 288.593 200.092 288.848 200.28 289.035C200.467 289.223 200.722 289.328 200.987 289.328H206.987V295.328C206.987 295.593 207.092 295.848 207.28 296.035C207.467 296.223 207.722 296.328 207.987 296.328C208.252 296.328 208.507 296.223 208.694 296.035C208.882 295.848 208.987 295.593 208.987 295.328V289.328H214.987C215.252 289.328 215.507 289.223 215.694 289.035C215.882 288.848 215.987 288.593 215.987 288.328C215.987 288.063 215.882 287.809 215.694 287.621C215.507 287.433 215.252 287.328 214.987 287.328Z" fill="white"/>
</g>
<g filter="url(#filter29_d_137_512)">
<path d="M207.987 316.328L199.987 308.328L215.987 308.328L207.987 316.328Z" fill="#0069F2"/>
</g>
<g filter="url(#filter30_d_137_512)">
<path d="M488.739 270.109C488.739 267.9 490.53 266.109 492.739 266.109H516.739C518.948 266.109 520.739 267.9 520.739 270.109V294.109C520.739 296.319 518.948 298.109 516.739 298.109H492.739C490.53 298.109 488.739 296.319 488.739 294.109V270.109Z" fill="#0167EE"/>
<path d="M499.739 272.109L503.739 276.109H500.739V280.109H498.739V276.109H495.739L499.739 272.109ZM509.739 280.109L505.739 276.109H508.739V272.109H510.739V276.109H513.739L509.739 280.109ZM499.739 282.109H509.739C510.269 282.109 510.778 282.32 511.153 282.695C511.528 283.07 511.739 283.579 511.739 284.109V290.109C511.739 290.64 511.528 291.149 511.153 291.524C510.778 291.899 510.269 292.109 509.739 292.109H499.739C499.209 292.109 498.7 291.899 498.325 291.524C497.95 291.149 497.739 290.64 497.739 290.109V284.109C497.739 283.579 497.95 283.07 498.325 282.695C498.7 282.32 499.209 282.109 499.739 282.109ZM499.739 284.109V290.109H509.739V284.109H499.739Z" fill="white"/>
</g>
<g filter="url(#filter31_d_137_512)">
<path d="M504.739 306.109L496.739 298.109L512.739 298.109L504.739 306.109Z" fill="#0167EE"/>
</g>
<g filter="url(#filter32_d_137_512)">
<path d="M432.006 239.469C432.006 237.26 433.797 235.469 436.006 235.469H460.006C462.215 235.469 464.006 237.26 464.006 239.469V263.469C464.006 265.678 462.215 267.469 460.006 267.469H436.006C433.797 267.469 432.006 265.678 432.006 263.469V239.469Z" fill="#0167EE"/>
<path d="M444.006 243.369H442.206C442.047 243.369 441.894 243.432 441.782 243.544C441.669 243.657 441.606 243.81 441.606 243.969V249.969C441.606 250.128 441.669 250.28 441.782 250.393C441.894 250.506 442.047 250.569 442.206 250.569C442.365 250.569 442.518 250.506 442.63 250.393C442.743 250.28 442.806 250.128 442.806 249.969V248.169H444.006C444.642 248.169 445.253 247.916 445.703 247.466C446.153 247.016 446.406 246.405 446.406 245.769C446.406 245.132 446.153 244.522 445.703 244.072C445.253 243.622 444.642 243.369 444.006 243.369ZM444.006 246.969H442.806V244.569H444.006C444.324 244.569 444.629 244.695 444.854 244.92C445.079 245.145 445.206 245.45 445.206 245.769C445.206 246.087 445.079 246.392 444.854 246.617C444.629 246.842 444.324 246.969 444.006 246.969ZM448.206 240.969H439.806C439.328 240.969 438.871 241.158 438.533 241.496C438.196 241.834 438.006 242.291 438.006 242.769V251.169C438.006 251.646 438.196 252.104 438.533 252.442C438.871 252.779 439.328 252.969 439.806 252.969H448.206C448.683 252.969 449.141 252.779 449.479 252.442C449.816 252.104 450.006 251.646 450.006 251.169V242.769C450.006 242.291 449.816 241.834 449.479 241.496C449.141 241.158 448.683 240.969 448.206 240.969ZM448.806 251.169C448.806 251.328 448.743 251.48 448.63 251.593C448.518 251.706 448.365 251.769 448.206 251.769H439.806C439.647 251.769 439.494 251.706 439.382 251.593C439.269 251.48 439.206 251.328 439.206 251.169V242.769C439.206 242.61 439.269 242.457 439.382 242.344C439.494 242.232 439.647 242.169 439.806 242.169H448.206C448.365 242.169 448.518 242.232 448.63 242.344C448.743 242.457 448.806 242.61 448.806 242.769V251.169Z" fill="white"/>
<path d="M455.085 257.811L455.887 258.922C455.279 260.135 454.058 260.969 452.653 260.969C450.641 260.969 449.006 259.27 449.006 257.179C449.006 255.645 449.893 254.337 451.164 253.737L451.292 255.108C450.653 255.562 450.222 256.314 450.222 257.179C450.222 258.575 451.31 259.706 452.653 259.706C453.784 259.706 454.726 258.897 455 257.811H455.085ZM458.459 257.88L457.699 258.272L455.997 255.916H453.206L453.085 254.653H455.085V253.39H452.957L452.775 251.495C453.389 251.419 453.869 250.889 453.869 250.232C453.869 249.537 453.328 248.969 452.653 248.969C451.979 248.969 451.437 249.537 451.437 250.232C451.437 250.251 451.437 250.276 451.437 250.295L452.106 257.179H455.389L457.334 259.876L459.006 259.011L458.459 257.88Z" fill="white"/>
</g>
<g filter="url(#filter33_d_137_512)">
<path d="M448.006 275.469L440.006 267.469L456.006 267.469L448.006 275.469Z" fill="#0167EE"/>
</g>
<defs>
<filter id="filter0_d_137_512" x="0" y="0.75" width="715.424" height="718.725" filterUnits="userSpaceOnUse" color-interpolation-filters="sRGB">
<feFlood flood-opacity="0" result="BackgroundImageFix"/>
<feColorMatrix in="SourceAlpha" type="matrix" values="0 0 0 0 0 0 0 0 0 0 0 0 0 0 0 0 0 0 127 0" result="hardAlpha"/>
<feOffset dx="10" dy="14"/>
<feGaussianBlur stdDeviation="28"/>
<feComposite in2="hardAlpha" operator="out"/>
<feColorMatrix type="matrix" values="0 0 0 0 0 0 0 0 0 0 0 0 0 0 0 0 0 0 0.12 0"/>
<feBlend mode="normal" in2="BackgroundImageFix" result="effect1_dropShadow_137_512"/>
<feBlend mode="normal" in="SourceGraphic" in2="effect1_dropShadow_137_512" result="shape"/>
</filter>
<filter id="filter1_d_137_512" x="227.829" y="228.141" width="247.592" height="336.84" filterUnits="userSpaceOnUse" color-interpolation-filters="sRGB">
<feFlood flood-opacity="0" result="BackgroundImageFix"/>
<feColorMatrix in="SourceAlpha" type="matrix" values="0 0 0 0 0 0 0 0 0 0 0 0 0 0 0 0 0 0 127 0" result="hardAlpha"/>
<feOffset dx="10" dy="14"/>
<feGaussianBlur stdDeviation="28"/>
<feComposite in2="hardAlpha" operator="out"/>
<feColorMatrix type="matrix" values="0 0 0 0 0.764706 0 0 0 0 0.890196 0 0 0 0 0.937255 0 0 0 0.4 0"/>
<feBlend mode="normal" in2="BackgroundImageFix" result="effect1_dropShadow_137_512"/>
<feBlend mode="normal" in="SourceGraphic" in2="effect1_dropShadow_137_512" result="shape"/>
</filter>
<filter id="filter2_d_137_512" x="302.672" y="221.762" width="158.743" height="154.99" filterUnits="userSpaceOnUse" color-interpolation-filters="sRGB">
<feFlood flood-opacity="0" result="BackgroundImageFix"/>
<feColorMatrix in="SourceAlpha" type="matrix" values="0 0 0 0 0 0 0 0 0 0 0 0 0 0 0 0 0 0 127 0" result="hardAlpha"/>
<feOffset dx="10" dy="14"/>
<feGaussianBlur stdDeviation="28"/>
<feComposite in2="hardAlpha" operator="out"/>
<feColorMatrix type="matrix" values="0 0 0 0 0.764706 0 0 0 0 0.890196 0 0 0 0 0.937255 0 0 0 0.4 0"/>
<feBlend mode="normal" in2="BackgroundImageFix" result="effect1_dropShadow_137_512"/>
<feBlend mode="normal" in="SourceGraphic" in2="effect1_dropShadow_137_512" result="shape"/>
</filter>
<filter id="filter3_d_137_512" x="373.554" y="246.342" width="275.402" height="389.484" filterUnits="userSpaceOnUse" color-interpolation-filters="sRGB">
<feFlood flood-opacity="0" result="BackgroundImageFix"/>
<feColorMatrix in="SourceAlpha" type="matrix" values="0 0 0 0 0 0 0 0 0 0 0 0 0 0 0 0 0 0 127 0" result="hardAlpha"/>
<feOffset dx="10" dy="14"/>
<feGaussianBlur stdDeviation="28"/>
<feComposite in2="hardAlpha" operator="out"/>
<feColorMatrix type="matrix" values="0 0 0 0 0.764706 0 0 0 0 0.890196 0 0 0 0 0.937255 0 0 0 0.4 0"/>
<feBlend mode="normal" in2="BackgroundImageFix" result="effect1_dropShadow_137_512"/>
<feBlend mode="normal" in="SourceGraphic" in2="effect1_dropShadow_137_512" result="shape"/>
</filter>
<filter id="filter4_d_137_512" x="287.169" y="467.566" width="291.448" height="175.988" filterUnits="userSpaceOnUse" color-interpolation-filters="sRGB">
<feFlood flood-opacity="0" result="BackgroundImageFix"/>
<feColorMatrix in="SourceAlpha" type="matrix" values="0 0 0 0 0 0 0 0 0 0 0 0 0 0 0 0 0 0 127 0" result="hardAlpha"/>
<feOffset dx="10" dy="14"/>
<feGaussianBlur stdDeviation="28"/>
<feComposite in2="hardAlpha" operator="out"/>
<feColorMatrix type="matrix" values="0 0 0 0 0.764706 0 0 0 0 0.890196 0 0 0 0 0.937255 0 0 0 0.4 0"/>
<feBlend mode="normal" in2="BackgroundImageFix" result="effect1_dropShadow_137_512"/>
<feBlend mode="normal" in="SourceGraphic" in2="effect1_dropShadow_137_512" result="shape"/>
</filter>
<filter id="filter5_d_137_512" x="130.483" y="476.463" width="267.021" height="173.68" filterUnits="userSpaceOnUse" color-interpolation-filters="sRGB">
<feFlood flood-opacity="0" result="BackgroundImageFix"/>
<feColorMatrix in="SourceAlpha" type="matrix" values="0 0 0 0 0 0 0 0 0 0 0 0 0 0 0 0 0 0 127 0" result="hardAlpha"/>
<feOffset dx="10" dy="14"/>
<feGaussianBlur stdDeviation="28"/>
<feComposite in2="hardAlpha" operator="out"/>
<feColorMatrix type="matrix" values="0 0 0 0 0.764706 0 0 0 0 0.890196 0 0 0 0 0.937255 0 0 0 0.4 0"/>
<feBlend mode="normal" in2="BackgroundImageFix" result="effect1_dropShadow_137_512"/>
<feBlend mode="normal" in="SourceGraphic" in2="effect1_dropShadow_137_512" result="shape"/>
</filter>
<filter id="filter6_d_137_512" x="296.442" y="156.312" width="291.47" height="192.982" filterUnits="userSpaceOnUse" color-interpolation-filters="sRGB">
<feFlood flood-opacity="0" result="BackgroundImageFix"/>
<feColorMatrix in="SourceAlpha" type="matrix" values="0 0 0 0 0 0 0 0 0 0 0 0 0 0 0 0 0 0 127 0" result="hardAlpha"/>
<feOffset dx="10" dy="14"/>
<feGaussianBlur stdDeviation="28"/>
<feComposite in2="hardAlpha" operator="out"/>
<feColorMatrix type="matrix" values="0 0 0 0 0.764706 0 0 0 0 0.890196 0 0 0 0 0.937255 0 0 0 0.4 0"/>
<feBlend mode="normal" in2="BackgroundImageFix" result="effect1_dropShadow_137_512"/>
<feBlend mode="normal" in="SourceGraphic" in2="effect1_dropShadow_137_512" result="shape"/>
</filter>
<filter id="filter7_d_137_512" x="81.4341" y="135.475" width="257.45" height="172.508" filterUnits="userSpaceOnUse" color-interpolation-filters="sRGB">
<feFlood flood-opacity="0" result="BackgroundImageFix"/>
<feColorMatrix in="SourceAlpha" type="matrix" values="0 0 0 0 0 0 0 0 0 0 0 0 0 0 0 0 0 0 127 0" result="hardAlpha"/>
<feOffset dx="10" dy="14"/>
<feGaussianBlur stdDeviation="28"/>
<feComposite in2="hardAlpha" operator="out"/>
<feColorMatrix type="matrix" values="0 0 0 0 0.764706 0 0 0 0 0.890196 0 0 0 0 0.937255 0 0 0 0.4 0"/>
<feBlend mode="normal" in2="BackgroundImageFix" result="effect1_dropShadow_137_512"/>
<feBlend mode="normal" in="SourceGraphic" in2="effect1_dropShadow_137_512" result="shape"/>
</filter>
<filter id="filter8_d_137_512" x="141.156" y="320.496" width="120" height="76" filterUnits="userSpaceOnUse" color-interpolation-filters="sRGB">
<feFlood flood-opacity="0" result="BackgroundImageFix"/>
<feColorMatrix in="SourceAlpha" type="matrix" values="0 0 0 0 0 0 0 0 0 0 0 0 0 0 0 0 0 0 127 0" result="hardAlpha"/>
<feOffset dy="10"/>
<feGaussianBlur stdDeviation="10"/>
<feComposite in2="hardAlpha" operator="out"/>
<feColorMatrix type="matrix" values="0 0 0 0 0.764706 0 0 0 0 0.890196 0 0 0 0 0.937255 0 0 0 0.2 0"/>
<feBlend mode="normal" in2="BackgroundImageFix" result="effect1_dropShadow_137_512"/>
<feBlend mode="normal" in="SourceGraphic" in2="effect1_dropShadow_137_512" result="shape"/>
</filter>
<filter id="filter9_d_137_512" x="171.156" y="356.496" width="60" height="50" filterUnits="userSpaceOnUse" color-interpolation-filters="sRGB">
<feFlood flood-opacity="0" result="BackgroundImageFix"/>
<feColorMatrix in="SourceAlpha" type="matrix" values="0 0 0 0 0 0 0 0 0 0 0 0 0 0 0 0 0 0 127 0" result="hardAlpha"/>
<feOffset dy="10"/>
<feGaussianBlur stdDeviation="10"/>
<feComposite in2="hardAlpha" operator="out"/>
<feColorMatrix type="matrix" values="0 0 0 0 0.764706 0 0 0 0 0.890196 0 0 0 0 0.937255 0 0 0 0.2 0"/>
<feBlend mode="normal" in2="BackgroundImageFix" result="effect1_dropShadow_137_512"/>
<feBlend mode="normal" in="SourceGraphic" in2="effect1_dropShadow_137_512" result="shape"/>
</filter>
<filter id="filter10_d_137_512" x="141.156" y="167.004" width="120" height="76" filterUnits="userSpaceOnUse" color-interpolation-filters="sRGB">
<feFlood flood-opacity="0" result="BackgroundImageFix"/>
<feColorMatrix in="SourceAlpha" type="matrix" values="0 0 0 0 0 0 0 0 0 0 0 0 0 0 0 0 0 0 127 0" result="hardAlpha"/>
<feOffset dy="10"/>
<feGaussianBlur stdDeviation="10"/>
<feComposite in2="hardAlpha" operator="out"/>
<feColorMatrix type="matrix" values="0 0 0 0 0.764706 0 0 0 0 0.890196 0 0 0 0 0.937255 0 0 0 0.2 0"/>
<feBlend mode="normal" in2="BackgroundImageFix" result="effect1_dropShadow_137_512"/>
<feBlend mode="normal" in="SourceGraphic" in2="effect1_dropShadow_137_512" result="shape"/>
</filter>
<filter id="filter11_d_137_512" x="171.156" y="203.004" width="60" height="50" filterUnits="userSpaceOnUse" color-interpolation-filters="sRGB">
<feFlood flood-opacity="0" result="BackgroundImageFix"/>
<feColorMatrix in="SourceAlpha" type="matrix" values="0 0 0 0 0 0 0 0 0 0 0 0 0 0 0 0 0 0 127 0" result="hardAlpha"/>
<feOffset dy="10"/>
<feGaussianBlur stdDeviation="10"/>
<feComposite in2="hardAlpha" operator="out"/>
<feColorMatrix type="matrix" values="0 0 0 0 0.764706 0 0 0 0 0.890196 0 0 0 0 0.937255 0 0 0 0.2 0"/>
<feBlend mode="normal" in2="BackgroundImageFix" result="effect1_dropShadow_137_512"/>
<feBlend mode="normal" in="SourceGraphic" in2="effect1_dropShadow_137_512" result="shape"/>
</filter>
<filter id="filter12_d_137_512" x="384.006" y="167.004" width="104" height="76" filterUnits="userSpaceOnUse" color-interpolation-filters="sRGB">
<feFlood flood-opacity="0" result="BackgroundImageFix"/>
<feColorMatrix in="SourceAlpha" type="matrix" values="0 0 0 0 0 0 0 0 0 0 0 0 0 0 0 0 0 0 127 0" result="hardAlpha"/>
<feOffset dy="10"/>
<feGaussianBlur stdDeviation="10"/>
<feComposite in2="hardAlpha" operator="out"/>
<feColorMatrix type="matrix" values="0 0 0 0 0.764706 0 0 0 0 0.890196 0 0 0 0 0.937255 0 0 0 0.2 0"/>
<feBlend mode="normal" in2="BackgroundImageFix" result="effect1_dropShadow_137_512"/>
<feBlend mode="normal" in="SourceGraphic" in2="effect1_dropShadow_137_512" result="shape"/>
</filter>
<filter id="filter13_d_137_512" x="406.006" y="203.004" width="60" height="50" filterUnits="userSpaceOnUse" color-interpolation-filters="sRGB">
<feFlood flood-opacity="0" result="BackgroundImageFix"/>
<feColorMatrix in="SourceAlpha" type="matrix" values="0 0 0 0 0 0 0 0 0 0 0 0 0 0 0 0 0 0 127 0" result="hardAlpha"/>
<feOffset dy="10"/>
<feGaussianBlur stdDeviation="10"/>
<feComposite in2="hardAlpha" operator="out"/>
<feColorMatrix type="matrix" values="0 0 0 0 0.764706 0 0 0 0 0.890196 0 0 0 0 0.937255 0 0 0 0.2 0"/>
<feBlend mode="normal" in2="BackgroundImageFix" result="effect1_dropShadow_137_512"/>
<feBlend mode="normal" in="SourceGraphic" in2="effect1_dropShadow_137_512" result="shape"/>
</filter>
<filter id="filter14_d_137_512" x="378.006" y="486.371" width="72" height="76" filterUnits="userSpaceOnUse" color-interpolation-filters="sRGB">
<feFlood flood-opacity="0" result="BackgroundImageFix"/>
<feColorMatrix in="SourceAlpha" type="matrix" values="0 0 0 0 0 0 0 0 0 0 0 0 0 0 0 0 0 0 127 0" result="hardAlpha"/>
<feOffset dy="10"/>
<feGaussianBlur stdDeviation="10"/>
<feComposite in2="hardAlpha" operator="out"/>
<feColorMatrix type="matrix" values="0 0 0 0 0.764706 0 0 0 0 0.890196 0 0 0 0 0.937255 0 0 0 0.2 0"/>
<feBlend mode="normal" in2="BackgroundImageFix" result="effect1_dropShadow_137_512"/>
<feBlend mode="normal" in="SourceGraphic" in2="effect1_dropShadow_137_512" result="shape"/>
</filter>
<filter id="filter15_d_137_512" x="384.006" y="522.371" width="60" height="50" filterUnits="userSpaceOnUse" color-interpolation-filters="sRGB">
<feFlood flood-opacity="0" result="BackgroundImageFix"/>
<feColorMatrix in="SourceAlpha" type="matrix" values="0 0 0 0 0 0 0 0 0 0 0 0 0 0 0 0 0 0 127 0" result="hardAlpha"/>
<feOffset dy="10"/>
<feGaussianBlur stdDeviation="10"/>
<feComposite in2="hardAlpha" operator="out"/>
<feColorMatrix type="matrix" values="0 0 0 0 0.764706 0 0 0 0 0.890196 0 0 0 0 0.937255 0 0 0 0.2 0"/>
<feBlend mode="normal" in2="BackgroundImageFix" result="effect1_dropShadow_137_512"/>
<feBlend mode="normal" in="SourceGraphic" in2="effect1_dropShadow_137_512" result="shape"/>
</filter>
<filter id="filter16_d_137_512" x="469.177" y="325.68" width="88.0002" height="76" filterUnits="userSpaceOnUse" color-interpolation-filters="sRGB">
<feFlood flood-opacity="0" result="BackgroundImageFix"/>
<feColorMatrix in="SourceAlpha" type="matrix" values="0 0 0 0 0 0 0 0 0 0 0 0 0 0 0 0 0 0 127 0" result="hardAlpha"/>
<feOffset dy="10"/>
<feGaussianBlur stdDeviation="10"/>
<feComposite in2="hardAlpha" operator="out"/>
<feColorMatrix type="matrix" values="0 0 0 0 0.764706 0 0 0 0 0.890196 0 0 0 0 0.937255 0 0 0 0.2 0"/>
<feBlend mode="normal" in2="BackgroundImageFix" result="effect1_dropShadow_137_512"/>
<feBlend mode="normal" in="SourceGraphic" in2="effect1_dropShadow_137_512" result="shape"/>
</filter>
<filter id="filter17_d_137_512" x="483.177" y="361.68" width="60" height="50" filterUnits="userSpaceOnUse" color-interpolation-filters="sRGB">
<feFlood flood-opacity="0" result="BackgroundImageFix"/>
<feColorMatrix in="SourceAlpha" type="matrix" values="0 0 0 0 0 0 0 0 0 0 0 0 0 0 0 0 0 0 127 0" result="hardAlpha"/>
<feOffset dy="10"/>
<feGaussianBlur stdDeviation="10"/>
<feComposite in2="hardAlpha" operator="out"/>
<feColorMatrix type="matrix" values="0 0 0 0 0.764706 0 0 0 0 0.890196 0 0 0 0 0.937255 0 0 0 0.2 0"/>
<feBlend mode="normal" in2="BackgroundImageFix" result="effect1_dropShadow_137_512"/>
<feBlend mode="normal" in="SourceGraphic" in2="effect1_dropShadow_137_512" result="shape"/>
</filter>
<filter id="filter18_d_137_512" x="244.512" y="486.371" width="72" height="76" filterUnits="userSpaceOnUse" color-interpolation-filters="sRGB">
<feFlood flood-opacity="0" result="BackgroundImageFix"/>
<feColorMatrix in="SourceAlpha" type="matrix" values="0 0 0 0 0 0 0 0 0 0 0 0 0 0 0 0 0 0 127 0" result="hardAlpha"/>
<feOffset dy="10"/>
<feGaussianBlur stdDeviation="10"/>
<feComposite in2="hardAlpha" operator="out"/>
<feColorMatrix type="matrix" values="0 0 0 0 0.764706 0 0 0 0 0.890196 0 0 0 0 0.937255 0 0 0 0.2 0"/>
<feBlend mode="normal" in2="BackgroundImageFix" result="effect1_dropShadow_137_512"/>
<feBlend mode="normal" in="SourceGraphic" in2="effect1_dropShadow_137_512" result="shape"/>
</filter>
<filter id="filter19_d_137_512" x="250.512" y="522.371" width="60" height="50" filterUnits="userSpaceOnUse" color-interpolation-filters="sRGB">
<feFlood flood-opacity="0" result="BackgroundImageFix"/>
<feColorMatrix in="SourceAlpha" type="matrix" values="0 0 0 0 0 0 0 0 0 0 0 0 0 0 0 0 0 0 127 0" result="hardAlpha"/>
<feOffset dy="10"/>
<feGaussianBlur stdDeviation="10"/>
<feComposite in2="hardAlpha" operator="out"/>
<feColorMatrix type="matrix" values="0 0 0 0 0.764706 0 0 0 0 0.890196 0 0 0 0 0.937255 0 0 0 0.2 0"/>
<feBlend mode="normal" in2="BackgroundImageFix" result="effect1_dropShadow_137_512"/>
<feBlend mode="normal" in="SourceGraphic" in2="effect1_dropShadow_137_512" result="shape"/>
</filter>
<filter id="filter20_d_137_512" x="321.106" y="415.656" width="72" height="72" filterUnits="userSpaceOnUse" color-interpolation-filters="sRGB">
<feFlood flood-opacity="0" result="BackgroundImageFix"/>
<feColorMatrix in="SourceAlpha" type="matrix" values="0 0 0 0 0 0 0 0 0 0 0 0 0 0 0 0 0 0 127 0" result="hardAlpha"/>
<feOffset dy="10"/>
<feGaussianBlur stdDeviation="10"/>
<feComposite in2="hardAlpha" operator="out"/>
<feColorMatrix type="matrix" values="0 0 0 0 0.430518 0 0 0 0 0 0 0 0 0 0 0 0 0 0.15 0"/>
<feBlend mode="normal" in2="BackgroundImageFix" result="effect1_dropShadow_137_512"/>
<feBlend mode="normal" in="SourceGraphic" in2="effect1_dropShadow_137_512" result="shape"/>
</filter>
<filter id="filter21_d_137_512" x="329.106" y="447.656" width="56" height="50" filterUnits="userSpaceOnUse" color-interpolation-filters="sRGB">
<feFlood flood-opacity="0" result="BackgroundImageFix"/>
<feColorMatrix in="SourceAlpha" type="matrix" values="0 0 0 0 0 0 0 0 0 0 0 0 0 0 0 0 0 0 127 0" result="hardAlpha"/>
<feOffset dy="10"/>
<feGaussianBlur stdDeviation="10"/>
<feComposite in2="hardAlpha" operator="out"/>
<feColorMatrix type="matrix" values="0 0 0 0 0.430518 0 0 0 0 0 0 0 0 0 0 0 0 0 0.15 0"/>
<feBlend mode="normal" in2="BackgroundImageFix" result="effect1_dropShadow_137_512"/>
<feBlend mode="normal" in="SourceGraphic" in2="effect1_dropShadow_137_512" result="shape"/>
</filter>
<filter id="filter22_d_137_512" x="183.994" y="511.512" width="72" height="72" filterUnits="userSpaceOnUse" color-interpolation-filters="sRGB">
<feFlood flood-opacity="0" result="BackgroundImageFix"/>
<feColorMatrix in="SourceAlpha" type="matrix" values="0 0 0 0 0 0 0 0 0 0 0 0 0 0 0 0 0 0 127 0" result="hardAlpha"/>
<feOffset dy="10"/>
<feGaussianBlur stdDeviation="10"/>
<feComposite in2="hardAlpha" operator="out"/>
<feColorMatrix type="matrix" values="0 0 0 0 0.430518 0 0 0 0 0 0 0 0 0 0 0 0 0 0.15 0"/>
<feBlend mode="normal" in2="BackgroundImageFix" result="effect1_dropShadow_137_512"/>
<feBlend mode="normal" in="SourceGraphic" in2="effect1_dropShadow_137_512" result="shape"/>
</filter>
<filter id="filter23_d_137_512" x="191.994" y="543.512" width="56" height="50" filterUnits="userSpaceOnUse" color-interpolation-filters="sRGB">
<feFlood flood-opacity="0" result="BackgroundImageFix"/>
<feColorMatrix in="SourceAlpha" type="matrix" values="0 0 0 0 0 0 0 0 0 0 0 0 0 0 0 0 0 0 127 0" result="hardAlpha"/>
<feOffset dy="10"/>
<feGaussianBlur stdDeviation="10"/>
<feComposite in2="hardAlpha" operator="out"/>
<feColorMatrix type="matrix" values="0 0 0 0 0.430518 0 0 0 0 0 0 0 0 0 0 0 0 0 0.15 0"/>
<feBlend mode="normal" in2="BackgroundImageFix" result="effect1_dropShadow_137_512"/>
<feBlend mode="normal" in="SourceGraphic" in2="effect1_dropShadow_137_512" result="shape"/>
</filter>
<filter id="filter24_d_137_512" x="513.105" y="488.758" width="72" height="72" filterUnits="userSpaceOnUse" color-interpolation-filters="sRGB">
<feFlood flood-opacity="0" result="BackgroundImageFix"/>
<feColorMatrix in="SourceAlpha" type="matrix" values="0 0 0 0 0 0 0 0 0 0 0 0 0 0 0 0 0 0 127 0" result="hardAlpha"/>
<feOffset dy="10"/>
<feGaussianBlur stdDeviation="10"/>
<feComposite in2="hardAlpha" operator="out"/>
<feColorMatrix type="matrix" values="0 0 0 0 0.430518 0 0 0 0 0 0 0 0 0 0 0 0 0 0.15 0"/>
<feBlend mode="normal" in2="BackgroundImageFix" result="effect1_dropShadow_137_512"/>
<feBlend mode="normal" in="SourceGraphic" in2="effect1_dropShadow_137_512" result="shape"/>
</filter>
<filter id="filter25_d_137_512" x="521.105" y="520.758" width="56" height="50" filterUnits="userSpaceOnUse" color-interpolation-filters="sRGB">
<feFlood flood-opacity="0" result="BackgroundImageFix"/>
<feColorMatrix in="SourceAlpha" type="matrix" values="0 0 0 0 0 0 0 0 0 0 0 0 0 0 0 0 0 0 127 0" result="hardAlpha"/>
<feOffset dy="10"/>
<feGaussianBlur stdDeviation="10"/>
<feComposite in2="hardAlpha" operator="out"/>
<feColorMatrix type="matrix" values="0 0 0 0 0.430518 0 0 0 0 0 0 0 0 0 0 0 0 0 0.15 0"/>
<feBlend mode="normal" in2="BackgroundImageFix" result="effect1_dropShadow_137_512"/>
<feBlend mode="normal" in="SourceGraphic" in2="effect1_dropShadow_137_512" result="shape"/>
</filter>
<filter id="filter26_d_137_512" x="299.466" y="353.598" width="72" height="72" filterUnits="userSpaceOnUse" color-interpolation-filters="sRGB">
<feFlood flood-opacity="0" result="BackgroundImageFix"/>
<feColorMatrix in="SourceAlpha" type="matrix" values="0 0 0 0 0 0 0 0 0 0 0 0 0 0 0 0 0 0 127 0" result="hardAlpha"/>
<feOffset dy="10"/>
<feGaussianBlur stdDeviation="10"/>
<feComposite in2="hardAlpha" operator="out"/>
<feColorMatrix type="matrix" values="0 0 0 0 0.430518 0 0 0 0 0 0 0 0 0 0 0 0 0 0.15 0"/>
<feBlend mode="normal" in2="BackgroundImageFix" result="effect1_dropShadow_137_512"/>
<feBlend mode="normal" in="SourceGraphic" in2="effect1_dropShadow_137_512" result="shape"/>
</filter>
<filter id="filter27_d_137_512" x="307.466" y="385.598" width="56" height="50" filterUnits="userSpaceOnUse" color-interpolation-filters="sRGB">
<feFlood flood-opacity="0" result="BackgroundImageFix"/>
<feColorMatrix in="SourceAlpha" type="matrix" values="0 0 0 0 0 0 0 0 0 0 0 0 0 0 0 0 0 0 127 0" result="hardAlpha"/>
<feOffset dy="10"/>
<feGaussianBlur stdDeviation="10"/>
<feComposite in2="hardAlpha" operator="out"/>
<feColorMatrix type="matrix" values="0 0 0 0 0.430518 0 0 0 0 0 0 0 0 0 0 0 0 0 0.15 0"/>
<feBlend mode="normal" in2="BackgroundImageFix" result="effect1_dropShadow_137_512"/>
<feBlend mode="normal" in="SourceGraphic" in2="effect1_dropShadow_137_512" result="shape"/>
</filter>
<filter id="filter28_d_137_512" x="167.987" y="258.328" width="80" height="80" filterUnits="userSpaceOnUse" color-interpolation-filters="sRGB">
<feFlood flood-opacity="0" result="BackgroundImageFix"/>
<feColorMatrix in="SourceAlpha" type="matrix" values="0 0 0 0 0 0 0 0 0 0 0 0 0 0 0 0 0 0 127 0" result="hardAlpha"/>
<feOffset dy="10"/>
<feGaussianBlur stdDeviation="10"/>
<feComposite in2="hardAlpha" operator="out"/>
<feColorMatrix type="matrix" values="0 0 0 0 0.430518 0 0 0 0 0 0 0 0 0 0 0 0 0 0.15 0"/>
<feBlend mode="normal" in2="BackgroundImageFix" result="effect1_dropShadow_137_512"/>
<feBlend mode="normal" in="SourceGraphic" in2="effect1_dropShadow_137_512" result="shape"/>
</filter>
<filter id="filter29_d_137_512" x="179.987" y="298.328" width="56" height="48" filterUnits="userSpaceOnUse" color-interpolation-filters="sRGB">
<feFlood flood-opacity="0" result="BackgroundImageFix"/>
<feColorMatrix in="SourceAlpha" type="matrix" values="0 0 0 0 0 0 0 0 0 0 0 0 0 0 0 0 0 0 127 0" result="hardAlpha"/>
<feOffset dy="10"/>
<feGaussianBlur stdDeviation="10"/>
<feComposite in2="hardAlpha" operator="out"/>
<feColorMatrix type="matrix" values="0 0 0 0 0.430518 0 0 0 0 0 0 0 0 0 0 0 0 0 0.15 0"/>
<feBlend mode="normal" in2="BackgroundImageFix" result="effect1_dropShadow_137_512"/>
<feBlend mode="normal" in="SourceGraphic" in2="effect1_dropShadow_137_512" result="shape"/>
</filter>
<filter id="filter30_d_137_512" x="468.739" y="256.109" width="72.0002" height="72" filterUnits="userSpaceOnUse" color-interpolation-filters="sRGB">
<feFlood flood-opacity="0" result="BackgroundImageFix"/>
<feColorMatrix in="SourceAlpha" type="matrix" values="0 0 0 0 0 0 0 0 0 0 0 0 0 0 0 0 0 0 127 0" result="hardAlpha"/>
<feOffset dy="10"/>
<feGaussianBlur stdDeviation="10"/>
<feComposite in2="hardAlpha" operator="out"/>
<feColorMatrix type="matrix" values="0 0 0 0 0.430518 0 0 0 0 0 0 0 0 0 0 0 0 0 0.15 0"/>
<feBlend mode="normal" in2="BackgroundImageFix" result="effect1_dropShadow_137_512"/>
<feBlend mode="normal" in="SourceGraphic" in2="effect1_dropShadow_137_512" result="shape"/>
</filter>
<filter id="filter31_d_137_512" x="476.739" y="288.109" width="56" height="48" filterUnits="userSpaceOnUse" color-interpolation-filters="sRGB">
<feFlood flood-opacity="0" result="BackgroundImageFix"/>
<feColorMatrix in="SourceAlpha" type="matrix" values="0 0 0 0 0 0 0 0 0 0 0 0 0 0 0 0 0 0 127 0" result="hardAlpha"/>
<feOffset dy="10"/>
<feGaussianBlur stdDeviation="10"/>
<feComposite in2="hardAlpha" operator="out"/>
<feColorMatrix type="matrix" values="0 0 0 0 0.430518 0 0 0 0 0 0 0 0 0 0 0 0 0 0.15 0"/>
<feBlend mode="normal" in2="BackgroundImageFix" result="effect1_dropShadow_137_512"/>
<feBlend mode="normal" in="SourceGraphic" in2="effect1_dropShadow_137_512" result="shape"/>
</filter>
<filter id="filter32_d_137_512" x="412.006" y="225.469" width="72" height="72" filterUnits="userSpaceOnUse" color-interpolation-filters="sRGB">
<feFlood flood-opacity="0" result="BackgroundImageFix"/>
<feColorMatrix in="SourceAlpha" type="matrix" values="0 0 0 0 0 0 0 0 0 0 0 0 0 0 0 0 0 0 127 0" result="hardAlpha"/>
<feOffset dy="10"/>
<feGaussianBlur stdDeviation="10"/>
<feComposite in2="hardAlpha" operator="out"/>
<feColorMatrix type="matrix" values="0 0 0 0 0.430518 0 0 0 0 0 0 0 0 0 0 0 0 0 0.15 0"/>
<feBlend mode="normal" in2="BackgroundImageFix" result="effect1_dropShadow_137_512"/>
<feBlend mode="normal" in="SourceGraphic" in2="effect1_dropShadow_137_512" result="shape"/>
</filter>
<filter id="filter33_d_137_512" x="420.006" y="257.469" width="56" height="48" filterUnits="userSpaceOnUse" color-interpolation-filters="sRGB">
<feFlood flood-opacity="0" result="BackgroundImageFix"/>
<feColorMatrix in="SourceAlpha" type="matrix" values="0 0 0 0 0 0 0 0 0 0 0 0 0 0 0 0 0 0 127 0" result="hardAlpha"/>
<feOffset dy="10"/>
<feGaussianBlur stdDeviation="10"/>
<feComposite in2="hardAlpha" operator="out"/>
<feColorMatrix type="matrix" values="0 0 0 0 0.430518 0 0 0 0 0 0 0 0 0 0 0 0 0 0.15 0"/>
<feBlend mode="normal" in2="BackgroundImageFix" result="effect1_dropShadow_137_512"/>
<feBlend mode="normal" in="SourceGraphic" in2="effect1_dropShadow_137_512" result="shape"/>
</filter>
</defs>
</svg>
