<svg width="671" height="723" viewBox="0 0 671 723" fill="none" xmlns="http://www.w3.org/2000/svg">
<g filter="url(#filter0_d_137_349)">
<rect x="46.3462" y="42.4297" width="558.527" height="610.045" rx="20" fill="white"/>
</g>
<path d="M362.74 589.17C362.196 589.073 361.677 589.435 361.58 589.979L359.997 598.838C359.9 599.382 360.262 599.901 360.806 599.999C361.35 600.096 361.869 599.734 361.966 599.19L363.373 591.315L371.248 592.721C371.792 592.818 372.311 592.456 372.408 591.912C372.505 591.369 372.143 590.849 371.6 590.752L362.74 589.17ZM385.564 623.154L386.384 622.583L363.384 589.583L362.564 590.154L361.744 590.726L384.744 623.726L385.564 623.154Z" fill="#0069F2"/>
<g filter="url(#filter1_d_137_349)">
<path d="M156.084 318.958L176.433 391.88C177.019 393.983 178.982 395.389 181.155 395.278L272.986 390.554C275.087 390.444 276.993 391.752 277.648 393.75L280.638 402.875C281.289 404.85 283.157 406.148 285.237 406.074L379.932 402.563C382.828 402.459 384.931 399.751 384.304 396.912L382.937 390.655C382.317 387.828 384.395 385.134 387.287 385.008L478.871 381.016C481.992 380.879 484.099 377.769 483.057 374.818C482.041 371.927 484.043 368.861 487.096 368.633L495.932 367.957C498.997 367.722 500.992 364.644 499.966 361.749L485.385 320.925C484.711 319.036 482.894 317.783 480.882 317.834L463.004 318.292C461.002 318.346 459.182 317.102 458.508 315.214L455.706 307.433C455.015 305.53 453.175 304.281 451.156 304.361L435.974 304.921C433.998 304.992 432.201 303.817 431.473 301.975L406.444 238.556C405.716 236.715 403.909 235.537 401.931 235.618L172.955 244.632C169.839 244.75 167.725 247.848 168.735 250.8L187.728 306.183C188.746 309.147 186.6 312.248 183.467 312.35L160.425 313.071C157.408 313.164 155.273 316.07 156.088 318.98L156.084 318.958Z" fill="#D8D6D6"/>
<path d="M401.971 236.617C403.427 236.558 404.764 237.366 405.397 238.659L405.514 238.924L430.542 302.342L430.543 302.343C431.399 304.508 433.475 305.916 435.785 305.924L436.01 305.92L436.011 305.92L451.193 305.36L451.195 305.361C452.676 305.302 454.04 306.157 454.653 307.499L454.766 307.774L457.566 315.549L457.565 315.55C458.385 317.847 460.597 319.357 463.031 319.292L463.03 319.291L480.907 318.833C482.387 318.796 483.735 319.659 484.334 320.989L484.444 321.261L499.023 362.082L499.023 362.083C499.804 364.288 498.358 366.624 496.079 366.936L495.855 366.96L487.02 367.636C483.425 367.904 481.033 371.41 482.009 374.821L482.114 375.15L482.115 375.151C482.907 377.394 481.38 379.757 479.054 380L478.827 380.017L387.243 384.009C383.733 384.162 381.207 387.435 381.96 390.869L381.96 390.869L383.327 397.126L383.327 397.127C383.804 399.286 382.27 401.349 380.108 401.55L379.897 401.564L379.895 401.564L285.201 405.074C283.565 405.132 282.1 404.113 281.589 402.561L281.588 402.561L278.598 393.438C277.827 391.088 275.629 389.522 273.172 389.548L272.936 389.555L181.104 394.279C179.504 394.361 178.05 393.396 177.496 391.915L177.397 391.611L177.396 391.611L157.047 318.689L157.046 318.689C156.442 316.482 157.994 314.285 160.236 314.084L160.456 314.071L183.498 313.35L183.499 313.35C187.302 313.226 189.911 309.461 188.674 305.858L188.673 305.858L169.681 250.476C168.911 248.226 170.449 245.875 172.767 245.647L172.993 245.632L172.994 245.631L401.97 236.618L401.971 236.617Z" stroke="#60B8DC" stroke-width="2"/>
</g>
<g filter="url(#filter2_d_137_349)">
<path d="M532.346 506.224L545.835 553.092C546.388 555.011 545.043 556.938 543.063 557.101L517.501 559.155C515.438 559.317 514.093 561.4 514.784 563.345L515.478 565.312C516.177 567.3 514.774 569.409 512.667 569.507L438.958 573.164C436.849 573.272 435.436 575.378 436.154 577.372C436.863 579.363 435.459 581.472 433.349 581.579L382.65 584.176C381.191 584.251 379.87 583.307 379.459 581.903L357.413 505.151C356.852 503.189 358.282 501.212 360.321 501.137L412.086 499.24C413.571 499.183 414.882 500.166 415.25 501.61L416.427 506.222C416.795 507.666 418.125 508.654 419.613 508.587L529.172 503.966C530.626 503.91 531.928 504.849 532.331 506.241L532.346 506.224Z" fill="#D8D6D6"/>
<path d="M529.214 504.964C530.209 504.927 531.096 505.571 531.371 506.52L531.876 508.261L531.888 508.246L544.874 553.369C545.251 554.675 544.337 555.991 542.983 556.104L517.422 558.158C514.702 558.372 512.932 561.117 513.841 563.679L513.841 563.678L514.535 565.643L514.535 565.643C514.999 566.965 514.109 568.351 512.753 568.497L512.621 568.508L512.617 568.509L438.909 572.165L438.907 572.166C436.133 572.308 434.269 575.078 435.212 577.706L435.212 577.707C435.682 579.027 434.795 580.418 433.431 580.57L433.298 580.581L382.599 583.177C381.607 583.228 380.704 582.587 380.421 581.626L358.374 504.875L358.373 504.875C358.003 503.577 358.911 502.272 360.229 502.145L360.358 502.137L412.122 500.24L412.124 500.239C413.073 500.203 413.916 500.786 414.226 501.676L414.281 501.857L415.458 506.468L415.457 506.469C415.943 508.371 417.694 509.673 419.655 509.586L529.214 504.965L529.214 504.964Z" stroke="#60B8DC" stroke-width="2"/>
</g>
<g filter="url(#filter3_d_137_349)">
<path d="M328.179 502.629L351.545 583.305L294.63 586.379L292.29 578.537L211.818 582.515L207.958 572.039L175.268 573.839L158.748 519.429L272.952 513.93L270.368 504.914L328.179 502.629Z" fill="#D8D6D6"/>
<path d="M350.234 582.375L295.363 585.338L293.248 578.251L293.024 577.499L292.24 577.538L212.503 581.479L208.897 571.693L208.642 570.999L207.904 571.04L175.997 572.797L160.076 520.366L273.001 514.929L274.262 514.868L273.914 513.655L271.68 505.862L327.436 503.658L350.234 582.375Z" stroke="#60B8DC" stroke-width="2"/>
</g>
<path d="M405.077 225.025C406.533 224.966 407.87 225.774 408.503 227.067L408.62 227.332L433.648 290.75L433.649 290.752C434.505 292.916 436.581 294.324 438.891 294.332L439.116 294.328L439.117 294.329L454.299 293.768L454.301 293.769C455.782 293.71 457.146 294.565 457.759 295.908L457.872 296.182L460.672 303.957L460.671 303.958C461.491 306.255 463.703 307.766 466.137 307.7L466.136 307.699L484.013 307.241C485.493 307.204 486.841 308.067 487.439 309.397L487.55 309.669L502.129 350.491L502.129 350.492C502.91 352.696 501.464 355.032 499.185 355.344L498.961 355.368L490.126 356.044C486.531 356.313 484.139 359.819 485.115 363.229L485.22 363.558L485.22 363.56C486.013 365.803 484.486 368.165 482.16 368.408L481.933 368.425L390.349 372.417C386.839 372.57 384.313 375.843 385.066 379.278L385.066 379.277L386.433 385.534L386.433 385.535C386.91 387.694 385.376 389.757 383.214 389.958L383.003 389.972L383.001 389.972L288.307 393.482C286.67 393.541 285.206 392.521 284.695 390.97L284.694 390.969L281.704 381.847C280.933 379.496 278.735 377.93 276.278 377.956L276.042 377.964L184.21 382.687C182.609 382.769 181.156 381.804 180.602 380.323L180.503 380.019L180.502 380.019L160.153 307.098L160.152 307.097C159.548 304.891 161.1 302.693 163.342 302.492L163.562 302.479L186.604 301.758L186.605 301.758C190.408 301.634 193.017 297.869 191.78 294.266L191.779 294.266L172.787 238.884C172.017 236.634 173.555 234.284 175.873 234.055L176.099 234.04L176.1 234.039L405.076 225.026L405.077 225.025Z" fill="#E5E5E5" stroke="#60B8DC" stroke-width="2"/>
<path d="M532.319 493.372C533.315 493.335 534.202 493.979 534.477 494.928L534.982 496.67L534.994 496.655L547.98 541.777C548.356 543.083 547.443 544.4 546.089 544.512L520.528 546.566C517.808 546.78 516.038 549.525 516.947 552.087L516.947 552.086L517.641 554.051L517.641 554.052C518.105 555.374 517.215 556.76 515.859 556.906L515.727 556.917L515.723 556.917L442.015 560.574L442.013 560.574C439.239 560.716 437.374 563.486 438.318 566.114L438.318 566.115C438.788 567.436 437.901 568.826 436.537 568.978L436.404 568.989L385.705 571.586C384.713 571.636 383.81 570.995 383.527 570.034L361.48 493.283L361.479 493.283C361.109 491.986 362.017 490.68 363.335 490.553L363.464 490.545L415.228 488.648L415.23 488.647C416.178 488.611 417.022 489.194 417.332 490.084L417.387 490.266L418.564 494.877L418.563 494.878C419.049 496.779 420.8 498.081 422.761 497.994L532.32 493.373L532.319 493.372Z" fill="#E5E5E5" stroke="#60B8DC" stroke-width="2"/>
<path d="M353.34 570.785L298.469 573.749L296.354 566.661L296.13 565.909L295.346 565.948L215.609 569.889L212.003 560.103L211.747 559.41L211.01 559.451L179.102 561.207L163.182 508.776L276.107 503.339L277.368 503.279L277.019 502.065L274.786 494.272L330.542 492.068L353.34 570.785Z" fill="#E5E5E5" stroke="#60B8DC" stroke-width="2"/>
<g filter="url(#filter4_d_137_349)">
<path d="M488.69 272.543L503.85 272.34C507.195 272.294 509.588 269.084 508.669 265.866L499.246 232.646C499.121 232.187 498.927 231.752 498.671 231.353C495.565 226.369 473.38 192.596 432.719 175.697C431.033 174.996 429.868 173.432 429.658 171.626C429.448 169.861 428.343 168.343 426.73 167.601C419.485 164.272 397.501 155.483 365.425 154.528C328.204 153.417 289.762 156.865 285.165 157.29C284.857 157.321 284.562 157.377 284.26 157.461L114.649 205.417C113.138 205.84 111.911 206.94 111.324 208.398L108.017 216.529C107.597 217.555 107.529 218.696 107.822 219.769L125.53 285.357C126.157 287.689 128.336 289.256 130.747 289.105L141.353 288.468C144.279 288.289 146.455 285.694 146.097 282.782C144.602 270.818 143.17 241.622 161.14 224.748C184.145 203.146 204.74 200.89 245.098 199.487C285.457 198.085 375.767 195.253 379.951 195.131C380.065 195.131 380.16 195.125 380.271 195.134C383.236 195.235 423.75 197.115 452.694 226.798C474.508 249.166 481.595 263.208 483.834 269.223C484.596 271.249 486.521 272.604 488.683 272.572L488.69 272.543Z" fill="#E5E5E5"/>
</g>
<g filter="url(#filter5_d_137_349)">
<path d="M276.105 269.955C276.105 267.746 277.896 265.955 280.105 265.955H352.105C354.315 265.955 356.105 267.746 356.105 269.955V297.955C356.105 300.164 354.315 301.955 352.105 301.955H280.105C277.896 301.955 276.105 300.164 276.105 297.955V269.955Z" fill="white"/>
<path d="M284.569 284.707H292.665V286.259H284.569V284.707ZM284.761 279.059H292.617V280.579H284.761V279.059ZM287.465 283.571L289.241 283.939C288.975 284.494 288.687 285.064 288.377 285.651C288.079 286.238 287.78 286.808 287.481 287.363C287.183 287.907 286.905 288.392 286.649 288.819L284.969 288.307C285.225 287.902 285.497 287.427 285.785 286.883C286.084 286.339 286.377 285.779 286.665 285.203C286.964 284.616 287.231 284.072 287.465 283.571ZM289.721 285.779L291.497 285.939C291.348 286.782 291.124 287.507 290.825 288.115C290.537 288.712 290.148 289.224 289.657 289.651C289.177 290.067 288.591 290.414 287.897 290.691C287.204 290.979 286.377 291.219 285.417 291.411C285.364 291.144 285.263 290.862 285.113 290.563C284.964 290.264 284.809 290.019 284.649 289.827C285.705 289.688 286.575 289.47 287.257 289.171C287.951 288.872 288.495 288.451 288.889 287.907C289.284 287.363 289.561 286.654 289.721 285.779ZM290.857 276.547L292.473 277.203C292.217 277.555 291.961 277.907 291.705 278.259C291.46 278.6 291.236 278.894 291.033 279.139L289.801 278.595C289.983 278.318 290.175 277.987 290.377 277.603C290.58 277.208 290.74 276.856 290.857 276.547ZM287.817 276.339H289.577V283.795H287.817V276.339ZM285.161 277.203L286.537 276.627C286.751 276.926 286.948 277.262 287.129 277.635C287.311 278.008 287.439 278.334 287.513 278.611L286.041 279.251C285.988 278.974 285.876 278.643 285.705 278.259C285.535 277.875 285.353 277.523 285.161 277.203ZM287.865 279.811L289.097 280.563C288.841 280.99 288.505 281.416 288.089 281.843C287.684 282.27 287.247 282.67 286.777 283.043C286.319 283.406 285.865 283.715 285.417 283.971C285.311 283.768 285.161 283.528 284.969 283.251C284.788 282.974 284.612 282.75 284.441 282.579C284.868 282.398 285.3 282.163 285.737 281.875C286.175 281.576 286.58 281.251 286.953 280.899C287.337 280.536 287.641 280.174 287.865 279.811ZM289.417 280.275C289.567 280.35 289.769 280.462 290.025 280.611C290.292 280.76 290.575 280.926 290.873 281.107C291.183 281.278 291.46 281.438 291.705 281.587C291.961 281.736 292.143 281.848 292.249 281.923L291.241 283.251C291.092 283.112 290.9 282.942 290.665 282.739C290.431 282.536 290.18 282.328 289.913 282.115C289.647 281.902 289.391 281.699 289.145 281.507C288.9 281.315 288.687 281.16 288.505 281.043L289.417 280.275ZM293.721 279.251H299.609V281.027H293.721V279.251ZM293.897 276.339L295.849 276.627C295.679 277.726 295.46 278.792 295.193 279.827C294.927 280.851 294.601 281.8 294.217 282.675C293.844 283.539 293.407 284.302 292.905 284.963C292.809 284.835 292.671 284.686 292.489 284.515C292.308 284.344 292.116 284.179 291.913 284.019C291.711 283.848 291.54 283.71 291.401 283.603C291.849 283.048 292.233 282.392 292.553 281.635C292.884 280.867 293.161 280.035 293.385 279.139C293.609 278.232 293.78 277.299 293.897 276.339ZM296.809 280.339L298.777 280.531C298.543 282.355 298.18 283.96 297.689 285.347C297.209 286.734 296.543 287.928 295.689 288.931C294.836 289.934 293.737 290.771 292.393 291.443C292.329 291.294 292.233 291.107 292.105 290.883C291.977 290.659 291.839 290.435 291.689 290.211C291.54 289.998 291.401 289.827 291.273 289.699C292.489 289.166 293.471 288.472 294.217 287.619C294.975 286.766 295.556 285.736 295.961 284.531C296.367 283.315 296.649 281.918 296.809 280.339ZM294.809 280.675C295.033 282.019 295.348 283.283 295.753 284.467C296.159 285.651 296.692 286.691 297.353 287.587C298.015 288.483 298.831 289.187 299.801 289.699C299.663 289.816 299.508 289.971 299.337 290.163C299.167 290.366 299.001 290.574 298.841 290.787C298.692 291 298.569 291.192 298.473 291.363C297.396 290.723 296.505 289.896 295.801 288.883C295.108 287.87 294.548 286.696 294.121 285.363C293.695 284.019 293.348 282.552 293.081 280.963L294.809 280.675ZM286.377 288.323L287.401 287.027C288.031 287.262 288.655 287.534 289.273 287.843C289.903 288.152 290.484 288.472 291.017 288.803C291.561 289.123 292.015 289.432 292.377 289.731L291.033 291.091C290.703 290.792 290.287 290.478 289.785 290.147C289.284 289.816 288.74 289.496 288.153 289.187C287.567 288.867 286.975 288.579 286.377 288.323ZM303.849 280.979H311.001V282.723H303.849V280.979ZM301.129 284.947H315.129V286.771H301.129V284.947ZM307.065 283.939H309.113V289.187C309.113 289.699 309.039 290.099 308.889 290.387C308.751 290.675 308.484 290.894 308.089 291.043C307.716 291.182 307.268 291.267 306.745 291.299C306.233 291.342 305.641 291.363 304.969 291.363C304.937 291.171 304.873 290.952 304.777 290.707C304.681 290.472 304.58 290.238 304.473 290.003C304.367 289.768 304.26 289.566 304.153 289.395C304.484 289.406 304.82 289.416 305.161 289.427C305.503 289.427 305.812 289.427 306.089 289.427C306.367 289.427 306.553 289.427 306.649 289.427C306.809 289.427 306.916 289.406 306.969 289.363C307.033 289.32 307.065 289.246 307.065 289.139V283.939ZM310.409 280.979H310.921L311.353 280.899L312.601 281.843C312.249 282.238 311.855 282.643 311.417 283.059C310.991 283.464 310.527 283.848 310.025 284.211C309.535 284.574 309.033 284.894 308.521 285.171C308.404 285 308.239 284.814 308.025 284.611C307.823 284.398 307.652 284.227 307.513 284.099C307.897 283.864 308.276 283.587 308.649 283.267C309.023 282.947 309.364 282.616 309.673 282.275C309.983 281.934 310.228 281.63 310.409 281.363V280.979ZM307.049 276.355H309.097V279.283H307.049V276.355ZM301.177 277.891H315.001V282.051H313.017V279.715H303.065V282.051H301.177V277.891ZM320.441 282.467H330.713V284.067H320.441V282.467ZM320.009 285.171H331.417V286.787H320.009V285.171ZM322.457 281.155H324.217V285.907H322.457V281.155ZM321.657 285.747H323.417V289.795H321.657V285.747ZM326.617 281.155H328.409V285.891H326.617V281.155ZM318.169 277.043H320.121V281.795C320.121 282.499 320.095 283.272 320.041 284.115C319.999 284.947 319.908 285.8 319.769 286.675C319.641 287.55 319.449 288.398 319.193 289.219C318.937 290.04 318.596 290.776 318.169 291.427C318.052 291.331 317.887 291.219 317.673 291.091C317.46 290.963 317.241 290.835 317.017 290.707C316.804 290.59 316.612 290.504 316.441 290.451C316.847 289.832 317.167 289.155 317.401 288.419C317.636 287.683 317.807 286.931 317.913 286.163C318.02 285.384 318.089 284.622 318.121 283.875C318.153 283.128 318.169 282.435 318.169 281.795V277.043ZM319.369 277.043H330.569V281.427H319.369V279.795H328.633V278.675H319.369V277.043ZM320.009 289.427C320.543 289.363 321.145 289.288 321.817 289.203C322.489 289.118 323.199 289.027 323.945 288.931C324.703 288.824 325.455 288.718 326.201 288.611L326.281 290.259C325.236 290.43 324.185 290.595 323.129 290.755C322.073 290.915 321.124 291.059 320.281 291.187L320.009 289.427ZM326.153 285.827C326.58 286.862 327.247 287.72 328.153 288.403C329.06 289.086 330.212 289.56 331.609 289.827C331.407 290.008 331.193 290.254 330.969 290.563C330.756 290.883 330.591 291.166 330.473 291.411C328.959 291.027 327.727 290.398 326.777 289.523C325.828 288.648 325.092 287.534 324.569 286.179L326.153 285.827ZM329.417 286.563L330.857 287.555C330.431 287.864 329.967 288.163 329.465 288.451C328.964 288.728 328.505 288.963 328.089 289.155L326.873 288.243C327.14 288.104 327.428 287.939 327.737 287.747C328.047 287.544 328.351 287.342 328.649 287.139C328.948 286.936 329.204 286.744 329.417 286.563ZM334.857 277.219H347.385V279.059H334.857V277.219ZM333.961 277.219H335.881V283.299C335.881 283.918 335.86 284.59 335.817 285.315C335.775 286.04 335.689 286.771 335.561 287.507C335.444 288.243 335.263 288.947 335.017 289.619C334.783 290.291 334.468 290.894 334.073 291.427C333.967 291.299 333.817 291.155 333.625 290.995C333.433 290.835 333.231 290.68 333.017 290.531C332.815 290.382 332.639 290.27 332.489 290.195C332.831 289.726 333.097 289.208 333.289 288.643C333.492 288.067 333.641 287.475 333.737 286.867C333.833 286.259 333.892 285.651 333.913 285.043C333.945 284.435 333.961 283.854 333.961 283.299V277.219ZM336.537 280.995H347.113V282.803H336.537V280.995ZM341.225 281.811H343.241V289.075C343.241 289.608 343.172 290.019 343.033 290.307C342.895 290.595 342.628 290.814 342.233 290.963C341.86 291.102 341.396 291.187 340.841 291.219C340.297 291.262 339.657 291.278 338.921 291.267C338.879 290.99 338.788 290.664 338.649 290.291C338.521 289.918 338.388 289.592 338.249 289.315C338.58 289.326 338.921 289.336 339.273 289.347C339.625 289.358 339.94 289.363 340.217 289.363C340.495 289.363 340.687 289.363 340.793 289.363C340.953 289.352 341.065 289.326 341.129 289.283C341.193 289.24 341.225 289.155 341.225 289.027V281.811Z" fill="#60B8DC"/>
</g>
<g filter="url(#filter6_d_137_349)">
<path d="M316.105 311.955L306.105 301.955L326.105 301.955L316.105 311.955Z" fill="white"/>
</g>
<path d="M317.542 435.917H330.002V437.653H317.542V435.917ZM324.738 436.617C325.018 437.681 325.405 438.675 325.9 439.599C326.394 440.523 327.006 441.33 327.734 442.021C328.471 442.712 329.33 443.258 330.31 443.659C330.17 443.78 330.02 443.934 329.862 444.121C329.712 444.308 329.563 444.499 329.414 444.695C329.274 444.9 329.157 445.082 329.064 445.241C327.99 444.737 327.066 444.088 326.292 443.295C325.526 442.502 324.882 441.578 324.36 440.523C323.837 439.459 323.398 438.288 323.044 437.009L324.738 436.617ZM322.806 432.151H324.64C324.63 432.86 324.607 433.612 324.57 434.405C324.542 435.189 324.472 435.987 324.36 436.799C324.248 437.611 324.066 438.418 323.814 439.221C323.571 440.014 323.226 440.78 322.778 441.517C322.339 442.245 321.77 442.926 321.07 443.561C320.379 444.196 319.534 444.756 318.536 445.241C318.405 445.017 318.223 444.77 317.99 444.499C317.756 444.228 317.518 444.004 317.276 443.827C318.228 443.398 319.026 442.903 319.67 442.343C320.314 441.774 320.836 441.162 321.238 440.509C321.648 439.846 321.961 439.16 322.176 438.451C322.39 437.732 322.535 437.009 322.61 436.281C322.694 435.553 322.745 434.839 322.764 434.139C322.782 433.439 322.796 432.776 322.806 432.151ZM333.166 432.893H344.128V434.503H333.166V432.893ZM332.382 432.893H334.062V438.213C334.062 438.754 334.043 439.342 334.006 439.977C333.968 440.612 333.894 441.251 333.782 441.895C333.679 442.539 333.52 443.155 333.306 443.743C333.1 444.331 332.825 444.858 332.48 445.325C332.386 445.213 332.256 445.087 332.088 444.947C331.92 444.807 331.742 444.672 331.556 444.541C331.378 444.41 331.224 444.312 331.094 444.247C331.392 443.836 331.626 443.384 331.794 442.889C331.971 442.385 332.102 441.867 332.186 441.335C332.27 440.803 332.321 440.271 332.34 439.739C332.368 439.207 332.382 438.698 332.382 438.213V432.893ZM334.636 436.197H343.89V437.779H334.636V436.197ZM338.738 436.911H340.502V443.267C340.502 443.734 340.441 444.093 340.32 444.345C340.198 444.597 339.965 444.788 339.62 444.919C339.293 445.04 338.887 445.115 338.402 445.143C337.926 445.18 337.366 445.194 336.722 445.185C336.684 444.942 336.605 444.658 336.484 444.331C336.372 444.004 336.255 443.72 336.134 443.477C336.423 443.486 336.722 443.496 337.03 443.505C337.338 443.514 337.613 443.519 337.856 443.519C338.098 443.519 338.266 443.519 338.36 443.519C338.5 443.51 338.598 443.486 338.654 443.449C338.71 443.412 338.738 443.337 338.738 443.225V436.911ZM348.864 436.519C348.91 435.586 349.237 434.867 349.844 434.363C350.46 433.85 351.267 433.593 352.266 433.593C352.947 433.593 353.53 433.714 354.016 433.957C354.501 434.19 354.865 434.512 355.108 434.923C355.36 435.324 355.486 435.782 355.486 436.295C355.486 436.883 355.332 437.382 355.024 437.793C354.725 438.194 354.366 438.465 353.946 438.605V438.661C354.487 438.829 354.907 439.128 355.206 439.557C355.514 439.986 355.668 440.537 355.668 441.209C355.668 441.769 355.537 442.268 355.276 442.707C355.024 443.146 354.646 443.491 354.142 443.743C353.647 443.986 353.05 444.107 352.35 444.107C351.295 444.107 350.436 443.841 349.774 443.309C349.111 442.777 348.761 441.993 348.724 440.957H350.628C350.646 441.414 350.8 441.783 351.09 442.063C351.388 442.334 351.794 442.469 352.308 442.469C352.784 442.469 353.148 442.338 353.4 442.077C353.661 441.806 353.792 441.461 353.792 441.041C353.792 440.481 353.614 440.08 353.26 439.837C352.905 439.594 352.354 439.473 351.608 439.473H351.202V437.863H351.608C352.933 437.863 353.596 437.42 353.596 436.533C353.596 436.132 353.474 435.819 353.232 435.595C352.998 435.371 352.658 435.259 352.21 435.259C351.771 435.259 351.43 435.38 351.188 435.623C350.954 435.856 350.819 436.155 350.782 436.519H348.864Z" fill="#60B8DC"/>
<path d="M424.02 249.032H436.48V250.768H424.02V249.032ZM431.216 249.732C431.496 250.796 431.883 251.79 432.378 252.714C432.872 253.638 433.484 254.446 434.212 255.136C434.949 255.827 435.808 256.373 436.788 256.774C436.648 256.896 436.498 257.05 436.34 257.236C436.19 257.423 436.041 257.614 435.892 257.81C435.752 258.016 435.635 258.198 435.542 258.356C434.468 257.852 433.544 257.204 432.77 256.41C432.004 255.617 431.36 254.693 430.838 253.638C430.315 252.574 429.876 251.403 429.522 250.124L431.216 249.732ZM429.284 245.266H431.118C431.108 245.976 431.085 246.727 431.048 247.52C431.02 248.304 430.95 249.102 430.838 249.914C430.726 250.726 430.544 251.534 430.292 252.336C430.049 253.13 429.704 253.895 429.256 254.632C428.817 255.36 428.248 256.042 427.548 256.676C426.857 257.311 426.012 257.871 425.014 258.356C424.883 258.132 424.701 257.885 424.468 257.614C424.234 257.344 423.996 257.12 423.754 256.942C424.706 256.513 425.504 256.018 426.148 255.458C426.792 254.889 427.314 254.278 427.716 253.624C428.126 252.962 428.439 252.276 428.654 251.566C428.868 250.848 429.013 250.124 429.088 249.396C429.172 248.668 429.223 247.954 429.242 247.254C429.26 246.554 429.274 245.892 429.284 245.266ZM439.644 246.008H450.606V247.618H439.644V246.008ZM438.86 246.008H440.54V251.328C440.54 251.87 440.521 252.458 440.484 253.092C440.446 253.727 440.372 254.366 440.26 255.01C440.157 255.654 439.998 256.27 439.784 256.858C439.578 257.446 439.303 257.974 438.958 258.44C438.864 258.328 438.734 258.202 438.566 258.062C438.398 257.922 438.22 257.787 438.034 257.656C437.856 257.526 437.702 257.428 437.572 257.362C437.87 256.952 438.104 256.499 438.272 256.004C438.449 255.5 438.58 254.982 438.664 254.45C438.748 253.918 438.799 253.386 438.818 252.854C438.846 252.322 438.86 251.814 438.86 251.328V246.008ZM441.114 249.312H450.368V250.894H441.114V249.312ZM445.216 250.026H446.98V256.382C446.98 256.849 446.919 257.208 446.798 257.46C446.676 257.712 446.443 257.904 446.098 258.034C445.771 258.156 445.365 258.23 444.88 258.258C444.404 258.296 443.844 258.31 443.2 258.3C443.162 258.058 443.083 257.773 442.962 257.446C442.85 257.12 442.733 256.835 442.612 256.592C442.901 256.602 443.2 256.611 443.508 256.62C443.816 256.63 444.091 256.634 444.334 256.634C444.576 256.634 444.744 256.634 444.838 256.634C444.978 256.625 445.076 256.602 445.132 256.564C445.188 256.527 445.216 256.452 445.216 256.34V250.026ZM455.23 255.164V253.624L459.808 247.072H462.09V253.456H463.322V255.164H462.09V257.152H460.13V255.164H455.23ZM460.256 249.172L457.386 253.456H460.256V249.172Z" fill="#60B8DC"/>
<path d="M457.717 163.214H470.177V164.95H457.717V163.214ZM464.913 163.914C465.193 164.978 465.58 165.972 466.075 166.896C466.57 167.82 467.181 168.627 467.909 169.318C468.646 170.009 469.505 170.555 470.485 170.956C470.345 171.077 470.196 171.231 470.037 171.418C469.888 171.605 469.738 171.796 469.589 171.992C469.449 172.197 469.332 172.379 469.239 172.538C468.166 172.034 467.242 171.385 466.467 170.592C465.702 169.799 465.058 168.875 464.535 167.82C464.012 166.756 463.574 165.585 463.219 164.306L464.913 163.914ZM462.981 159.448H464.815C464.806 160.157 464.782 160.909 464.745 161.702C464.717 162.486 464.647 163.284 464.535 164.096C464.423 164.908 464.241 165.715 463.989 166.518C463.746 167.311 463.401 168.077 462.953 168.814C462.514 169.542 461.945 170.223 461.245 170.858C460.554 171.493 459.71 172.053 458.711 172.538C458.58 172.314 458.398 172.067 458.165 171.796C457.932 171.525 457.694 171.301 457.451 171.124C458.403 170.695 459.201 170.2 459.845 169.64C460.489 169.071 461.012 168.459 461.413 167.806C461.824 167.143 462.136 166.457 462.351 165.748C462.566 165.029 462.71 164.306 462.785 163.578C462.869 162.85 462.92 162.136 462.939 161.436C462.958 160.736 462.972 160.073 462.981 159.448ZM473.341 160.19H484.303V161.8H473.341V160.19ZM472.557 160.19H474.237V165.51C474.237 166.051 474.218 166.639 474.181 167.274C474.144 167.909 474.069 168.548 473.957 169.192C473.854 169.836 473.696 170.452 473.481 171.04C473.276 171.628 473 172.155 472.655 172.622C472.562 172.51 472.431 172.384 472.263 172.244C472.095 172.104 471.918 171.969 471.731 171.838C471.554 171.707 471.4 171.609 471.269 171.544C471.568 171.133 471.801 170.681 471.969 170.186C472.146 169.682 472.277 169.164 472.361 168.632C472.445 168.1 472.496 167.568 472.515 167.036C472.543 166.504 472.557 165.995 472.557 165.51V160.19ZM474.811 163.494H484.065V165.076H474.811V163.494ZM478.913 164.208H480.677V170.564C480.677 171.031 480.616 171.39 480.495 171.642C480.374 171.894 480.14 172.085 479.795 172.216C479.468 172.337 479.062 172.412 478.577 172.44C478.101 172.477 477.541 172.491 476.897 172.482C476.86 172.239 476.78 171.955 476.659 171.628C476.547 171.301 476.43 171.017 476.309 170.774C476.598 170.783 476.897 170.793 477.205 170.802C477.513 170.811 477.788 170.816 478.031 170.816C478.274 170.816 478.442 170.816 478.535 170.816C478.675 170.807 478.773 170.783 478.829 170.746C478.885 170.709 478.913 170.634 478.913 170.522V164.208ZM495.871 162.822H491.335V165.216C491.531 164.973 491.811 164.777 492.175 164.628C492.539 164.469 492.926 164.39 493.337 164.39C494.083 164.39 494.695 164.553 495.171 164.88C495.647 165.207 495.992 165.627 496.207 166.14C496.421 166.644 496.529 167.185 496.529 167.764C496.529 168.837 496.221 169.701 495.605 170.354C494.998 171.007 494.13 171.334 493.001 171.334C491.937 171.334 491.087 171.068 490.453 170.536C489.818 170.004 489.459 169.309 489.375 168.45H491.279C491.363 168.823 491.549 169.122 491.839 169.346C492.137 169.57 492.515 169.682 492.973 169.682C493.523 169.682 493.939 169.509 494.219 169.164C494.499 168.819 494.639 168.361 494.639 167.792C494.639 167.213 494.494 166.775 494.205 166.476C493.925 166.168 493.509 166.014 492.959 166.014C492.567 166.014 492.24 166.112 491.979 166.308C491.717 166.504 491.531 166.765 491.419 167.092H489.543V161.1H495.871V162.822Z" fill="#60B8DC"/>
<g filter="url(#filter7_d_137_349)">
<path d="M169.524 479.168C169.524 476.959 171.315 475.168 173.524 475.168H213.524C215.733 475.168 217.524 476.959 217.524 479.168V507.168C217.524 509.377 215.733 511.168 213.524 511.168H173.524C171.315 511.168 169.524 509.377 169.524 507.168V479.168Z" fill="white"/>
<path d="M178.26 491.328H192.82V492.896H178.26V491.328ZM182.404 496.176H188.612V497.552H182.404V496.176ZM182.404 498.624H188.612V500.112H182.404V498.624ZM179.652 489.024H191.412V490.544H179.652V489.024ZM179.124 486.704H191.94V488.224H179.124V486.704ZM187.7 489.52C188.02 490.363 188.447 491.163 188.98 491.92C189.524 492.667 190.153 493.328 190.868 493.904C191.593 494.48 192.388 494.944 193.252 495.296C193.113 495.413 192.959 495.568 192.788 495.76C192.628 495.952 192.473 496.149 192.324 496.352C192.185 496.544 192.063 496.725 191.956 496.896C191.028 496.459 190.185 495.904 189.428 495.232C188.681 494.549 188.02 493.771 187.444 492.896C186.868 492.011 186.383 491.051 185.988 490.016L187.7 489.52ZM181.236 493.712H189.844V500.528H187.86V495.2H183.124V500.592H181.236V493.712ZM184.1 485.568L186.068 485.728C185.961 486.859 185.759 487.979 185.46 489.088C185.172 490.187 184.756 491.237 184.212 492.24C183.668 493.243 182.975 494.171 182.132 495.024C181.3 495.867 180.287 496.608 179.092 497.248C179.017 497.088 178.905 496.912 178.756 496.72C178.617 496.517 178.468 496.325 178.308 496.144C178.148 495.963 177.993 495.819 177.844 495.712C178.953 495.157 179.892 494.507 180.66 493.76C181.439 493.003 182.068 492.187 182.548 491.312C183.028 490.427 183.391 489.499 183.636 488.528C183.881 487.557 184.036 486.571 184.1 485.568ZM203.716 485.616H205.492C205.481 487.024 205.46 488.357 205.428 489.616C205.396 490.864 205.311 492.037 205.172 493.136C205.044 494.224 204.815 495.232 204.484 496.16C204.164 497.088 203.721 497.925 203.156 498.672C202.591 499.408 201.849 500.059 200.932 500.624C200.804 500.389 200.617 500.133 200.372 499.856C200.137 499.579 199.908 499.36 199.684 499.2C200.527 498.709 201.204 498.139 201.716 497.488C202.239 496.827 202.639 496.085 202.916 495.264C203.193 494.443 203.385 493.536 203.492 492.544C203.599 491.552 203.663 490.48 203.684 489.328C203.705 488.176 203.716 486.939 203.716 485.616ZM205.22 491.392C205.391 492.555 205.631 493.637 205.94 494.64C206.26 495.632 206.681 496.507 207.204 497.264C207.737 498.021 208.404 498.619 209.204 499.056C209.001 499.227 208.783 499.461 208.548 499.76C208.313 500.059 208.132 500.32 208.004 500.544C207.129 499.989 206.404 499.28 205.828 498.416C205.263 497.552 204.809 496.549 204.468 495.408C204.137 494.267 203.871 493.008 203.668 491.632L205.22 491.392ZM207.028 489.104L208.916 489.536C208.745 490.048 208.559 490.565 208.356 491.088C208.164 491.6 207.967 492.091 207.764 492.56C207.561 493.029 207.369 493.445 207.188 493.808L205.588 493.376C205.759 492.992 205.935 492.555 206.116 492.064C206.308 491.563 206.484 491.056 206.644 490.544C206.804 490.021 206.932 489.541 207.028 489.104ZM201.268 489.12L202.916 489.344C202.916 489.877 202.879 490.421 202.804 490.976C202.74 491.531 202.633 492.064 202.484 492.576C202.345 493.077 202.169 493.531 201.956 493.936L200.308 493.28C200.5 492.96 200.66 492.571 200.788 492.112C200.927 491.643 201.033 491.152 201.108 490.64C201.193 490.117 201.247 489.611 201.268 489.12ZM196.692 487.04H198.548V500.608H196.692V487.04ZM194.148 490.112H200.548V491.872H194.148V490.112ZM196.66 490.832L197.86 491.376C197.689 491.952 197.492 492.555 197.268 493.184C197.044 493.813 196.793 494.432 196.516 495.04C196.249 495.648 195.961 496.219 195.652 496.752C195.353 497.285 195.044 497.755 194.724 498.16C194.66 497.968 194.569 497.755 194.452 497.52C194.345 497.275 194.233 497.04 194.116 496.816C193.999 496.581 193.881 496.379 193.764 496.208C194.159 495.781 194.543 495.264 194.916 494.656C195.289 494.037 195.631 493.392 195.94 492.72C196.249 492.048 196.489 491.419 196.66 490.832ZM199.46 485.664L200.66 487.184C200.084 487.397 199.455 487.584 198.772 487.744C198.1 487.904 197.412 488.048 196.708 488.176C196.004 488.293 195.321 488.395 194.66 488.48C194.628 488.267 194.559 488.016 194.452 487.728C194.345 487.429 194.239 487.184 194.132 486.992C194.761 486.896 195.401 486.784 196.052 486.656C196.703 486.517 197.321 486.368 197.908 486.208C198.495 486.037 199.012 485.856 199.46 485.664ZM198.548 492.096C198.644 492.181 198.788 492.331 198.98 492.544C199.183 492.747 199.391 492.971 199.604 493.216C199.828 493.451 200.031 493.675 200.212 493.888C200.404 494.091 200.537 494.24 200.612 494.336L199.54 495.904C199.455 495.701 199.332 495.467 199.172 495.2C199.012 494.923 198.841 494.64 198.66 494.352C198.489 494.053 198.319 493.776 198.148 493.52C197.988 493.264 197.844 493.056 197.716 492.896L198.548 492.096Z" fill="#0069F2"/>
</g>
<g filter="url(#filter8_d_137_349)">
<path d="M193.524 521.168L183.524 511.168L203.524 511.168L193.524 521.168Z" fill="white"/>
</g>
<g filter="url(#filter9_d_137_349)">
<path d="M478.145 462.264C478.145 460.055 479.936 458.264 482.145 458.264H506.145C508.354 458.264 510.145 460.055 510.145 462.264V490.264C510.145 492.473 508.354 494.264 506.145 494.264H482.145C479.936 494.264 478.145 492.473 478.145 490.264V462.264Z" fill="white"/>
<path d="M491.937 469.688H499.633V471.512H491.937V469.688ZM494.177 471.32C494.54 472.973 495.047 474.504 495.697 475.912C496.348 477.32 497.169 478.546 498.161 479.592C499.164 480.637 500.369 481.453 501.777 482.04C501.639 482.157 501.484 482.312 501.313 482.504C501.153 482.696 501.004 482.888 500.865 483.08C500.727 483.282 500.609 483.464 500.513 483.624C499.009 482.93 497.729 482.013 496.673 480.872C495.628 479.72 494.764 478.37 494.081 476.824C493.399 475.277 492.839 473.565 492.401 471.688L494.177 471.32ZM499.217 469.688H499.521L499.825 469.608L501.041 470.008C500.796 471.928 500.417 473.629 499.905 475.112C499.404 476.594 498.769 477.885 498.001 478.984C497.233 480.072 496.343 481 495.329 481.768C494.316 482.525 493.185 483.154 491.937 483.656C491.831 483.41 491.671 483.128 491.457 482.808C491.255 482.488 491.052 482.237 490.849 482.056C491.98 481.661 493.009 481.128 493.937 480.456C494.876 479.773 495.703 478.941 496.417 477.96C497.132 476.968 497.724 475.816 498.193 474.504C498.673 473.192 499.015 471.72 499.217 470.088V469.688ZM487.505 470.36L488.497 468.952C488.839 469.09 489.196 469.256 489.569 469.448C489.953 469.64 490.316 469.842 490.657 470.056C491.009 470.258 491.297 470.456 491.521 470.648L490.465 472.2C490.263 472.008 489.991 471.8 489.649 471.576C489.319 471.352 488.961 471.133 488.577 470.92C488.204 470.706 487.847 470.52 487.505 470.36ZM486.705 474.696L487.633 473.24C487.985 473.378 488.353 473.538 488.737 473.72C489.132 473.901 489.505 474.093 489.857 474.296C490.22 474.498 490.519 474.69 490.753 474.872L489.761 476.472C489.548 476.28 489.265 476.077 488.913 475.864C488.572 475.65 488.204 475.442 487.809 475.24C487.415 475.026 487.047 474.845 486.705 474.696ZM487.121 482.216C487.399 481.81 487.708 481.336 488.049 480.792C488.401 480.237 488.753 479.65 489.105 479.032C489.457 478.402 489.793 477.778 490.113 477.16L491.441 478.44C491.164 478.994 490.871 479.565 490.561 480.152C490.252 480.738 489.937 481.314 489.617 481.88C489.297 482.445 488.977 482.989 488.657 483.512L487.121 482.216Z" fill="#0069F2"/>
</g>
<g filter="url(#filter10_d_137_349)">
<path d="M494.145 504.264L484.145 494.264L504.145 494.264L494.145 504.264Z" fill="white"/>
</g>
<g filter="url(#filter11_d_137_349)">
<path d="M397.105 323.537C397.105 321.328 398.896 319.537 401.105 319.537H425.105C427.315 319.537 429.105 321.328 429.105 323.537V347.537C429.105 349.746 427.315 351.537 425.105 351.537H401.105C398.896 351.537 397.105 349.746 397.105 347.537V323.537Z" fill="#0167EE"/>
<path d="M417.945 335.168C418.346 335.173 418.743 335.098 419.114 334.947C419.485 334.795 419.822 334.571 420.105 334.288L422.935 331.458C423.122 331.271 423.226 331.017 423.226 330.753C423.226 330.489 423.122 330.235 422.935 330.048C422.842 329.954 422.732 329.88 422.61 329.829C422.488 329.778 422.357 329.752 422.225 329.752C422.093 329.752 421.963 329.778 421.841 329.829C421.719 329.88 421.608 329.954 421.515 330.048L418.655 332.868C418.562 332.962 418.452 333.036 418.33 333.087C418.208 333.138 418.077 333.164 417.945 333.164C417.813 333.164 417.683 333.138 417.561 333.087C417.439 333.036 417.328 332.962 417.235 332.868L420.775 329.338C420.869 329.245 420.943 329.134 420.993 329.012C421.044 328.89 421.07 328.76 421.07 328.628C421.07 328.496 421.044 328.366 420.993 328.244C420.943 328.122 420.869 328.011 420.775 327.918C420.682 327.825 420.572 327.751 420.45 327.7C420.328 327.65 420.197 327.624 420.065 327.624C419.934 327.624 419.803 327.65 419.681 327.7C419.559 327.751 419.449 327.825 419.355 327.918L415.825 331.458C415.639 331.271 415.535 331.017 415.535 330.753C415.535 330.489 415.639 330.235 415.825 330.048L418.655 327.218C418.749 327.125 418.823 327.014 418.873 326.892C418.924 326.77 418.95 326.64 418.95 326.508C418.95 326.376 418.924 326.246 418.873 326.124C418.823 326.002 418.749 325.891 418.655 325.798C418.562 325.705 418.452 325.631 418.33 325.58C418.208 325.53 418.077 325.504 417.945 325.504C417.814 325.504 417.683 325.53 417.561 325.58C417.439 325.631 417.329 325.705 417.235 325.798L414.405 328.628C413.844 329.19 413.528 329.953 413.528 330.748C413.528 331.543 413.844 332.305 414.405 332.868L413.105 334.158L404.835 325.858L404.735 325.798C404.684 325.753 404.627 325.716 404.565 325.688L404.385 325.618L404.265 325.538H404.195H403.995C403.936 325.528 403.875 325.528 403.815 325.538C403.755 325.56 403.698 325.59 403.645 325.628L403.485 325.728H403.415L403.355 325.828C403.313 325.881 403.276 325.938 403.245 325.998C403.216 326.059 403.193 326.123 403.175 326.188C403.175 326.188 403.175 326.258 403.175 326.298C402.933 327.989 403.088 329.714 403.627 331.335C404.167 332.957 405.077 334.43 406.285 335.638L408.925 338.268L403.515 343.668C403.422 343.761 403.347 343.872 403.297 343.993C403.246 344.115 403.22 344.246 403.22 344.378C403.22 344.51 403.246 344.641 403.297 344.763C403.347 344.884 403.422 344.995 403.515 345.088C403.609 345.181 403.72 345.254 403.842 345.304C403.963 345.354 404.094 345.379 404.225 345.378C404.357 345.379 404.488 345.354 404.609 345.304C404.731 345.254 404.842 345.181 404.935 345.088L411.005 339.108L413.835 336.278L415.835 334.278C416.393 334.842 417.152 335.162 417.945 335.168ZM410.295 336.988L407.665 334.348C406.224 332.887 405.321 330.979 405.105 328.938L411.715 335.538L410.295 336.988ZM416.535 337.558C416.347 337.368 416.091 337.261 415.824 337.26C415.557 337.259 415.3 337.365 415.11 337.553C414.921 337.741 414.814 337.997 414.813 338.264C414.812 338.532 414.917 338.788 415.105 338.978L421.405 345.278C421.596 345.452 421.847 345.545 422.105 345.538C422.237 345.539 422.368 345.514 422.489 345.464C422.611 345.414 422.722 345.341 422.815 345.248C422.909 345.155 422.984 345.044 423.034 344.923C423.085 344.801 423.111 344.67 423.111 344.538C423.111 344.406 423.085 344.275 423.034 344.153C422.984 344.032 422.909 343.921 422.815 343.828L416.535 337.558Z" fill="white"/>
</g>
<g filter="url(#filter12_d_137_349)">
<path d="M413.105 361.537L405.105 351.537L421.105 351.537L413.105 361.537Z" fill="#0167EE"/>
</g>
<g filter="url(#filter13_d_137_349)">
<path d="M353.564 111.537C353.564 109.328 355.355 107.537 357.564 107.537H381.564C383.773 107.537 385.564 109.328 385.564 111.537V135.537C385.564 137.746 383.773 139.537 381.564 139.537H357.564C355.355 139.537 353.564 137.746 353.564 135.537V111.537Z" fill="#0167EE"/>
<path d="M374.404 123.168C374.805 123.173 375.202 123.098 375.573 122.947C375.944 122.795 376.281 122.571 376.564 122.288L379.394 119.458C379.58 119.271 379.685 119.017 379.685 118.753C379.685 118.489 379.58 118.235 379.394 118.048C379.301 117.954 379.19 117.88 379.069 117.829C378.947 117.778 378.816 117.752 378.684 117.752C378.552 117.752 378.421 117.778 378.299 117.829C378.178 117.88 378.067 117.954 377.974 118.048L375.114 120.868C375.021 120.962 374.91 121.036 374.789 121.087C374.667 121.138 374.536 121.164 374.404 121.164C374.272 121.164 374.141 121.138 374.019 121.087C373.898 121.036 373.787 120.962 373.694 120.868L377.234 117.338C377.327 117.245 377.401 117.134 377.452 117.012C377.502 116.89 377.528 116.76 377.528 116.628C377.528 116.496 377.502 116.366 377.452 116.244C377.401 116.122 377.327 116.011 377.234 115.918C377.141 115.825 377.03 115.751 376.908 115.7C376.786 115.65 376.656 115.624 376.524 115.624C376.392 115.624 376.262 115.65 376.14 115.7C376.018 115.751 375.907 115.825 375.814 115.918L372.284 119.458C372.098 119.271 371.993 119.017 371.993 118.753C371.993 118.489 372.098 118.235 372.284 118.048L375.114 115.218C375.207 115.125 375.281 115.014 375.332 114.892C375.382 114.77 375.408 114.64 375.408 114.508C375.408 114.376 375.382 114.246 375.332 114.124C375.281 114.002 375.207 113.891 375.114 113.798C375.021 113.705 374.91 113.631 374.788 113.58C374.666 113.53 374.536 113.504 374.404 113.504C374.272 113.504 374.142 113.53 374.02 113.58C373.898 113.631 373.787 113.705 373.694 113.798L370.864 116.628C370.302 117.19 369.987 117.953 369.987 118.748C369.987 119.543 370.302 120.305 370.864 120.868L369.564 122.158L361.294 113.858L361.194 113.798C361.143 113.753 361.086 113.716 361.024 113.688L360.844 113.618L360.724 113.538H360.654H360.454C360.394 113.528 360.334 113.528 360.274 113.538C360.213 113.56 360.156 113.59 360.104 113.628L359.944 113.728H359.874L359.814 113.828C359.772 113.881 359.735 113.938 359.704 113.998C359.675 114.059 359.651 114.123 359.634 114.188C359.634 114.188 359.634 114.258 359.634 114.298C359.391 115.989 359.546 117.714 360.086 119.335C360.626 120.957 361.536 122.43 362.744 123.638L365.384 126.268L359.974 131.668C359.88 131.761 359.806 131.872 359.755 131.993C359.704 132.115 359.678 132.246 359.678 132.378C359.678 132.51 359.704 132.641 359.755 132.763C359.806 132.884 359.88 132.995 359.974 133.088C360.067 133.181 360.178 133.254 360.3 133.304C360.422 133.354 360.552 133.379 360.684 133.378C360.816 133.379 360.946 133.354 361.068 133.304C361.19 133.254 361.301 133.181 361.394 133.088L367.464 127.108L370.294 124.278L372.294 122.278C372.852 122.842 373.611 123.162 374.404 123.168ZM366.754 124.988L364.124 122.348C362.682 120.887 361.78 118.979 361.564 116.938L368.174 123.538L366.754 124.988ZM372.994 125.558C372.806 125.368 372.55 125.261 372.282 125.26C372.015 125.259 371.759 125.365 371.569 125.553C371.379 125.741 371.272 125.997 371.271 126.264C371.27 126.532 371.376 126.788 371.564 126.978L377.864 133.278C378.055 133.452 378.306 133.545 378.564 133.538C378.696 133.539 378.826 133.514 378.948 133.464C379.07 133.414 379.181 133.341 379.274 133.248C379.368 133.155 379.442 133.044 379.493 132.923C379.544 132.801 379.57 132.67 379.57 132.538C379.57 132.406 379.544 132.275 379.493 132.153C379.442 132.032 379.368 131.921 379.274 131.828L372.994 125.558Z" fill="white"/>
</g>
<g filter="url(#filter14_d_137_349)">
<path d="M369.564 149.537L361.564 139.537L377.564 139.537L369.564 149.537Z" fill="#0167EE"/>
</g>
<path d="M480.233 395.309C479.703 395.154 479.148 395.457 478.992 395.987L476.462 404.624C476.306 405.154 476.61 405.71 477.14 405.865C477.67 406.02 478.226 405.717 478.381 405.187L480.63 397.509L488.308 399.759C488.838 399.914 489.393 399.61 489.549 399.08C489.704 398.55 489.4 397.995 488.87 397.84L480.233 395.309ZM487.259 409.633L488.137 409.153L480.829 395.789L479.952 396.269L479.075 396.748L486.382 410.113L487.259 409.633Z" fill="#0069F2"/>
<path d="M522.607 189.625C522.931 189.178 522.832 188.553 522.386 188.228L515.106 182.936C514.659 182.612 514.034 182.71 513.709 183.157C513.384 183.604 513.483 184.229 513.93 184.554L520.401 189.258L515.697 195.729C515.372 196.176 515.471 196.801 515.918 197.126C516.365 197.45 516.99 197.352 517.315 196.905L522.607 189.625ZM506.753 191.416L506.909 192.404L521.954 190.025L521.798 189.037L521.642 188.049L506.597 190.428L506.753 191.416Z" fill="#0069F2"/>
<g filter="url(#filter15_d_137_349)">
<path d="M282.064 514.359C282.064 512.15 283.855 510.359 286.064 510.359H326.064C328.273 510.359 330.064 512.15 330.064 514.359V542.359C330.064 544.569 328.273 546.359 326.064 546.359H286.064C283.855 546.359 282.064 544.569 282.064 542.359V514.359Z" fill="white"/>
<path d="M293.472 520.935H295.296V529.351H293.472V520.935ZM294.192 523.543H298.368V525.239H294.192V523.543ZM291.792 532.839H297.344V534.567H291.792V532.839ZM291.232 527.879H298.16V535.431H296.384V529.591H292.944V535.495H291.232V527.879ZM302.304 522.055L303.6 521.335C303.888 521.677 304.181 522.061 304.48 522.487C304.789 522.903 305.019 523.266 305.168 523.575L303.776 524.407C303.648 524.098 303.44 523.719 303.152 523.271C302.864 522.823 302.581 522.418 302.304 522.055ZM298.24 525.719L305.28 524.743L305.536 526.359L298.496 527.367L298.24 525.719ZM303.856 526.871L305.296 527.671C304.944 528.727 304.475 529.762 303.888 530.775C303.301 531.778 302.624 532.69 301.856 533.511C301.099 534.333 300.272 534.999 299.376 535.511C299.227 535.298 299.019 535.063 298.752 534.807C298.496 534.562 298.245 534.354 298 534.183C298.693 533.853 299.339 533.431 299.936 532.919C300.533 532.397 301.083 531.815 301.584 531.175C302.096 530.535 302.539 529.847 302.912 529.111C303.296 528.375 303.611 527.629 303.856 526.871ZM299.968 520.887H301.744C301.765 522.253 301.813 523.565 301.888 524.823C301.973 526.071 302.08 527.223 302.208 528.279C302.347 529.335 302.501 530.258 302.672 531.047C302.843 531.826 303.035 532.439 303.248 532.887C303.461 533.325 303.685 533.554 303.92 533.575C304.059 533.586 304.171 533.41 304.256 533.047C304.341 532.674 304.405 532.141 304.448 531.447C304.555 531.575 304.693 531.714 304.864 531.863C305.045 532.002 305.221 532.13 305.392 532.247C305.563 532.365 305.701 532.455 305.808 532.519C305.669 533.405 305.493 534.082 305.28 534.551C305.077 535.031 304.859 535.357 304.624 535.527C304.389 535.709 304.16 535.799 303.936 535.799C303.36 535.767 302.859 535.511 302.432 535.031C302.016 534.551 301.659 533.879 301.36 533.015C301.072 532.141 300.832 531.095 300.64 529.879C300.459 528.653 300.315 527.287 300.208 525.783C300.101 524.269 300.021 522.637 299.968 520.887ZM310.032 524.023H317.936V525.687H310.032V524.023ZM310.464 527.207H317.584V528.823H310.464V527.207ZM309.872 530.727H318.208V532.295H309.872V530.727ZM313.088 524.551H314.864V531.559H313.088V524.551ZM315.376 529.335L316.592 528.711C316.827 528.935 317.072 529.197 317.328 529.495C317.584 529.783 317.776 530.039 317.904 530.263L316.624 530.983C316.496 530.759 316.309 530.493 316.064 530.183C315.829 529.874 315.6 529.591 315.376 529.335ZM307.28 521.399H320.8V535.767H318.752V523.159H309.232V535.767H307.28V521.399ZM308.352 533.207H319.696V534.983H308.352V533.207Z" fill="#0069F2"/>
</g>
<g filter="url(#filter16_d_137_349)">
<path d="M306.064 556.359L296.064 546.359L316.064 546.359L306.064 556.359Z" fill="white"/>
</g>
<g filter="url(#filter17_d_137_349)">
<path d="M234.564 421.668C234.564 419.459 236.355 417.668 238.564 417.668H262.564C264.773 417.668 266.564 419.459 266.564 421.668V445.668C266.564 447.877 264.773 449.668 262.564 449.668H238.564C236.355 449.668 234.564 447.877 234.564 445.668V421.668Z" fill="#0167EE"/>
<path d="M250.564 436.669C249.971 436.669 249.391 436.845 248.897 437.174C248.404 437.504 248.019 437.973 247.792 438.521C247.565 439.069 247.506 439.672 247.622 440.254C247.737 440.836 248.023 441.371 248.443 441.79C248.862 442.21 249.397 442.496 249.979 442.611C250.561 442.727 251.164 442.668 251.712 442.441C252.26 442.213 252.729 441.829 253.058 441.336C253.388 440.842 253.564 440.262 253.564 439.669C253.564 438.873 253.248 438.11 252.685 437.548C252.123 436.985 251.36 436.669 250.564 436.669ZM250.564 440.669C250.366 440.669 250.173 440.61 250.008 440.5C249.844 440.39 249.716 440.234 249.64 440.052C249.564 439.869 249.545 439.668 249.583 439.474C249.622 439.28 249.717 439.102 249.857 438.962C249.997 438.822 250.175 438.727 250.369 438.688C250.563 438.65 250.764 438.669 250.947 438.745C251.129 438.821 251.286 438.949 251.395 439.113C251.505 439.278 251.564 439.471 251.564 439.669C251.564 439.934 251.459 440.188 251.271 440.376C251.084 440.564 250.829 440.669 250.564 440.669ZM250.564 432.669C248.709 432.675 246.931 433.412 245.614 434.719C245.428 434.906 245.323 435.16 245.323 435.424C245.323 435.688 245.428 435.942 245.614 436.129C245.801 436.315 246.055 436.42 246.319 436.42C246.583 436.42 246.837 436.315 247.024 436.129C247.488 435.663 248.04 435.294 248.648 435.042C249.255 434.79 249.906 434.66 250.564 434.66C251.222 434.66 251.873 434.79 252.48 435.042C253.088 435.294 253.64 435.663 254.104 436.129C254.289 436.317 254.54 436.425 254.804 436.429C255.007 436.441 255.209 436.39 255.382 436.284C255.556 436.179 255.693 436.022 255.775 435.837C255.858 435.651 255.882 435.445 255.844 435.245C255.806 435.045 255.709 434.862 255.564 434.719C254.906 434.066 254.126 433.548 253.268 433.197C252.41 432.845 251.491 432.666 250.564 432.669ZM250.564 428.669C247.648 428.677 244.853 429.834 242.784 431.889C242.691 431.982 242.617 432.093 242.566 432.215C242.516 432.336 242.49 432.467 242.49 432.599C242.49 432.865 242.596 433.121 242.784 433.309C242.972 433.497 243.228 433.603 243.494 433.603C243.76 433.603 244.016 433.497 244.204 433.309C245.892 431.624 248.179 430.677 250.564 430.677C252.949 430.677 255.236 431.624 256.924 433.309C257.017 433.402 257.128 433.475 257.25 433.525C257.372 433.574 257.502 433.6 257.634 433.599C257.766 433.6 257.896 433.574 258.018 433.525C258.14 433.475 258.251 433.402 258.344 433.309C258.438 433.216 258.512 433.105 258.563 432.983C258.614 432.862 258.64 432.731 258.64 432.599C258.64 432.467 258.614 432.336 258.563 432.214C258.512 432.092 258.438 431.982 258.344 431.889C256.275 429.834 253.48 428.677 250.564 428.669ZM261.174 429.059C259.781 427.665 258.127 426.559 256.306 425.805C254.486 425.05 252.535 424.662 250.564 424.662C248.593 424.662 246.642 425.05 244.822 425.805C243.001 426.559 241.347 427.665 239.954 429.059C239.766 429.247 239.66 429.503 239.66 429.769C239.66 430.035 239.766 430.291 239.954 430.479C240.142 430.667 240.398 430.773 240.664 430.773C240.93 430.773 241.186 430.667 241.374 430.479C243.812 428.042 247.117 426.674 250.564 426.674C254.011 426.674 257.316 428.042 259.754 430.479C259.847 430.573 259.958 430.647 260.079 430.698C260.201 430.749 260.332 430.775 260.464 430.775C260.596 430.775 260.727 430.749 260.849 430.698C260.97 430.647 261.081 430.573 261.174 430.479C261.268 430.386 261.342 430.275 261.393 430.153C261.444 430.032 261.47 429.901 261.47 429.769C261.47 429.637 261.444 429.506 261.393 429.384C261.342 429.262 261.268 429.152 261.174 429.059Z" fill="white"/>
</g>
<g filter="url(#filter18_d_137_349)">
<path d="M250.564 457.668L242.564 449.668L258.564 449.668L250.564 457.668Z" fill="#0167EE"/>
</g>
<path d="M88.8252 132.929H101.625V134.833H88.8252V132.929ZM87.9772 139.713H102.553V141.649H87.9772V139.713ZM89.7852 135.873L91.5452 135.345C91.7265 135.697 91.9025 136.07 92.0732 136.465C92.2545 136.849 92.4092 137.233 92.5372 137.617C92.6759 137.99 92.7772 138.326 92.8412 138.625L90.9692 139.217C90.9159 138.918 90.8305 138.582 90.7132 138.209C90.5959 137.825 90.4572 137.43 90.2972 137.025C90.1372 136.609 89.9665 136.225 89.7852 135.873ZM98.9052 135.297L100.969 135.825C100.777 136.241 100.575 136.652 100.361 137.057C100.159 137.462 99.9559 137.852 99.7532 138.225C99.5612 138.588 99.3745 138.908 99.1932 139.185L97.5132 138.689C97.6839 138.38 97.8545 138.028 98.0252 137.633C98.2065 137.238 98.3719 136.838 98.5212 136.433C98.6812 136.028 98.8092 135.649 98.9052 135.297ZM94.2332 133.729H96.2332V146.961H94.2332V133.729ZM109.001 138.993H113.129V140.497H109.001V138.993ZM109.001 141.697H113.145V143.201H109.001V141.697ZM105.913 144.385H116.713V146.161H105.913V144.385ZM104.697 136.113H117.769V146.977H115.817V137.873H106.553V146.977H104.697V136.113ZM108.185 137.281H109.897V145.185H108.185V137.281ZM112.361 137.281H114.089V145.169H112.361V137.281ZM110.009 133.697L112.265 134.177C112.073 134.764 111.887 135.35 111.705 135.937C111.535 136.513 111.369 137.009 111.209 137.425L109.465 136.961C109.54 136.652 109.615 136.31 109.689 135.937C109.764 135.553 109.828 135.169 109.881 134.785C109.945 134.39 109.988 134.028 110.009 133.697ZM104.041 132.865H118.505V134.673H104.041V132.865ZM120.393 132.561H134.121V146.977H132.185V134.273H122.233V146.977H120.393V132.561ZM121.529 144.721H133.225V146.401H121.529V144.721ZM124.969 141.265L125.737 140.177C126.185 140.262 126.655 140.374 127.145 140.513C127.647 140.641 128.121 140.78 128.569 140.929C129.028 141.078 129.417 141.228 129.737 141.377L128.953 142.561C128.644 142.412 128.26 142.257 127.801 142.097C127.343 141.926 126.868 141.766 126.377 141.617C125.887 141.468 125.417 141.35 124.969 141.265ZM125.737 134.225L127.305 134.769C126.996 135.238 126.633 135.702 126.217 136.161C125.801 136.609 125.364 137.03 124.905 137.425C124.447 137.82 123.999 138.166 123.561 138.465C123.476 138.348 123.353 138.22 123.193 138.081C123.044 137.942 122.889 137.804 122.729 137.665C122.569 137.516 122.425 137.398 122.297 137.313C122.959 136.94 123.599 136.481 124.217 135.937C124.847 135.382 125.353 134.812 125.737 134.225ZM129.977 135.505H130.281L130.553 135.425L131.625 136.065C131.209 136.716 130.676 137.318 130.025 137.873C129.385 138.417 128.676 138.908 127.897 139.345C127.119 139.772 126.303 140.145 125.449 140.465C124.607 140.785 123.764 141.046 122.921 141.249C122.868 141.1 122.788 140.929 122.681 140.737C122.585 140.534 122.479 140.342 122.361 140.161C122.255 139.969 122.148 139.814 122.041 139.697C122.841 139.548 123.641 139.345 124.441 139.089C125.252 138.833 126.015 138.534 126.729 138.193C127.455 137.852 128.095 137.473 128.649 137.057C129.215 136.641 129.657 136.198 129.977 135.729V135.505ZM125.433 136.609C125.903 137.089 126.505 137.526 127.241 137.921C127.977 138.316 128.788 138.657 129.673 138.945C130.569 139.233 131.476 139.457 132.393 139.617C132.223 139.788 132.031 140.017 131.817 140.305C131.615 140.582 131.455 140.828 131.337 141.041C130.399 140.838 129.476 140.556 128.569 140.193C127.663 139.83 126.82 139.398 126.041 138.897C125.263 138.396 124.596 137.846 124.041 137.249L125.433 136.609ZM125.801 135.505H130.521V136.913H124.825L125.801 135.505ZM123.497 143.313L124.361 142.065C124.905 142.118 125.471 142.198 126.057 142.305C126.655 142.401 127.247 142.513 127.833 142.641C128.42 142.758 128.975 142.886 129.497 143.025C130.02 143.164 130.489 143.297 130.905 143.425L130.057 144.785C129.535 144.593 128.9 144.401 128.153 144.209C127.417 144.006 126.644 143.83 125.833 143.681C125.023 143.521 124.244 143.398 123.497 143.313Z" fill="#0069F2"/>
<rect x="92.7412" y="75.0371" width="38" height="39" rx="19" fill="white"/>
<rect x="92.7412" y="75.0371" width="38" height="39" rx="19" stroke="#0069F2" stroke-width="3"/>
<path d="M101.341 90.7971C101.408 89.4638 101.875 88.4371 102.741 87.7171C103.621 86.9838 104.775 86.6171 106.201 86.6171C107.175 86.6171 108.008 86.7904 108.701 87.1371C109.395 87.4704 109.915 87.9304 110.261 88.5171C110.621 89.0904 110.801 89.7438 110.801 90.4771C110.801 91.3171 110.581 92.0304 110.141 92.6171C109.715 93.1904 109.201 93.5771 108.601 93.7771V93.8571C109.375 94.0971 109.975 94.5238 110.401 95.1371C110.841 95.7504 111.061 96.5371 111.061 97.4971C111.061 98.2971 110.875 99.0104 110.501 99.6371C110.141 100.264 109.601 100.757 108.881 101.117C108.175 101.464 107.321 101.637 106.321 101.637C104.815 101.637 103.588 101.257 102.641 100.497C101.695 99.7371 101.195 98.6171 101.141 97.1371H103.861C103.888 97.7904 104.108 98.3171 104.521 98.7171C104.948 99.1038 105.528 99.2971 106.261 99.2971C106.941 99.2971 107.461 99.1104 107.821 98.7371C108.195 98.3504 108.381 97.8571 108.381 97.2571C108.381 96.4571 108.128 95.8838 107.621 95.5371C107.115 95.1904 106.328 95.0171 105.261 95.0171H104.681V92.7171H105.261C107.155 92.7171 108.101 92.0838 108.101 90.8171C108.101 90.2438 107.928 89.7971 107.581 89.4771C107.248 89.1571 106.761 88.9971 106.121 88.9971C105.495 88.9971 105.008 89.1704 104.661 89.5171C104.328 89.8504 104.135 90.2771 104.081 90.7971H101.341ZM122.214 87.5771V89.8371H116.394V93.4171H120.854V95.6371H116.394V101.537H113.594V87.5771H122.214Z" fill="#0069F2"/>
<g filter="url(#filter19_d_137_349)">
<path d="M394.524 515.359C394.524 513.15 396.315 511.359 398.524 511.359H422.524C424.733 511.359 426.524 513.15 426.524 515.359V543.359C426.524 545.569 424.733 547.359 422.524 547.359H398.524C396.315 547.359 394.524 545.569 394.524 543.359V515.359Z" fill="#0069F2"/>
<path d="M403.244 527.343H417.82V528.863H403.244V527.343ZM404.988 525.199H416.22V526.607H404.988V525.199ZM404.172 523.007H417.004V524.511H404.172V523.007ZM405.404 531.823H415.644V533.343H405.404V531.823ZM412.748 525.791C413.079 526.538 413.516 527.247 414.06 527.919C414.604 528.591 415.228 529.189 415.932 529.711C416.636 530.234 417.393 530.655 418.204 530.975C418.065 531.093 417.911 531.247 417.74 531.439C417.58 531.621 417.425 531.813 417.276 532.015C417.137 532.218 417.015 532.405 416.908 532.575C416.055 532.17 415.265 531.653 414.54 531.023C413.815 530.394 413.169 529.679 412.604 528.879C412.039 528.079 411.553 527.215 411.148 526.287L412.748 525.791ZM409.548 530.287H411.452V536.783H409.548V530.287ZM412.428 529.279L413.692 530.527C413.084 530.666 412.417 530.778 411.692 530.863C410.977 530.949 410.247 531.018 409.5 531.071C408.753 531.114 408.028 531.146 407.324 531.167C407.303 530.975 407.249 530.751 407.164 530.495C407.079 530.239 406.993 530.026 406.908 529.855C407.559 529.823 408.225 529.781 408.908 529.727C409.591 529.674 410.236 529.61 410.844 529.535C411.463 529.461 411.991 529.375 412.428 529.279ZM409.308 532.351L410.796 532.991C410.348 533.535 409.815 534.042 409.196 534.511C408.577 534.981 407.905 535.402 407.18 535.775C406.465 536.149 405.745 536.447 405.02 536.671C404.924 536.522 404.807 536.351 404.668 536.159C404.54 535.978 404.396 535.797 404.236 535.615C404.087 535.434 403.943 535.279 403.804 535.151C404.519 534.981 405.223 534.757 405.916 534.479C406.62 534.191 407.265 533.866 407.852 533.503C408.449 533.141 408.935 532.757 409.308 532.351ZM411.788 532.495C412.172 532.869 412.657 533.226 413.244 533.567C413.831 533.909 414.465 534.218 415.148 534.495C415.831 534.762 416.513 534.975 417.196 535.135C417.068 535.253 416.924 535.402 416.764 535.583C416.615 535.765 416.471 535.946 416.332 536.127C416.193 536.319 416.076 536.495 415.98 536.655C415.297 536.431 414.609 536.138 413.916 535.775C413.223 535.413 412.572 535.002 411.964 534.543C411.356 534.085 410.833 533.605 410.396 533.103L411.788 532.495ZM409.308 521.759L411.228 521.967C411.047 523.002 410.775 524.026 410.412 525.039C410.06 526.053 409.596 527.029 409.02 527.967C408.455 528.895 407.756 529.765 406.924 530.575C406.103 531.375 405.137 532.09 404.028 532.719C403.953 532.559 403.847 532.383 403.708 532.191C403.569 531.999 403.42 531.818 403.26 531.647C403.1 531.466 402.951 531.322 402.812 531.215C403.857 530.661 404.759 530.031 405.516 529.327C406.284 528.613 406.924 527.845 407.436 527.023C407.948 526.191 408.353 525.333 408.652 524.447C408.951 523.562 409.169 522.666 409.308 521.759Z" fill="white"/>
</g>
<g filter="url(#filter20_d_137_349)">
<path d="M410.524 557.359L400.524 547.359L420.524 547.359L410.524 557.359Z" fill="#0069F2"/>
</g>
<g filter="url(#filter21_d_137_349)">
<path d="M433.606 297.65C433.606 295.441 435.397 293.65 437.606 293.65H461.606C463.815 293.65 465.606 295.441 465.606 297.65V321.65C465.606 323.86 463.815 325.65 461.606 325.65H437.606C435.397 325.65 433.606 323.86 433.606 321.65V297.65Z" fill="#0167EE"/>
<path d="M444.606 299.65L448.606 303.65H445.606V307.65H443.606V303.65H440.606L444.606 299.65ZM454.606 307.65L450.606 303.65H453.606V299.65H455.606V303.65H458.606L454.606 307.65ZM444.606 309.65H454.606C455.136 309.65 455.645 309.861 456.02 310.236C456.395 310.611 456.606 311.12 456.606 311.65V317.65C456.606 318.181 456.395 318.69 456.02 319.065C455.645 319.44 455.136 319.65 454.606 319.65H444.606C444.075 319.65 443.567 319.44 443.191 319.065C442.816 318.69 442.606 318.181 442.606 317.65V311.65C442.606 311.12 442.816 310.611 443.191 310.236C443.567 309.861 444.075 309.65 444.606 309.65ZM444.606 311.65V317.65H454.606V311.65H444.606Z" fill="white"/>
</g>
<g filter="url(#filter22_d_137_349)">
<path d="M449.606 333.65L441.606 325.65L457.606 325.65L449.606 333.65Z" fill="#0167EE"/>
</g>
<g filter="url(#filter23_d_137_349)">
<path d="M264.564 111.537C264.564 109.328 266.355 107.537 268.564 107.537H292.564C294.773 107.537 296.564 109.328 296.564 111.537V135.537C296.564 137.746 294.773 139.537 292.564 139.537H268.564C266.355 139.537 264.564 137.746 264.564 135.537V111.537Z" fill="#0167EE"/>
<path d="M275.564 113.537L279.564 117.537H276.564V121.537H274.564V117.537H271.564L275.564 113.537ZM285.564 121.537L281.564 117.537H284.564V113.537H286.564V117.537H289.564L285.564 121.537ZM275.564 123.537H285.564C286.094 123.537 286.603 123.748 286.978 124.123C287.353 124.498 287.564 125.007 287.564 125.537V131.537C287.564 132.068 287.353 132.576 286.978 132.951C286.603 133.326 286.094 133.537 285.564 133.537H275.564C275.034 133.537 274.525 133.326 274.15 132.951C273.775 132.576 273.564 132.068 273.564 131.537V125.537C273.564 125.007 273.775 124.498 274.15 124.123C274.525 123.748 275.034 123.537 275.564 123.537ZM275.564 125.537V131.537H285.564V125.537H275.564Z" fill="white"/>
</g>
<g filter="url(#filter24_d_137_349)">
<path d="M280.564 147.537L272.564 139.537L288.564 139.537L280.564 147.537Z" fill="#0167EE"/>
</g>
<defs>
<filter id="filter0_d_137_349" x="0.346191" y="0.429688" width="670.527" height="722.045" filterUnits="userSpaceOnUse" color-interpolation-filters="sRGB">
<feFlood flood-opacity="0" result="BackgroundImageFix"/>
<feColorMatrix in="SourceAlpha" type="matrix" values="0 0 0 0 0 0 0 0 0 0 0 0 0 0 0 0 0 0 127 0" result="hardAlpha"/>
<feOffset dx="10" dy="14"/>
<feGaussianBlur stdDeviation="28"/>
<feComposite in2="hardAlpha" operator="out"/>
<feColorMatrix type="matrix" values="0 0 0 0 0 0 0 0 0 0 0 0 0 0 0 0 0 0 0.12 0"/>
<feBlend mode="normal" in2="BackgroundImageFix" result="effect1_dropShadow_137_349"/>
<feBlend mode="normal" in="SourceGraphic" in2="effect1_dropShadow_137_349" result="shape"/>
</filter>
<filter id="filter1_d_137_349" x="109.913" y="193.615" width="456.324" height="282.461" filterUnits="userSpaceOnUse" color-interpolation-filters="sRGB">
<feFlood flood-opacity="0" result="BackgroundImageFix"/>
<feColorMatrix in="SourceAlpha" type="matrix" values="0 0 0 0 0 0 0 0 0 0 0 0 0 0 0 0 0 0 127 0" result="hardAlpha"/>
<feOffset dx="10" dy="14"/>
<feGaussianBlur stdDeviation="28"/>
<feComposite in2="hardAlpha" operator="out"/>
<feColorMatrix type="matrix" values="0 0 0 0 0.764706 0 0 0 0 0.890196 0 0 0 0 0.937255 0 0 0 0.4 0"/>
<feBlend mode="normal" in2="BackgroundImageFix" result="effect1_dropShadow_137_349"/>
<feBlend mode="normal" in="SourceGraphic" in2="effect1_dropShadow_137_349" result="shape"/>
</filter>
<filter id="filter2_d_137_349" x="311.29" y="457.238" width="300.67" height="196.941" filterUnits="userSpaceOnUse" color-interpolation-filters="sRGB">
<feFlood flood-opacity="0" result="BackgroundImageFix"/>
<feColorMatrix in="SourceAlpha" type="matrix" values="0 0 0 0 0 0 0 0 0 0 0 0 0 0 0 0 0 0 127 0" result="hardAlpha"/>
<feOffset dx="10" dy="14"/>
<feGaussianBlur stdDeviation="28"/>
<feComposite in2="hardAlpha" operator="out"/>
<feColorMatrix type="matrix" values="0 0 0 0 0.764706 0 0 0 0 0.890196 0 0 0 0 0.937255 0 0 0 0.4 0"/>
<feBlend mode="normal" in2="BackgroundImageFix" result="effect1_dropShadow_137_349"/>
<feBlend mode="normal" in="SourceGraphic" in2="effect1_dropShadow_137_349" result="shape"/>
</filter>
<filter id="filter3_d_137_349" x="112.748" y="460.629" width="304.797" height="195.75" filterUnits="userSpaceOnUse" color-interpolation-filters="sRGB">
<feFlood flood-opacity="0" result="BackgroundImageFix"/>
<feColorMatrix in="SourceAlpha" type="matrix" values="0 0 0 0 0 0 0 0 0 0 0 0 0 0 0 0 0 0 127 0" result="hardAlpha"/>
<feOffset dx="10" dy="14"/>
<feGaussianBlur stdDeviation="28"/>
<feComposite in2="hardAlpha" operator="out"/>
<feColorMatrix type="matrix" values="0 0 0 0 0.764706 0 0 0 0 0.890196 0 0 0 0 0.937255 0 0 0 0.4 0"/>
<feBlend mode="normal" in2="BackgroundImageFix" result="effect1_dropShadow_137_349"/>
<feBlend mode="normal" in="SourceGraphic" in2="effect1_dropShadow_137_349" result="shape"/>
</filter>
<filter id="filter4_d_137_349" x="61.6431" y="112.309" width="513.224" height="246.807" filterUnits="userSpaceOnUse" color-interpolation-filters="sRGB">
<feFlood flood-opacity="0" result="BackgroundImageFix"/>
<feColorMatrix in="SourceAlpha" type="matrix" values="0 0 0 0 0 0 0 0 0 0 0 0 0 0 0 0 0 0 127 0" result="hardAlpha"/>
<feOffset dx="10" dy="14"/>
<feGaussianBlur stdDeviation="28"/>
<feComposite in2="hardAlpha" operator="out"/>
<feColorMatrix type="matrix" values="0 0 0 0 0.764706 0 0 0 0 0.890196 0 0 0 0 0.937255 0 0 0 0.4 0"/>
<feBlend mode="normal" in2="BackgroundImageFix" result="effect1_dropShadow_137_349"/>
<feBlend mode="normal" in="SourceGraphic" in2="effect1_dropShadow_137_349" result="shape"/>
</filter>
<filter id="filter5_d_137_349" x="256.105" y="255.955" width="120" height="76" filterUnits="userSpaceOnUse" color-interpolation-filters="sRGB">
<feFlood flood-opacity="0" result="BackgroundImageFix"/>
<feColorMatrix in="SourceAlpha" type="matrix" values="0 0 0 0 0 0 0 0 0 0 0 0 0 0 0 0 0 0 127 0" result="hardAlpha"/>
<feOffset dy="10"/>
<feGaussianBlur stdDeviation="10"/>
<feComposite in2="hardAlpha" operator="out"/>
<feColorMatrix type="matrix" values="0 0 0 0 0.764706 0 0 0 0 0.890196 0 0 0 0 0.937255 0 0 0 0.2 0"/>
<feBlend mode="normal" in2="BackgroundImageFix" result="effect1_dropShadow_137_349"/>
<feBlend mode="normal" in="SourceGraphic" in2="effect1_dropShadow_137_349" result="shape"/>
</filter>
<filter id="filter6_d_137_349" x="286.105" y="291.955" width="60" height="50" filterUnits="userSpaceOnUse" color-interpolation-filters="sRGB">
<feFlood flood-opacity="0" result="BackgroundImageFix"/>
<feColorMatrix in="SourceAlpha" type="matrix" values="0 0 0 0 0 0 0 0 0 0 0 0 0 0 0 0 0 0 127 0" result="hardAlpha"/>
<feOffset dy="10"/>
<feGaussianBlur stdDeviation="10"/>
<feComposite in2="hardAlpha" operator="out"/>
<feColorMatrix type="matrix" values="0 0 0 0 0.764706 0 0 0 0 0.890196 0 0 0 0 0.937255 0 0 0 0.2 0"/>
<feBlend mode="normal" in2="BackgroundImageFix" result="effect1_dropShadow_137_349"/>
<feBlend mode="normal" in="SourceGraphic" in2="effect1_dropShadow_137_349" result="shape"/>
</filter>
<filter id="filter7_d_137_349" x="149.524" y="465.168" width="88" height="76" filterUnits="userSpaceOnUse" color-interpolation-filters="sRGB">
<feFlood flood-opacity="0" result="BackgroundImageFix"/>
<feColorMatrix in="SourceAlpha" type="matrix" values="0 0 0 0 0 0 0 0 0 0 0 0 0 0 0 0 0 0 127 0" result="hardAlpha"/>
<feOffset dy="10"/>
<feGaussianBlur stdDeviation="10"/>
<feComposite in2="hardAlpha" operator="out"/>
<feColorMatrix type="matrix" values="0 0 0 0 0.764706 0 0 0 0 0.890196 0 0 0 0 0.937255 0 0 0 0.2 0"/>
<feBlend mode="normal" in2="BackgroundImageFix" result="effect1_dropShadow_137_349"/>
<feBlend mode="normal" in="SourceGraphic" in2="effect1_dropShadow_137_349" result="shape"/>
</filter>
<filter id="filter8_d_137_349" x="163.524" y="501.168" width="60" height="50" filterUnits="userSpaceOnUse" color-interpolation-filters="sRGB">
<feFlood flood-opacity="0" result="BackgroundImageFix"/>
<feColorMatrix in="SourceAlpha" type="matrix" values="0 0 0 0 0 0 0 0 0 0 0 0 0 0 0 0 0 0 127 0" result="hardAlpha"/>
<feOffset dy="10"/>
<feGaussianBlur stdDeviation="10"/>
<feComposite in2="hardAlpha" operator="out"/>
<feColorMatrix type="matrix" values="0 0 0 0 0.764706 0 0 0 0 0.890196 0 0 0 0 0.937255 0 0 0 0.2 0"/>
<feBlend mode="normal" in2="BackgroundImageFix" result="effect1_dropShadow_137_349"/>
<feBlend mode="normal" in="SourceGraphic" in2="effect1_dropShadow_137_349" result="shape"/>
</filter>
<filter id="filter9_d_137_349" x="458.145" y="448.264" width="72" height="76" filterUnits="userSpaceOnUse" color-interpolation-filters="sRGB">
<feFlood flood-opacity="0" result="BackgroundImageFix"/>
<feColorMatrix in="SourceAlpha" type="matrix" values="0 0 0 0 0 0 0 0 0 0 0 0 0 0 0 0 0 0 127 0" result="hardAlpha"/>
<feOffset dy="10"/>
<feGaussianBlur stdDeviation="10"/>
<feComposite in2="hardAlpha" operator="out"/>
<feColorMatrix type="matrix" values="0 0 0 0 0.764706 0 0 0 0 0.890196 0 0 0 0 0.937255 0 0 0 0.2 0"/>
<feBlend mode="normal" in2="BackgroundImageFix" result="effect1_dropShadow_137_349"/>
<feBlend mode="normal" in="SourceGraphic" in2="effect1_dropShadow_137_349" result="shape"/>
</filter>
<filter id="filter10_d_137_349" x="464.145" y="484.264" width="60" height="50" filterUnits="userSpaceOnUse" color-interpolation-filters="sRGB">
<feFlood flood-opacity="0" result="BackgroundImageFix"/>
<feColorMatrix in="SourceAlpha" type="matrix" values="0 0 0 0 0 0 0 0 0 0 0 0 0 0 0 0 0 0 127 0" result="hardAlpha"/>
<feOffset dy="10"/>
<feGaussianBlur stdDeviation="10"/>
<feComposite in2="hardAlpha" operator="out"/>
<feColorMatrix type="matrix" values="0 0 0 0 0.764706 0 0 0 0 0.890196 0 0 0 0 0.937255 0 0 0 0.2 0"/>
<feBlend mode="normal" in2="BackgroundImageFix" result="effect1_dropShadow_137_349"/>
<feBlend mode="normal" in="SourceGraphic" in2="effect1_dropShadow_137_349" result="shape"/>
</filter>
<filter id="filter11_d_137_349" x="377.105" y="309.537" width="72" height="72" filterUnits="userSpaceOnUse" color-interpolation-filters="sRGB">
<feFlood flood-opacity="0" result="BackgroundImageFix"/>
<feColorMatrix in="SourceAlpha" type="matrix" values="0 0 0 0 0 0 0 0 0 0 0 0 0 0 0 0 0 0 127 0" result="hardAlpha"/>
<feOffset dy="10"/>
<feGaussianBlur stdDeviation="10"/>
<feComposite in2="hardAlpha" operator="out"/>
<feColorMatrix type="matrix" values="0 0 0 0 0.430518 0 0 0 0 0 0 0 0 0 0 0 0 0 0.15 0"/>
<feBlend mode="normal" in2="BackgroundImageFix" result="effect1_dropShadow_137_349"/>
<feBlend mode="normal" in="SourceGraphic" in2="effect1_dropShadow_137_349" result="shape"/>
</filter>
<filter id="filter12_d_137_349" x="385.105" y="341.537" width="56" height="50" filterUnits="userSpaceOnUse" color-interpolation-filters="sRGB">
<feFlood flood-opacity="0" result="BackgroundImageFix"/>
<feColorMatrix in="SourceAlpha" type="matrix" values="0 0 0 0 0 0 0 0 0 0 0 0 0 0 0 0 0 0 127 0" result="hardAlpha"/>
<feOffset dy="10"/>
<feGaussianBlur stdDeviation="10"/>
<feComposite in2="hardAlpha" operator="out"/>
<feColorMatrix type="matrix" values="0 0 0 0 0.430518 0 0 0 0 0 0 0 0 0 0 0 0 0 0.15 0"/>
<feBlend mode="normal" in2="BackgroundImageFix" result="effect1_dropShadow_137_349"/>
<feBlend mode="normal" in="SourceGraphic" in2="effect1_dropShadow_137_349" result="shape"/>
</filter>
<filter id="filter13_d_137_349" x="333.564" y="97.5371" width="72" height="72" filterUnits="userSpaceOnUse" color-interpolation-filters="sRGB">
<feFlood flood-opacity="0" result="BackgroundImageFix"/>
<feColorMatrix in="SourceAlpha" type="matrix" values="0 0 0 0 0 0 0 0 0 0 0 0 0 0 0 0 0 0 127 0" result="hardAlpha"/>
<feOffset dy="10"/>
<feGaussianBlur stdDeviation="10"/>
<feComposite in2="hardAlpha" operator="out"/>
<feColorMatrix type="matrix" values="0 0 0 0 0.430518 0 0 0 0 0 0 0 0 0 0 0 0 0 0.15 0"/>
<feBlend mode="normal" in2="BackgroundImageFix" result="effect1_dropShadow_137_349"/>
<feBlend mode="normal" in="SourceGraphic" in2="effect1_dropShadow_137_349" result="shape"/>
</filter>
<filter id="filter14_d_137_349" x="341.564" y="129.537" width="56" height="50" filterUnits="userSpaceOnUse" color-interpolation-filters="sRGB">
<feFlood flood-opacity="0" result="BackgroundImageFix"/>
<feColorMatrix in="SourceAlpha" type="matrix" values="0 0 0 0 0 0 0 0 0 0 0 0 0 0 0 0 0 0 127 0" result="hardAlpha"/>
<feOffset dy="10"/>
<feGaussianBlur stdDeviation="10"/>
<feComposite in2="hardAlpha" operator="out"/>
<feColorMatrix type="matrix" values="0 0 0 0 0.430518 0 0 0 0 0 0 0 0 0 0 0 0 0 0.15 0"/>
<feBlend mode="normal" in2="BackgroundImageFix" result="effect1_dropShadow_137_349"/>
<feBlend mode="normal" in="SourceGraphic" in2="effect1_dropShadow_137_349" result="shape"/>
</filter>
<filter id="filter15_d_137_349" x="262.064" y="500.359" width="88" height="76" filterUnits="userSpaceOnUse" color-interpolation-filters="sRGB">
<feFlood flood-opacity="0" result="BackgroundImageFix"/>
<feColorMatrix in="SourceAlpha" type="matrix" values="0 0 0 0 0 0 0 0 0 0 0 0 0 0 0 0 0 0 127 0" result="hardAlpha"/>
<feOffset dy="10"/>
<feGaussianBlur stdDeviation="10"/>
<feComposite in2="hardAlpha" operator="out"/>
<feColorMatrix type="matrix" values="0 0 0 0 0.764706 0 0 0 0 0.890196 0 0 0 0 0.937255 0 0 0 0.2 0"/>
<feBlend mode="normal" in2="BackgroundImageFix" result="effect1_dropShadow_137_349"/>
<feBlend mode="normal" in="SourceGraphic" in2="effect1_dropShadow_137_349" result="shape"/>
</filter>
<filter id="filter16_d_137_349" x="276.064" y="536.359" width="60" height="50" filterUnits="userSpaceOnUse" color-interpolation-filters="sRGB">
<feFlood flood-opacity="0" result="BackgroundImageFix"/>
<feColorMatrix in="SourceAlpha" type="matrix" values="0 0 0 0 0 0 0 0 0 0 0 0 0 0 0 0 0 0 127 0" result="hardAlpha"/>
<feOffset dy="10"/>
<feGaussianBlur stdDeviation="10"/>
<feComposite in2="hardAlpha" operator="out"/>
<feColorMatrix type="matrix" values="0 0 0 0 0.764706 0 0 0 0 0.890196 0 0 0 0 0.937255 0 0 0 0.2 0"/>
<feBlend mode="normal" in2="BackgroundImageFix" result="effect1_dropShadow_137_349"/>
<feBlend mode="normal" in="SourceGraphic" in2="effect1_dropShadow_137_349" result="shape"/>
</filter>
<filter id="filter17_d_137_349" x="214.564" y="407.668" width="72" height="72" filterUnits="userSpaceOnUse" color-interpolation-filters="sRGB">
<feFlood flood-opacity="0" result="BackgroundImageFix"/>
<feColorMatrix in="SourceAlpha" type="matrix" values="0 0 0 0 0 0 0 0 0 0 0 0 0 0 0 0 0 0 127 0" result="hardAlpha"/>
<feOffset dy="10"/>
<feGaussianBlur stdDeviation="10"/>
<feComposite in2="hardAlpha" operator="out"/>
<feColorMatrix type="matrix" values="0 0 0 0 0.430518 0 0 0 0 0 0 0 0 0 0 0 0 0 0.15 0"/>
<feBlend mode="normal" in2="BackgroundImageFix" result="effect1_dropShadow_137_349"/>
<feBlend mode="normal" in="SourceGraphic" in2="effect1_dropShadow_137_349" result="shape"/>
</filter>
<filter id="filter18_d_137_349" x="222.564" y="439.668" width="56" height="48" filterUnits="userSpaceOnUse" color-interpolation-filters="sRGB">
<feFlood flood-opacity="0" result="BackgroundImageFix"/>
<feColorMatrix in="SourceAlpha" type="matrix" values="0 0 0 0 0 0 0 0 0 0 0 0 0 0 0 0 0 0 127 0" result="hardAlpha"/>
<feOffset dy="10"/>
<feGaussianBlur stdDeviation="10"/>
<feComposite in2="hardAlpha" operator="out"/>
<feColorMatrix type="matrix" values="0 0 0 0 0.430518 0 0 0 0 0 0 0 0 0 0 0 0 0 0.15 0"/>
<feBlend mode="normal" in2="BackgroundImageFix" result="effect1_dropShadow_137_349"/>
<feBlend mode="normal" in="SourceGraphic" in2="effect1_dropShadow_137_349" result="shape"/>
</filter>
<filter id="filter19_d_137_349" x="374.524" y="501.359" width="72" height="76" filterUnits="userSpaceOnUse" color-interpolation-filters="sRGB">
<feFlood flood-opacity="0" result="BackgroundImageFix"/>
<feColorMatrix in="SourceAlpha" type="matrix" values="0 0 0 0 0 0 0 0 0 0 0 0 0 0 0 0 0 0 127 0" result="hardAlpha"/>
<feOffset dy="10"/>
<feGaussianBlur stdDeviation="10"/>
<feComposite in2="hardAlpha" operator="out"/>
<feColorMatrix type="matrix" values="0 0 0 0 0.430518 0 0 0 0 0 0 0 0 0 0 0 0 0 0.15 0"/>
<feBlend mode="normal" in2="BackgroundImageFix" result="effect1_dropShadow_137_349"/>
<feBlend mode="normal" in="SourceGraphic" in2="effect1_dropShadow_137_349" result="shape"/>
</filter>
<filter id="filter20_d_137_349" x="380.524" y="537.359" width="60" height="50" filterUnits="userSpaceOnUse" color-interpolation-filters="sRGB">
<feFlood flood-opacity="0" result="BackgroundImageFix"/>
<feColorMatrix in="SourceAlpha" type="matrix" values="0 0 0 0 0 0 0 0 0 0 0 0 0 0 0 0 0 0 127 0" result="hardAlpha"/>
<feOffset dy="10"/>
<feGaussianBlur stdDeviation="10"/>
<feComposite in2="hardAlpha" operator="out"/>
<feColorMatrix type="matrix" values="0 0 0 0 0.430518 0 0 0 0 0 0 0 0 0 0 0 0 0 0.15 0"/>
<feBlend mode="normal" in2="BackgroundImageFix" result="effect1_dropShadow_137_349"/>
<feBlend mode="normal" in="SourceGraphic" in2="effect1_dropShadow_137_349" result="shape"/>
</filter>
<filter id="filter21_d_137_349" x="413.606" y="283.65" width="72" height="72" filterUnits="userSpaceOnUse" color-interpolation-filters="sRGB">
<feFlood flood-opacity="0" result="BackgroundImageFix"/>
<feColorMatrix in="SourceAlpha" type="matrix" values="0 0 0 0 0 0 0 0 0 0 0 0 0 0 0 0 0 0 127 0" result="hardAlpha"/>
<feOffset dy="10"/>
<feGaussianBlur stdDeviation="10"/>
<feComposite in2="hardAlpha" operator="out"/>
<feColorMatrix type="matrix" values="0 0 0 0 0.430518 0 0 0 0 0 0 0 0 0 0 0 0 0 0.15 0"/>
<feBlend mode="normal" in2="BackgroundImageFix" result="effect1_dropShadow_137_349"/>
<feBlend mode="normal" in="SourceGraphic" in2="effect1_dropShadow_137_349" result="shape"/>
</filter>
<filter id="filter22_d_137_349" x="421.606" y="315.65" width="56" height="48" filterUnits="userSpaceOnUse" color-interpolation-filters="sRGB">
<feFlood flood-opacity="0" result="BackgroundImageFix"/>
<feColorMatrix in="SourceAlpha" type="matrix" values="0 0 0 0 0 0 0 0 0 0 0 0 0 0 0 0 0 0 127 0" result="hardAlpha"/>
<feOffset dy="10"/>
<feGaussianBlur stdDeviation="10"/>
<feComposite in2="hardAlpha" operator="out"/>
<feColorMatrix type="matrix" values="0 0 0 0 0.430518 0 0 0 0 0 0 0 0 0 0 0 0 0 0.15 0"/>
<feBlend mode="normal" in2="BackgroundImageFix" result="effect1_dropShadow_137_349"/>
<feBlend mode="normal" in="SourceGraphic" in2="effect1_dropShadow_137_349" result="shape"/>
</filter>
<filter id="filter23_d_137_349" x="244.564" y="97.5371" width="72" height="72" filterUnits="userSpaceOnUse" color-interpolation-filters="sRGB">
<feFlood flood-opacity="0" result="BackgroundImageFix"/>
<feColorMatrix in="SourceAlpha" type="matrix" values="0 0 0 0 0 0 0 0 0 0 0 0 0 0 0 0 0 0 127 0" result="hardAlpha"/>
<feOffset dy="10"/>
<feGaussianBlur stdDeviation="10"/>
<feComposite in2="hardAlpha" operator="out"/>
<feColorMatrix type="matrix" values="0 0 0 0 0.430518 0 0 0 0 0 0 0 0 0 0 0 0 0 0.15 0"/>
<feBlend mode="normal" in2="BackgroundImageFix" result="effect1_dropShadow_137_349"/>
<feBlend mode="normal" in="SourceGraphic" in2="effect1_dropShadow_137_349" result="shape"/>
</filter>
<filter id="filter24_d_137_349" x="252.564" y="129.537" width="56" height="48" filterUnits="userSpaceOnUse" color-interpolation-filters="sRGB">
<feFlood flood-opacity="0" result="BackgroundImageFix"/>
<feColorMatrix in="SourceAlpha" type="matrix" values="0 0 0 0 0 0 0 0 0 0 0 0 0 0 0 0 0 0 127 0" result="hardAlpha"/>
<feOffset dy="10"/>
<feGaussianBlur stdDeviation="10"/>
<feComposite in2="hardAlpha" operator="out"/>
<feColorMatrix type="matrix" values="0 0 0 0 0.430518 0 0 0 0 0 0 0 0 0 0 0 0 0 0.15 0"/>
<feBlend mode="normal" in2="BackgroundImageFix" result="effect1_dropShadow_137_349"/>
<feBlend mode="normal" in="SourceGraphic" in2="effect1_dropShadow_137_349" result="shape"/>
</filter>
</defs>
</svg>
